<?xml version="1.0" encoding="utf-8"?>
<!-- Generator: Adobe Illustrator 16.0.3, SVG Export Plug-In . SVG Version: 6.00 Build 0)  -->
<!DOCTYPE svg PUBLIC "-//W3C//DTD SVG 1.1//EN" "http://www.w3.org/Graphics/SVG/1.1/DTD/svg11.dtd">
<svg version="1.1" id="Capa_1" xmlns="http://www.w3.org/2000/svg" xmlns:xlink="http://www.w3.org/1999/xlink" x="0px" y="0px"
	 width="221.038px" height="220.491px" viewBox="0 -137.622 221.038 220.491" enable-background="new 0 -137.622 221.038 220.491"
	 xml:space="preserve">
<g>
	<path d="M33.944,49.443C-8.652,6.847-8.652-62.463,33.945-105.061c42.596-42.596,111.906-42.596,154.503,0
		c42.597,42.597,42.596,111.907,0,154.503C145.851,92.039,76.541,92.04,33.944,49.443z M186.504-103.117
		c-41.524-41.525-109.092-41.525-150.616,0C-5.638-61.59-5.638,5.976,35.887,47.5c41.525,41.526,109.091,41.526,150.617-0.001
		C228.029,5.975,228.03-61.591,186.504-103.117z"/>
</g>
<polygon points="153.151,12.203 113.139,-27.809 153.151,-67.82 151.208,-69.763 111.196,-29.752 71.181,-69.767 69.237,-67.823 
	109.252,-27.808 69.239,12.206 71.182,14.148 111.195,-25.865 151.207,14.147 "/>
</svg>
