<?xml version="1.0" encoding="utf-8"?>
<!-- Generator: Adobe Illustrator 16.0.3, SVG Export Plug-In . SVG Version: 6.00 Build 0)  -->
<!DOCTYPE svg PUBLIC "-//W3C//DTD SVG 1.1//EN" "http://www.w3.org/Graphics/SVG/1.1/DTD/svg11.dtd">
<svg version="1.1" id="Capa_1" xmlns="http://www.w3.org/2000/svg" xmlns:xlink="http://www.w3.org/1999/xlink" x="0px" y="0px"
	 width="373.33px" height="373.33px" viewBox="0 0 373.33 373.33" enable-background="new 0 0 373.33 373.33" xml:space="preserve">
<g>
	<g>
		<path fill="#FFFFFF" d="M326.383,170.368c-2.309,0.965-4.967-0.131-5.93-2.443c-0.959-2.313,0.137-4.965,2.447-5.928
			c2.314-0.961,4.968,0.135,5.927,2.443C329.792,166.753,328.7,169.409,326.383,170.368"/>
	</g>
</g>
<g>
	<g>
		<path fill="#FFFFFF" d="M311.346,216.007c-2.313-0.957-3.416-3.605-2.463-5.922c0.957-2.311,3.604-3.416,5.916-2.461
			c2.318,0.957,3.422,3.605,2.469,5.92C316.309,215.856,313.664,216.964,311.346,216.007"/>
	</g>
</g>
<g>
	<path fill="#FFFFFF" d="M163.406,220.923c-2.314-0.957-4.963,0.148-5.916,2.465c-0.953,2.311,0.146,4.963,2.459,5.918
		c2.316,0.955,4.967-0.148,5.924-2.465C166.822,224.522,165.721,221.878,163.406,220.923z"/>
</g>
<g>
	<g>
		<path fill="#FFFFFF" d="M124.401,71.696c-0.957-2.314,0.135-4.971,2.445-5.928c2.309-0.965,4.965,0.131,5.926,2.443
			s-0.131,4.967-2.438,5.926C128.019,75.103,125.366,74.009,124.401,71.696"/>
	</g>
</g>
<g>
	<g>
		<path fill="#FFFFFF" d="M249.384,142.077c-0.957-2.314,0.135-4.971,2.445-5.928c2.309-0.965,4.965,0.131,5.926,2.443
			s-0.131,4.967-2.438,5.926C253.001,145.483,250.349,144.39,249.384,142.077"/>
	</g>
</g>
<g>
	<g>
		<path fill="#FFFFFF" d="M93.93,66.822c2.308,0.965,4.967-0.131,5.928-2.445c0.961-2.311-0.135-4.963-2.445-5.926
			c-2.316-0.961-4.967,0.135-5.926,2.443C90.521,63.207,91.613,65.863,93.93,66.822"/>
	</g>
</g>
<g>
	<g>
		<path fill="#FFFFFF" d="M35.852,177.844c2.314-0.957,3.416-3.605,2.464-5.922c-0.956-2.311-3.604-3.416-5.919-2.461
			c-2.315,0.957-3.42,3.605-2.466,5.92C30.888,177.693,33.533,178.801,35.852,177.844"/>
	</g>
</g>
<g>
	<path fill="#FFFFFF" d="M364.357,164.409c-0.953-2.316-3.603-3.422-5.915-2.465c-2.316,0.955-3.419,3.6-2.467,5.918
		c0.957,2.316,3.607,3.42,5.922,2.465C364.21,169.372,365.312,166.72,364.357,164.409z"/>
</g>
<g>
	<g>
		<path fill="#FFFFFF" d="M106.22,209.022c0.957-2.313-0.135-4.969-2.445-5.928c-2.311-0.963-4.965,0.133-5.926,2.443
			c-0.963,2.314,0.131,4.967,2.438,5.928C102.603,212.431,105.255,211.335,106.22,209.022"/>
	</g>
</g>
<g>
	<g>
		<rect x="283.114" y="301.962" fill="#FFFFFF" width="0.946" height="18.137"/>
	</g>
	<g>
		<polygon fill="#FFFFFF" points="284.061,223.794 283.114,223.798 283.114,241.934 284.061,241.932 		"/>
	</g>
	<g>
		<rect x="253.571" y="271.475" fill="#FFFFFF" width="11.305" height="0.945"/>
	</g>
	<g>
		<rect x="302.298" y="271.475" fill="#FFFFFF" width="11.305" height="0.945"/>
	</g>
	<g>
		<polygon fill="#FFFFFF" points="284.729,272.42 290.709,272.42 296.416,272.42 296.416,271.475 290.707,271.475 284.729,271.475 
			288.958,267.246 292.994,263.211 292.324,262.541 288.287,266.578 284.061,270.805 284.061,260.521 284.061,251.367 
			283.114,251.367 283.114,260.525 283.114,270.805 278.886,266.576 274.85,262.541 274.182,263.211 278.219,267.248 
			282.445,271.475 276.465,271.475 270.758,271.475 270.759,272.42 276.468,272.42 282.445,272.42 278.217,276.649 274.182,280.685 
			274.852,281.354 278.888,277.317 283.114,273.091 283.114,283.374 283.114,292.527 284.061,292.527 284.061,283.37 
			284.061,273.091 288.289,277.319 292.324,281.354 292.992,280.685 288.956,276.647 		"/>
	</g>
</g>
<g>
	<g>
		<polygon fill="#FFFFFF" points="52.36,106.307 53.308,106.303 53.308,88.166 52.36,88.17 		"/>
	</g>
	<g>
		<polygon fill="#FFFFFF" points="53.308,10 52.36,10.004 52.36,28.139 53.308,28.137 		"/>
	</g>
	<g>
		<rect x="22.818" y="57.68" fill="#FFFFFF" width="11.305" height="0.947"/>
	</g>
	<g>
		<rect x="71.545" y="57.68" fill="#FFFFFF" width="11.305" height="0.947"/>
	</g>
	<g>
		<polygon fill="#FFFFFF" points="53.976,58.627 59.956,58.627 65.663,58.627 65.663,57.68 59.954,57.68 53.976,57.68 
			58.204,53.451 62.241,49.416 61.571,48.748 57.534,52.785 53.308,57.012 53.308,46.727 53.308,37.572 52.36,37.574 52.36,46.732 
			52.36,57.012 48.132,52.783 44.097,48.746 43.429,49.416 47.466,53.453 51.692,57.68 45.712,57.68 40.005,57.68 40.005,58.627 
			45.714,58.627 51.692,58.627 47.464,62.855 43.429,66.891 44.099,67.559 48.134,63.521 52.36,59.295 52.36,69.578 52.36,78.734 
			53.308,78.732 53.308,69.574 53.308,59.295 57.536,63.523 61.571,67.559 62.239,66.891 58.202,62.854 		"/>
	</g>
</g>
<g>
	<g>
		<polygon fill="#FFFFFF" points="20.205,157.91 20.809,157.906 20.809,146.346 20.205,146.348 		"/>
	</g>
	<g>
		<rect x="20.205" y="96.521" fill="#FFFFFF" width="0.604" height="11.561"/>
	</g>
	<g>
		<rect x="1.373" y="126.912" fill="#FFFFFF" width="7.207" height="0.604"/>
	</g>
	<g>
		<rect x="32.434" y="126.912" fill="#FFFFFF" width="7.205" height="0.604"/>
	</g>
	<g>
		<polygon fill="#FFFFFF" points="21.234,127.516 25.047,127.516 28.684,127.516 28.684,126.912 25.045,126.912 21.234,126.912 
			23.93,124.217 26.502,121.646 26.076,121.221 23.502,123.793 20.809,126.486 20.809,119.932 20.809,114.096 20.205,114.098 
			20.205,119.934 20.205,126.486 17.51,123.791 14.938,121.219 14.512,121.646 17.084,124.219 19.779,126.912 15.967,126.912 
			12.328,126.912 12.33,127.516 15.969,127.516 19.779,127.516 17.084,130.211 14.512,132.785 14.938,133.211 17.512,130.637 
			20.205,127.943 20.205,134.498 20.205,140.334 20.809,140.332 20.809,134.494 20.809,127.943 23.504,130.639 26.076,133.211 
			26.502,132.783 23.93,130.211 		"/>
	</g>
</g>
<g>
	<g>
		<polygon fill="#FFFFFF" points="264.576,364.508 265.18,364.504 265.18,352.943 264.576,352.945 		"/>
	</g>
	<g>
		<rect x="264.576" y="303.119" fill="#FFFFFF" width="0.604" height="11.561"/>
	</g>
	<g>
		<rect x="245.744" y="333.51" fill="#FFFFFF" width="7.207" height="0.604"/>
	</g>
	<g>
		<rect x="276.805" y="333.51" fill="#FFFFFF" width="7.205" height="0.604"/>
	</g>
	<g>
		<polygon fill="#FFFFFF" points="265.605,334.113 269.418,334.113 273.055,334.113 273.055,333.51 269.416,333.51 265.605,333.51 
			268.301,330.814 270.873,328.244 270.447,327.818 267.873,330.391 265.18,333.084 265.18,326.529 265.18,320.693 264.576,320.695 
			264.576,326.531 264.576,333.084 261.881,330.389 259.309,327.816 258.883,328.244 261.455,330.816 264.15,333.51 260.338,333.51 
			256.699,333.51 256.701,334.113 260.34,334.113 264.15,334.113 261.455,336.809 258.883,339.383 259.309,339.809 261.883,337.234 
			264.576,334.541 264.576,341.096 264.576,346.932 265.18,346.93 265.18,341.092 265.18,334.541 267.875,337.236 270.447,339.809 
			270.873,339.381 268.301,336.809 		"/>
	</g>
</g>
<g>
	<path fill="#FFFFFF" d="M21.731,125.68l-0.723-0.332l0.884-1.929l0.723,0.332L21.731,125.68z M23.499,121.822l-0.723-0.332
		l0.884-1.929l0.723,0.332L23.499,121.822z M25.267,117.965l-0.723-0.332l0.884-1.929l0.723,0.332L25.267,117.965z M27.035,114.107
		l-0.723-0.332l0.884-1.929l0.723,0.332L27.035,114.107z M28.803,110.251l-0.723-0.332l0.884-1.929l0.723,0.332L28.803,110.251z
		 M30.57,106.394l-0.723-0.332l0.884-1.929l0.723,0.332L30.57,106.394z M32.338,102.536l-0.723-0.332l0.885-1.929l0.723,0.332
		L32.338,102.536z M34.106,98.679l-0.723-0.332l0.884-1.929l0.723,0.332L34.106,98.679z M35.874,94.821l-0.723-0.332l0.884-1.929
		l0.723,0.332L35.874,94.821z M37.642,90.964l-0.723-0.332l0.885-1.928l0.723,0.332L37.642,90.964z M39.41,87.107l-0.723-0.332
		l0.884-1.929l0.723,0.332L39.41,87.107z M41.178,83.25l-0.723-0.332l0.884-1.929l0.723,0.332L41.178,83.25z M42.945,79.393
		l-0.723-0.332l0.884-1.929l0.723,0.332L42.945,79.393z M44.714,75.535l-0.723-0.332l0.884-1.929l0.723,0.332L44.714,75.535z
		 M46.481,71.678l-0.723-0.332l0.884-1.929l0.723,0.332L46.481,71.678z M48.249,67.821l-0.723-0.332l0.884-1.929l0.723,0.332
		L48.249,67.821z M50.018,63.964l-0.723-0.332l0.884-1.929l0.723,0.332L50.018,63.964z M51.785,60.106l-0.723-0.332l0.884-1.929
		l0.723,0.332L51.785,60.106z"/>
</g>
<g>
	<path fill="#FFFFFF" d="M31.105,173.744l-0.2-0.844l0.773-0.184l0.2,0.844L31.105,173.744z M30.415,170.837l-0.49-2.064
		l0.773-0.184l0.49,2.064L30.415,170.837z M29.435,166.708l-0.49-2.063l0.773-0.184l0.49,2.063L29.435,166.708z M28.454,162.58
		l-0.49-2.064l0.773-0.184l0.49,2.064L28.454,162.58z M27.474,158.452l-0.49-2.064l0.773-0.184l0.49,2.064L27.474,158.452z
		 M26.493,154.323l-0.491-2.063l0.773-0.184l0.491,2.063L26.493,154.323z M25.512,150.195l-0.49-2.063l0.773-0.184l0.49,2.063
		L25.512,150.195z M24.531,146.067l-0.49-2.064l0.773-0.184l0.49,2.064L24.531,146.067z M23.551,141.939l-0.49-2.064l0.773-0.184
		l0.49,2.064L23.551,141.939z M22.57,137.811l-0.49-2.063l0.773-0.184l0.49,2.063L22.57,137.811z M21.59,133.683l-0.49-2.064
		l0.773-0.184l0.49,2.064L21.59,133.683z M20.609,129.555l-0.49-2.064l0.773-0.184l0.49,2.064L20.609,129.555z"/>
</g>
<g>
	<path fill="#FFFFFF" d="M101.861,207.549l-1.563-0.743l0.342-0.719l1.563,0.743L101.861,207.549z M98.382,205.895l-1.916-0.911
		l0.342-0.719l1.916,0.911L98.382,205.895z M94.55,204.072l-1.916-0.91l0.342-0.719l1.916,0.91L94.55,204.072z M90.718,202.251
		l-1.916-0.911l0.342-0.719l1.916,0.911L90.718,202.251z M86.886,200.429l-1.916-0.911l0.342-0.719l1.916,0.911L86.886,200.429z
		 M83.054,198.607l-1.916-0.911l0.342-0.719l1.916,0.911L83.054,198.607z M79.222,196.785l-1.916-0.911l0.342-0.719l1.916,0.911
		L79.222,196.785z M75.39,194.963l-1.916-0.91l0.342-0.719l1.916,0.91L75.39,194.963z M71.558,193.142l-1.916-0.911l0.342-0.719
		l1.916,0.911L71.558,193.142z M67.726,191.319l-1.916-0.911l0.342-0.719l1.916,0.911L67.726,191.319z M63.894,189.498l-1.916-0.911
		l0.342-0.719l1.916,0.911L63.894,189.498z M60.062,187.676l-1.916-0.911l0.342-0.719l1.916,0.911L60.062,187.676z M56.229,185.854
		l-1.916-0.91l0.342-0.719l1.916,0.91L56.229,185.854z M52.397,184.032l-1.916-0.911l0.342-0.719l1.916,0.911L52.397,184.032z
		 M48.565,182.21l-1.916-0.911l0.342-0.719l1.916,0.911L48.565,182.21z M44.733,180.389l-1.916-0.911l0.342-0.719l1.916,0.911
		L44.733,180.389z M40.901,178.566l-1.916-0.911l0.342-0.719l1.916,0.911L40.901,178.566z M37.069,176.744l-1.916-0.91l0.342-0.719
		l1.916,0.91L37.069,176.744z M33.237,174.923l-1.916-0.911l0.342-0.719l1.916,0.911L33.237,174.923z"/>
</g>
<g>
	<path fill="#FFFFFF" d="M165.269,225.262l-2.043-0.57l0.215-0.766l2.043,0.57L165.269,225.262z M161.182,224.121l-2.043-0.571
		l0.215-0.766l2.043,0.571L161.182,224.121z M157.097,222.979l-2.044-0.57l0.213-0.766l2.044,0.57L157.097,222.979z M153.01,221.838
		l-2.044-0.57l0.213-0.766l2.044,0.57L153.01,221.838z M148.922,220.697l-2.043-0.571l0.215-0.766l2.043,0.571L148.922,220.697z
		 M144.835,219.556l-2.043-0.57l0.215-0.766l2.043,0.57L144.835,219.556z M140.75,218.414l-2.044-0.57l0.213-0.766l2.044,0.57
		L140.75,218.414z M136.662,217.273l-2.044-0.571l0.215-0.766l2.044,0.571L136.662,217.273z M132.575,216.132l-2.043-0.57
		l0.215-0.766l2.043,0.57L132.575,216.132z M128.488,214.99l-2.043-0.57l0.215-0.766l2.043,0.57L128.488,214.99z M124.401,213.85
		l-2.043-0.571l0.215-0.766l2.043,0.571L124.401,213.85z M120.316,212.708l-2.044-0.57l0.213-0.766l2.044,0.57L120.316,212.708z
		 M116.229,211.566l-2.044-0.57l0.213-0.766l2.044,0.57L116.229,211.566z M112.142,210.426l-2.043-0.571l0.215-0.766l2.043,0.571
		L112.142,210.426z M108.055,209.284l-2.043-0.57l0.215-0.766l2.043,0.57L108.055,209.284z M103.968,208.143l-2.043-0.57
		l0.215-0.766l2.043,0.57L103.968,208.143z"/>
</g>
<g>
	<path fill="#FFFFFF" d="M282.324,271.871l-1.971-0.786l0.295-0.738l1.971,0.786L282.324,271.871z M278.383,270.299l-1.971-0.786
		l0.295-0.738l1.971,0.786L278.383,270.299z M274.442,268.727l-1.971-0.786l0.295-0.738l1.971,0.786L274.442,268.727z
		 M270.501,267.153l-1.971-0.786l0.295-0.738l1.971,0.786L270.501,267.153z M266.561,265.581l-1.971-0.786l0.295-0.738l1.971,0.786
		L266.561,265.581z M262.619,264.009l-1.971-0.786l0.295-0.738l1.971,0.786L262.619,264.009z M258.679,262.437l-1.971-0.786
		l0.295-0.738l1.971,0.786L258.679,262.437z M254.737,260.863l-1.971-0.786l0.295-0.738l1.971,0.786L254.737,260.863z
		 M250.797,259.291l-1.971-0.786l0.295-0.738l1.971,0.786L250.797,259.291z M246.855,257.719l-1.971-0.786l0.295-0.738l1.971,0.786
		L246.855,257.719z M242.915,256.146l-1.971-0.786l0.295-0.738l1.971,0.786L242.915,256.146z M238.974,254.574l-1.971-0.787
		l0.295-0.738l1.971,0.787L238.974,254.574z M235.033,253.001l-1.971-0.786l0.295-0.738l1.971,0.786L235.033,253.001z
		 M231.092,251.429l-1.971-0.786l0.295-0.738l1.971,0.786L231.092,251.429z M227.15,249.856l-1.97-0.786l0.295-0.738l1.97,0.786
		L227.15,249.856z M223.21,248.284l-1.971-0.787l0.295-0.738l1.971,0.787L223.21,248.284z M219.269,246.711l-1.97-0.786l0.295-0.738
		l1.97,0.786L219.269,246.711z M215.328,245.139l-1.971-0.786l0.295-0.738l1.971,0.786L215.328,245.139z M211.387,243.566
		l-1.97-0.786l0.295-0.738l1.97,0.786L211.387,243.566z M207.446,241.994l-1.971-0.787l0.295-0.738l1.971,0.787L207.446,241.994z
		 M203.505,240.421l-1.97-0.786l0.295-0.738l1.97,0.786L203.505,240.421z M199.564,238.849l-1.971-0.786l0.295-0.738l1.971,0.786
		L199.564,238.849z M195.623,237.276l-1.97-0.786l0.295-0.738l1.97,0.786L195.623,237.276z M191.683,235.704l-1.971-0.787
		l0.295-0.738l1.971,0.787L191.683,235.704z M187.741,234.131l-1.97-0.786l0.295-0.738l1.97,0.786L187.741,234.131z
		 M183.801,232.559l-1.971-0.786l0.295-0.738l1.971,0.786L183.801,232.559z M179.859,230.986l-1.97-0.786l0.295-0.738l1.97,0.786
		L179.859,230.986z M175.919,229.414l-1.971-0.787l0.295-0.738l1.971,0.787L175.919,229.414z M171.978,227.841l-1.97-0.786
		l0.295-0.738l1.97,0.786L171.978,227.841z M168.037,226.269l-1.971-0.786l0.295-0.738l1.971,0.786L168.037,226.269z"/>
</g>
<g>
	<path fill="#FFFFFF" d="M266.046,333.925l-0.764-0.223l0.213-0.733l0.764,0.223L266.046,333.925z M266.849,331.152l-0.764-0.221
		l0.591-2.038l0.764,0.221L266.849,331.152z M268.029,327.077l-0.764-0.221l0.591-2.038l0.764,0.221L268.029,327.077z
		 M269.21,323.001l-0.764-0.221l0.591-2.037l0.764,0.221L269.21,323.001z M270.391,318.926l-0.764-0.221l0.591-2.038l0.764,0.221
		L270.391,318.926z M271.571,314.851l-0.764-0.221l0.591-2.038l0.764,0.221L271.571,314.851z M272.752,310.774l-0.764-0.221
		l0.591-2.037l0.764,0.221L272.752,310.774z M273.933,306.699l-0.764-0.221l0.591-2.038l0.764,0.221L273.933,306.699z
		 M275.113,302.624l-0.764-0.221l0.591-2.038l0.764,0.221L275.113,302.624z M276.294,298.549l-0.764-0.221l0.591-2.038l0.764,0.221
		L276.294,298.549z M277.475,294.473l-0.764-0.221l0.591-2.037l0.764,0.221L277.475,294.473z M278.655,290.397l-0.764-0.221
		l0.591-2.038l0.764,0.221L278.655,290.397z M279.836,286.322l-0.764-0.221l0.591-2.038l0.764,0.221L279.836,286.322z
		 M281.017,282.246l-0.764-0.221l0.591-2.037l0.764,0.221L281.017,282.246z M282.197,278.171l-0.764-0.221l0.591-2.038l0.764,0.221
		L282.197,278.171z M283.378,274.096l-0.764-0.221l0.591-2.038l0.764,0.221L283.378,274.096z"/>
</g>
<g>
	<path fill="#FFFFFF" d="M283.944,272.122l-0.715-0.35l0.935-1.905l0.715,0.35L283.944,272.122z M285.813,268.313l-0.715-0.35
		l0.935-1.905l0.715,0.35L285.813,268.313z M287.681,264.503l-0.715-0.35l0.935-1.905l0.715,0.35L287.681,264.503z M289.549,260.693
		l-0.715-0.35l0.935-1.905l0.715,0.35L289.549,260.693z M291.417,256.884l-0.715-0.35l0.935-1.905l0.715,0.35L291.417,256.884z
		 M293.285,253.074l-0.715-0.35l0.935-1.905l0.715,0.35L293.285,253.074z M295.153,249.265l-0.715-0.35l0.935-1.905l0.715,0.35
		L295.153,249.265z M297.021,245.454l-0.715-0.35l0.935-1.904l0.715,0.35L297.021,245.454z M298.891,241.645l-0.715-0.35
		l0.934-1.904l0.715,0.35L298.891,241.645z M300.759,237.835l-0.715-0.35l0.934-1.904l0.715,0.35L300.759,237.835z M302.627,234.025
		l-0.715-0.35l0.934-1.904l0.715,0.35L302.627,234.025z M304.495,230.216l-0.715-0.35l0.934-1.904l0.715,0.35L304.495,230.216z
		 M306.363,226.406l-0.715-0.35l0.934-1.905l0.715,0.35L306.363,226.406z M308.231,222.597l-0.715-0.35l0.934-1.905l0.715,0.35
		L308.231,222.597z M310.1,218.787l-0.715-0.35l0.934-1.905l0.715,0.35L310.1,218.787z M311.968,214.978l-0.715-0.35l0.935-1.905
		l0.715,0.35L311.968,214.978z"/>
</g>
<g>
	<path fill="#FFFFFF" d="M313.461,211.913l-0.771-0.195l0.521-2.057l0.771,0.195L313.461,211.913z M314.503,207.8l-0.771-0.195
		l0.521-2.057l0.771,0.195L314.503,207.8z M315.544,203.687l-0.771-0.195l0.521-2.057l0.771,0.195L315.544,203.687z
		 M316.586,199.573l-0.771-0.195l0.521-2.057l0.771,0.195L316.586,199.573z M317.627,195.46l-0.771-0.195l0.521-2.057l0.771,0.195
		L317.627,195.46z M318.669,191.347l-0.771-0.195l0.521-2.057l0.771,0.195L318.669,191.347z M319.71,187.233l-0.771-0.195
		l0.521-2.057l0.771,0.195L319.71,187.233z M320.752,183.12l-0.771-0.195l0.521-2.057l0.771,0.195L320.752,183.12z M321.793,179.007
		l-0.771-0.195l0.521-2.057l0.771,0.195L321.793,179.007z M322.835,174.894l-0.771-0.195l0.521-2.057l0.771,0.195L322.835,174.894z
		 M323.876,170.78l-0.771-0.195l0.521-2.057l0.771,0.195L323.876,170.78z M324.918,166.667l-0.771-0.195l0.109-0.434l0.771,0.195
		L324.918,166.667z"/>
</g>
<g>
	<path fill="#FFFFFF" d="M360.708,166.533h-2.122v-0.795h2.122V166.533z M356.465,166.533h-2.122v-0.795h2.122V166.533z
		 M352.222,166.533H350.1v-0.795h2.122V166.533z M347.979,166.533h-2.121v-0.795h2.121V166.533z M343.735,166.533h-2.121v-0.795
		h2.121V166.533z M339.492,166.533h-2.121v-0.795h2.121V166.533z M335.249,166.533h-2.121v-0.795h2.121V166.533z M331.006,166.533
		h-2.121v-0.795h2.121V166.533z M326.763,166.533h-2.121v-0.795h2.121V166.533z"/>
</g>
<g>
	<path fill="#FFFFFF" d="M324.504,166.509l-1.989-0.736l0.275-0.746l1.989,0.736L324.504,166.509z M320.524,165.036l-1.989-0.736
		l0.275-0.746l1.989,0.736L320.524,165.036z M316.545,163.563l-1.989-0.736l0.275-0.746l1.989,0.736L316.545,163.563z
		 M312.565,162.092l-1.989-0.736l0.275-0.746l1.989,0.736L312.565,162.092z M308.586,160.619l-1.989-0.736l0.275-0.746l1.989,0.736
		L308.586,160.619z M304.607,159.146l-1.99-0.736l0.275-0.746l1.99,0.736L304.607,159.146z M300.628,157.674l-1.99-0.736
		l0.275-0.746l1.99,0.736L300.628,157.674z M296.648,156.201l-1.99-0.736l0.275-0.746l1.99,0.736L296.648,156.201z M292.669,154.729
		l-1.99-0.736l0.275-0.746l1.99,0.736L292.669,154.729z M288.689,153.257l-1.989-0.736l0.275-0.746l1.989,0.736L288.689,153.257z
		 M284.71,151.784l-1.989-0.736l0.275-0.746l1.989,0.736L284.71,151.784z M280.73,150.312l-1.989-0.736l0.275-0.746l1.989,0.736
		L280.73,150.312z M276.751,148.839l-1.989-0.736l0.275-0.746l1.989,0.736L276.751,148.839z M272.771,147.366l-1.989-0.736
		l0.275-0.746l1.989,0.736L272.771,147.366z M268.793,145.894l-1.99-0.735l0.275-0.746l1.99,0.735L268.793,145.894z
		 M264.813,144.422l-1.99-0.736l0.275-0.746l1.99,0.736L264.813,144.422z M260.834,142.949l-1.99-0.736l0.275-0.746l1.99,0.736
		L260.834,142.949z M256.854,141.477l-1.99-0.736l0.275-0.746l1.99,0.736L256.854,141.477z M252.875,140.004l-1.806-0.668
		l0.275-0.746l1.806,0.668L252.875,140.004z"/>
</g>
<g>
	<path fill="#FFFFFF" d="M251.01,139.308l-1.841-1.055l0.395-0.689l1.842,1.055L251.01,139.308z M247.327,137.198l-1.84-1.055
		l0.396-0.689l1.84,1.055L247.327,137.198z M243.646,135.089l-1.842-1.055l0.396-0.689l1.841,1.055L243.646,135.089z
		 M239.965,132.98l-1.841-1.055l0.395-0.689l1.842,1.055L239.965,132.98z M236.282,130.871l-1.84-1.055l0.396-0.689l1.84,1.055
		L236.282,130.871z M232.602,128.762l-1.842-1.055l0.396-0.689l1.842,1.055L232.602,128.762z M228.92,126.652l-1.842-1.055
		l0.395-0.689l1.842,1.055L228.92,126.652z M225.237,124.543l-1.841-1.055l0.395-0.689l1.842,1.055L225.237,124.543z
		 M221.555,122.435l-1.84-1.055l0.396-0.689l1.84,1.055L221.555,122.435z M217.874,120.325l-1.842-1.055l0.396-0.689l1.841,1.055
		L217.874,120.325z M214.192,118.216l-1.841-1.055l0.396-0.689l1.841,1.055L214.192,118.216z M210.51,116.106l-1.84-1.055
		l0.396-0.689l1.84,1.055L210.51,116.106z M206.829,113.997l-1.842-1.055l0.396-0.689l1.842,1.055L206.829,113.997z
		 M203.147,111.889l-1.841-1.055l0.396-0.689l1.84,1.055L203.147,111.889z M199.465,109.779l-1.841-1.055l0.396-0.689l1.841,1.055
		L199.465,109.779z M195.784,107.67l-1.842-1.055l0.396-0.689l1.842,1.055L195.784,107.67z M192.102,105.561l-1.84-1.055
		l0.396-0.689l1.84,1.055L192.102,105.561z M188.421,103.451l-1.842-1.055l0.396-0.689l1.841,1.055L188.421,103.451z
		 M184.739,101.343l-1.842-1.055l0.395-0.689l1.842,1.055L184.739,101.343z M181.057,99.233l-1.842-1.055l0.396-0.689l1.842,1.055
		L181.057,99.233z M177.374,97.124l-1.84-1.055l0.396-0.689l1.84,1.055L177.374,97.124z M173.692,95.015l-1.841-1.055l0.396-0.689
		l1.841,1.055L173.692,95.015z M170.012,92.905l-1.841-1.055l0.395-0.689l1.842,1.055L170.012,92.905z M166.329,90.797l-1.84-1.055
		l0.396-0.689l1.84,1.055L166.329,90.797z M162.648,88.688l-1.842-1.055l0.396-0.689l1.841,1.055L162.648,88.688z M158.967,86.578
		l-1.841-1.055l0.395-0.689l1.842,1.055L158.967,86.578z M155.284,84.469l-1.84-1.055l0.396-0.689l1.84,1.055L155.284,84.469z
		 M151.604,82.359l-1.842-1.055l0.396-0.689l1.841,1.055L151.604,82.359z M147.922,80.251l-1.841-1.055l0.395-0.689l1.842,1.055
		L147.922,80.251z M144.239,78.142l-1.84-1.055l0.396-0.689l1.84,1.055L144.239,78.142z M140.559,76.032l-1.842-1.055l0.396-0.689
		l1.842,1.055L140.559,76.032z M136.877,73.923l-1.841-1.055l0.396-0.689l1.841,1.055L136.877,73.923z"/>
</g>
<g>
	<path fill="#FFFFFF" d="M134.028,72.273l-2.063-0.496l0.186-0.773l2.063,0.496L134.028,72.273z M129.903,71.281l-2.063-0.496
		l0.186-0.773l2.063,0.496L129.903,71.281z M125.777,70.289l-2.063-0.496l0.186-0.773l2.063,0.496L125.777,70.289z M121.652,69.297
		L119.59,68.8l0.186-0.773l2.063,0.497L121.652,69.297z M117.526,68.304l-2.063-0.496l0.186-0.773l2.063,0.496L117.526,68.304z
		 M113.401,67.312l-2.063-0.496l0.186-0.773l2.063,0.496L113.401,67.312z M109.276,66.319l-2.063-0.496l0.186-0.773l2.063,0.496
		L109.276,66.319z M105.15,65.327l-2.063-0.496l0.186-0.773l2.063,0.496L105.15,65.327z M101.025,64.335l-2.063-0.496l0.186-0.773
		l2.063,0.496L101.025,64.335z M96.899,63.343l-1.321-0.318l0.186-0.773l1.321,0.318L96.899,63.343z"/>
</g>
<g>
	<path fill="#FFFFFF" d="M95.629,63.033l-2.109-0.225l0.084-0.791l2.109,0.225L95.629,63.033z M91.41,62.583l-2.11-0.225
		l0.084-0.791l2.11,0.225L91.41,62.583z M87.19,62.133l-2.109-0.225l0.084-0.791l2.109,0.225L87.19,62.133z M82.972,61.683
		l-2.109-0.225l0.084-0.791l2.109,0.225L82.972,61.683z M78.752,61.232l-2.109-0.225l0.084-0.791l2.109,0.225L78.752,61.232z
		 M74.533,60.783l-2.109-0.226l0.084-0.791l2.109,0.226L74.533,60.783z M70.314,60.333l-2.11-0.226l0.084-0.791l2.11,0.226
		L70.314,60.333z M66.095,59.883l-2.109-0.226l0.084-0.791l2.109,0.226L66.095,59.883z M61.876,59.433l-2.109-0.226l0.084-0.791
		l2.109,0.226L61.876,59.433z M57.656,58.982l-2.109-0.226l0.084-0.791l2.109,0.226L57.656,58.982z M53.438,58.532l-1.172-0.125
		l0.084-0.791l1.172,0.125L53.438,58.532z"/>
</g>
</svg>
