<?xml version="1.0" encoding="utf-8"?>
<!-- Generator: Adobe Illustrator 16.0.3, SVG Export Plug-In . SVG Version: 6.00 Build 0)  -->
<!DOCTYPE svg PUBLIC "-//W3C//DTD SVG 1.1//EN" "http://www.w3.org/Graphics/SVG/1.1/DTD/svg11.dtd">
<svg version="1.1" id="Capa_1" xmlns="http://www.w3.org/2000/svg" xmlns:xlink="http://www.w3.org/1999/xlink" x="0px" y="0px"
	 width="373.33px" height="373.33px" viewBox="0 0 373.33 373.33" enable-background="new 0 0 373.33 373.33" xml:space="preserve">
<g>
	<g>
		<path fill="#FFFFFF" d="M31.811,179.939c-0.957-2.314,0.135-4.971,2.445-5.928c2.309-0.965,4.965,0.131,5.926,2.443
			s-0.131,4.967-2.438,5.926C35.428,183.346,32.775,182.252,31.811,179.939"/>
	</g>
</g>
<g>
	<g>
		<path fill="#FFFFFF" d="M82.982,182.381c2.307,0.965,4.967-0.131,5.928-2.445c0.961-2.311-0.135-4.963-2.445-5.926
			c-2.316-0.961-4.967,0.135-5.926,2.443C79.574,178.766,80.666,181.422,82.982,182.381"/>
	</g>
</g>
<g>
	<g>
		<path fill="#FFFFFF" d="M152.059,326.796c2.314-0.957,3.416-3.605,2.463-5.922c-0.955-2.311-3.604-3.416-5.918-2.461
			c-2.316,0.957-3.42,3.605-2.467,5.92C147.094,326.646,149.74,327.753,152.059,326.796"/>
	</g>
</g>
<g>
	<g>
		<path fill="#FFFFFF" d="M154.242,369.923c0.957-2.313-0.135-4.969-2.445-5.928c-2.309-0.963-4.963,0.133-5.924,2.443
			c-0.963,2.314,0.131,4.967,2.438,5.928C150.625,373.331,153.277,372.235,154.242,369.923"/>
	</g>
</g>
<g>
	<g>
		<rect x="256.936" y="156.697" fill="#FFFFFF" width="0.947" height="18.137"/>
	</g>
	<g>
		<polygon fill="#FFFFFF" points="257.883,78.529 256.936,78.533 256.936,96.669 257.883,96.667 		"/>
	</g>
	<g>
		<rect x="227.394" y="126.21" fill="#FFFFFF" width="11.305" height="0.945"/>
	</g>
	<g>
		<rect x="276.12" y="126.21" fill="#FFFFFF" width="11.305" height="0.945"/>
	</g>
	<g>
		<polygon fill="#FFFFFF" points="258.551,127.155 264.531,127.155 270.238,127.155 270.238,126.21 264.529,126.21 258.551,126.21 
			262.779,121.981 266.816,117.946 266.146,117.276 262.109,121.313 257.883,125.54 257.883,115.257 257.883,106.103 
			256.936,106.103 256.936,115.261 256.936,125.54 252.707,121.312 248.672,117.276 248.004,117.946 252.041,121.983 
			256.268,126.21 250.287,126.21 244.58,126.21 244.58,127.155 250.289,127.155 256.268,127.155 252.039,131.385 248.004,135.42 
			248.674,136.09 252.709,132.053 256.936,127.826 256.936,138.109 256.936,147.263 257.883,147.263 257.883,138.105 
			257.883,127.826 262.111,132.055 266.146,136.09 266.814,135.42 262.777,131.383 		"/>
	</g>
</g>
<g>
	<g>
		<polygon fill="#FFFFFF" points="134.5,71.015 135.104,71.011 135.104,59.45 134.5,59.452 		"/>
	</g>
	<g>
		<rect x="134.5" y="9.626" fill="#FFFFFF" width="0.604" height="11.561"/>
	</g>
	<g>
		<rect x="115.668" y="40.017" fill="#FFFFFF" width="7.207" height="0.604"/>
	</g>
	<g>
		<rect x="146.729" y="40.017" fill="#FFFFFF" width="7.205" height="0.604"/>
	</g>
	<g>
		<polygon fill="#FFFFFF" points="135.529,40.62 139.342,40.62 142.979,40.62 142.979,40.017 139.34,40.017 135.529,40.017 
			138.225,37.321 140.797,34.751 140.371,34.325 137.797,36.897 135.104,39.591 135.104,33.036 135.104,27.2 134.5,27.202 
			134.5,33.038 134.5,39.591 131.805,36.896 129.232,34.323 128.807,34.751 131.379,37.323 134.074,40.017 130.262,40.017 
			126.623,40.017 126.625,40.62 130.264,40.62 134.074,40.62 131.379,43.315 128.807,45.89 129.232,46.315 131.807,43.741 
			134.5,41.048 134.5,47.603 134.5,53.438 135.104,53.437 135.104,47.599 135.104,41.048 137.799,43.743 140.371,46.315 
			140.797,45.888 138.225,43.315 		"/>
	</g>
</g>
<g>
	<g>
		<polygon fill="#FFFFFF" points="237.396,302.57 238,302.566 238,291.006 237.396,291.008 		"/>
	</g>
	<g>
		<rect x="237.396" y="241.181" fill="#FFFFFF" width="0.604" height="11.561"/>
	</g>
	<g>
		<rect x="218.564" y="271.572" fill="#FFFFFF" width="7.207" height="0.604"/>
	</g>
	<g>
		<rect x="249.625" y="271.572" fill="#FFFFFF" width="7.205" height="0.604"/>
	</g>
	<g>
		<polygon fill="#FFFFFF" points="238.426,272.176 242.238,272.176 245.875,272.176 245.875,271.572 242.236,271.572 
			238.426,271.572 241.121,268.877 243.693,266.307 243.268,265.881 240.693,268.453 238,271.146 238,264.592 238,258.756 
			237.396,258.758 237.396,264.594 237.396,271.146 234.701,268.451 232.129,265.879 231.703,266.307 234.275,268.879 
			236.971,271.572 233.158,271.572 229.52,271.572 229.521,272.176 233.16,272.176 236.971,272.176 234.275,274.871 
			231.703,277.445 232.129,277.871 234.703,275.297 237.396,272.604 237.396,279.158 237.396,284.994 238,284.992 238,279.154 
			238,272.604 240.695,275.299 243.268,277.871 243.693,277.443 241.121,274.871 		"/>
	</g>
</g>
<g>
	<path fill="#FFFFFF" d="M258.384,126.45l-0.684-0.475l0.334-0.48l0.684,0.475L258.384,126.45z M256.418,125.086l-1.281-0.89
		l0.334-0.48l1.281,0.89L256.418,125.086z M253.854,123.307l-1.282-0.89l0.334-0.48l1.282,0.89L253.854,123.307z M251.29,121.527
		l-1.281-0.89l0.334-0.48l1.281,0.89L251.29,121.527z M248.727,119.747l-1.282-0.89l0.334-0.48l1.282,0.89L248.727,119.747z
		 M246.163,117.968l-1.282-0.89l0.334-0.48l1.282,0.89L246.163,117.968z M243.599,116.188l-1.281-0.89l0.334-0.48l1.281,0.89
		L243.599,116.188z M241.035,114.409l-1.282-0.89l0.334-0.48l1.282,0.89L241.035,114.409z M238.471,112.63l-1.281-0.891l0.334-0.48
		l1.281,0.891L238.471,112.63z M235.907,110.85l-1.282-0.89l0.334-0.48l1.282,0.89L235.907,110.85z M233.344,109.07l-1.282-0.89
		l0.334-0.48l1.282,0.89L233.344,109.07z M230.779,107.291l-1.282-0.89l0.334-0.48l1.282,0.89L230.779,107.291z M228.216,105.512
		l-1.282-0.89l0.334-0.48l1.282,0.89L228.216,105.512z M225.651,103.732l-1.281-0.891l0.334-0.48l1.281,0.891L225.651,103.732z
		 M223.088,101.952l-1.282-0.89l0.334-0.48l1.282,0.89L223.088,101.952z M220.523,100.173l-1.281-0.89l0.334-0.48l1.281,0.89
		L220.523,100.173z M217.96,98.394l-1.282-0.89l0.334-0.48l1.282,0.89L217.96,98.394z M215.396,96.614l-1.282-0.89l0.334-0.48
		l1.282,0.89L215.396,96.614z M212.832,94.834l-1.281-0.89l0.334-0.48l1.281,0.89L212.832,94.834z M210.269,93.055l-1.282-0.89
		l0.334-0.48l1.282,0.89L210.269,93.055z M207.704,91.275l-1.281-0.89l0.334-0.48l1.281,0.89L207.704,91.275z M205.141,89.496
		l-1.282-0.89l0.334-0.48l1.282,0.89L205.141,89.496z M202.577,87.717l-1.282-0.89l0.334-0.48l1.282,0.89L202.577,87.717z
		 M200.013,85.937l-1.282-0.89l0.334-0.48l1.282,0.89L200.013,85.937z M197.449,84.157l-1.282-0.89l0.334-0.48l1.282,0.89
		L197.449,84.157z M194.885,82.378l-1.281-0.89l0.334-0.48l1.281,0.89L194.885,82.378z M192.321,80.599l-1.282-0.89l0.334-0.48
		l1.282,0.89L192.321,80.599z M189.758,78.819l-1.282-0.891l0.334-0.48l1.282,0.891L189.758,78.819z M187.193,77.039l-1.282-0.89
		l0.334-0.48l1.282,0.89L187.193,77.039z M184.63,75.26l-1.282-0.89l0.334-0.48l1.282,0.89L184.63,75.26z M182.065,73.48
		l-1.281-0.89l0.334-0.48l1.281,0.89L182.065,73.48z M179.502,71.701l-1.282-0.89l0.334-0.48l1.282,0.89L179.502,71.701z
		 M176.938,69.922l-1.281-0.891l0.334-0.48l1.281,0.891L176.938,69.922z M174.374,68.142l-1.282-0.89l0.334-0.48l1.282,0.89
		L174.374,68.142z M171.811,66.362l-1.282-0.89l0.334-0.48l1.282,0.89L171.811,66.362z M169.246,64.583l-1.282-0.89l0.334-0.48
		l1.282,0.89L169.246,64.583z M166.683,62.804l-1.282-0.89l0.334-0.48l1.282,0.89L166.683,62.804z M164.118,61.023l-1.281-0.89
		l0.334-0.48l1.281,0.89L164.118,61.023z M161.555,59.244l-1.282-0.89l0.334-0.48l1.282,0.89L161.555,59.244z M158.99,57.465
		l-1.281-0.89l0.334-0.48l1.281,0.89L158.99,57.465z M156.427,55.686l-1.282-0.89l0.334-0.48l1.282,0.89L156.427,55.686z
		 M153.863,53.906l-1.282-0.891l0.334-0.48l1.282,0.891L153.863,53.906z M151.299,52.126l-1.281-0.89l0.334-0.48l1.281,0.89
		L151.299,52.126z M148.735,50.347l-1.282-0.89l0.334-0.48l1.282,0.89L148.735,50.347z M146.171,48.567l-1.281-0.89l0.334-0.48
		l1.281,0.89L146.171,48.567z M143.607,46.788l-1.282-0.89l0.334-0.48l1.282,0.89L143.607,46.788z M141.044,45.009l-1.282-0.891
		l0.334-0.48l1.282,0.891L141.044,45.009z M138.479,43.229l-1.282-0.89l0.334-0.48l1.282,0.89L138.479,43.229z M135.916,41.449
		l-1.282-0.89l0.334-0.48l1.282,0.89L135.916,41.449z"/>
</g>
<g>
	<path fill="#FFFFFF" d="M236.799,272.041l-0.578-0.088l0.113-0.752l0.578,0.088L236.799,272.041z M237.146,269.746l-0.578-0.088
		l0.233-1.543l0.578,0.088L237.146,269.746z M237.612,266.66l-0.578-0.088l0.233-1.543l0.578,0.088L237.612,266.66z
		 M238.079,263.574l-0.578-0.088l0.233-1.543l0.578,0.088L238.079,263.574z M238.546,260.488l-0.578-0.088l0.232-1.543l0.578,0.088
		L238.546,260.488z M239.012,257.402l-0.578-0.088l0.233-1.543l0.578,0.088L239.012,257.402z M239.479,254.316l-0.578-0.088
		l0.233-1.543l0.578,0.088L239.479,254.316z M239.945,251.23l-0.578-0.088l0.233-1.543l0.578,0.088L239.945,251.23z
		 M240.411,248.145l-0.578-0.088l0.233-1.542l0.578,0.088L240.411,248.145z M240.878,245.06l-0.578-0.088l0.233-1.543l0.578,0.088
		L240.878,245.06z M241.345,241.974l-0.578-0.088l0.233-1.543l0.578,0.088L241.345,241.974z M241.812,238.888l-0.578-0.088
		l0.233-1.543l0.578,0.088L241.812,238.888z M242.277,235.802l-0.578-0.088l0.233-1.543l0.578,0.088L242.277,235.802z
		 M242.744,232.716l-0.578-0.088l0.233-1.543l0.578,0.088L242.744,232.716z M243.211,229.63l-0.578-0.088l0.233-1.543l0.578,0.088
		L243.211,229.63z M243.678,226.544l-0.578-0.088l0.232-1.543l0.578,0.088L243.678,226.544z M244.144,223.458l-0.578-0.088
		l0.233-1.543l0.578,0.088L244.144,223.458z M244.61,220.372l-0.578-0.088l0.233-1.543l0.578,0.088L244.61,220.372z
		 M245.077,217.286l-0.578-0.088l0.233-1.543l0.578,0.088L245.077,217.286z M245.544,214.201l-0.578-0.088l0.232-1.543l0.578,0.088
		L245.544,214.201z M246.01,211.115l-0.578-0.088l0.233-1.543l0.578,0.088L246.01,211.115z M246.477,208.029l-0.578-0.088
		l0.233-1.543l0.578,0.088L246.477,208.029z M246.943,204.943l-0.578-0.088l0.233-1.543l0.578,0.088L246.943,204.943z
		 M247.409,201.857l-0.578-0.088l0.233-1.543l0.578,0.088L247.409,201.857z M247.876,198.771l-0.578-0.088l0.233-1.543l0.578,0.088
		L247.876,198.771z M248.343,195.686l-0.578-0.088l0.233-1.543l0.578,0.088L248.343,195.686z M248.81,192.6l-0.578-0.088
		l0.233-1.543l0.578,0.088L248.81,192.6z M249.275,189.514l-0.578-0.088l0.233-1.543l0.578,0.088L249.275,189.514z M249.742,186.428
		l-0.578-0.088l0.233-1.543l0.578,0.088L249.742,186.428z M250.209,183.342l-0.578-0.088l0.233-1.543l0.578,0.088L250.209,183.342z
		 M250.676,180.256l-0.578-0.088l0.232-1.542l0.578,0.088L250.676,180.256z M251.142,177.171l-0.578-0.088l0.233-1.543l0.578,0.088
		L251.142,177.171z M251.608,174.085l-0.578-0.088l0.233-1.543l0.578,0.088L251.608,174.085z M252.075,170.999l-0.578-0.088
		l0.233-1.543l0.578,0.088L252.075,170.999z M252.542,167.913l-0.578-0.088l0.232-1.543l0.578,0.088L252.542,167.913z
		 M253.008,164.827l-0.578-0.088l0.233-1.543l0.578,0.088L253.008,164.827z M253.475,161.741l-0.578-0.088l0.233-1.543l0.578,0.088
		L253.475,161.741z M253.941,158.655l-0.578-0.088l0.233-1.543l0.578,0.088L253.941,158.655z M254.408,155.569l-0.578-0.088
		l0.232-1.543l0.578,0.088L254.408,155.569z M254.874,152.483l-0.578-0.088l0.233-1.543l0.578,0.088L254.874,152.483z
		 M255.341,149.397l-0.578-0.088l0.233-1.543l0.578,0.088L255.341,149.397z M255.808,146.312l-0.578-0.088l0.233-1.543l0.578,0.088
		L255.808,146.312z M256.273,143.227l-0.578-0.088l0.233-1.543l0.578,0.088L256.273,143.227z M256.74,140.141l-0.578-0.088
		l0.233-1.543l0.578,0.088L256.74,140.141z M257.207,137.055l-0.578-0.088l0.233-1.543l0.578,0.088L257.207,137.055z
		 M257.674,133.969l-0.578-0.088l0.233-1.543l0.578,0.088L257.674,133.969z M258.14,130.883l-0.578-0.088l0.233-1.543l0.578,0.088
		L258.14,130.883z M258.606,127.797l-0.578-0.088l0.233-1.543l0.578,0.088L258.606,127.797z"/>
</g>
<g>
	<path fill="#FFFFFF" d="M150.956,320.425l-0.287-0.51l1.36-0.765l0.287,0.51L150.956,320.425z M153.677,318.896l-0.287-0.51
		l1.36-0.765l0.287,0.51L153.677,318.896z M156.397,317.366l-0.287-0.51l1.36-0.765l0.287,0.51L156.397,317.366z M159.118,315.837
		l-0.287-0.51l1.36-0.765l0.287,0.51L159.118,315.837z M161.839,314.308l-0.287-0.51l1.359-0.765l0.287,0.51L161.839,314.308z
		 M164.559,312.778l-0.287-0.51l1.36-0.765l0.287,0.51L164.559,312.778z M167.279,311.249l-0.287-0.51l1.36-0.765l0.287,0.51
		L167.279,311.249z M170,309.72l-0.287-0.51l1.36-0.765l0.287,0.51L170,309.72z M172.721,308.19l-0.287-0.51l1.36-0.765l0.287,0.51
		L172.721,308.19z M175.441,306.661l-0.287-0.51l1.36-0.765l0.287,0.51L175.441,306.661z M178.161,305.132l-0.287-0.51l1.36-0.765
		l0.287,0.51L178.161,305.132z M180.882,303.603l-0.287-0.51l1.36-0.765l0.287,0.51L180.882,303.603z M183.603,302.073l-0.287-0.51
		l1.36-0.765l0.287,0.51L183.603,302.073z M186.323,300.544l-0.287-0.51l1.36-0.765l0.287,0.51L186.323,300.544z M189.044,299.015
		l-0.287-0.51l1.36-0.765l0.287,0.51L189.044,299.015z M191.765,297.485l-0.287-0.51l1.36-0.765l0.287,0.51L191.765,297.485z
		 M194.485,295.956l-0.287-0.51l1.359-0.765l0.287,0.51L194.485,295.956z M197.205,294.427l-0.287-0.51l1.36-0.765l0.287,0.51
		L197.205,294.427z M199.926,292.897l-0.287-0.51l1.36-0.765l0.287,0.51L199.926,292.897z M202.646,291.368l-0.287-0.51l1.36-0.765
		l0.287,0.51L202.646,291.368z M205.367,289.839l-0.287-0.51l1.36-0.765l0.287,0.51L205.367,289.839z M208.088,288.31l-0.287-0.51
		l1.36-0.765l0.287,0.51L208.088,288.31z M210.809,286.78l-0.287-0.51l1.359-0.765l0.287,0.51L210.809,286.78z M213.528,285.251
		l-0.287-0.51l1.36-0.765l0.287,0.51L213.528,285.251z M216.249,283.722l-0.287-0.51l1.36-0.765l0.287,0.51L216.249,283.722z
		 M218.97,282.192l-0.287-0.51l1.36-0.765l0.287,0.51L218.97,282.192z M221.69,280.663l-0.287-0.51l1.36-0.765l0.287,0.51
		L221.69,280.663z M224.411,279.134l-0.287-0.51l1.36-0.765l0.287,0.51L224.411,279.134z M227.132,277.604l-0.287-0.51l1.359-0.765
		l0.287,0.51L227.132,277.604z M229.852,276.075l-0.287-0.51l1.36-0.765l0.287,0.51L229.852,276.075z M232.572,274.546l-0.287-0.51
		l1.36-0.765l0.287,0.51L232.572,274.546z M235.293,273.017l-0.287-0.51l1.36-0.765l0.287,0.51L235.293,273.017z"/>
</g>
<g>
	<path fill="#FFFFFF" d="M150.349,367.494h-0.586v-0.085h0.586V367.494z M150.349,365.849h-0.586v-1.56h0.586V365.849z
		 M150.349,362.729h-0.586v-1.561h0.586V362.729z M150.349,359.607h-0.586v-1.561h0.586V359.607z M150.349,356.486h-0.586v-1.561
		h0.586V356.486z M150.349,353.365h-0.586v-1.561h0.586V353.365z M150.349,350.244h-0.586v-1.561h0.586V350.244z M150.349,347.123
		h-0.586v-1.56h0.586V347.123z M150.349,344.003h-0.586v-1.561h0.586V344.003z M150.349,340.882h-0.586v-1.561h0.586V340.882z
		 M150.349,337.761h-0.586V336.2h0.586V337.761z M150.349,334.64h-0.586v-1.561h0.586V334.64z M150.349,331.519h-0.586v-1.561h0.586
		V331.519z M150.349,328.398h-0.586v-1.561h0.586V328.398z M150.349,325.277h-0.586v-1.561h0.586V325.277z M150.349,322.156h-0.586
		v-1.561h0.586V322.156z"/>
</g>
<g>
	<path fill="#FFFFFF" d="M236.242,272.115l-0.091-0.206l0.535-0.236l0.091,0.206L236.242,272.115z M235.524,270.479l-0.627-1.43
		l0.535-0.234l0.627,1.43L235.524,270.479z M234.27,267.621l-0.627-1.429l0.535-0.234l0.627,1.429L234.27,267.621z M233.016,264.765
		l-0.628-1.429l0.535-0.236l0.628,1.429L233.016,264.765z M231.761,261.906l-0.627-1.429l0.535-0.234l0.627,1.429L231.761,261.906z
		 M230.506,259.048l-0.627-1.429l0.535-0.234l0.627,1.429L230.506,259.048z M229.252,256.191l-0.628-1.429l0.535-0.236l0.628,1.429
		L229.252,256.191z M227.997,253.333l-0.627-1.429l0.535-0.234l0.627,1.429L227.997,253.333z M226.742,250.476l-0.627-1.429
		l0.535-0.234l0.627,1.429L226.742,250.476z M225.488,247.618l-0.628-1.429l0.535-0.236l0.628,1.429L225.488,247.618z
		 M224.233,244.76l-0.627-1.429l0.535-0.234l0.627,1.429L224.233,244.76z M222.979,241.902l-0.627-1.429l0.535-0.234l0.627,1.429
		L222.979,241.902z M221.725,239.046l-0.628-1.429l0.535-0.236l0.628,1.429L221.725,239.046z M220.47,236.187l-0.627-1.429
		l0.535-0.234l0.627,1.429L220.47,236.187z M219.215,233.329l-0.627-1.429l0.535-0.234l0.627,1.429L219.215,233.329z
		 M217.961,230.473l-0.628-1.429l0.535-0.236l0.628,1.429L217.961,230.473z M216.706,227.614l-0.627-1.43l0.535-0.234l0.627,1.43
		L216.706,227.614z M215.451,224.756l-0.627-1.429l0.535-0.234l0.627,1.429L215.451,224.756z M214.197,221.899l-0.628-1.429
		l0.535-0.236l0.628,1.429L214.197,221.899z M212.942,219.041l-0.627-1.429l0.535-0.234l0.627,1.429L212.942,219.041z
		 M211.688,216.184l-0.627-1.43l0.535-0.234l0.627,1.43L211.688,216.184z M210.434,213.326l-0.628-1.429l0.535-0.236l0.628,1.429
		L210.434,213.326z M209.179,210.468l-0.627-1.429l0.535-0.234l0.627,1.429L209.179,210.468z M207.924,207.61l-0.627-1.429
		l0.535-0.234l0.627,1.429L207.924,207.61z M206.67,204.753l-0.628-1.43l0.535-0.234l0.628,1.43L206.67,204.753z M205.415,201.895
		l-0.627-1.429l0.535-0.234l0.627,1.429L205.415,201.895z M204.16,199.037l-0.627-1.429l0.535-0.234l0.627,1.429L204.16,199.037z
		 M202.906,196.181l-0.628-1.429l0.535-0.236l0.628,1.429L202.906,196.181z M201.651,193.321l-0.627-1.429l0.535-0.234l0.627,1.429
		L201.651,193.321z M200.396,190.464l-0.627-1.429l0.535-0.234l0.627,1.429L200.396,190.464z M199.143,187.607l-0.628-1.429
		l0.535-0.236l0.628,1.429L199.143,187.607z M197.888,184.749l-0.627-1.429l0.535-0.234l0.627,1.429L197.888,184.749z
		 M196.633,181.891l-0.627-1.429l0.535-0.234l0.627,1.429L196.633,181.891z M195.379,179.034l-0.628-1.429l0.535-0.236l0.628,1.429
		L195.379,179.034z M194.124,176.176l-0.627-1.429l0.535-0.234l0.627,1.429L194.124,176.176z M192.869,173.318l-0.627-1.429
		l0.535-0.234l0.627,1.429L192.869,173.318z M191.615,170.461l-0.628-1.429l0.535-0.236l0.628,1.429L191.615,170.461z
		 M190.36,167.603l-0.627-1.429l0.535-0.234l0.627,1.429L190.36,167.603z M189.105,164.745l-0.627-1.429l0.535-0.234l0.627,1.429
		L189.105,164.745z M187.852,161.888l-0.628-1.43l0.535-0.234l0.628,1.43L187.852,161.888z M186.597,159.029l-0.627-1.429
		l0.535-0.234l0.627,1.429L186.597,159.029z M185.343,156.173l-0.628-1.429l0.535-0.236l0.628,1.429L185.343,156.173z
		 M184.088,153.314l-0.627-1.429l0.535-0.234l0.627,1.429L184.088,153.314z M182.833,150.457l-0.627-1.43l0.535-0.234l0.627,1.43
		L182.833,150.457z M181.579,147.6l-0.628-1.429l0.535-0.236l0.628,1.429L181.579,147.6z M180.324,144.741l-0.627-1.429l0.535-0.234
		l0.627,1.429L180.324,144.741z M179.069,141.884l-0.627-1.429l0.535-0.234l0.627,1.429L179.069,141.884z M177.815,139.026
		l-0.628-1.43l0.535-0.234l0.628,1.43L177.815,139.026z M176.561,136.168l-0.627-1.429l0.535-0.234l0.627,1.429L176.561,136.168z
		 M175.306,133.311l-0.627-1.429l0.535-0.234l0.627,1.429L175.306,133.311z M174.052,130.454l-0.628-1.429l0.535-0.236l0.628,1.429
		L174.052,130.454z M172.797,127.596l-0.627-1.429l0.535-0.234l0.627,1.429L172.797,127.596z M171.542,124.737l-0.627-1.429
		l0.535-0.234l0.627,1.429L171.542,124.737z M170.288,121.881l-0.628-1.429l0.535-0.236l0.628,1.429L170.288,121.881z
		 M169.033,119.022l-0.627-1.429l0.535-0.234l0.627,1.429L169.033,119.022z M167.778,116.165l-0.627-1.429l0.535-0.234l0.627,1.429
		L167.778,116.165z M166.524,113.308l-0.628-1.429l0.535-0.236l0.628,1.429L166.524,113.308z M165.27,110.449l-0.627-1.429
		l0.535-0.234l0.627,1.429L165.27,110.449z M164.015,107.592l-0.627-1.429l0.535-0.234l0.627,1.429L164.015,107.592z
		 M162.761,104.735l-0.628-1.429l0.535-0.236l0.628,1.429L162.761,104.735z M161.506,101.876l-0.627-1.429l0.535-0.234l0.627,1.429
		L161.506,101.876z M160.251,99.019l-0.627-1.429l0.535-0.234l0.627,1.429L160.251,99.019z M158.997,96.162l-0.628-1.429
		l0.535-0.236l0.628,1.429L158.997,96.162z M157.742,93.304l-0.627-1.429l0.535-0.234l0.627,1.429L157.742,93.304z M156.487,90.445
		l-0.627-1.429l0.535-0.234l0.627,1.429L156.487,90.445z M155.233,87.589l-0.628-1.429l0.535-0.236l0.628,1.429L155.233,87.589z
		 M153.979,84.73l-0.627-1.429l0.535-0.234l0.627,1.429L153.979,84.73z M152.725,81.874l-0.628-1.429l0.535-0.236l0.628,1.429
		L152.725,81.874z M151.47,79.015l-0.627-1.429l0.535-0.234l0.627,1.429L151.47,79.015z M150.215,76.157l-0.627-1.429l0.535-0.234
		l0.627,1.429L150.215,76.157z M148.961,73.301l-0.628-1.429l0.535-0.236l0.628,1.429L148.961,73.301z M147.706,70.442l-0.627-1.429
		l0.535-0.234l0.627,1.429L147.706,70.442z M146.451,67.584l-0.627-1.429l0.535-0.234l0.627,1.429L146.451,67.584z M145.197,64.728
		l-0.628-1.429l0.535-0.236l0.628,1.429L145.197,64.728z M143.942,61.869l-0.627-1.429l0.535-0.234l0.627,1.429L143.942,61.869z
		 M142.688,59.012l-0.627-1.429l0.535-0.234l0.627,1.429L142.688,59.012z M141.434,56.154l-0.628-1.429l0.535-0.236l0.628,1.429
		L141.434,56.154z M140.179,53.296l-0.627-1.429l0.535-0.234l0.627,1.429L140.179,53.296z M138.924,50.438l-0.627-1.429l0.535-0.234
		l0.627,1.429L138.924,50.438z M137.67,47.582l-0.628-1.429l0.535-0.236l0.628,1.429L137.67,47.582z M136.415,44.723l-0.627-1.429
		l0.535-0.234l0.627,1.429L136.415,44.723z M135.16,41.865l-0.627-1.429l0.535-0.234l0.627,1.429L135.16,41.865z"/>
</g>
<g>
	<path fill="#FFFFFF" d="M96.646,140.274l-0.547-0.211l0.315-0.819l0.547,0.211L96.646,140.274z M97.522,137.999l-0.547-0.211
		l0.561-1.456l0.547,0.211L97.522,137.999z M98.644,135.085l-0.547-0.209l0.56-1.456l0.547,0.209L98.644,135.085z M99.764,132.174
		l-0.547-0.211l0.561-1.456l0.547,0.211L99.764,132.174z M100.885,129.261l-0.547-0.211l0.561-1.456l0.547,0.211L100.885,129.261z
		 M102.006,126.349l-0.547-0.211l0.561-1.457l0.547,0.211L102.006,126.349z M103.127,123.436l-0.547-0.211l0.561-1.456l0.547,0.211
		L103.127,123.436z M104.248,120.523l-0.547-0.211l0.561-1.457l0.547,0.211L104.248,120.523z M105.369,117.61l-0.547-0.211
		l0.561-1.456l0.547,0.211L105.369,117.61z M106.49,114.697l-0.547-0.211l0.561-1.456l0.547,0.211L106.49,114.697z M107.61,111.785
		l-0.547-0.211l0.561-1.456l0.547,0.211L107.61,111.785z M108.731,108.872l-0.547-0.211l0.561-1.456l0.547,0.211L108.731,108.872z
		 M109.853,105.96l-0.547-0.211l0.561-1.457l0.547,0.211L109.853,105.96z M110.974,103.047l-0.547-0.211l0.561-1.456l0.547,0.211
		L110.974,103.047z M112.095,100.135l-0.547-0.211l0.561-1.457l0.547,0.211L112.095,100.135z M113.216,97.222l-0.547-0.211
		l0.561-1.456l0.547,0.211L113.216,97.222z M114.337,94.309l-0.547-0.211l0.561-1.456l0.547,0.211L114.337,94.309z M115.457,91.396
		l-0.547-0.211l0.561-1.456l0.547,0.211L115.457,91.396z M116.578,88.483l-0.547-0.211l0.561-1.456l0.547,0.211L116.578,88.483z
		 M117.699,85.571l-0.547-0.211l0.561-1.457l0.547,0.211L117.699,85.571z M118.82,82.658l-0.547-0.211l0.561-1.456l0.547,0.211
		L118.82,82.658z M119.941,79.746l-0.547-0.211l0.561-1.457l0.547,0.211L119.941,79.746z M121.063,76.833l-0.547-0.211l0.561-1.456
		l0.547,0.211L121.063,76.833z M122.184,73.921l-0.547-0.211l0.561-1.457l0.547,0.211L122.184,73.921z M123.304,71.008l-0.547-0.211
		l0.561-1.456l0.547,0.211L123.304,71.008z M124.425,68.095l-0.547-0.211l0.561-1.456l0.547,0.211L124.425,68.095z M125.546,65.183
		l-0.547-0.211l0.561-1.456l0.547,0.211L125.546,65.183z M126.667,62.27l-0.547-0.211l0.561-1.456l0.547,0.211L126.667,62.27z
		 M127.788,59.357l-0.547-0.211l0.561-1.457l0.547,0.211L127.788,59.357z M128.909,56.444l-0.547-0.211l0.561-1.456l0.547,0.211
		L128.909,56.444z M130.03,53.532l-0.547-0.211l0.561-1.457l0.547,0.211L130.03,53.532z M131.15,50.619l-0.547-0.211l0.561-1.456
		l0.547,0.211L131.15,50.619z M132.271,47.706l-0.547-0.211l0.561-1.456l0.547,0.211L132.271,47.706z M133.393,44.794l-0.547-0.211
		l0.561-1.456l0.547,0.211L133.393,44.794z M134.514,41.881l-0.547-0.211l0.561-1.456l0.547,0.211L134.514,41.881z"/>
</g>
<g>
	<path fill="#FFFFFF" d="M84.531,177.341l-0.557-0.182l0.484-1.483l0.557,0.182L84.531,177.341z M85.501,174.374l-0.557-0.182
		l0.484-1.483l0.557,0.182L85.501,174.374z M86.471,171.408l-0.557-0.182l0.484-1.483l0.557,0.182L86.471,171.408z M87.439,168.441
		l-0.557-0.182l0.485-1.483l0.557,0.182L87.439,168.441z M88.409,165.475l-0.557-0.182l0.485-1.483l0.557,0.182L88.409,165.475z
		 M89.379,162.509l-0.557-0.182l0.485-1.483l0.557,0.182L89.379,162.509z M90.349,159.542l-0.557-0.182l0.485-1.483l0.557,0.182
		L90.349,159.542z M91.318,156.575l-0.557-0.182l0.485-1.483l0.557,0.182L91.318,156.575z M92.288,153.609l-0.557-0.182l0.484-1.483
		l0.557,0.182L92.288,153.609z M93.258,150.643l-0.557-0.182l0.484-1.483l0.557,0.182L93.258,150.643z M94.228,147.676l-0.557-0.182
		l0.484-1.483l0.557,0.182L94.228,147.676z M95.197,144.71l-0.557-0.182l0.484-1.483l0.557,0.182L95.197,144.71z M96.167,141.743
		l-0.557-0.182l0.484-1.483l0.557,0.182L96.167,141.743z"/>
</g>
<g>
	<path fill="#FFFFFF" d="M83.943,178.489h-1.561v-0.586h1.561V178.489z M80.822,178.489h-1.561v-0.586h1.561V178.489z
		 M77.701,178.489h-1.561v-0.586h1.561V178.489z M74.581,178.489h-1.561v-0.586h1.561V178.489z M71.46,178.489h-1.561v-0.586h1.561
		V178.489z M68.339,178.489h-1.561v-0.586h1.561V178.489z M65.218,178.489h-1.561v-0.586h1.561V178.489z M62.097,178.489h-1.561
		v-0.586h1.561V178.489z M58.976,178.489h-1.56v-0.586h1.56V178.489z M55.855,178.489h-1.561v-0.586h1.561V178.489z M52.734,178.489
		h-1.561v-0.586h1.561V178.489z M49.613,178.489h-1.561v-0.586h1.561V178.489z M46.492,178.489h-1.561v-0.586h1.561V178.489z
		 M43.371,178.489h-1.561v-0.586h1.561V178.489z M40.25,178.489h-1.56v-0.586h1.56V178.489z M37.13,178.489h-1.561v-0.586h1.561
		V178.489z"/>
</g>
</svg>
