<?xml version="1.0" encoding="utf-8"?>
<!-- Generator: Adobe Illustrator 16.0.3, SVG Export Plug-In . SVG Version: 6.00 Build 0)  -->
<!DOCTYPE svg PUBLIC "-//W3C//DTD SVG 1.1//EN" "http://www.w3.org/Graphics/SVG/1.1/DTD/svg11.dtd">
<svg version="1.1" id="Capa_1" xmlns="http://www.w3.org/2000/svg" xmlns:xlink="http://www.w3.org/1999/xlink" x="0px" y="0px"
	 width="373.33px" height="373.33px" viewBox="0 0 373.33 373.33" enable-background="new 0 0 373.33 373.33" xml:space="preserve">
<g>
	<g>
		<path fill="#FFFFFF" d="M273.738,326.79c-2.309,0.965-4.967-0.131-5.93-2.443c-0.959-2.313,0.137-4.965,2.447-5.928
			c2.314-0.961,4.969,0.135,5.928,2.443C277.148,323.175,276.057,325.831,273.738,326.79"/>
	</g>
</g>
<g>
	<path fill="#FFFFFF" d="M102.021,281.021c-2.314-0.957-4.963,0.148-5.916,2.465c-0.953,2.311,0.146,4.963,2.459,5.918
		c2.316,0.955,4.967-0.148,5.924-2.465C105.437,284.62,104.335,281.976,102.021,281.021z"/>
</g>
<g>
	<g>
		<path fill="#FFFFFF" d="M340.157,272.706c-0.957-2.314,0.135-4.971,2.445-5.928c2.309-0.965,4.965,0.131,5.926,2.443
			s-0.131,4.967-2.438,5.926C343.774,276.112,341.122,275.019,340.157,272.706"/>
	</g>
</g>
<g>
	<g>
		<path fill="#FFFFFF" d="M155.823,326.79c2.307,0.965,4.967-0.131,5.928-2.445c0.961-2.311-0.135-4.963-2.445-5.926
			c-2.316-0.961-4.967,0.135-5.926,2.443C152.415,323.175,153.507,325.831,155.823,326.79"/>
	</g>
</g>
<g>
	<g>
		<path fill="#FFFFFF" d="M332.699,93.591c0.957-2.313-0.135-4.969-2.445-5.928c-2.309-0.963-4.963,0.133-5.924,2.443
			c-0.963,2.314,0.131,4.967,2.438,5.928C329.082,96.999,331.734,95.903,332.699,93.591"/>
	</g>
</g>
<g>
	<g>
		<rect x="328.587" y="79.84" fill="#FFFFFF" width="0.947" height="18.137"/>
	</g>
	<g>
		<polygon fill="#FFFFFF" points="329.534,1.672 328.587,1.676 328.587,19.812 329.534,19.81 		"/>
	</g>
	<g>
		<rect x="299.045" y="49.353" fill="#FFFFFF" width="11.305" height="0.945"/>
	</g>
	<g>
		<rect x="347.771" y="49.353" fill="#FFFFFF" width="11.305" height="0.945"/>
	</g>
	<g>
		<polygon fill="#FFFFFF" points="330.202,50.298 336.183,50.298 341.89,50.298 341.89,49.353 336.181,49.353 330.202,49.353 
			334.431,45.124 338.468,41.089 337.798,40.419 333.761,44.456 329.534,48.683 329.534,38.399 329.534,29.245 328.587,29.245 
			328.587,38.403 328.587,48.683 324.358,44.454 320.323,40.419 319.655,41.089 323.692,45.126 327.919,49.353 321.938,49.353 
			316.231,49.353 316.231,50.298 321.94,50.298 327.919,50.298 323.69,54.527 319.655,58.563 320.325,59.232 324.36,55.195 
			328.587,50.969 328.587,61.252 328.587,70.405 329.534,70.405 329.534,61.248 329.534,50.969 333.763,55.197 337.798,59.232 
			338.466,58.563 334.429,54.525 		"/>
	</g>
</g>
<g>
	<g>
		<polygon fill="#FFFFFF" points="52.987,373.784 53.935,373.78 53.935,355.644 52.987,355.647 		"/>
	</g>
	<g>
		<polygon fill="#FFFFFF" points="53.935,277.478 52.987,277.481 52.987,295.616 53.935,295.614 		"/>
	</g>
	<g>
		<rect x="23.445" y="325.157" fill="#FFFFFF" width="11.305" height="0.947"/>
	</g>
	<g>
		<rect x="72.172" y="325.157" fill="#FFFFFF" width="11.305" height="0.947"/>
	</g>
	<g>
		<polygon fill="#FFFFFF" points="54.603,326.104 60.583,326.104 66.29,326.104 66.29,325.157 60.581,325.157 54.603,325.157 
			58.831,320.929 62.868,316.894 62.198,316.226 58.161,320.263 53.935,324.489 53.935,314.204 53.935,305.05 52.987,305.052 
			52.987,314.21 52.987,324.489 48.759,320.261 44.724,316.224 44.056,316.894 48.093,320.931 52.319,325.157 46.339,325.157 
			40.632,325.157 40.632,326.104 46.341,326.104 52.319,326.104 48.091,330.333 44.056,334.368 44.726,335.036 48.761,330.999 
			52.987,326.772 52.987,337.056 52.987,346.212 53.935,346.21 53.935,337.052 53.935,326.772 58.163,331.001 62.198,335.036 
			62.866,334.368 58.829,330.331 		"/>
	</g>
</g>
<g>
	<g>
		<polygon fill="#FFFFFF" points="327.569,361.947 328.517,361.943 328.517,343.807 327.569,343.811 		"/>
	</g>
	<g>
		<polygon fill="#FFFFFF" points="328.517,265.641 327.569,265.645 327.569,283.779 328.517,283.777 		"/>
	</g>
	<g>
		<rect x="298.027" y="313.32" fill="#FFFFFF" width="11.305" height="0.947"/>
	</g>
	<g>
		<rect x="346.754" y="313.32" fill="#FFFFFF" width="11.305" height="0.947"/>
	</g>
	<g>
		<polygon fill="#FFFFFF" points="329.185,314.268 335.165,314.268 340.872,314.268 340.872,313.32 335.163,313.32 329.185,313.32 
			333.413,309.092 337.45,305.057 336.78,304.389 332.743,308.426 328.517,312.652 328.517,302.367 328.517,293.213 
			327.569,293.215 327.569,302.373 327.569,312.652 323.341,308.424 319.306,304.387 318.638,305.057 322.675,309.094 
			326.901,313.32 320.921,313.32 315.214,313.32 315.214,314.268 320.923,314.268 326.901,314.268 322.673,318.496 318.638,322.531 
			319.308,323.199 323.343,319.162 327.569,314.936 327.569,325.219 327.569,334.375 328.517,334.373 328.517,325.215 
			328.517,314.936 332.745,319.164 336.78,323.199 337.448,322.531 333.411,318.494 		"/>
	</g>
</g>
<g>
	<g>
		<polygon fill="#FFFFFF" points="214.959,373.33 215.563,373.326 215.563,361.766 214.959,361.768 		"/>
	</g>
	<g>
		<rect x="214.959" y="311.94" fill="#FFFFFF" width="0.604" height="11.561"/>
	</g>
	<g>
		<rect x="196.127" y="342.332" fill="#FFFFFF" width="7.207" height="0.604"/>
	</g>
	<g>
		<rect x="227.188" y="342.332" fill="#FFFFFF" width="7.205" height="0.604"/>
	</g>
	<g>
		<polygon fill="#FFFFFF" points="215.988,342.936 219.801,342.936 223.438,342.936 223.438,342.332 219.799,342.332 
			215.988,342.332 218.684,339.637 221.256,337.066 220.83,336.641 218.256,339.213 215.563,341.906 215.563,335.352 
			215.563,329.516 214.959,329.518 214.959,335.354 214.959,341.906 212.264,339.211 209.691,336.639 209.266,337.066 
			211.838,339.639 214.533,342.332 210.721,342.332 207.082,342.332 207.084,342.936 210.723,342.936 214.533,342.936 
			211.838,345.631 209.266,348.205 209.691,348.631 212.266,346.057 214.959,343.363 214.959,349.918 214.959,355.754 
			215.563,355.752 215.563,349.914 215.563,343.363 218.258,346.059 220.83,348.631 221.256,348.203 218.684,345.631 		"/>
	</g>
</g>
<g>
	<g>
		<polygon fill="#FFFFFF" points="157.566,305.405 158.17,305.401 158.17,293.841 157.566,293.843 		"/>
	</g>
	<g>
		<rect x="157.566" y="244.017" fill="#FFFFFF" width="0.604" height="11.561"/>
	</g>
	<g>
		<rect x="138.734" y="274.407" fill="#FFFFFF" width="7.207" height="0.604"/>
	</g>
	<g>
		<rect x="169.795" y="274.407" fill="#FFFFFF" width="7.205" height="0.604"/>
	</g>
	<g>
		<polygon fill="#FFFFFF" points="158.596,275.011 162.408,275.011 166.045,275.011 166.045,274.407 162.406,274.407 
			158.596,274.407 161.291,271.712 163.863,269.142 163.438,268.716 160.863,271.288 158.17,273.981 158.17,267.427 158.17,261.591 
			157.566,261.593 157.566,267.429 157.566,273.981 154.871,271.286 152.299,268.714 151.873,269.142 154.445,271.714 
			157.141,274.407 153.328,274.407 149.689,274.407 149.691,275.011 153.33,275.011 157.141,275.011 154.445,277.706 
			151.873,280.28 152.299,280.706 154.873,278.132 157.566,275.438 157.566,281.993 157.566,287.829 158.17,287.827 158.17,281.989 
			158.17,275.438 160.865,278.134 163.438,280.706 163.863,280.278 161.291,277.706 		"/>
	</g>
</g>
<g>
	<g>
		<polygon fill="#FFFFFF" points="240.836,254.986 241.439,254.982 241.439,243.422 240.836,243.424 		"/>
	</g>
	<g>
		<rect x="240.836" y="193.597" fill="#FFFFFF" width="0.604" height="11.561"/>
	</g>
	<g>
		<rect x="222.004" y="223.988" fill="#FFFFFF" width="7.207" height="0.604"/>
	</g>
	<g>
		<rect x="253.064" y="223.988" fill="#FFFFFF" width="7.205" height="0.604"/>
	</g>
	<g>
		<polygon fill="#FFFFFF" points="241.865,224.592 245.678,224.592 249.314,224.592 249.314,223.988 245.676,223.988 
			241.865,223.988 244.561,221.293 247.133,218.723 246.707,218.297 244.133,220.869 241.439,223.563 241.439,217.008 
			241.439,211.172 240.836,211.174 240.836,217.01 240.836,223.563 238.141,220.867 235.568,218.295 235.143,218.723 
			237.715,221.295 240.41,223.988 236.598,223.988 232.959,223.988 232.961,224.592 236.6,224.592 240.41,224.592 237.715,227.287 
			235.143,229.861 235.568,230.287 238.143,227.713 240.836,225.02 240.836,231.574 240.836,237.41 241.439,237.408 241.439,231.57 
			241.439,225.02 244.135,227.715 246.707,230.287 247.133,229.859 244.561,227.287 		"/>
	</g>
</g>
<g>
	<path fill="#FFFFFF" d="M328.75,89.331l-0.04-1.62l0.607-0.016l0.04,1.62L328.75,89.331z M328.67,86.092l-0.041-1.62l0.607-0.016
		l0.041,1.62L328.67,86.092z M328.589,82.852l-0.041-1.62l0.607-0.016l0.041,1.62L328.589,82.852z M328.508,79.611l-0.041-1.62
		l0.607-0.016l0.041,1.62L328.508,79.611z M328.427,76.372l-0.04-1.62l0.607-0.016l0.04,1.62L328.427,76.372z M328.346,73.132
		l-0.04-1.62l0.607-0.016l0.04,1.62L328.346,73.132z M328.265,69.892l-0.04-1.62l0.607-0.016l0.04,1.62L328.265,69.892z
		 M328.185,66.651l-0.041-1.619l0.607-0.016l0.041,1.619L328.185,66.651z M328.104,63.412l-0.041-1.62l0.607-0.016l0.041,1.62
		L328.104,63.412z M328.022,60.172l-0.041-1.62l0.607-0.016l0.041,1.62L328.022,60.172z M327.941,56.932l-0.04-1.62l0.607-0.016
		l0.04,1.62L327.941,56.932z M327.86,53.692l-0.04-1.62l0.607-0.016l0.04,1.62L327.86,53.692z M327.779,50.452l-0.04-1.62
		l0.607-0.016l0.04,1.62L327.779,50.452z"/>
</g>
<g>
	<path fill="#FFFFFF" d="M344.041,270.988l-0.045-0.527l0.605-0.051l0.045,0.527L344.041,270.988z M343.86,268.846l-0.136-1.614
		l0.605-0.051l0.136,1.614L343.86,268.846z M343.588,265.616l-0.136-1.614l0.605-0.051l0.136,1.614L343.588,265.616z
		 M343.316,262.387l-0.136-1.614l0.605-0.051l0.136,1.614L343.316,262.387z M343.044,259.157l-0.136-1.615l0.605-0.051l0.136,1.615
		L343.044,259.157z M342.772,255.928l-0.137-1.615l0.605-0.051l0.137,1.615L342.772,255.928z M342.5,252.698l-0.136-1.615
		l0.605-0.051l0.136,1.615L342.5,252.698z M342.228,249.469l-0.136-1.615l0.605-0.051l0.136,1.615L342.228,249.469z
		 M341.956,246.239l-0.137-1.615l0.605-0.051l0.137,1.615L341.956,246.239z M341.684,243.01l-0.136-1.615l0.605-0.051l0.136,1.615
		L341.684,243.01z M341.411,239.78l-0.136-1.615l0.605-0.051l0.136,1.615L341.411,239.78z M341.14,236.551l-0.137-1.615l0.605-0.051
		l0.137,1.615L341.14,236.551z M340.867,233.321l-0.136-1.615l0.605-0.051l0.136,1.615L340.867,233.321z M340.595,230.092
		l-0.136-1.615l0.605-0.051l0.136,1.615L340.595,230.092z M340.323,226.862l-0.137-1.615l0.605-0.051l0.137,1.615L340.323,226.862z
		 M340.051,223.633l-0.136-1.615l0.605-0.051l0.136,1.615L340.051,223.633z M339.778,220.403l-0.136-1.615l0.605-0.051l0.136,1.615
		L339.778,220.403z M339.507,217.174l-0.137-1.615l0.605-0.051l0.137,1.615L339.507,217.174z M339.234,213.944l-0.136-1.615
		l0.605-0.051l0.136,1.615L339.234,213.944z M338.962,210.714l-0.136-1.614l0.605-0.051l0.136,1.614L338.962,210.714z
		 M338.69,207.484l-0.137-1.614l0.605-0.051l0.137,1.614L338.69,207.484z M338.418,204.255l-0.136-1.614l0.605-0.051l0.136,1.614
		L338.418,204.255z M338.146,201.025l-0.136-1.614l0.605-0.051l0.136,1.614L338.146,201.025z M337.874,197.796l-0.137-1.614
		l0.605-0.051l0.137,1.614L337.874,197.796z M337.602,194.566l-0.136-1.614l0.605-0.051l0.136,1.614L337.602,194.566z
		 M337.33,191.337l-0.137-1.614l0.605-0.051l0.137,1.614L337.33,191.337z M337.058,188.107l-0.136-1.614l0.605-0.051l0.136,1.614
		L337.058,188.107z M336.785,184.878l-0.136-1.614l0.605-0.051l0.136,1.614L336.785,184.878z M336.514,181.648l-0.137-1.614
		l0.605-0.051l0.137,1.614L336.514,181.648z M336.241,178.419l-0.136-1.614l0.605-0.051l0.136,1.614L336.241,178.419z
		 M335.969,175.189l-0.136-1.614l0.605-0.051l0.136,1.614L335.969,175.189z M335.697,171.96l-0.137-1.614l0.605-0.051l0.137,1.614
		L335.697,171.96z M335.425,168.73l-0.136-1.614l0.605-0.051l0.136,1.614L335.425,168.73z M335.152,165.501l-0.136-1.614
		l0.605-0.051l0.136,1.614L335.152,165.501z M334.881,162.271l-0.137-1.614l0.605-0.051l0.137,1.614L334.881,162.271z
		 M334.608,159.042l-0.136-1.615l0.605-0.051l0.136,1.615L334.608,159.042z M334.336,155.813l-0.136-1.615l0.605-0.051l0.136,1.615
		L334.336,155.813z M334.064,152.583l-0.137-1.615l0.605-0.051l0.137,1.615L334.064,152.583z M333.792,149.354l-0.136-1.615
		l0.605-0.051l0.136,1.615L333.792,149.354z M333.52,146.124l-0.136-1.615l0.605-0.051l0.136,1.615L333.52,146.124z
		 M333.248,142.895l-0.137-1.615l0.605-0.051l0.137,1.615L333.248,142.895z M332.976,139.665l-0.136-1.615l0.605-0.051l0.136,1.615
		L332.976,139.665z M332.703,136.436l-0.136-1.615l0.605-0.051l0.136,1.615L332.703,136.436z M332.432,133.206l-0.137-1.615
		l0.605-0.051l0.137,1.615L332.432,133.206z M332.159,129.977l-0.136-1.615l0.605-0.051l0.136,1.615L332.159,129.977z
		 M331.887,126.747l-0.136-1.615l0.605-0.051l0.136,1.615L331.887,126.747z M331.615,123.518l-0.136-1.615l0.605-0.051l0.136,1.615
		L331.615,123.518z M331.343,120.288l-0.136-1.615l0.605-0.051l0.136,1.615L331.343,120.288z M331.071,117.059l-0.137-1.615
		l0.605-0.051l0.137,1.615L331.071,117.059z M330.799,113.829l-0.136-1.615l0.605-0.051l0.136,1.615L330.799,113.829z
		 M330.526,110.6l-0.136-1.615l0.605-0.051l0.136,1.615L330.526,110.6z M330.255,107.37l-0.137-1.615l0.605-0.051l0.137,1.615
		L330.255,107.37z M329.982,104.141l-0.136-1.615l0.605-0.051l0.136,1.615L329.982,104.141z M329.71,100.911l-0.136-1.615
		l0.605-0.051l0.136,1.615L329.71,100.911z M329.438,97.682l-0.137-1.615l0.605-0.051l0.137,1.615L329.438,97.682z M329.166,94.452
		l-0.136-1.615l0.605-0.051l0.136,1.615L329.166,94.452z M328.894,91.223l-0.136-1.615l0.605-0.051l0.136,1.615L328.894,91.223z"/>
</g>
<g>
	<path fill="#FFFFFF" d="M328.57,315.231l-0.57-0.207l0.554-1.522l0.57,0.207L328.57,315.231z M329.678,312.186l-0.57-0.207
		l0.554-1.522l0.57,0.207L329.678,312.186z M330.785,309.14l-0.57-0.207l0.554-1.522l0.57,0.207L330.785,309.14z M331.893,306.094
		l-0.57-0.207l0.554-1.522l0.57,0.207L331.893,306.094z M333,303.048l-0.57-0.207l0.554-1.522l0.57,0.207L333,303.048z
		 M334.107,300.002l-0.57-0.207l0.554-1.522l0.57,0.207L334.107,300.002z M335.215,296.956l-0.57-0.207l0.554-1.522l0.57,0.207
		L335.215,296.956z M336.322,293.911l-0.57-0.209l0.555-1.522l0.57,0.209L336.322,293.911z M337.431,290.864l-0.57-0.207
		l0.554-1.522l0.57,0.207L337.431,290.864z M338.538,287.818l-0.57-0.207l0.554-1.522l0.57,0.207L338.538,287.818z M339.646,284.772
		l-0.57-0.207l0.554-1.522l0.57,0.207L339.646,284.772z M340.753,281.727l-0.57-0.207l0.554-1.522l0.57,0.207L340.753,281.727z
		 M341.86,278.681l-0.57-0.207l0.554-1.522l0.57,0.207L341.86,278.681z M342.968,275.635l-0.57-0.207l0.554-1.522l0.57,0.207
		L342.968,275.635z M344.075,272.589l-0.57-0.207l0.554-1.522l0.57,0.207L344.075,272.589z"/>
</g>
<g>
	<path fill="#FFFFFF" d="M272.03,322.216l-0.066-0.604l1.275-0.14l0.066,0.604L272.03,322.216z M274.916,321.9l-0.066-0.604
		l1.611-0.176l0.066,0.604L274.916,321.9z M278.138,321.549l-0.066-0.604l1.611-0.176l0.066,0.604L278.138,321.549z M281.36,321.197
		l-0.066-0.604l1.61-0.176l0.066,0.604L281.36,321.197z M284.582,320.846l-0.066-0.604l1.61-0.177l0.066,0.604L284.582,320.846z
		 M287.804,320.493l-0.066-0.604l1.61-0.176l0.066,0.604L287.804,320.493z M291.025,320.142l-0.066-0.604l1.611-0.176l0.066,0.604
		L291.025,320.142z M294.247,319.79l-0.066-0.604l1.611-0.176l0.066,0.604L294.247,319.79z M297.469,319.438l-0.066-0.604
		l1.611-0.176l0.066,0.604L297.469,319.438z M300.69,319.086l-0.066-0.604l1.611-0.176l0.066,0.604L300.69,319.086z
		 M303.913,318.734l-0.066-0.604l1.61-0.176l0.066,0.604L303.913,318.734z M307.135,318.383l-0.066-0.604l1.61-0.176l0.066,0.604
		L307.135,318.383z M310.356,318.03l-0.066-0.604l1.61-0.176l0.066,0.604L310.356,318.03z M313.578,317.679l-0.066-0.604l1.61-0.176
		l0.066,0.604L313.578,317.679z M316.8,317.327l-0.066-0.604l1.611-0.176l0.066,0.604L316.8,317.327z M320.021,316.976l-0.066-0.604
		l1.611-0.176l0.066,0.604L320.021,316.976z M323.243,316.623l-0.066-0.604l1.611-0.176l0.066,0.604L323.243,316.623z
		 M326.465,316.271l-0.066-0.604l1.611-0.176l0.066,0.604L326.465,316.271z"/>
</g>
<g>
	<path fill="#FFFFFF" d="M218.594,341.019l-0.201-0.574l1.528-0.537l0.201,0.574L218.594,341.019z M221.651,339.943l-0.201-0.574
		l1.528-0.537l0.201,0.574L221.651,339.943z M224.708,338.868l-0.201-0.574l1.529-0.537l0.201,0.574L224.708,338.868z
		 M227.766,337.793l-0.201-0.574l1.528-0.537l0.201,0.574L227.766,337.793z M230.823,336.717l-0.201-0.572l1.528-0.538l0.201,0.572
		L230.823,336.717z M233.881,335.642l-0.201-0.572l1.528-0.538l0.201,0.572L233.881,335.642z M236.938,334.566l-0.201-0.572
		l1.529-0.538l0.201,0.572L236.938,334.566z M239.995,333.491l-0.201-0.572l1.528-0.538l0.201,0.572L239.995,333.491z
		 M243.053,332.416l-0.201-0.572l1.528-0.538l0.201,0.572L243.053,332.416z M246.11,331.341l-0.201-0.574l1.528-0.537l0.201,0.574
		L246.11,331.341z M249.167,330.266l-0.201-0.574l1.529-0.537l0.201,0.574L249.167,330.266z M252.225,329.19l-0.201-0.574
		l1.528-0.537l0.201,0.574L252.225,329.19z M255.282,328.115l-0.201-0.574l1.528-0.537l0.201,0.574L255.282,328.115z
		 M258.34,327.039l-0.201-0.572l1.528-0.538l0.201,0.572L258.34,327.039z M261.396,325.964l-0.201-0.572l1.529-0.538l0.201,0.572
		L261.396,325.964z M264.454,324.889l-0.201-0.572l1.528-0.538l0.201,0.572L264.454,324.889z M267.512,323.813l-0.201-0.572
		l1.528-0.538l0.201,0.572L267.512,323.813z M270.569,322.738l-0.201-0.572l1.528-0.538l0.201,0.572L270.569,322.738z"/>
</g>
<g>
	<path fill="#FFFFFF" d="M216.878,341.556l-1.54-0.504l0.189-0.578l1.54,0.504L216.878,341.556z M213.798,340.547l-1.54-0.504
		l0.189-0.578l1.54,0.504L213.798,340.547z M210.718,339.539l-1.54-0.505l0.189-0.578l1.54,0.505L210.718,339.539z M207.638,338.53
		l-1.54-0.504l0.189-0.578l1.54,0.504L207.638,338.53z M204.558,337.521l-1.54-0.504l0.189-0.578l1.54,0.504L204.558,337.521z
		 M201.478,336.514l-1.54-0.505l0.189-0.578l1.54,0.505L201.478,336.514z M198.397,335.505l-1.54-0.504l0.189-0.578l1.54,0.504
		L198.397,335.505z M195.317,334.496l-1.54-0.504l0.189-0.578l1.54,0.504L195.317,334.496z M192.237,333.487l-1.54-0.504
		l0.189-0.578l1.54,0.504L192.237,333.487z M189.157,332.479l-1.54-0.505l0.189-0.578l1.54,0.505L189.157,332.479z M186.077,331.471
		l-1.54-0.504l0.189-0.578l1.54,0.504L186.077,331.471z M182.997,330.462l-1.54-0.504l0.189-0.578l1.54,0.504L182.997,330.462z
		 M179.917,329.454l-1.54-0.505l0.189-0.578l1.54,0.505L179.917,329.454z M176.837,328.445l-1.54-0.504l0.189-0.578l1.54,0.504
		L176.837,328.445z M173.757,327.437l-1.54-0.504l0.189-0.578l1.54,0.504L173.757,327.437z M170.677,326.429l-1.54-0.505
		l0.189-0.578l1.54,0.505L170.677,326.429z M167.597,325.42l-1.54-0.504l0.189-0.578l1.54,0.504L167.597,325.42z M164.517,324.411
		l-1.54-0.504l0.189-0.578l1.54,0.504L164.517,324.411z M161.437,323.403l-1.54-0.505l0.189-0.578l1.54,0.505L161.437,323.403z
		 M158.356,322.395l-0.584-0.191l0.189-0.578l0.584,0.191L158.356,322.395z"/>
</g>
<g>
	<path fill="#FFFFFF" d="M53.948,326.793l-0.027-0.607l0.322-0.015l0.027,0.607L53.948,326.793z M55.89,326.707l-0.027-0.607
		l1.62-0.07l0.025,0.607L55.89,326.707z M59.127,326.565l-0.027-0.607l1.619-0.071l0.027,0.607L59.127,326.565z M62.365,326.423
		l-0.027-0.607l1.619-0.071l0.027,0.607L62.365,326.423z M65.603,326.28l-0.027-0.607l1.619-0.071l0.027,0.607L65.603,326.28z
		 M68.841,326.138l-0.027-0.607l1.619-0.071l0.027,0.607L68.841,326.138z M72.078,325.995l-0.027-0.607l1.619-0.071l0.027,0.607
		L72.078,325.995z M75.316,325.853l-0.027-0.607l1.619-0.071l0.027,0.607L75.316,325.853z M78.555,325.71l-0.027-0.607l1.618-0.071
		l0.027,0.607L78.555,325.71z M81.792,325.567l-0.027-0.607l1.619-0.071l0.027,0.607L81.792,325.567z M85.03,325.425l-0.027-0.607
		l1.618-0.071l0.027,0.607L85.03,325.425z M88.268,325.282l-0.027-0.607l1.619-0.071l0.027,0.607L88.268,325.282z M91.506,325.14
		l-0.027-0.607l1.618-0.071l0.027,0.607L91.506,325.14z M94.743,324.997l-0.027-0.607l1.619-0.071l0.027,0.607L94.743,324.997z
		 M97.981,324.854l-0.027-0.607l1.618-0.071l0.027,0.607L97.981,324.854z M101.219,324.712l-0.027-0.607l1.619-0.071l0.027,0.607
		L101.219,324.712z M104.457,324.569l-0.027-0.607l1.619-0.071l0.027,0.607L104.457,324.569z M107.694,324.427l-0.027-0.607
		l1.619-0.071l0.027,0.607L107.694,324.427z M110.933,324.284l-0.027-0.607l1.619-0.071l0.027,0.607L110.933,324.284z
		 M114.17,324.142l-0.027-0.607l1.619-0.071l0.027,0.607L114.17,324.142z M117.408,323.999l-0.027-0.607L119,323.32l0.027,0.607
		L117.408,323.999z M120.646,323.856l-0.027-0.607l1.619-0.071l0.027,0.607L120.646,323.856z M123.883,323.714l-0.025-0.607
		l1.618-0.07l0.027,0.607L123.883,323.714z M127.121,323.572l-0.027-0.607l1.619-0.071l0.027,0.607L127.121,323.572z
		 M130.359,323.43l-0.027-0.607l1.619-0.071l0.027,0.607L130.359,323.43z M133.598,323.287l-0.027-0.607l1.618-0.071l0.027,0.607
		L133.598,323.287z M136.835,323.145l-0.027-0.607l1.619-0.071l0.027,0.607L136.835,323.145z M140.073,323.002l-0.027-0.607
		l1.618-0.071l0.027,0.607L140.073,323.002z M143.311,322.859l-0.027-0.607l1.619-0.071l0.027,0.607L143.311,322.859z
		 M146.549,322.717l-0.027-0.607l1.618-0.071l0.027,0.607L146.549,322.717z M149.786,322.574l-0.027-0.607l1.619-0.071l0.027,0.607
		L149.786,322.574z M153.024,322.432l-0.027-0.607l1.618-0.071l0.027,0.607L153.024,322.432z M156.262,322.289l-0.027-0.607
		l1.619-0.071l0.027,0.607L156.262,322.289z"/>
</g>
<g>
	<path fill="#FFFFFF" d="M54.14,326.714l-0.41-0.449l1.197-1.092l0.41,0.449L54.14,326.714z M56.534,324.529l-0.41-0.449
		l1.197-1.092l0.41,0.449L56.534,324.529z M58.929,322.346l-0.41-0.449l1.197-1.092l0.41,0.449L58.929,322.346z M61.323,320.161
		l-0.41-0.449l1.197-1.092l0.41,0.449L61.323,320.161z M63.718,317.978l-0.41-0.449l1.197-1.092l0.41,0.449L63.718,317.978z
		 M66.112,315.793l-0.41-0.449l1.197-1.092l0.41,0.449L66.112,315.793z M68.507,313.609l-0.41-0.449l1.197-1.092l0.41,0.449
		L68.507,313.609z M70.901,311.425l-0.41-0.449l1.197-1.092l0.41,0.449L70.901,311.425z M73.296,309.241l-0.41-0.449l1.197-1.092
		l0.41,0.449L73.296,309.241z M75.69,307.057l-0.41-0.449l1.196-1.092l0.41,0.449L75.69,307.057z M78.084,304.873l-0.41-0.449
		l1.197-1.092l0.41,0.449L78.084,304.873z M80.479,302.688l-0.41-0.449l1.197-1.092l0.41,0.449L80.479,302.688z M82.873,300.505
		l-0.41-0.449l1.197-1.092l0.41,0.449L82.873,300.505z M85.268,298.32l-0.41-0.449l1.197-1.092l0.41,0.449L85.268,298.32z
		 M87.662,296.137l-0.41-0.449l1.197-1.093l0.41,0.449L87.662,296.137z M90.057,293.952l-0.41-0.449l1.197-1.092l0.41,0.449
		L90.057,293.952z M92.451,291.769l-0.41-0.449l1.197-1.093l0.41,0.449L92.451,291.769z M94.846,289.584l-0.41-0.449l1.197-1.092
		l0.41,0.449L94.846,289.584z M97.24,287.4l-0.41-0.449l1.197-1.093l0.41,0.449L97.24,287.4z M99.635,285.216l-0.41-0.449
		l0.865-0.789l0.41,0.449L99.635,285.216z"/>
</g>
<g>
	<path fill="#FFFFFF" d="M100.348,284.501l-0.105-0.598l1.596-0.281l0.105,0.598L100.348,284.501z M103.539,283.938l-0.105-0.598
		l1.596-0.281l0.105,0.598L103.539,283.938z M106.731,283.375l-0.105-0.598l1.596-0.282l0.105,0.598L106.731,283.375z
		 M109.923,282.812l-0.105-0.598l1.596-0.281l0.105,0.598L109.923,282.812z M113.114,282.248l-0.105-0.598l1.596-0.281l0.105,0.598
		L113.114,282.248z M116.306,281.685l-0.105-0.598l1.596-0.281l0.105,0.598L116.306,281.685z M119.498,281.122l-0.105-0.598
		l1.596-0.282l0.105,0.598L119.498,281.122z M122.689,280.559l-0.105-0.598l1.596-0.281l0.105,0.598L122.689,280.559z
		 M125.881,279.995l-0.105-0.598l1.596-0.281l0.105,0.598L125.881,279.995z M129.072,279.433l-0.105-0.598l1.596-0.282l0.105,0.598
		L129.072,279.433z M132.265,278.869l-0.105-0.598l1.596-0.281l0.105,0.598L132.265,278.869z M135.456,278.306l-0.105-0.598
		l1.596-0.281l0.105,0.598L135.456,278.306z M138.647,277.743l-0.105-0.598l1.596-0.282l0.105,0.598L138.647,277.743z
		 M141.839,277.18l-0.105-0.598l1.596-0.282l0.105,0.598L141.839,277.18z M145.031,276.616l-0.105-0.598l1.596-0.281l0.105,0.598
		L145.031,276.616z M148.223,276.053l-0.105-0.598l1.596-0.281l0.105,0.598L148.223,276.053z M151.414,275.49l-0.105-0.598
		l1.596-0.282l0.105,0.598L151.414,275.49z M154.605,274.927l-0.105-0.598l1.596-0.281l0.105,0.598L154.605,274.927z
		 M157.798,274.363l-0.105-0.598l1.596-0.281l0.105,0.598L157.798,274.363z"/>
</g>
<g>
	<path fill="#FFFFFF" d="M161.088,273.762l-0.318-0.518l1.38-0.85l0.318,0.518L161.088,273.762z M163.848,272.063l-0.318-0.518
		l1.381-0.85l0.318,0.518L163.848,272.063z M166.608,270.364l-0.318-0.518l1.38-0.849l0.318,0.518L166.608,270.364z
		 M169.368,268.666l-0.318-0.518l1.381-0.85l0.318,0.518L169.368,268.666z M172.129,266.968l-0.318-0.518l1.38-0.85l0.318,0.518
		L172.129,266.968z M174.889,265.269l-0.318-0.518l1.38-0.849l0.318,0.518L174.889,265.269z M177.649,263.57l-0.318-0.518l1.38-0.85
		l0.318,0.518L177.649,263.57z M180.409,261.872l-0.318-0.518l1.38-0.85l0.318,0.518L180.409,261.872z M183.17,260.173l-0.318-0.518
		l1.38-0.849l0.318,0.518L183.17,260.173z M185.93,258.475l-0.318-0.518l1.38-0.85l0.318,0.518L185.93,258.475z M188.689,256.776
		l-0.318-0.518l1.381-0.85l0.318,0.518L188.689,256.776z M191.45,255.077l-0.318-0.518l1.38-0.849l0.318,0.518L191.45,255.077z
		 M194.21,253.379l-0.318-0.518l1.381-0.85l0.318,0.518L194.21,253.379z M196.971,251.681l-0.318-0.518l1.38-0.85l0.318,0.518
		L196.971,251.681z M199.73,249.981l-0.318-0.518l1.38-0.849l0.318,0.518L199.73,249.981z M202.491,248.283l-0.318-0.518l1.38-0.85
		l0.318,0.518L202.491,248.283z M205.251,246.585l-0.318-0.518l1.38-0.85l0.318,0.518L205.251,246.585z M208.012,244.886
		l-0.318-0.518l1.38-0.849l0.318,0.518L208.012,244.886z M210.771,243.188l-0.318-0.518l1.38-0.85l0.318,0.518L210.771,243.188z
		 M213.531,241.489l-0.318-0.518l1.381-0.85l0.318,0.518L213.531,241.489z M216.292,239.79l-0.318-0.518l1.38-0.849l0.318,0.518
		L216.292,239.79z M219.052,238.092l-0.318-0.518l1.381-0.85l0.318,0.518L219.052,238.092z M221.813,236.394l-0.318-0.518l1.38-0.85
		l0.318,0.518L221.813,236.394z M224.572,234.694l-0.318-0.518l1.38-0.849l0.318,0.518L224.572,234.694z M227.333,232.996
		l-0.318-0.518l1.38-0.85l0.318,0.518L227.333,232.996z M230.093,231.298l-0.318-0.518l1.38-0.85l0.318,0.518L230.093,231.298z
		 M232.854,229.599l-0.318-0.518l1.38-0.849l0.318,0.518L232.854,229.599z M235.613,227.9l-0.318-0.518l1.38-0.85l0.318,0.518
		L235.613,227.9z M238.373,226.202l-0.318-0.518l1.381-0.85l0.318,0.518L238.373,226.202z"/>
</g>
<g>
	<path fill="#FFFFFF" d="M240.664,224.759l-0.508-0.334l0.89-1.354l0.508,0.334L240.664,224.759z M242.443,222.05l-0.508-0.334
		l0.889-1.354l0.508,0.334L242.443,222.05z M244.222,219.341l-0.508-0.334l0.89-1.354l0.508,0.334L244.222,219.341z
		 M246.001,216.632l-0.508-0.334l0.889-1.355l0.508,0.334L246.001,216.632z M247.779,213.922l-0.508-0.334l0.89-1.354l0.508,0.334
		L247.779,213.922z M249.559,211.213l-0.508-0.334l0.89-1.354l0.508,0.334L249.559,211.213z M251.337,208.504l-0.508-0.334
		l0.89-1.354l0.508,0.334L251.337,208.504z M253.116,205.795l-0.508-0.334l0.89-1.354l0.508,0.334L253.116,205.795z
		 M254.896,203.086l-0.508-0.334l0.889-1.354l0.508,0.334L254.896,203.086z M256.674,200.377l-0.508-0.334l0.89-1.354l0.508,0.334
		L256.674,200.377z M258.453,197.667l-0.508-0.334l0.89-1.354l0.508,0.334L258.453,197.667z M260.231,194.958l-0.508-0.334
		l0.89-1.354l0.508,0.334L260.231,194.958z M262.011,192.249l-0.508-0.334l0.89-1.354l0.508,0.334L262.011,192.249z M263.789,189.54
		l-0.508-0.334l0.89-1.354l0.508,0.334L263.789,189.54z M265.568,186.831l-0.508-0.334l0.89-1.354l0.508,0.334L265.568,186.831z
		 M267.348,184.122l-0.508-0.334l0.889-1.354l0.508,0.334L267.348,184.122z M269.126,181.413l-0.508-0.334l0.89-1.355l0.508,0.334
		L269.126,181.413z M270.905,178.703l-0.508-0.334l0.889-1.354l0.508,0.334L270.905,178.703z M272.684,175.994l-0.508-0.334
		l0.89-1.354l0.508,0.334L272.684,175.994z M274.463,173.285l-0.508-0.334l0.89-1.354l0.508,0.334L274.463,173.285z
		 M276.241,170.576l-0.508-0.334l0.89-1.354l0.508,0.334L276.241,170.576z M278.021,167.867l-0.508-0.334l0.89-1.354l0.508,0.334
		L278.021,167.867z M279.8,165.158l-0.508-0.334l0.889-1.354l0.508,0.334L279.8,165.158z M281.578,162.448l-0.508-0.334l0.89-1.354
		l0.508,0.334L281.578,162.448z M283.357,159.739l-0.508-0.334l0.889-1.354l0.508,0.334L283.357,159.739z M285.136,157.03
		l-0.508-0.334l0.89-1.354l0.508,0.334L285.136,157.03z M286.915,154.321l-0.508-0.334l0.89-1.354l0.508,0.334L286.915,154.321z
		 M288.693,151.612l-0.508-0.334l0.89-1.354l0.508,0.334L288.693,151.612z M290.473,148.903l-0.508-0.334l0.89-1.354l0.508,0.334
		L290.473,148.903z M292.252,146.194l-0.508-0.334l0.889-1.355l0.508,0.334L292.252,146.194z M294.03,143.484l-0.508-0.334
		l0.89-1.354l0.508,0.334L294.03,143.484z M295.81,140.775l-0.508-0.334l0.89-1.354l0.508,0.334L295.81,140.775z M297.588,138.066
		l-0.508-0.334l0.89-1.354l0.508,0.334L297.588,138.066z M299.367,135.357l-0.508-0.334l0.89-1.354l0.508,0.334L299.367,135.357z
		 M301.146,132.648l-0.508-0.334l0.89-1.354l0.508,0.334L301.146,132.648z M302.925,129.939l-0.508-0.334l0.89-1.355l0.508,0.334
		L302.925,129.939z M304.704,127.229l-0.508-0.334l0.889-1.354l0.508,0.334L304.704,127.229z M306.482,124.521l-0.508-0.334
		l0.89-1.354l0.508,0.334L306.482,124.521z M308.262,121.812l-0.508-0.334l0.89-1.354l0.508,0.334L308.262,121.812z M310.04,119.103
		l-0.508-0.334l0.89-1.354l0.508,0.334L310.04,119.103z M311.819,116.394l-0.508-0.334l0.89-1.354l0.508,0.334L311.819,116.394z
		 M313.598,113.685l-0.508-0.334l0.89-1.354l0.508,0.334L313.598,113.685z M315.377,110.975l-0.508-0.334l0.89-1.354l0.508,0.334
		L315.377,110.975z M317.156,108.266l-0.508-0.334l0.889-1.354l0.508,0.334L317.156,108.266z M318.935,105.557l-0.508-0.334
		l0.89-1.354l0.508,0.334L318.935,105.557z M320.714,102.848l-0.508-0.334l0.89-1.354l0.508,0.334L320.714,102.848z
		 M322.492,100.139l-0.508-0.334l0.89-1.354l0.508,0.334L322.492,100.139z M324.271,97.43l-0.508-0.334l0.89-1.354l0.508,0.334
		L324.271,97.43z M326.05,94.72l-0.508-0.334l0.89-1.354l0.508,0.334L326.05,94.72z M327.829,92.011l-0.508-0.334l0.89-1.354
		l0.508,0.334L327.829,92.011z"/>
</g>
</svg>
