<?xml version="1.0" encoding="utf-8"?>
<!-- Generator: Adobe Illustrator 16.0.3, SVG Export Plug-In . SVG Version: 6.00 Build 0)  -->
<!DOCTYPE svg PUBLIC "-//W3C//DTD SVG 1.1//EN" "http://www.w3.org/Graphics/SVG/1.1/DTD/svg11.dtd">
<svg version="1.1" id="Capa_1" xmlns="http://www.w3.org/2000/svg" xmlns:xlink="http://www.w3.org/1999/xlink" x="0px" y="0px"
	 width="373.33px" height="373.33px" viewBox="0 0 373.33 373.33" enable-background="new 0 0 373.33 373.33" xml:space="preserve">
<g>
	<g>
		<path fill="#FFFFFF" d="M167.807,210.073c-2.309,0.965-4.967-0.131-5.93-2.443c-0.959-2.313,0.137-4.965,2.447-5.928
			c2.314-0.961,4.969,0.135,5.928,2.443C171.217,206.458,170.125,209.114,167.807,210.073"/>
	</g>
</g>
<g>
	<g>
		<path fill="#FFFFFF" d="M88.149,210.079c-2.313-0.957-3.416-3.605-2.463-5.922c0.957-2.311,3.604-3.416,5.916-2.461
			c2.318,0.957,3.422,3.605,2.469,5.92C93.112,209.929,90.467,211.036,88.149,210.079"/>
	</g>
</g>
<g>
	<path fill="#FFFFFF" d="M62.782,207.224c-2.314-0.957-4.963,0.148-5.916,2.465c-0.953,2.311,0.146,4.963,2.459,5.918
		c2.316,0.955,4.967-0.148,5.924-2.465C66.198,210.823,65.097,208.179,62.782,207.224z"/>
</g>
<g>
	<g>
		<path fill="#FFFFFF" d="M61.853,242.231c-0.957-2.314,0.135-4.971,2.445-5.928c2.309-0.965,4.965,0.131,5.926,2.443
			s-0.131,4.967-2.438,5.926C65.47,245.638,62.817,244.544,61.853,242.231"/>
	</g>
</g>
<g>
	<g>
		<path fill="#FFFFFF" d="M207.66,289.254c2.307,0.965,4.967-0.131,5.928-2.445c0.961-2.311-0.135-4.963-2.445-5.926
			c-2.316-0.961-4.967,0.135-5.926,2.443C204.252,285.639,205.344,288.295,207.66,289.254"/>
	</g>
</g>
<g>
	<g>
		<path fill="#FFFFFF" d="M192.608,269.239c2.314-0.957,3.416-3.605,2.463-5.922c-0.955-2.311-3.604-3.416-5.918-2.461
			c-2.316,0.957-3.42,3.605-2.467,5.92C187.643,269.089,190.29,270.196,192.608,269.239"/>
	</g>
</g>
<g>
	<path fill="#FFFFFF" d="M177.513,103.437c-0.953-2.316-3.602-3.422-5.914-2.465c-2.316,0.955-3.42,3.6-2.467,5.918
		c0.957,2.316,3.607,3.42,5.922,2.465C177.366,108.399,178.468,105.747,177.513,103.437z"/>
</g>
<g>
	<g>
		<path fill="#FFFFFF" d="M146.936,282.418c0.957-2.313-0.135-4.969-2.445-5.928c-2.309-0.963-4.963,0.133-5.924,2.443
			c-0.963,2.314,0.131,4.967,2.438,5.928C143.319,285.826,145.971,284.73,146.936,282.418"/>
	</g>
</g>
<g>
	<g>
		<rect x="88.931" y="199.188" fill="#FFFFFF" width="0.947" height="18.137"/>
	</g>
	<g>
		<polygon fill="#FFFFFF" points="89.878,121.021 88.931,121.024 88.931,139.16 89.878,139.158 		"/>
	</g>
	<g>
		<rect x="59.389" y="168.701" fill="#FFFFFF" width="11.305" height="0.945"/>
	</g>
	<g>
		<rect x="108.116" y="168.701" fill="#FFFFFF" width="11.305" height="0.945"/>
	</g>
	<g>
		<polygon fill="#FFFFFF" points="90.546,169.646 96.527,169.646 102.234,169.646 102.234,168.701 96.525,168.701 90.546,168.701 
			94.775,164.473 98.812,160.438 98.142,159.768 94.105,163.805 89.878,168.031 89.878,157.748 89.878,148.594 88.931,148.594 
			88.931,157.752 88.931,168.031 84.703,163.803 80.667,159.768 80,160.438 84.037,164.475 88.263,168.701 82.283,168.701 
			76.576,168.701 76.576,169.646 82.285,169.646 88.263,169.646 84.035,173.876 80,177.911 80.669,178.581 84.705,174.544 
			88.931,170.317 88.931,180.601 88.931,189.754 89.878,189.754 89.878,180.597 89.878,170.317 94.107,174.546 98.142,178.581 
			98.81,177.911 94.773,173.874 		"/>
	</g>
</g>
<g>
	<g>
		<polygon fill="#FFFFFF" points="258.101,96.307 259.048,96.303 259.048,78.166 258.101,78.17 		"/>
	</g>
	<g>
		<polygon fill="#FFFFFF" points="259.048,0 258.101,0.004 258.101,18.139 259.048,18.137 		"/>
	</g>
	<g>
		<rect x="228.559" y="47.68" fill="#FFFFFF" width="11.305" height="0.947"/>
	</g>
	<g>
		<rect x="277.285" y="47.68" fill="#FFFFFF" width="11.305" height="0.947"/>
	</g>
	<g>
		<polygon fill="#FFFFFF" points="259.716,48.627 265.697,48.627 271.404,48.627 271.404,47.68 265.695,47.68 259.716,47.68 
			263.945,43.451 267.982,39.416 267.312,38.748 263.275,42.785 259.048,47.012 259.048,36.727 259.048,27.572 258.101,27.574 
			258.101,36.732 258.101,47.012 253.873,42.783 249.837,38.746 249.169,39.416 253.207,43.453 257.433,47.68 251.453,47.68 
			245.746,47.68 245.746,48.627 251.455,48.627 257.433,48.627 253.205,52.855 249.169,56.891 249.839,57.559 253.875,53.521 
			258.101,49.295 258.101,59.578 258.101,68.734 259.048,68.732 259.048,59.574 259.048,49.295 263.277,53.523 267.312,57.559 
			267.98,56.891 263.943,52.854 		"/>
	</g>
</g>
<g>
	<g>
		<polygon fill="#FFFFFF" points="218.196,220.08 218.8,220.076 218.8,208.516 218.196,208.518 		"/>
	</g>
	<g>
		<rect x="218.196" y="158.69" fill="#FFFFFF" width="0.604" height="11.561"/>
	</g>
	<g>
		<rect x="199.364" y="189.082" fill="#FFFFFF" width="7.207" height="0.604"/>
	</g>
	<g>
		<rect x="230.425" y="189.082" fill="#FFFFFF" width="7.205" height="0.604"/>
	</g>
	<g>
		<polygon fill="#FFFFFF" points="219.226,189.686 223.038,189.686 226.675,189.686 226.675,189.082 223.036,189.082 
			219.226,189.082 221.921,186.387 224.493,183.816 224.067,183.391 221.493,185.963 218.8,188.656 218.8,182.102 218.8,176.266 
			218.196,176.268 218.196,182.104 218.196,188.656 215.501,185.961 212.929,183.389 212.503,183.816 215.075,186.389 
			217.771,189.082 213.958,189.082 210.319,189.082 210.321,189.686 213.96,189.686 217.771,189.686 215.075,192.381 
			212.503,194.955 212.929,195.381 215.503,192.807 218.196,190.113 218.196,196.668 218.196,202.504 218.8,202.502 218.8,196.664 
			218.8,190.113 221.495,192.809 224.067,195.381 224.493,194.953 221.921,192.381 		"/>
	</g>
</g>
<g>
	<g>
		<polygon fill="#FFFFFF" points="126.921,360.212 127.524,360.208 127.524,348.647 126.921,348.649 		"/>
	</g>
	<g>
		<rect x="126.921" y="298.822" fill="#FFFFFF" width="0.604" height="11.561"/>
	</g>
	<g>
		<rect x="108.089" y="329.214" fill="#FFFFFF" width="7.207" height="0.604"/>
	</g>
	<g>
		<rect x="139.149" y="329.214" fill="#FFFFFF" width="7.205" height="0.604"/>
	</g>
	<g>
		<polygon fill="#FFFFFF" points="127.95,329.817 131.763,329.817 135.399,329.817 135.399,329.214 131.761,329.214 127.95,329.214 
			130.646,326.519 133.218,323.948 132.792,323.522 130.218,326.095 127.524,328.788 127.524,322.233 127.524,316.397 
			126.921,316.399 126.921,322.235 126.921,328.788 124.226,326.093 121.653,323.521 121.228,323.948 123.8,326.521 
			126.495,329.214 122.683,329.214 119.044,329.214 119.046,329.817 122.685,329.817 126.495,329.817 123.8,332.513 
			121.228,335.087 121.653,335.513 124.228,332.938 126.921,330.245 126.921,336.8 126.921,342.636 127.524,342.634 
			127.524,336.796 127.524,330.245 130.22,332.94 132.792,335.513 133.218,335.085 130.646,332.513 		"/>
	</g>
</g>
<g>
	<g>
		<rect x="254.534" y="354.854" fill="#FFFFFF" width="0.947" height="18.137"/>
	</g>
	<g>
		<polygon fill="#FFFFFF" points="255.481,276.686 254.534,276.689 254.534,294.825 255.481,294.823 		"/>
	</g>
	<g>
		<rect x="224.992" y="324.366" fill="#FFFFFF" width="11.305" height="0.945"/>
	</g>
	<g>
		<rect x="273.719" y="324.366" fill="#FFFFFF" width="11.305" height="0.945"/>
	</g>
	<g>
		<polygon fill="#FFFFFF" points="256.149,325.312 262.129,325.312 267.836,325.312 267.836,324.366 262.127,324.366 
			256.149,324.366 260.377,320.138 264.415,316.103 263.745,315.433 259.708,319.47 255.481,323.696 255.481,313.413 
			255.481,304.259 254.534,304.259 254.534,313.417 254.534,323.696 250.305,319.468 246.27,315.433 245.602,316.103 
			249.639,320.14 253.866,324.366 247.885,324.366 242.178,324.366 242.178,325.312 247.887,325.312 253.866,325.312 
			249.637,329.541 245.602,333.576 246.272,334.246 250.307,330.209 254.534,325.982 254.534,336.266 254.534,345.419 
			255.481,345.419 255.481,336.262 255.481,325.982 259.709,330.211 263.745,334.246 264.413,333.576 260.375,329.539 		"/>
	</g>
</g>
<g>
	<path fill="#FFFFFF" d="M177.513,101.397l-0.336-0.506l0.65-0.431l0.336,0.506L177.513,101.397z M179.515,100.071l-0.336-0.506
		l1.351-0.895l0.336,0.506L179.515,100.071z M182.216,98.281l-0.336-0.506l1.351-0.895l0.336,0.506L182.216,98.281z M184.918,96.491
		l-0.336-0.506l1.351-0.895l0.336,0.506L184.918,96.491z M187.62,94.701l-0.336-0.506l1.351-0.895l0.336,0.506L187.62,94.701z
		 M190.321,92.911l-0.336-0.506l1.351-0.895l0.336,0.506L190.321,92.911z M193.023,91.121l-0.336-0.506l1.351-0.895l0.336,0.506
		L193.023,91.121z M195.725,89.331l-0.336-0.506l1.351-0.895l0.336,0.506L195.725,89.331z M198.427,87.541l-0.336-0.506l1.351-0.895
		l0.336,0.506L198.427,87.541z M201.128,85.751l-0.336-0.506l1.351-0.895l0.336,0.506L201.128,85.751z M203.83,83.961l-0.336-0.506
		l1.351-0.896l0.336,0.506L203.83,83.961z M206.532,82.171l-0.336-0.506l1.351-0.896l0.336,0.506L206.532,82.171z M209.234,80.381
		l-0.336-0.506l1.351-0.896l0.336,0.506L209.234,80.381z M211.936,78.591l-0.336-0.506l1.351-0.896l0.336,0.506L211.936,78.591z
		 M214.637,76.801l-0.336-0.506l1.351-0.896l0.336,0.506L214.637,76.801z M217.339,75.011l-0.336-0.506l1.351-0.896l0.336,0.506
		L217.339,75.011z M220.041,73.221l-0.336-0.506l1.351-0.896l0.336,0.506L220.041,73.221z M222.743,71.431l-0.336-0.506l1.351-0.896
		l0.336,0.506L222.743,71.431z M225.444,69.641l-0.336-0.506l1.351-0.896l0.336,0.506L225.444,69.641z M228.146,67.851l-0.336-0.506
		l1.351-0.896l0.336,0.506L228.146,67.851z M230.848,66.061l-0.336-0.506l1.351-0.896l0.336,0.506L230.848,66.061z M233.55,64.271
		l-0.336-0.506l1.351-0.896l0.336,0.506L233.55,64.271z M236.251,62.48l-0.336-0.506l1.351-0.896l0.336,0.506L236.251,62.48z
		 M238.953,60.69l-0.336-0.506l1.351-0.896l0.336,0.506L238.953,60.69z M241.655,58.9l-0.336-0.506l1.351-0.896l0.336,0.506
		L241.655,58.9z M244.356,57.11l-0.336-0.506l1.351-0.896l0.336,0.506L244.356,57.11z M247.059,55.32l-0.336-0.506l1.351-0.896
		l0.336,0.506L247.059,55.32z M249.76,53.53l-0.336-0.506l1.351-0.896l0.336,0.506L249.76,53.53z M252.462,51.74l-0.336-0.506
		l1.351-0.896l0.336,0.506L252.462,51.74z M255.164,49.95l-0.336-0.506l1.351-0.896l0.336,0.506L255.164,49.95z M257.865,48.16
		l-0.336-0.506l1.351-0.896l0.336,0.506L257.865,48.16z"/>
</g>
<g>
	<path fill="#FFFFFF" d="M89.185,168.395l-0.362-0.488l1.3-0.967l0.362,0.488L89.185,168.395z M91.785,166.461l-0.362-0.488
		l1.3-0.967l0.362,0.488L91.785,166.461z M94.386,164.526l-0.362-0.488l1.3-0.967l0.362,0.488L94.386,164.526z M96.986,162.593
		l-0.362-0.488l1.3-0.967l0.362,0.488L96.986,162.593z M99.588,160.659l-0.363-0.488l1.3-0.968l0.363,0.488L99.588,160.659z
		 M102.188,158.725l-0.362-0.488l1.3-0.967l0.362,0.488L102.188,158.725z M104.789,156.791l-0.363-0.488l1.3-0.968l0.363,0.488
		L104.789,156.791z M107.389,154.856l-0.362-0.488l1.3-0.967l0.362,0.488L107.389,154.856z M109.99,152.923l-0.362-0.488l1.3-0.967
		l0.362,0.488L109.99,152.923z M112.59,150.988l-0.362-0.488l1.3-0.967l0.362,0.488L112.59,150.988z M115.191,149.055l-0.362-0.488
		l1.3-0.967l0.362,0.488L115.191,149.055z M117.792,147.121l-0.363-0.488l1.3-0.968l0.363,0.488L117.792,147.121z M120.393,145.187
		l-0.362-0.488l1.3-0.967l0.362,0.488L120.393,145.187z M122.994,143.253l-0.363-0.488l1.3-0.968l0.363,0.488L122.994,143.253z
		 M125.594,141.318l-0.362-0.488l1.3-0.967l0.362,0.488L125.594,141.318z M128.194,139.385l-0.362-0.488l1.3-0.967l0.362,0.488
		L128.194,139.385z M130.795,137.45l-0.362-0.488l1.3-0.967l0.362,0.488L130.795,137.45z M133.396,135.517l-0.362-0.488l1.3-0.967
		l0.362,0.488L133.396,135.517z M135.996,133.582l-0.362-0.488l1.3-0.967l0.362,0.488L135.996,133.582z M138.597,131.648
		l-0.362-0.488l1.301-0.967l0.362,0.488L138.597,131.648z M141.198,129.715l-0.363-0.488l1.3-0.968l0.363,0.488L141.198,129.715z
		 M143.798,127.78l-0.362-0.488l1.3-0.967l0.362,0.488L143.798,127.78z M146.399,125.847l-0.363-0.488l1.3-0.968l0.363,0.488
		L146.399,125.847z M149,123.912l-0.362-0.488l1.3-0.967l0.362,0.488L149,123.912z M151.6,121.979l-0.362-0.488l1.3-0.967
		l0.362,0.488L151.6,121.979z M154.201,120.044l-0.362-0.488l1.3-0.967l0.362,0.488L154.201,120.044z M156.801,118.11l-0.362-0.488
		l1.3-0.967l0.362,0.488L156.801,118.11z M159.403,116.177l-0.363-0.488l1.3-0.968l0.363,0.488L159.403,116.177z M162.003,114.242
		l-0.362-0.488l1.3-0.967l0.362,0.488L162.003,114.242z M164.604,112.309l-0.363-0.488l1.3-0.968l0.363,0.488L164.604,112.309z
		 M167.204,110.374l-0.362-0.488l1.3-0.967l0.362,0.488L167.204,110.374z"/>
</g>
<g>
	<path fill="#FFFFFF" d="M89.027,205.903l-0.607-0.029l0.078-1.58l0.607,0.029L89.027,205.903z M89.184,202.705l-0.607-0.029
		l0.08-1.618l0.607,0.029L89.184,202.705z M89.343,199.468l-0.607-0.029l0.079-1.618l0.607,0.029L89.343,199.468z M89.501,196.23
		l-0.607-0.029l0.079-1.618l0.607,0.029L89.501,196.23z M89.66,192.994l-0.607-0.029l0.079-1.619l0.607,0.029L89.66,192.994z
		 M89.819,189.757l-0.607-0.029l0.079-1.618l0.607,0.029L89.819,189.757z M89.978,186.52l-0.607-0.029l0.079-1.618l0.607,0.029
		L89.978,186.52z M90.136,183.282l-0.607-0.029l0.079-1.618l0.607,0.029L90.136,183.282z M90.295,180.046l-0.607-0.029l0.079-1.619
		l0.607,0.029L90.295,180.046z M90.454,176.809l-0.607-0.029l0.079-1.618l0.607,0.029L90.454,176.809z M90.612,173.571l-0.607-0.029
		l0.079-1.618l0.607,0.029L90.612,173.571z M90.771,170.334l-0.607-0.029l0.079-1.618l0.607,0.029L90.771,170.334z"/>
</g>
<g>
	<path fill="#FFFFFF" d="M61.114,211.713l-0.115-0.598l0.172-0.033l0.115,0.598L61.114,211.713z M62.877,211.376l-0.114-0.598
		l1.592-0.305l0.114,0.598L62.877,211.376z M66.061,210.767l-0.114-0.598l1.591-0.304l0.114,0.598L66.061,210.767z M69.244,210.158
		l-0.114-0.598l1.592-0.304l0.114,0.598L69.244,210.158z M72.427,209.55l-0.114-0.598l1.592-0.305l0.114,0.598L72.427,209.55z
		 M75.611,208.941l-0.114-0.598l1.591-0.305l0.114,0.598L75.611,208.941z M78.794,208.332l-0.114-0.598l1.592-0.304l0.114,0.598
		L78.794,208.332z M81.978,207.724l-0.114-0.598l1.591-0.304l0.114,0.598L81.978,207.724z M85.161,207.115l-0.114-0.598l1.592-0.305
		l0.114,0.598L85.161,207.115z M88.344,206.507l-0.114-0.598l1.592-0.305l0.114,0.598L88.344,206.507z"/>
</g>
<g>
	<path fill="#FFFFFF" d="M65.698,239.097l-0.26-1.599l0.6-0.098l0.26,1.599L65.698,239.097z M65.178,235.898l-0.26-1.6l0.6-0.098
		l0.26,1.6L65.178,235.898z M64.658,232.699l-0.26-1.6l0.6-0.098l0.26,1.6L64.658,232.699z M64.138,229.5l-0.26-1.6l0.6-0.098
		l0.26,1.6L64.138,229.5z M63.618,226.302l-0.26-1.6l0.6-0.098l0.26,1.6L63.618,226.302z M63.097,223.103l-0.26-1.6l0.6-0.098
		l0.26,1.6L63.097,223.103z M62.577,219.903l-0.26-1.6l0.6-0.098l0.26,1.6L62.577,219.903z M62.057,216.704l-0.26-1.6l0.6-0.098
		l0.26,1.6L62.057,216.704z M61.537,213.506l-0.26-1.6l0.6-0.098l0.26,1.6L61.537,213.506z M61.017,210.307l-0.26-1.6l0.6-0.098
		l0.26,1.6L61.017,210.307z"/>
</g>
<g>
	<path fill="#FFFFFF" d="M126.972,327.878l-0.221-0.319l0.5-0.346l0.221,0.319L126.972,327.878z M125.827,326.228l-0.922-1.332
		l0.499-0.346l0.923,1.332L125.827,326.228z M123.981,323.563l-0.923-1.332l0.499-0.346l0.923,1.332L123.981,323.563z
		 M122.135,320.9l-0.923-1.332l0.499-0.346l0.923,1.332L122.135,320.9z M120.289,318.236l-0.923-1.332l0.499-0.346l0.923,1.332
		L120.289,318.236z M118.442,315.573l-0.923-1.332l0.499-0.346l0.923,1.332L118.442,315.573z M116.596,312.909l-0.923-1.332
		l0.5-0.346l0.922,1.332L116.596,312.909z M114.75,310.246l-0.923-1.332l0.499-0.346l0.923,1.332L114.75,310.246z M112.903,307.582
		l-0.923-1.332l0.5-0.346l0.922,1.332L112.903,307.582z M111.057,304.919l-0.923-1.332l0.499-0.346l0.923,1.332L111.057,304.919z
		 M109.21,302.255l-0.923-1.332l0.499-0.346l0.923,1.332L109.21,302.255z M107.364,299.592l-0.923-1.332l0.5-0.346l0.923,1.332
		L107.364,299.592z M105.518,296.928l-0.923-1.332l0.499-0.346l0.923,1.332L105.518,296.928z M103.67,294.265l-0.923-1.332
		l0.5-0.346l0.923,1.332L103.67,294.265z M101.825,291.601l-0.923-1.332l0.499-0.346l0.923,1.332L101.825,291.601z M99.979,288.938
		l-0.923-1.332l0.499-0.346l0.923,1.332L99.979,288.938z M98.132,286.273l-0.923-1.332l0.499-0.346l0.923,1.332L98.132,286.273z
		 M96.286,283.61l-0.923-1.332l0.499-0.346l0.923,1.332L96.286,283.61z M94.439,280.946l-0.923-1.332l0.499-0.346l0.923,1.332
		L94.439,280.946z M92.593,278.283l-0.923-1.332l0.499-0.346l0.923,1.332L92.593,278.283z M90.746,275.619l-0.922-1.332l0.499-0.346
		l0.923,1.332L90.746,275.619z M88.9,272.956l-0.923-1.332l0.499-0.346l0.923,1.332L88.9,272.956z M87.053,270.292l-0.922-1.332
		l0.499-0.346l0.923,1.332L87.053,270.292z M85.207,267.629l-0.923-1.332l0.499-0.346l0.923,1.332L85.207,267.629z M83.361,264.965
		l-0.923-1.332l0.499-0.346l0.923,1.332L83.361,264.965z M81.514,262.302l-0.923-1.332l0.499-0.346l0.923,1.332L81.514,262.302z
		 M79.668,259.638l-0.923-1.332l0.499-0.346l0.923,1.332L79.668,259.638z M77.821,256.975l-0.923-1.332l0.5-0.346l0.922,1.332
		L77.821,256.975z M75.975,254.311l-0.923-1.332l0.499-0.346l0.923,1.332L75.975,254.311z M74.128,251.647l-0.923-1.332l0.5-0.346
		l0.922,1.332L74.128,251.647z M72.282,248.983l-0.923-1.332l0.499-0.346l0.923,1.332L72.282,248.983z M70.436,246.32l-0.923-1.332
		l0.499-0.346l0.923,1.332L70.436,246.32z M68.589,243.656l-0.923-1.332l0.499-0.346l0.923,1.332L68.589,243.656z M66.743,240.993
		l-0.923-1.332l0.499-0.346l0.923,1.332L66.743,240.993z"/>
</g>
<g>
	<path fill="#FFFFFF" d="M127.512,327.794l-0.581-0.178l0.472-1.55l0.581,0.178L127.512,327.794z M128.456,324.693l-0.581-0.178
		l0.472-1.55l0.581,0.178L128.456,324.693z M129.399,321.593l-0.581-0.178l0.472-1.55l0.581,0.178L129.399,321.593z
		 M130.343,318.492l-0.581-0.178l0.472-1.55l0.581,0.178L130.343,318.492z M131.287,315.392l-0.581-0.178l0.472-1.55l0.581,0.178
		L131.287,315.392z M132.23,312.291l-0.581-0.178l0.472-1.55l0.581,0.178L132.23,312.291z M133.174,309.19l-0.581-0.178l0.472-1.55
		l0.581,0.178L133.174,309.19z M134.117,306.09l-0.581-0.178l0.472-1.55l0.581,0.178L134.117,306.09z M135.061,302.989l-0.581-0.178
		l0.472-1.55l0.581,0.178L135.061,302.989z M136.004,299.889l-0.581-0.178l0.472-1.55l0.581,0.178L136.004,299.889z
		 M136.948,296.788l-0.581-0.178l0.472-1.55l0.581,0.178L136.948,296.788z M137.892,293.688l-0.581-0.178l0.472-1.55l0.581,0.178
		L137.892,293.688z M138.835,290.587l-0.581-0.178l0.472-1.55l0.581,0.178L138.835,290.587z M139.779,287.486l-0.581-0.178
		l0.472-1.55l0.581,0.178L139.779,287.486z M140.722,284.386l-0.581-0.178l0.472-1.55l0.581,0.178L140.722,284.386z"/>
</g>
<g>
	<path fill="#FFFFFF" d="M141.352,281.879l-0.192-0.576l1.537-0.513l0.192,0.576L141.352,281.879z M144.426,280.854l-0.192-0.576
		l1.537-0.512l0.192,0.576L144.426,280.854z M147.501,279.829l-0.192-0.576l1.537-0.513l0.192,0.576L147.501,279.829z
		 M150.576,278.804l-0.192-0.576l1.537-0.512l0.192,0.576L150.576,278.804z M153.65,277.779l-0.192-0.576l1.538-0.513l0.192,0.576
		L153.65,277.779z M156.724,276.754l-0.191-0.576l1.538-0.512l0.192,0.576L156.724,276.754z M159.799,275.729l-0.192-0.576
		l1.537-0.513l0.192,0.576L159.799,275.729z M162.874,274.704l-0.192-0.576l1.537-0.513l0.192,0.576L162.874,274.704z
		 M165.949,273.68l-0.192-0.576l1.537-0.513l0.192,0.576L165.949,273.68z M169.023,272.654l-0.192-0.576l1.537-0.513l0.192,0.576
		L169.023,272.654z M172.098,271.63l-0.192-0.576l1.538-0.513l0.192,0.576L172.098,271.63z M175.172,270.604l-0.192-0.576
		l1.538-0.513l0.192,0.576L175.172,270.604z M178.247,269.58l-0.192-0.576l1.537-0.513l0.192,0.576L178.247,269.58z
		 M181.322,268.555l-0.192-0.576l1.537-0.513l0.192,0.576L181.322,268.555z M184.396,267.53l-0.192-0.576l1.537-0.513l0.192,0.576
		L184.396,267.53z M187.471,266.505l-0.192-0.576l1.537-0.513l0.192,0.576L187.471,266.505z M190.545,265.479l-0.191-0.576
		l0.429-0.143l0.191,0.576L190.545,265.479z"/>
</g>
<g>
	<path fill="#FFFFFF" d="M204.824,280.841l-1.09-1.199l0.45-0.408l1.09,1.199L204.824,280.841z M202.644,278.442l-1.09-1.198
		l0.449-0.408l1.09,1.198L202.644,278.442z M200.463,276.045l-1.09-1.199l0.45-0.408l1.09,1.199L200.463,276.045z M198.284,273.646
		l-1.09-1.199l0.449-0.408l1.09,1.199L198.284,273.646z M196.104,271.248l-1.089-1.199l0.45-0.408l1.09,1.199L196.104,271.248z
		 M193.923,268.851l-1.09-1.199l0.45-0.408l1.09,1.199L193.923,268.851z M191.743,266.452l-1.09-1.199l0.45-0.408l1.09,1.199
		L191.743,266.452z"/>
</g>
<g>
	<path fill="#FFFFFF" d="M253.333,323.925l-0.543-0.475l0.4-0.457l0.543,0.475L253.333,323.925z M251.57,322.385l-1.22-1.066
		l0.399-0.457l1.22,1.066L251.57,322.385z M249.129,320.253l-1.22-1.066l0.399-0.457l1.22,1.066L249.129,320.253z M246.688,318.12
		l-1.22-1.065l0.399-0.457l1.22,1.065L246.688,318.12z M244.248,315.988l-1.22-1.065l0.399-0.457l1.22,1.065L244.248,315.988z
		 M241.807,313.856l-1.22-1.066l0.399-0.457l1.22,1.066L241.807,313.856z M239.366,311.725l-1.22-1.066l0.399-0.457l1.22,1.066
		L239.366,311.725z M236.925,309.592l-1.22-1.065l0.399-0.457l1.22,1.065L236.925,309.592z M234.484,307.46l-1.221-1.065
		l0.399-0.457l1.221,1.065L234.484,307.46z M232.043,305.328l-1.221-1.066l0.399-0.457l1.221,1.066L232.043,305.328z
		 M229.602,303.196l-1.221-1.066l0.399-0.457l1.221,1.066L229.602,303.196z M227.161,301.064l-1.221-1.066l0.399-0.457l1.221,1.066
		L227.161,301.064z M224.72,298.932l-1.221-1.065l0.399-0.457l1.221,1.065L224.72,298.932z M222.279,296.8l-1.221-1.065l0.399-0.457
		l1.221,1.065L222.279,296.8z M219.838,294.668l-1.221-1.066l0.399-0.457l1.221,1.066L219.838,294.668z M217.397,292.536
		l-1.221-1.066l0.399-0.457l1.221,1.066L217.397,292.536z M214.957,290.404l-1.221-1.066l0.399-0.457l1.221,1.066L214.957,290.404z"
		/>
</g>
<g>
	<path fill="#FFFFFF" d="M167.105,205.907l-0.177-0.582l1.551-0.471l0.177,0.582L167.105,205.907z M170.207,204.967l-0.176-0.582
		l1.551-0.47l0.176,0.582L170.207,204.967z M173.308,204.027l-0.176-0.582l1.551-0.47l0.176,0.582L173.308,204.027z M176.41,203.088
		l-0.176-0.582l1.551-0.47l0.176,0.582L176.41,203.088z M179.512,202.148l-0.176-0.582l1.551-0.47l0.176,0.582L179.512,202.148z
		 M182.614,201.209l-0.176-0.582l1.551-0.47l0.176,0.582L182.614,201.209z M185.715,200.27l-0.176-0.582l1.551-0.47l0.176,0.582
		L185.715,200.27z M188.817,199.33l-0.176-0.582l1.551-0.47l0.176,0.582L188.817,199.33z M191.919,198.391l-0.176-0.582l1.551-0.47
		l0.176,0.582L191.919,198.391z M195.021,197.451l-0.176-0.582l1.551-0.47l0.176,0.582L195.021,197.451z M198.123,196.512
		l-0.176-0.582l1.551-0.47l0.176,0.582L198.123,196.512z M201.225,195.572l-0.177-0.582l1.551-0.471l0.177,0.582L201.225,195.572z
		 M204.326,194.632l-0.176-0.582l1.551-0.47l0.176,0.582L204.326,194.632z M207.428,193.692l-0.176-0.582l1.551-0.47l0.176,0.582
		L207.428,193.692z M210.53,192.753l-0.176-0.582l1.551-0.47l0.176,0.582L210.53,192.753z M213.631,191.813l-0.176-0.582l1.551-0.47
		l0.176,0.582L213.631,191.813z M216.733,190.874l-0.176-0.582l1.551-0.47l0.176,0.582L216.733,190.874z"/>
</g>
<g>
	<path fill="#FFFFFF" d="M165.939,206.179l-1.468-0.686l0.257-0.551l1.468,0.686L165.939,206.179z M163.002,204.808l-1.468-0.687
		l0.258-0.551l1.468,0.687L163.002,204.808z M160.066,203.436l-1.468-0.686l0.257-0.551l1.468,0.686L160.066,203.436z
		 M157.129,202.064l-1.468-0.687l0.258-0.551l1.468,0.687L157.129,202.064z M154.193,200.692l-1.468-0.686l0.257-0.551l1.468,0.686
		L154.193,200.692z M151.256,199.321l-1.468-0.687l0.258-0.551l1.468,0.687L151.256,199.321z M148.32,197.949l-1.468-0.686
		l0.257-0.551l1.468,0.686L148.32,197.949z M145.384,196.578l-1.468-0.686l0.257-0.551l1.468,0.686L145.384,196.578z
		 M142.447,195.206l-1.468-0.686l0.257-0.551l1.468,0.686L142.447,195.206z M139.511,193.835l-1.468-0.686l0.257-0.551l1.468,0.686
		L139.511,193.835z M136.575,192.463l-1.468-0.686l0.257-0.551l1.468,0.686L136.575,192.463z M133.638,191.092l-1.468-0.686
		l0.257-0.551l1.468,0.686L133.638,191.092z M130.701,189.721l-1.468-0.687l0.258-0.551l1.468,0.687L130.701,189.721z
		 M127.765,188.349l-1.468-0.686l0.257-0.551l1.468,0.686L127.765,188.349z M124.828,186.978l-1.468-0.687l0.258-0.551l1.468,0.687
		L124.828,186.978z M121.892,185.605l-1.468-0.686l0.257-0.551l1.468,0.686L121.892,185.605z M118.956,184.234l-1.468-0.687
		l0.258-0.551l1.468,0.687L118.956,184.234z M116.02,182.862l-1.468-0.686l0.257-0.551l1.468,0.686L116.02,182.862z
		 M113.083,181.491l-1.468-0.686l0.257-0.551l1.468,0.686L113.083,181.491z M110.146,180.119l-1.468-0.686l0.257-0.551l1.468,0.686
		L110.146,180.119z M107.21,178.748l-1.468-0.686l0.257-0.551l1.468,0.686L107.21,178.748z M104.273,177.376l-1.468-0.686
		l0.257-0.551l1.468,0.686L104.273,177.376z M101.337,176.005l-1.468-0.686l0.257-0.551l1.468,0.686L101.337,176.005z M98.4,174.634
		l-1.468-0.687l0.258-0.551l1.468,0.687L98.4,174.634z M95.464,173.262l-1.468-0.686l0.257-0.551l1.468,0.686L95.464,173.262z
		 M92.527,171.891l-1.468-0.687l0.258-0.551l1.468,0.687L92.527,171.891z"/>
</g>
</svg>
