<?xml version="1.0" encoding="utf-8"?>
<!-- Generator: Adobe Illustrator 16.0.3, SVG Export Plug-In . SVG Version: 6.00 Build 0)  -->
<!DOCTYPE svg PUBLIC "-//W3C//DTD SVG 1.1//EN" "http://www.w3.org/Graphics/SVG/1.1/DTD/svg11.dtd">
<svg version="1.1" id="Capa_1" xmlns="http://www.w3.org/2000/svg" xmlns:xlink="http://www.w3.org/1999/xlink" x="0px" y="0px"
	 width="373.33px" height="373.33px" viewBox="0 0 373.33 373.33" enable-background="new 0 0 373.33 373.33" xml:space="preserve">
<g>
	<g>
		<path fill="#FFFFFF" d="M326.815,60.037c-2.309,0.965-4.967-0.131-5.93-2.443c-0.959-2.313,0.137-4.965,2.447-5.928
			c2.314-0.961,4.969,0.135,5.928,2.443C330.226,56.422,329.134,59.078,326.815,60.037"/>
	</g>
</g>
<g>
	<g>
		<path fill="#FFFFFF" d="M50.357,187.804c-2.313-0.957-3.416-3.605-2.463-5.922c0.957-2.311,3.604-3.416,5.916-2.461
			c2.318,0.957,3.422,3.605,2.469,5.92C55.32,187.653,52.676,188.761,50.357,187.804"/>
	</g>
</g>
<g>
	<g>
		<path fill="#FFFFFF" d="M84.269,187.054c-2.313-0.957-3.416-3.605-2.463-5.922c0.957-2.311,3.604-3.416,5.916-2.461
			c2.318,0.957,3.422,3.605,2.469,5.92C89.231,186.903,86.587,188.011,84.269,187.054"/>
	</g>
</g>
<g>
	<g>
		<path fill="#FFFFFF" d="M169.934,269.604c-2.313-0.957-3.416-3.605-2.463-5.922c0.957-2.311,3.604-3.416,5.916-2.461
			c2.318,0.957,3.422,3.605,2.469,5.92C174.896,269.454,172.252,270.562,169.934,269.604"/>
	</g>
</g>
<g>
	<g>
		<path fill="#FFFFFF" d="M197.002,268.604c-2.313-0.957-3.416-3.605-2.463-5.922c0.957-2.311,3.604-3.416,5.916-2.461
			c2.318,0.957,3.422,3.605,2.469,5.92C201.965,268.454,199.32,269.562,197.002,268.604"/>
	</g>
</g>
<g>
	<path fill="#FFFFFF" d="M313.344,26.608c-2.314-0.957-4.963,0.148-5.916,2.465c-0.953,2.311,0.146,4.963,2.459,5.918
		c2.316,0.955,4.967-0.148,5.924-2.465C316.76,30.208,315.658,27.563,313.344,26.608z"/>
</g>
<g>
	<g>
		<path fill="#FFFFFF" d="M282.347,90.279c-0.957-2.314,0.135-4.971,2.445-5.928c2.309-0.965,4.965,0.131,5.926,2.443
			s-0.131,4.967-2.438,5.926C285.964,93.686,283.312,92.592,282.347,90.279"/>
	</g>
</g>
<g>
	<g>
		<path fill="#FFFFFF" d="M304.493,81.275c2.307,0.965,4.967-0.131,5.928-2.445c0.961-2.311-0.135-4.963-2.445-5.926
			c-2.316-0.961-4.967,0.135-5.926,2.443C301.085,77.66,302.177,80.316,304.493,81.275"/>
	</g>
</g>
<g>
	<g>
		<path fill="#FFFFFF" d="M212.923,175.81c2.314-0.957,3.416-3.605,2.463-5.922c-0.955-2.311-3.604-3.416-5.918-2.461
			c-2.316,0.957-3.42,3.605-2.467,5.92C207.958,175.659,210.604,176.767,212.923,175.81"/>
	</g>
</g>
<g>
	<path fill="#FFFFFF" d="M300.197,23.995c-0.953-2.316-3.602-3.422-5.914-2.465c-2.316,0.955-3.42,3.6-2.467,5.918
		c0.957,2.316,3.607,3.42,5.922,2.465C300.051,28.958,301.152,26.306,300.197,23.995z"/>
</g>
<g>
	<g>
		<path fill="#FFFFFF" d="M272.934,68.335c0.957-2.313-0.135-4.969-2.445-5.928c-2.309-0.963-4.963,0.133-5.924,2.443
			c-0.963,2.314,0.131,4.967,2.438,5.928C269.316,71.743,271.969,70.647,272.934,68.335"/>
	</g>
</g>
<g>
	<g>
		<rect x="250.012" y="120.024" fill="#FFFFFF" width="0.947" height="18.137"/>
	</g>
	<g>
		<polygon fill="#FFFFFF" points="250.959,41.856 250.012,41.86 250.012,59.996 250.959,59.994 		"/>
	</g>
	<g>
		<rect x="220.47" y="89.537" fill="#FFFFFF" width="11.305" height="0.945"/>
	</g>
	<g>
		<rect x="269.196" y="89.537" fill="#FFFFFF" width="11.305" height="0.945"/>
	</g>
	<g>
		<polygon fill="#FFFFFF" points="251.627,90.482 257.607,90.482 263.314,90.482 263.314,89.537 257.605,89.537 251.627,89.537 
			255.855,85.309 259.893,81.273 259.223,80.604 255.186,84.641 250.959,88.867 250.959,78.584 250.959,69.43 250.012,69.43 
			250.012,78.588 250.012,88.867 245.783,84.639 241.748,80.604 241.08,81.273 245.117,85.311 249.344,89.537 243.363,89.537 
			237.656,89.537 237.656,90.482 243.365,90.482 249.344,90.482 245.115,94.712 241.08,98.747 241.75,99.417 245.785,95.38 
			250.012,91.153 250.012,101.437 250.012,110.59 250.959,110.59 250.959,101.433 250.959,91.153 255.188,95.382 259.223,99.417 
			259.891,98.747 255.854,94.71 		"/>
	</g>
</g>
<g>
	<g>
		<polygon fill="#FFFFFF" points="197.424,373.33 198.371,373.326 198.371,355.189 197.424,355.193 		"/>
	</g>
	<g>
		<polygon fill="#FFFFFF" points="198.371,277.023 197.424,277.027 197.424,295.162 198.371,295.16 		"/>
	</g>
	<g>
		<rect x="167.882" y="324.703" fill="#FFFFFF" width="11.305" height="0.947"/>
	</g>
	<g>
		<rect x="216.608" y="324.703" fill="#FFFFFF" width="11.305" height="0.947"/>
	</g>
	<g>
		<polygon fill="#FFFFFF" points="199.039,325.65 205.02,325.65 210.727,325.65 210.727,324.703 205.018,324.703 199.039,324.703 
			203.268,320.475 207.305,316.439 206.635,315.771 202.598,319.809 198.371,324.035 198.371,313.75 198.371,304.596 
			197.424,304.598 197.424,313.756 197.424,324.035 193.195,319.807 189.16,315.77 188.492,316.439 192.529,320.477 
			196.756,324.703 190.775,324.703 185.068,324.703 185.068,325.65 190.777,325.65 196.756,325.65 192.527,329.879 188.492,333.914 
			189.162,334.582 193.197,330.545 197.424,326.318 197.424,336.602 197.424,345.758 198.371,345.756 198.371,336.598 
			198.371,326.318 202.6,330.547 206.635,334.582 207.303,333.914 203.266,329.877 		"/>
	</g>
</g>
<g>
	<g>
		<polygon fill="#FFFFFF" points="37.694,193.683 38.641,193.679 38.641,175.542 37.694,175.546 		"/>
	</g>
	<g>
		<polygon fill="#FFFFFF" points="38.641,97.376 37.694,97.38 37.694,115.515 38.641,115.513 		"/>
	</g>
	<g>
		<rect x="8.152" y="145.056" fill="#FFFFFF" width="11.305" height="0.947"/>
	</g>
	<g>
		<rect x="56.878" y="145.056" fill="#FFFFFF" width="11.305" height="0.947"/>
	</g>
	<g>
		<polygon fill="#FFFFFF" points="39.309,146.003 45.29,146.003 50.997,146.003 50.997,145.056 45.288,145.056 39.309,145.056 
			43.538,140.827 47.575,136.792 46.905,136.124 42.868,140.161 38.641,144.388 38.641,134.103 38.641,124.948 37.694,124.95 
			37.694,134.108 37.694,144.388 33.465,140.159 29.43,136.122 28.762,136.792 32.799,140.829 37.026,145.056 31.045,145.056 
			25.338,145.056 25.338,146.003 31.047,146.003 37.026,146.003 32.797,150.231 28.762,154.267 29.432,154.935 33.467,150.897 
			37.694,146.671 37.694,156.954 37.694,166.11 38.641,166.108 38.641,156.95 38.641,146.671 42.87,150.899 46.905,154.935 
			47.573,154.267 43.536,150.229 		"/>
	</g>
</g>
<g>
	<g>
		<polygon fill="#FFFFFF" points="211.359,228.114 211.963,228.11 211.963,216.55 211.359,216.552 		"/>
	</g>
	<g>
		<rect x="211.359" y="166.725" fill="#FFFFFF" width="0.604" height="11.561"/>
	</g>
	<g>
		<rect x="192.527" y="197.116" fill="#FFFFFF" width="7.207" height="0.604"/>
	</g>
	<g>
		<rect x="223.588" y="197.116" fill="#FFFFFF" width="7.205" height="0.604"/>
	</g>
	<g>
		<polygon fill="#FFFFFF" points="212.389,197.72 216.201,197.72 219.838,197.72 219.838,197.116 216.199,197.116 212.389,197.116 
			215.084,194.421 217.656,191.851 217.23,191.425 214.656,193.997 211.963,196.69 211.963,190.136 211.963,184.3 211.359,184.302 
			211.359,190.138 211.359,196.69 208.664,193.995 206.092,191.423 205.666,191.851 208.238,194.423 210.934,197.116 
			207.121,197.116 203.482,197.116 203.484,197.72 207.123,197.72 210.934,197.72 208.238,200.415 205.666,202.989 206.092,203.415 
			208.666,200.841 211.359,198.147 211.359,204.702 211.359,210.538 211.963,210.536 211.963,204.698 211.963,198.147 
			214.658,200.843 217.23,203.415 217.656,202.987 215.084,200.415 		"/>
	</g>
</g>
<g>
	<g>
		<polygon fill="#FFFFFF" points="132.99,258.809 133.593,258.805 133.593,247.244 132.99,247.246 		"/>
	</g>
	<g>
		<rect x="132.99" y="197.42" fill="#FFFFFF" width="0.604" height="11.561"/>
	</g>
	<g>
		<rect x="114.158" y="227.811" fill="#FFFFFF" width="7.207" height="0.604"/>
	</g>
	<g>
		<rect x="145.218" y="227.811" fill="#FFFFFF" width="7.205" height="0.604"/>
	</g>
	<g>
		<polygon fill="#FFFFFF" points="134.019,228.414 137.832,228.414 141.468,228.414 141.468,227.811 137.83,227.811 
			134.019,227.811 136.714,225.115 139.287,222.545 138.861,222.119 136.287,224.691 133.593,227.385 133.593,220.83 
			133.593,214.994 132.99,214.996 132.99,220.832 132.99,227.385 130.294,224.689 127.722,222.117 127.296,222.545 129.869,225.117 
			132.564,227.811 128.751,227.811 125.113,227.811 125.115,228.414 128.753,228.414 132.564,228.414 129.869,231.109 
			127.296,233.684 127.722,234.109 130.296,231.535 132.99,228.842 132.99,235.396 132.99,241.232 133.593,241.23 133.593,235.393 
			133.593,228.842 136.289,231.537 138.861,234.109 139.287,233.682 136.714,231.109 		"/>
	</g>
</g>
<g>
	<g>
		<polygon fill="#FFFFFF" points="266.102,67.417 266.705,67.413 266.705,55.853 266.102,55.854 		"/>
	</g>
	<g>
		<rect x="266.102" y="6.027" fill="#FFFFFF" width="0.604" height="11.561"/>
	</g>
	<g>
		<rect x="247.27" y="36.419" fill="#FFFFFF" width="7.207" height="0.604"/>
	</g>
	<g>
		<rect x="278.33" y="36.419" fill="#FFFFFF" width="7.205" height="0.604"/>
	</g>
	<g>
		<polygon fill="#FFFFFF" points="267.131,37.022 270.943,37.022 274.58,37.022 274.58,36.419 270.941,36.419 267.131,36.419 
			269.826,33.724 272.398,31.153 271.973,30.728 269.398,33.3 266.705,35.993 266.705,29.438 266.705,23.603 266.102,23.604 
			266.102,29.44 266.102,35.993 263.406,33.298 260.834,30.726 260.408,31.153 262.98,33.726 265.676,36.419 261.863,36.419 
			258.225,36.419 258.227,37.022 261.865,37.022 265.676,37.022 262.98,39.718 260.408,42.292 260.834,42.718 263.408,40.144 
			266.102,37.45 266.102,44.005 266.102,49.841 266.705,49.839 266.705,44.001 266.705,37.45 269.4,40.146 271.973,42.718 
			272.398,42.29 269.826,39.718 		"/>
	</g>
</g>
<g>
	<path fill="#FFFFFF" d="M50.532,185.109l-0.506-1.54l0.577-0.189l0.506,1.54L50.532,185.109z M49.52,182.03l-0.506-1.539
		l0.577-0.189l0.506,1.539L49.52,182.03z M48.508,178.951l-0.506-1.539l0.577-0.189l0.506,1.539L48.508,178.951z M47.496,175.873
		l-0.506-1.54l0.577-0.189l0.506,1.54L47.496,175.873z M46.483,172.794l-0.506-1.539l0.577-0.189l0.506,1.539L46.483,172.794z
		 M45.471,169.715l-0.506-1.539l0.577-0.189l0.506,1.539L45.471,169.715z M44.459,166.637l-0.506-1.54l0.577-0.189l0.506,1.54
		L44.459,166.637z M43.446,163.558l-0.506-1.539l0.577-0.189l0.506,1.539L43.446,163.558z M42.434,160.479l-0.506-1.539l0.577-0.189
		l0.506,1.539L42.434,160.479z M41.422,157.399l-0.506-1.539l0.577-0.189l0.506,1.539L41.422,157.399z M40.41,154.321l-0.506-1.54
		l0.577-0.189l0.506,1.54L40.41,154.321z M39.397,151.242l-0.506-1.539l0.577-0.189l0.506,1.539L39.397,151.242z M38.385,148.163
		l-0.506-1.539l0.577-0.189l0.506,1.539L38.385,148.163z"/>
</g>
<g>
	<path fill="#FFFFFF" d="M51.139,186.123l-0.104-0.6l1.596-0.278l0.104,0.6L51.139,186.123z M54.332,185.565l-0.104-0.6l1.596-0.278
		l0.104,0.6L54.332,185.565z M57.524,185.008l-0.104-0.598l1.597-0.279l0.104,0.598L57.524,185.008z M60.717,184.45l-0.104-0.598
		l1.596-0.279l0.104,0.598L60.717,184.45z M63.91,183.894l-0.104-0.6l1.597-0.278l0.104,0.6L63.91,183.894z M67.103,183.336
		l-0.104-0.6l1.596-0.278l0.104,0.6L67.103,183.336z M70.295,182.778l-0.104-0.598l1.596-0.279l0.104,0.598L70.295,182.778z
		 M73.488,182.222l-0.104-0.6l1.597-0.278l0.104,0.6L73.488,182.222z M76.681,181.664l-0.104-0.6l1.596-0.278l0.104,0.6
		L76.681,181.664z M79.873,181.106l-0.104-0.6l1.597-0.278l0.104,0.6L79.873,181.106z M83.066,180.549l-0.104-0.598l1.596-0.279
		l0.104,0.598L83.066,180.549z"/>
</g>
<g>
	<path fill="#FFFFFF" d="M131.076,226.41l-0.458-0.458l0.43-0.43l0.458,0.458L131.076,226.41z M129.472,224.806l-1.146-1.146
		l0.43-0.43l1.146,1.146L129.472,224.806z M127.18,222.515l-1.146-1.146l0.43-0.43l1.146,1.146L127.18,222.515z M124.888,220.223
		l-1.146-1.146l0.43-0.43l1.146,1.146L124.888,220.223z M122.597,217.931l-1.146-1.146l0.43-0.43l1.146,1.146L122.597,217.931z
		 M120.305,215.64l-1.146-1.146l0.43-0.43l1.146,1.146L120.305,215.64z M118.013,213.348l-1.146-1.146l0.43-0.43l1.146,1.146
		L118.013,213.348z M115.721,211.056l-1.146-1.146l0.43-0.43l1.146,1.146L115.721,211.056z M113.43,208.765l-1.146-1.146l0.43-0.43
		l1.146,1.146L113.43,208.765z M111.138,206.473l-1.146-1.146l0.43-0.43l1.146,1.146L111.138,206.473z M108.846,204.181
		l-1.146-1.146l0.43-0.43l1.146,1.146L108.846,204.181z M106.555,201.89l-1.146-1.146l0.43-0.43l1.146,1.146L106.555,201.89z
		 M104.263,199.598l-1.146-1.146l0.43-0.43l1.146,1.146L104.263,199.598z M101.971,197.306l-1.146-1.146l0.43-0.43l1.146,1.146
		L101.971,197.306z M99.679,195.015l-1.146-1.146l0.43-0.43l1.146,1.146L99.679,195.015z M97.388,192.723l-1.146-1.146l0.43-0.43
		l1.146,1.146L97.388,192.723z M95.096,190.431l-1.146-1.146l0.43-0.43l1.146,1.146L95.096,190.431z M92.804,188.139l-1.146-1.146
		l0.43-0.43l1.146,1.146L92.804,188.139z M90.513,185.848l-1.146-1.146l0.43-0.43l1.146,1.146L90.513,185.848z M88.221,183.556
		l-1.146-1.146l0.43-0.43l1.146,1.146L88.221,183.556z M85.929,181.264l-1.146-1.146l0.43-0.43l1.146,1.146L85.929,181.264z"/>
</g>
<g>
	<path fill="#FFFFFF" d="M171.454,264.634l-0.36-0.341l0.418-0.441l0.36,0.341L171.454,264.634z M169.917,263.179l-1.177-1.114
		l0.418-0.441l1.177,1.114L169.917,263.179z M167.563,260.95l-1.177-1.113l0.418-0.441l1.177,1.113L167.563,260.95z
		 M165.209,258.723l-1.177-1.114l0.418-0.441l1.177,1.114L165.209,258.723z M162.856,256.494l-1.177-1.113l0.418-0.441l1.177,1.113
		L162.856,256.494z M160.502,254.267l-1.177-1.114l0.418-0.441l1.177,1.114L160.502,254.267z M158.148,252.038l-1.177-1.113
		l0.418-0.441l1.177,1.113L158.148,252.038z M155.795,249.811l-1.177-1.114l0.418-0.441l1.177,1.114L155.795,249.811z
		 M153.441,247.582l-1.177-1.113l0.418-0.441l1.177,1.113L153.441,247.582z M151.087,245.354l-1.177-1.114l0.418-0.441l1.177,1.114
		L151.087,245.354z M148.734,243.126l-1.177-1.113l0.418-0.441l1.177,1.113L148.734,243.126z M146.38,240.898l-1.177-1.114
		l0.418-0.441l1.177,1.114L146.38,240.898z M144.027,238.67l-1.177-1.113l0.418-0.441l1.177,1.113L144.027,238.67z M141.673,236.442
		l-1.177-1.114l0.418-0.441l1.177,1.114L141.673,236.442z M139.319,234.214l-1.177-1.113l0.418-0.441l1.177,1.113L139.319,234.214z
		 M136.966,231.986l-1.177-1.114l0.418-0.441l1.177,1.114L136.966,231.986z M134.612,229.758l-1.177-1.113l0.418-0.441l1.177,1.113
		L134.612,229.758z M132.258,227.53l-1.177-1.114l0.418-0.441l1.177,1.114L132.258,227.53z"/>
</g>
<g>
	<path fill="#FFFFFF" d="M197.761,324.825l-0.396-0.905l0.557-0.244l0.396,0.905L197.761,324.825z M196.715,322.436l-0.649-1.484
		l0.557-0.244l0.649,1.484L196.715,322.436z M195.417,319.466l-0.65-1.484l0.557-0.244l0.65,1.484L195.417,319.466z
		 M194.117,316.497l-0.649-1.484l0.557-0.244l0.649,1.484L194.117,316.497z M192.818,313.527l-0.649-1.484l0.557-0.244l0.649,1.484
		L192.818,313.527z M191.519,310.559l-0.649-1.484l0.557-0.244l0.649,1.484L191.519,310.559z M190.22,307.589l-0.649-1.484
		l0.557-0.244l0.649,1.484L190.22,307.589z M188.921,304.62l-0.649-1.484l0.557-0.244l0.649,1.484L188.921,304.62z M187.622,301.65
		l-0.649-1.484l0.557-0.244l0.649,1.484L187.622,301.65z M186.323,298.682l-0.649-1.484l0.557-0.244l0.649,1.484L186.323,298.682z
		 M185.024,295.712l-0.649-1.484l0.557-0.244l0.649,1.484L185.024,295.712z M183.725,292.743l-0.649-1.484l0.557-0.244l0.649,1.484
		L183.725,292.743z M182.426,289.773l-0.649-1.484l0.557-0.244l0.649,1.484L182.426,289.773z M181.127,286.805l-0.65-1.484
		l0.557-0.244l0.65,1.484L181.127,286.805z M179.828,283.835l-0.649-1.484l0.557-0.244l0.649,1.484L179.828,283.835z
		 M178.529,280.866l-0.649-1.484l0.557-0.244l0.649,1.484L178.529,280.866z M177.23,277.896l-0.65-1.484l0.557-0.244l0.65,1.484
		L177.23,277.896z M175.931,274.928l-0.649-1.484l0.557-0.244l0.649,1.484L175.931,274.928z M174.632,271.958l-0.649-1.484
		l0.557-0.244l0.649,1.484L174.632,271.958z M173.333,268.989l-0.65-1.484l0.557-0.244l0.65,1.484L173.333,268.989z M172.034,266.02
		l-0.649-1.484l0.557-0.244l0.649,1.484L172.034,266.02z"/>
</g>
<g>
	<path fill="#FFFFFF" d="M198.343,324.703h-0.607v-1.62h0.607V324.703z M198.343,321.462h-0.607v-1.62h0.607V321.462z
		 M198.343,318.222h-0.607v-1.621h0.607V318.222z M198.343,314.98h-0.607v-1.621h0.607V314.98z M198.343,311.739h-0.607v-1.62h0.607
		V311.739z M198.343,308.498h-0.607v-1.62h0.607V308.498z M198.343,305.258h-0.607v-1.621h0.607V305.258z M198.343,302.017h-0.607
		v-1.621h0.607V302.017z M198.343,298.775h-0.607v-1.62h0.607V298.775z M198.343,295.534h-0.607v-1.62h0.607V295.534z
		 M198.343,292.294h-0.607v-1.621h0.607V292.294z M198.343,289.053h-0.607v-1.621h0.607V289.053z M198.343,285.812h-0.607v-1.62
		h0.607V285.812z M198.343,282.57h-0.607v-1.62h0.607V282.57z M198.343,279.33h-0.607v-1.621h0.607V279.33z M198.343,276.089h-0.607
		v-1.621h0.607V276.089z M198.343,272.848h-0.607v-1.62h0.607V272.848z M198.343,269.606h-0.607v-1.62h0.607V269.606z
		 M198.343,266.366h-0.607v-1.621h0.607V266.366z"/>
</g>
<g>
	<path fill="#FFFFFF" d="M198.337,264.471l-0.597-0.115l0.306-1.592l0.597,0.115L198.337,264.471z M198.949,261.288l-0.597-0.115
		l0.305-1.592l0.597,0.115L198.949,261.288z M199.56,258.105l-0.597-0.115l0.306-1.592l0.597,0.115L199.56,258.105z
		 M200.171,254.922l-0.597-0.115l0.306-1.591l0.597,0.115L200.171,254.922z M200.782,251.739l-0.597-0.115l0.306-1.591l0.597,0.115
		L200.782,251.739z M201.393,248.557l-0.597-0.115l0.306-1.592l0.597,0.115L201.393,248.557z M202.004,245.374l-0.597-0.115
		l0.306-1.592l0.597,0.115L202.004,245.374z M202.615,242.191l-0.597-0.115l0.306-1.592l0.597,0.115L202.615,242.191z
		 M203.227,239.008l-0.597-0.115l0.305-1.591l0.597,0.115L203.227,239.008z M203.837,235.825l-0.597-0.115l0.306-1.591l0.597,0.115
		L203.837,235.825z M204.449,232.643l-0.597-0.115l0.306-1.592l0.597,0.115L204.449,232.643z M205.06,229.46l-0.597-0.115
		l0.306-1.592l0.597,0.115L205.06,229.46z M205.671,226.276l-0.597-0.115l0.306-1.591l0.597,0.115L205.671,226.276z
		 M206.282,223.094l-0.597-0.115l0.306-1.591l0.597,0.115L206.282,223.094z M206.893,219.911l-0.597-0.115l0.306-1.592l0.597,0.115
		L206.893,219.911z M207.504,216.729l-0.597-0.115l0.305-1.592l0.597,0.115L207.504,216.729z M208.115,213.546l-0.597-0.115
		l0.306-1.592l0.597,0.115L208.115,213.546z M208.727,210.362l-0.597-0.115l0.306-1.591l0.597,0.115L208.727,210.362z
		 M209.337,207.18l-0.597-0.115l0.306-1.591l0.597,0.115L209.337,207.18z M209.949,203.997l-0.597-0.115l0.306-1.592l0.597,0.115
		L209.949,203.997z M210.56,200.814l-0.597-0.115l0.306-1.592l0.597,0.115L210.56,200.814z M211.171,197.632l-0.597-0.115
		l0.085-0.445l0.597,0.115L211.171,197.632z"/>
</g>
<g>
	<path fill="#FFFFFF" d="M211.262,197.129h-0.607v-1.62h0.607V197.129z M211.262,193.888h-0.607v-1.62h0.607V193.888z
		 M211.262,190.647h-0.607v-1.621h0.607V190.647z M211.262,187.406h-0.607v-1.621h0.607V187.406z M211.262,184.165h-0.607v-1.62
		h0.607V184.165z M211.262,180.924h-0.607v-1.62h0.607V180.924z M211.262,177.684h-0.607v-1.621h0.607V177.684z M211.262,174.442
		h-0.607v-1.621h0.607V174.442z M211.262,171.201h-0.607v-0.45h0.607V171.201z"/>
</g>
<g>
	<path fill="#FFFFFF" d="M211.228,170.891l-0.54-0.279l0.743-1.44l0.54,0.279L211.228,170.891z M212.713,168.01l-0.54-0.279
		l0.743-1.44l0.54,0.279L212.713,168.01z M214.199,165.13l-0.54-0.279l0.743-1.44l0.54,0.279L214.199,165.13z M215.684,162.249
		l-0.54-0.279l0.743-1.44l0.54,0.279L215.684,162.249z M217.169,159.368l-0.54-0.279l0.743-1.44l0.54,0.279L217.169,159.368z
		 M218.654,156.487l-0.54-0.279l0.743-1.439l0.54,0.279L218.654,156.487z M220.14,153.607l-0.54-0.279l0.743-1.44l0.54,0.279
		L220.14,153.607z M221.625,150.727l-0.54-0.279l0.743-1.44l0.54,0.279L221.625,150.727z M223.11,147.846l-0.54-0.279l0.743-1.44
		l0.54,0.279L223.11,147.846z M224.596,144.966l-0.54-0.279l0.743-1.44l0.54,0.279L224.596,144.966z M226.081,142.085l-0.54-0.279
		l0.743-1.44l0.54,0.279L226.081,142.085z M227.566,139.204l-0.54-0.279l0.743-1.44l0.54,0.279L227.566,139.204z M229.052,136.324
		l-0.54-0.279l0.743-1.44l0.54,0.279L229.052,136.324z M230.537,133.443l-0.54-0.279l0.743-1.44l0.54,0.279L230.537,133.443z
		 M232.022,130.563l-0.54-0.279l0.743-1.44l0.54,0.279L232.022,130.563z M233.507,127.682l-0.54-0.279l0.743-1.439l0.54,0.279
		L233.507,127.682z M234.993,124.802l-0.54-0.279l0.743-1.44l0.54,0.279L234.993,124.802z M236.478,121.921l-0.54-0.279l0.743-1.44
		l0.54,0.279L236.478,121.921z M237.963,119.04l-0.54-0.279l0.743-1.44l0.54,0.279L237.963,119.04z M239.449,116.16l-0.54-0.279
		l0.743-1.44l0.54,0.279L239.449,116.16z M240.934,113.279l-0.54-0.279l0.743-1.44l0.54,0.279L240.934,113.279z M242.419,110.398
		l-0.54-0.279l0.743-1.44l0.54,0.279L242.419,110.398z M243.905,107.518l-0.54-0.279l0.743-1.439l0.54,0.279L243.905,107.518z
		 M245.39,104.638l-0.54-0.279l0.742-1.44l0.54,0.279L245.39,104.638z"/>
</g>
<g>
	<path fill="#FFFFFF" d="M246.746,102.006l-0.521-0.313l0.833-1.39l0.521,0.313L246.746,102.006z M248.414,99.227l-0.521-0.313
		l0.833-1.39l0.521,0.313L248.414,99.227z M250.081,96.447l-0.521-0.313l0.833-1.389l0.521,0.313L250.081,96.447z M251.749,93.669
		l-0.521-0.313l0.833-1.39l0.521,0.313L251.749,93.669z M253.416,90.89l-0.521-0.313l0.833-1.39l0.521,0.313L253.416,90.89z
		 M255.083,88.11l-0.521-0.313l0.833-1.39l0.521,0.313L255.083,88.11z M256.751,85.331l-0.521-0.313l0.833-1.39l0.521,0.313
		L256.751,85.331z M258.418,82.552l-0.521-0.313l0.833-1.389l0.521,0.313L258.418,82.552z M260.086,79.773l-0.521-0.313l0.833-1.39
		l0.521,0.313L260.086,79.773z M261.753,76.994l-0.521-0.313l0.833-1.39l0.521,0.313L261.753,76.994z M263.421,74.215l-0.521-0.313
		l0.833-1.39l0.521,0.313L263.421,74.215z M265.088,71.436l-0.521-0.313l0.833-1.39l0.521,0.313L265.088,71.436z M266.756,68.657
		l-0.521-0.313l0.833-1.39l0.521,0.313L266.756,68.657z M268.423,65.878l-0.521-0.313l0.833-1.39l0.521,0.313L268.423,65.878z"/>
</g>
<g>
	<path fill="#FFFFFF" d="M285.525,90.174l-0.862-1.335l0.51-0.33l0.862,1.335L285.525,90.174z M283.784,87.478l-0.879-1.361
		l0.51-0.33l0.879,1.361L283.784,87.478z M282.025,84.755l-0.879-1.36l0.51-0.33l0.879,1.36L282.025,84.755z M280.268,82.033
		l-0.88-1.361l0.51-0.33l0.88,1.361L280.268,82.033z M278.509,79.311l-0.879-1.361l0.51-0.33l0.879,1.361L278.509,79.311z
		 M276.75,76.588l-0.879-1.361l0.51-0.33l0.879,1.361L276.75,76.588z M274.992,73.865l-0.88-1.361l0.51-0.33l0.88,1.361
		L274.992,73.865z M273.233,71.143l-0.879-1.36l0.511-0.33l0.878,1.36L273.233,71.143z M271.475,68.421l-0.879-1.361l0.511-0.33
		l0.879,1.361L271.475,68.421z M269.716,65.698l-0.879-1.361l0.511-0.33l0.879,1.361L269.716,65.698z"/>
</g>
<g>
	<path fill="#FFFFFF" d="M285.942,90.266l-0.324-0.514l1.37-0.865l0.324,0.514L285.942,90.266z M288.683,88.535l-0.324-0.514
		l1.37-0.865l0.324,0.514L288.683,88.535z M291.423,86.805l-0.324-0.514l1.37-0.865l0.324,0.514L291.423,86.805z M294.163,85.074
		l-0.324-0.514l1.37-0.866l0.324,0.514L294.163,85.074z M296.903,83.343l-0.324-0.514l1.37-0.865l0.324,0.514L296.903,83.343z
		 M299.644,81.612l-0.324-0.514l1.37-0.865l0.324,0.514L299.644,81.612z M302.384,79.882l-0.324-0.514l1.37-0.865l0.324,0.514
		L302.384,79.882z M305.124,78.151l-0.324-0.514l1.272-0.804l0.324,0.514L305.124,78.151z"/>
</g>
<g>
	<path fill="#FFFFFF" d="M306.461,77.294l-0.453-0.406l1.082-1.206l0.453,0.406L306.461,77.294z M308.626,74.882l-0.453-0.406
		l1.082-1.206l0.453,0.406L308.626,74.882z M310.789,72.47l-0.451-0.406l1.083-1.206l0.451,0.406L310.789,72.47z M312.955,70.058
		l-0.453-0.406l1.082-1.206l0.453,0.406L312.955,70.058z M315.118,67.646l-0.451-0.406l1.083-1.206l0.452,0.406L315.118,67.646z
		 M317.284,65.233l-0.453-0.406l1.082-1.206l0.453,0.406L317.284,65.233z M319.449,62.821l-0.453-0.406l1.082-1.206l0.453,0.406
		L319.449,62.821z M321.612,60.409l-0.451-0.406l1.083-1.206l0.451,0.406L321.612,60.409z M323.778,57.997l-0.453-0.406l1.082-1.206
		l0.453,0.406L323.778,57.997z"/>
</g>
<g>
	<path fill="#FFFFFF" d="M324.807,56.239l-0.761-1.431l0.537-0.285l0.761,1.431L324.807,56.239z M323.285,53.378l-0.762-1.431
		l0.537-0.285l0.762,1.431L323.285,53.378z M321.763,50.517l-0.761-1.431l0.537-0.285l0.761,1.431L321.763,50.517z M320.241,47.655
		l-0.762-1.431l0.537-0.285l0.762,1.431L320.241,47.655z M318.719,44.794l-0.761-1.431l0.537-0.285l0.761,1.431L318.719,44.794z
		 M317.197,41.933l-0.762-1.431l0.537-0.285l0.762,1.431L317.197,41.933z M315.675,39.071l-0.761-1.431l0.537-0.285l0.761,1.431
		L315.675,39.071z M314.153,36.21l-0.762-1.431l0.537-0.285l0.762,1.431L314.153,36.21z M312.631,33.349l-0.761-1.431l0.537-0.285
		l0.761,1.431L312.631,33.349z"/>
</g>
<g>
	<path fill="#FFFFFF" d="M310.508,30.849l-1.51-0.588l0.221-0.566l1.51,0.588L310.508,30.849z M307.487,29.673l-1.51-0.588
		l0.221-0.566l1.51,0.588L307.487,29.673z M304.468,28.497l-1.51-0.588l0.221-0.566l1.51,0.588L304.468,28.497z M301.447,27.321
		l-1.51-0.589l0.221-0.566l1.51,0.589L301.447,27.321z M298.428,26.145l-1.511-0.588l0.221-0.566l1.511,0.588L298.428,26.145z"/>
</g>
<g>
	<path fill="#FFFFFF" d="M269.214,37l-0.243-0.557l0.219-0.096l0.243,0.557L269.214,37z M270.917,36.251l-0.245-0.557l1.483-0.652
		l0.245,0.557L270.917,36.251z M273.883,34.945l-0.244-0.557l1.483-0.652l0.244,0.557L273.883,34.945z M276.849,33.641l-0.244-0.557
		l1.483-0.653l0.244,0.557L276.849,33.641z M279.815,32.335l-0.244-0.557l1.483-0.652l0.244,0.557L279.815,32.335z M282.782,31.029
		l-0.244-0.557l1.482-0.652l0.244,0.557L282.782,31.029z M285.748,29.725l-0.244-0.557l1.483-0.653l0.244,0.557L285.748,29.725z
		 M288.715,28.419l-0.244-0.557l1.483-0.653l0.244,0.557L288.715,28.419z M291.682,27.113l-0.244-0.557l1.482-0.652l0.244,0.557
		L291.682,27.113z M294.647,25.808l-0.244-0.557l1.483-0.652l0.244,0.557L294.647,25.808z"/>
</g>
<g>
	<path fill="#FFFFFF" d="M268.787,64.168l-0.158-1.613l0.604-0.059l0.158,1.613L268.787,64.168z M268.471,60.942l-0.158-1.613
		l0.604-0.059l0.158,1.613L268.471,60.942z M268.155,57.717l-0.158-1.612l0.604-0.059l0.158,1.612L268.155,57.717z M267.838,54.491
		l-0.158-1.612l0.604-0.059l0.158,1.612L267.838,54.491z M267.522,51.266l-0.158-1.612l0.604-0.059l0.158,1.612L267.522,51.266z
		 M267.207,48.04l-0.158-1.612l0.604-0.059l0.158,1.612L267.207,48.04z M266.89,44.814l-0.158-1.612l0.604-0.059l0.158,1.612
		L266.89,44.814z M266.574,41.589l-0.158-1.612l0.604-0.059l0.158,1.612L266.574,41.589z M266.258,38.363l-0.158-1.612l0.604-0.059
		l0.158,1.612L266.258,38.363z"/>
</g>
</svg>
