<?xml version="1.0" encoding="utf-8"?>
<!-- Generator: Adobe Illustrator 16.0.3, SVG Export Plug-In . SVG Version: 6.00 Build 0)  -->
<!DOCTYPE svg PUBLIC "-//W3C//DTD SVG 1.1//EN" "http://www.w3.org/Graphics/SVG/1.1/DTD/svg11.dtd">
<svg version="1.1" id="Capa_1" xmlns="http://www.w3.org/2000/svg" xmlns:xlink="http://www.w3.org/1999/xlink" x="0px" y="0px"
	 width="373.33px" height="373.33px" viewBox="0 0 373.33 373.33" enable-background="new 0 0 373.33 373.33" xml:space="preserve">
<g>
	<g>
		<path fill="#FFFFFF" d="M220.317,320.261c-2.309,0.965-4.967-0.131-5.93-2.443c-0.959-2.313,0.137-4.965,2.447-5.928
			c2.314-0.961,4.969,0.135,5.928,2.443C223.728,316.646,222.636,319.302,220.317,320.261"/>
	</g>
</g>
<g>
	<g>
		<path fill="#FFFFFF" d="M172.485,347.435c-2.313-0.957-3.416-3.605-2.463-5.922c0.957-2.311,3.604-3.416,5.916-2.461
			c2.318,0.957,3.422,3.605,2.469,5.92C177.448,347.284,174.803,348.392,172.485,347.435"/>
	</g>
</g>
<g>
	<path fill="#FFFFFF" d="M229.683,139.388c-2.314-0.957-4.963,0.148-5.916,2.465c-0.953,2.311,0.146,4.963,2.459,5.918
		c2.316,0.955,4.967-0.148,5.924-2.465C233.099,142.987,231.997,140.343,229.683,139.388z"/>
</g>
<g>
	<g>
		<path fill="#FFFFFF" d="M226.032,209.956c-0.957-2.314,0.135-4.971,2.445-5.928c2.309-0.965,4.965,0.131,5.926,2.443
			s-0.131,4.967-2.438,5.926C229.649,213.362,226.997,212.269,226.032,209.956"/>
	</g>
</g>
<g>
	<g>
		<path fill="#FFFFFF" d="M145.422,259.717c2.307,0.965,4.967-0.131,5.928-2.445c0.961-2.311-0.135-4.963-2.445-5.926
			c-2.316-0.961-4.967,0.135-5.926,2.443C142.014,256.102,143.105,258.758,145.422,259.717"/>
	</g>
</g>
<g>
	<g>
		<path fill="#FFFFFF" d="M199.651,311.729c2.314-0.957,3.416-3.605,2.463-5.922c-0.955-2.311-3.604-3.416-5.918-2.461
			c-2.316,0.957-3.42,3.605-2.467,5.92C194.687,311.579,197.333,312.687,199.651,311.729"/>
	</g>
</g>
<g>
	<path fill="#FFFFFF" d="M242.708,106.821c-0.953-2.316-3.602-3.422-5.914-2.465c-2.316,0.955-3.42,3.6-2.467,5.918
		c0.957,2.316,3.607,3.42,5.922,2.465C242.562,111.784,243.663,109.132,242.708,106.821z"/>
</g>
<g>
	<g>
		<path fill="#FFFFFF" d="M186.277,227.479c0.957-2.313-0.135-4.969-2.445-5.928c-2.309-0.963-4.963,0.133-5.924,2.443
			c-0.963,2.314,0.131,4.967,2.438,5.928C182.66,230.888,185.313,229.792,186.277,227.479"/>
	</g>
</g>
<g>
	<g>
		<rect x="237.045" y="79.168" fill="#FFFFFF" width="0.947" height="18.137"/>
	</g>
	<g>
		<polygon fill="#FFFFFF" points="237.992,1 237.045,1.004 237.045,19.14 237.992,19.138 		"/>
	</g>
	<g>
		<rect x="207.503" y="48.681" fill="#FFFFFF" width="11.305" height="0.945"/>
	</g>
	<g>
		<rect x="256.229" y="48.681" fill="#FFFFFF" width="11.305" height="0.945"/>
	</g>
	<g>
		<polygon fill="#FFFFFF" points="238.66,49.626 244.641,49.626 250.348,49.626 250.348,48.681 244.639,48.681 238.66,48.681 
			242.889,44.452 246.926,40.417 246.256,39.747 242.219,43.784 237.992,48.011 237.992,37.728 237.992,28.573 237.045,28.573 
			237.045,37.731 237.045,48.011 232.816,43.782 228.781,39.747 228.113,40.417 232.15,44.454 236.377,48.681 230.396,48.681 
			224.689,48.681 224.689,49.626 230.398,49.626 236.377,49.626 232.148,53.855 228.113,57.891 228.783,58.561 232.818,54.523 
			237.045,50.297 237.045,60.58 237.045,69.733 237.992,69.733 237.992,60.576 237.992,50.297 242.221,54.525 246.256,58.561 
			246.924,57.891 242.887,53.854 		"/>
	</g>
</g>
<g>
	<g>
		<polygon fill="#FFFFFF" points="109.042,368.182 109.989,368.178 109.989,350.041 109.042,350.045 		"/>
	</g>
	<g>
		<polygon fill="#FFFFFF" points="109.989,271.875 109.042,271.879 109.042,290.014 109.989,290.012 		"/>
	</g>
	<g>
		<rect x="79.5" y="319.555" fill="#FFFFFF" width="11.305" height="0.947"/>
	</g>
	<g>
		<rect x="128.226" y="319.555" fill="#FFFFFF" width="11.305" height="0.947"/>
	</g>
	<g>
		<polygon fill="#FFFFFF" points="110.657,320.502 116.637,320.502 122.344,320.502 122.344,319.555 116.635,319.555 
			110.657,319.555 114.885,315.326 118.922,311.291 118.252,310.623 114.215,314.66 109.989,318.887 109.989,308.602 
			109.989,299.447 109.042,299.449 109.042,308.607 109.042,318.887 104.813,314.658 100.778,310.621 100.11,311.291 
			104.147,315.328 108.374,319.555 102.393,319.555 96.686,319.555 96.686,320.502 102.395,320.502 108.374,320.502 104.145,324.73 
			100.11,328.766 100.78,329.434 104.815,325.396 109.042,321.17 109.042,331.453 109.042,340.609 109.989,340.607 109.989,331.449 
			109.989,321.17 114.217,325.398 118.252,329.434 118.92,328.766 114.883,324.729 		"/>
	</g>
</g>
<g>
	<g>
		<polygon fill="#FFFFFF" points="182.093,185.045 182.697,185.041 182.697,173.48 182.093,173.482 		"/>
	</g>
	<g>
		<rect x="182.093" y="123.655" fill="#FFFFFF" width="0.604" height="11.561"/>
	</g>
	<g>
		<rect x="163.261" y="154.047" fill="#FFFFFF" width="7.207" height="0.604"/>
	</g>
	<g>
		<rect x="194.322" y="154.047" fill="#FFFFFF" width="7.205" height="0.604"/>
	</g>
	<g>
		<polygon fill="#FFFFFF" points="183.123,154.65 186.935,154.65 190.572,154.65 190.572,154.047 186.933,154.047 183.123,154.047 
			185.818,151.352 188.39,148.781 187.964,148.355 185.39,150.928 182.697,153.621 182.697,147.066 182.697,141.23 182.093,141.232 
			182.093,147.068 182.093,153.621 179.398,150.926 176.826,148.354 176.4,148.781 178.972,151.354 181.667,154.047 
			177.855,154.047 174.216,154.047 174.218,154.65 177.857,154.65 181.667,154.65 178.972,157.346 176.4,159.92 176.826,160.346 
			179.4,157.771 182.093,155.078 182.093,161.633 182.093,167.469 182.697,167.467 182.697,161.629 182.697,155.078 
			185.392,157.773 187.964,160.346 188.39,159.918 185.818,157.346 		"/>
	</g>
</g>
<g>
	<g>
		<polygon fill="#FFFFFF" points="259.579,281.347 260.182,281.343 260.182,269.782 259.579,269.784 		"/>
	</g>
	<g>
		<rect x="259.579" y="219.958" fill="#FFFFFF" width="0.604" height="11.561"/>
	</g>
	<g>
		<rect x="240.747" y="250.349" fill="#FFFFFF" width="7.207" height="0.604"/>
	</g>
	<g>
		<rect x="271.807" y="250.349" fill="#FFFFFF" width="7.206" height="0.604"/>
	</g>
	<g>
		<polygon fill="#FFFFFF" points="260.608,250.952 264.42,250.952 268.057,250.952 268.057,250.349 264.418,250.349 
			260.608,250.349 263.303,247.653 265.875,245.083 265.45,244.657 262.875,247.229 260.182,249.923 260.182,243.368 
			260.182,237.532 259.579,237.534 259.579,243.37 259.579,249.923 256.883,247.228 254.311,244.655 253.885,245.083 
			256.458,247.655 259.153,250.349 255.34,250.349 251.702,250.349 251.704,250.952 255.342,250.952 259.153,250.952 
			256.458,253.647 253.885,256.222 254.311,256.647 256.885,254.073 259.579,251.38 259.579,257.935 259.579,263.771 
			260.182,263.769 260.182,257.931 260.182,251.38 262.877,254.075 265.45,256.647 265.875,256.22 263.303,253.647 		"/>
	</g>
</g>
<g>
	<g>
		<polygon fill="#FFFFFF" points="125.128,169.405 125.732,169.401 125.732,157.841 125.128,157.843 		"/>
	</g>
	<g>
		<rect x="125.128" y="108.016" fill="#FFFFFF" width="0.604" height="11.561"/>
	</g>
	<g>
		<rect x="106.296" y="138.407" fill="#FFFFFF" width="7.207" height="0.604"/>
	</g>
	<g>
		<rect x="137.357" y="138.407" fill="#FFFFFF" width="7.205" height="0.604"/>
	</g>
	<g>
		<polygon fill="#FFFFFF" points="126.158,139.011 129.97,139.011 133.607,139.011 133.607,138.407 129.968,138.407 
			126.158,138.407 128.853,135.712 131.425,133.142 131,132.716 128.425,135.288 125.732,137.981 125.732,131.427 125.732,125.591 
			125.128,125.593 125.128,131.429 125.128,137.981 122.433,135.286 119.861,132.714 119.435,133.142 122.007,135.714 
			124.703,138.407 120.89,138.407 117.251,138.407 117.253,139.011 120.892,139.011 124.703,139.011 122.007,141.706 
			119.435,144.28 119.861,144.706 122.435,142.132 125.128,139.438 125.128,145.993 125.128,151.829 125.732,151.827 
			125.732,145.989 125.732,139.438 128.427,142.134 131,144.706 131.425,144.278 128.853,141.706 		"/>
	</g>
</g>
<g>
	<path fill="#FFFFFF" d="M228.562,142.665l-0.566-0.148l0.246-0.94l0.566,0.148L228.562,142.665z M229.202,140.215l-0.566-0.148
		l0.395-1.51l0.566,0.148L229.202,140.215z M229.991,137.195l-0.566-0.148l0.395-1.51l0.566,0.148L229.991,137.195z
		 M230.781,134.176l-0.566-0.148l0.395-1.51l0.566,0.148L230.781,134.176z M231.57,131.156l-0.566-0.148l0.395-1.51l0.566,0.148
		L231.57,131.156z M232.359,128.137l-0.566-0.148l0.395-1.51l0.566,0.148L232.359,128.137z M233.148,125.117l-0.566-0.148
		l0.395-1.51l0.566,0.148L233.148,125.117z M233.937,122.098l-0.566-0.148l0.395-1.51l0.566,0.148L233.937,122.098z
		 M234.726,119.078l-0.566-0.148l0.395-1.51l0.566,0.148L234.726,119.078z M235.515,116.059l-0.566-0.148l0.395-1.51l0.566,0.148
		L235.515,116.059z M236.304,113.039l-0.566-0.148l0.395-1.51l0.566,0.148L236.304,113.039z M237.093,110.02l-0.566-0.148
		l0.395-1.51l0.566,0.148L237.093,110.02z"/>
</g>
<g>
	<path fill="#FFFFFF" d="M182.167,154.904l-0.147-0.566l0.883-0.23l0.147,0.566L182.167,154.904z M184.561,154.281l-0.147-0.566
		l1.51-0.394l0.147,0.566L184.561,154.281z M187.581,153.494l-0.147-0.566l1.51-0.394l0.147,0.566L187.581,153.494z
		 M190.601,152.707l-0.147-0.566l1.51-0.393l0.147,0.566L190.601,152.707z M193.621,151.921l-0.147-0.566l1.51-0.394l0.147,0.566
		L193.621,151.921z M196.641,151.134l-0.147-0.566l1.51-0.393l0.147,0.566L196.641,151.134z M199.661,150.348l-0.147-0.566
		l1.51-0.394l0.147,0.566L199.661,150.348z M202.681,149.561l-0.147-0.566l1.51-0.394l0.147,0.566L202.681,149.561z
		 M205.702,148.774l-0.147-0.566l1.51-0.394l0.147,0.566L205.702,148.774z M208.722,147.987l-0.147-0.566l1.51-0.394l0.147,0.566
		L208.722,147.987z M211.742,147.201l-0.147-0.566l1.51-0.394l0.147,0.566L211.742,147.201z M214.762,146.414l-0.147-0.566
		l1.51-0.394l0.147,0.566L214.762,146.414z M217.782,145.627l-0.147-0.566l1.51-0.393l0.147,0.566L217.782,145.627z
		 M220.802,144.841l-0.147-0.566l1.51-0.394l0.147,0.566L220.802,144.841z M223.822,144.054l-0.147-0.566l1.51-0.393l0.147,0.566
		L223.822,144.054z M226.842,143.268l-0.147-0.566l1.51-0.394l0.147,0.566L226.842,143.268z"/>
</g>
<g>
	<path fill="#FFFFFF" d="M182.014,154.902l-1.502-0.422l0.158-0.563l1.502,0.422L182.014,154.902z M179.009,154.059l-1.502-0.422
		l0.158-0.563l1.502,0.422L179.009,154.059z M176.005,153.215l-1.502-0.422l0.158-0.563l1.502,0.422L176.005,153.215z M173,152.371
		l-1.502-0.422l0.158-0.563l1.502,0.422L173,152.371z M169.995,151.527l-1.502-0.422l0.158-0.563l1.502,0.422L169.995,151.527z
		 M166.991,150.684l-1.502-0.422l0.158-0.563l1.502,0.422L166.991,150.684z M163.986,149.84l-1.502-0.422l0.158-0.563l1.502,0.422
		L163.986,149.84z M160.981,148.996l-1.502-0.422l0.158-0.563l1.502,0.422L160.981,148.996z M157.977,148.152l-1.502-0.422
		l0.158-0.563l1.502,0.422L157.977,148.152z M154.972,147.309l-1.502-0.422l0.158-0.563l1.502,0.422L154.972,147.309z
		 M151.967,146.465l-1.502-0.422l0.158-0.563l1.502,0.422L151.967,146.465z M148.962,145.621l-1.502-0.422l0.158-0.563l1.502,0.422
		L148.962,145.621z M145.958,144.777l-1.502-0.422l0.158-0.563l1.502,0.422L145.958,144.777z M142.953,143.934l-1.502-0.422
		l0.158-0.563l1.502,0.422L142.953,143.934z M139.948,143.091l-1.502-0.422l0.158-0.563l1.502,0.421L139.948,143.091z
		 M136.943,142.247l-1.502-0.422l0.158-0.563l1.502,0.422L136.943,142.247z M133.939,141.403l-1.502-0.422l0.158-0.563l1.502,0.422
		L133.939,141.403z M130.934,140.56l-1.502-0.422l0.158-0.563l1.502,0.422L130.934,140.56z M127.929,139.716l-1.502-0.422
		l0.158-0.563l1.502,0.422L127.929,139.716z"/>
</g>
<g>
	<path fill="#FFFFFF" d="M182.386,224.842h-0.585v-1.561h0.585V224.842z M182.386,221.721h-0.585v-1.561h0.585V221.721z
		 M182.386,218.6h-0.585v-1.561h0.585V218.6z M182.386,215.479h-0.585v-1.561h0.585V215.479z M182.386,212.358h-0.585v-1.561h0.585
		V212.358z M182.386,209.237h-0.585v-1.561h0.585V209.237z M182.386,206.116h-0.585v-1.561h0.585V206.116z M182.386,202.995h-0.585
		v-1.561h0.585V202.995z M182.386,199.874h-0.585v-1.56h0.585V199.874z M182.386,196.754h-0.585v-1.561h0.585V196.754z
		 M182.386,193.633h-0.585v-1.561h0.585V193.633z M182.386,190.512h-0.585v-1.561h0.585V190.512z M182.386,187.391h-0.585v-1.561
		h0.585V187.391z M182.386,184.27h-0.585v-1.561h0.585V184.27z M182.386,181.148h-0.585v-1.56h0.585V181.148z M182.386,178.028
		h-0.585v-1.561h0.585V178.028z M182.386,174.907h-0.585v-1.561h0.585V174.907z M182.386,171.786h-0.585v-1.561h0.585V171.786z
		 M182.386,168.665h-0.585v-1.561h0.585V168.665z M182.386,165.544h-0.585v-1.561h0.585V165.544z M182.386,162.424h-0.585v-1.561
		h0.585V162.424z M182.386,159.303h-0.585v-1.561h0.585V159.303z M182.386,156.182h-0.585v-1.561h0.585V156.182z"/>
</g>
<g>
	<path fill="#FFFFFF" d="M147.708,255.455l-0.378-0.447l1.192-1.007l0.378,0.447L147.708,255.455z M150.091,253.441l-0.377-0.447
		l1.192-1.006l0.377,0.447L150.091,253.441z M152.476,251.429l-0.378-0.447l1.192-1.007l0.378,0.447L152.476,251.429z
		 M154.861,249.415l-0.378-0.447l1.192-1.007l0.378,0.447L154.861,249.415z M157.245,247.401l-0.378-0.447l1.192-1.007l0.378,0.447
		L157.245,247.401z M159.63,245.388l-0.378-0.447l1.192-1.007l0.378,0.447L159.63,245.388z M162.014,243.374l-0.378-0.447
		l1.192-1.007l0.378,0.447L162.014,243.374z M164.398,241.36l-0.378-0.447l1.192-1.007l0.378,0.447L164.398,241.36z
		 M166.783,239.347l-0.378-0.447l1.192-1.007l0.378,0.447L166.783,239.347z M169.167,237.333l-0.378-0.447l1.192-1.007l0.378,0.447
		L169.167,237.333z M171.552,235.319l-0.377-0.447l1.192-1.006l0.377,0.447L171.552,235.319z M173.937,233.307l-0.378-0.447
		l1.192-1.007l0.378,0.447L173.937,233.307z M176.321,231.293l-0.378-0.447l1.192-1.007l0.378,0.447L176.321,231.293z
		 M178.706,229.279l-0.378-0.447l1.192-1.007l0.378,0.447L178.706,229.279z M181.09,227.266l-0.378-0.447l1.192-1.007l0.378,0.447
		L181.09,227.266z"/>
</g>
<g>
	<path fill="#FFFFFF" d="M109.908,318.708l-0.503-0.299l0.798-1.341l0.503,0.299L109.908,318.708z M111.504,316.025l-0.503-0.299
		l0.798-1.341l0.503,0.299L111.504,316.025z M113.1,313.344l-0.503-0.299l0.798-1.341l0.503,0.299L113.1,313.344z M114.696,310.662
		l-0.503-0.299l0.798-1.341l0.503,0.299L114.696,310.662z M116.292,307.979l-0.503-0.299l0.798-1.341l0.503,0.299L116.292,307.979z
		 M117.888,305.298l-0.503-0.299l0.798-1.341l0.503,0.299L117.888,305.298z M119.484,302.616l-0.503-0.299l0.798-1.341l0.503,0.299
		L119.484,302.616z M121.08,299.934l-0.503-0.299l0.798-1.341l0.503,0.299L121.08,299.934z M122.676,297.252l-0.503-0.299
		l0.798-1.341l0.503,0.299L122.676,297.252z M124.272,294.57l-0.503-0.299l0.798-1.341l0.503,0.299L124.272,294.57z
		 M125.868,291.888l-0.503-0.299l0.798-1.341l0.503,0.299L125.868,291.888z M127.464,289.206l-0.503-0.299l0.798-1.341l0.503,0.299
		L127.464,289.206z M129.06,286.524l-0.503-0.299l0.798-1.341l0.503,0.299L129.06,286.524z M130.656,283.842l-0.503-0.299
		l0.798-1.341l0.503,0.299L130.656,283.842z M132.252,281.16l-0.503-0.299l0.798-1.341l0.503,0.299L132.252,281.16z
		 M133.848,278.479l-0.503-0.299l0.798-1.341l0.503,0.299L133.848,278.479z M135.444,275.796l-0.503-0.299l0.798-1.341l0.503,0.299
		L135.444,275.796z M137.04,273.114l-0.503-0.299l0.798-1.341l0.503,0.299L137.04,273.114z M138.636,270.433l-0.503-0.299
		l0.798-1.341l0.503,0.299L138.636,270.433z M140.232,267.75l-0.503-0.299l0.798-1.341l0.503,0.299L140.232,267.75z
		 M141.828,265.068l-0.503-0.299l0.798-1.341l0.503,0.299L141.828,265.068z M143.424,262.387l-0.503-0.299l0.798-1.341l0.503,0.299
		L143.424,262.387z M145.02,259.704l-0.503-0.299l0.798-1.341l0.503,0.299L145.02,259.704z M146.616,257.022l-0.503-0.299
		l0.798-1.341l0.503,0.299L146.616,257.022z"/>
</g>
<g>
	<path fill="#FFFFFF" d="M260.654,251.886l-1.484-0.482l0.181-0.557l1.484,0.482L260.654,251.886z M257.687,250.921l-1.484-0.482
		l0.181-0.557l1.484,0.482L257.687,250.921z M254.718,249.956l-1.484-0.482l0.181-0.557l1.484,0.482L254.718,249.956z
		 M251.75,248.991l-1.484-0.482l0.181-0.557l1.484,0.482L251.75,248.991z M248.782,248.026l-1.484-0.483l0.182-0.557l1.484,0.483
		L248.782,248.026z M245.814,247.061l-1.484-0.482l0.181-0.557l1.484,0.482L245.814,247.061z M242.847,246.096l-1.484-0.482
		l0.181-0.557l1.484,0.482L242.847,246.096z M239.878,245.131l-1.484-0.482l0.181-0.557l1.484,0.482L239.878,245.131z
		 M236.911,244.166l-1.484-0.482l0.181-0.557l1.484,0.482L236.911,244.166z M233.942,243.201l-1.484-0.482l0.181-0.557l1.484,0.482
		L233.942,243.201z M230.975,242.236l-1.484-0.482l0.181-0.557l1.484,0.482L230.975,242.236z M228.007,241.271l-1.484-0.482
		l0.181-0.557l1.484,0.482L228.007,241.271z M225.039,240.306l-1.484-0.482l0.181-0.557l1.484,0.482L225.039,240.306z
		 M222.071,239.341l-1.484-0.482l0.181-0.557l1.484,0.482L222.071,239.341z M219.103,238.376l-1.484-0.482l0.181-0.557l1.484,0.482
		L219.103,238.376z M216.135,237.411l-1.484-0.482l0.181-0.557l1.484,0.482L216.135,237.411z M213.167,236.446l-1.484-0.482
		l0.181-0.557l1.484,0.482L213.167,236.446z M210.198,235.481l-1.484-0.483l0.182-0.557l1.484,0.483L210.198,235.481z
		 M207.231,234.516l-1.484-0.482l0.181-0.557l1.484,0.482L207.231,234.516z M204.263,233.551l-1.484-0.482l0.181-0.557l1.484,0.482
		L204.263,233.551z M201.295,232.586l-1.484-0.482l0.181-0.557l1.484,0.482L201.295,232.586z M198.327,231.621l-1.484-0.482
		l0.181-0.557l1.484,0.482L198.327,231.621z M195.359,230.656l-1.484-0.482l0.181-0.557l1.484,0.482L195.359,230.656z
		 M192.391,229.691l-1.484-0.483l0.182-0.557l1.484,0.483L192.391,229.691z M189.423,228.726l-1.484-0.482l0.181-0.557l1.484,0.482
		L189.423,228.726z M186.455,227.761l-1.484-0.482l0.181-0.557l1.484,0.482L186.455,227.761z M183.487,226.796l-1.484-0.482
		l0.181-0.557l1.484,0.482L183.487,226.796z"/>
</g>
<g>
	<path fill="#FFFFFF" d="M260.64,251.82l-0.899-1.275l0.479-0.338l0.899,1.275L260.64,251.82z M258.841,249.27l-0.899-1.274
		l0.479-0.338l0.899,1.274L258.841,249.27z M257.042,246.72l-0.899-1.275l0.479-0.338l0.899,1.275L257.042,246.72z M255.244,244.169
		l-0.899-1.275l0.479-0.338l0.899,1.275L255.244,244.169z M253.445,241.619l-0.899-1.275l0.479-0.338l0.899,1.275L253.445,241.619z
		 M251.646,239.068l-0.899-1.275l0.479-0.338l0.899,1.275L251.646,239.068z M249.847,236.519l-0.899-1.275l0.479-0.338l0.899,1.275
		L249.847,236.519z M248.048,233.968l-0.899-1.275l0.479-0.338l0.899,1.275L248.048,233.968z M246.25,231.417l-0.899-1.274
		l0.479-0.338l0.899,1.274L246.25,231.417z M244.451,228.867l-0.899-1.275l0.479-0.338l0.899,1.275L244.451,228.867z
		 M242.652,226.316l-0.899-1.275l0.479-0.338l0.899,1.275L242.652,226.316z M240.853,223.767l-0.899-1.275l0.479-0.338l0.899,1.275
		L240.853,223.767z M239.054,221.216l-0.899-1.275l0.479-0.338l0.899,1.275L239.054,221.216z M237.255,218.666l-0.899-1.275
		l0.479-0.338l0.899,1.275L237.255,218.666z M235.457,216.115l-0.899-1.275l0.479-0.338l0.899,1.275L235.457,216.115z
		 M233.658,213.564l-0.899-1.274l0.479-0.338l0.899,1.274L233.658,213.564z M231.859,211.015l-0.899-1.275l0.479-0.338l0.899,1.275
		L231.859,211.015z"/>
</g>
<g>
	<path fill="#FFFFFF" d="M229.927,208.19l-0.046-1.56l0.585-0.018l0.046,1.56L229.927,208.19z M229.834,205.071l-0.046-1.561
		l0.585-0.018l0.046,1.561L229.834,205.071z M229.742,201.951l-0.046-1.56l0.585-0.018l0.046,1.56L229.742,201.951z M229.65,198.832
		l-0.046-1.56l0.585-0.018l0.046,1.56L229.65,198.832z M229.558,195.712l-0.046-1.56l0.585-0.018l0.046,1.56L229.558,195.712z
		 M229.465,192.593l-0.046-1.56l0.585-0.018l0.046,1.56L229.465,192.593z M229.373,189.473l-0.046-1.56l0.585-0.018l0.046,1.56
		L229.373,189.473z M229.281,186.354l-0.046-1.56l0.585-0.018l0.046,1.56L229.281,186.354z M229.188,183.234l-0.046-1.561
		l0.585-0.018l0.046,1.561L229.188,183.234z M229.096,180.114l-0.046-1.56l0.585-0.018l0.046,1.56L229.096,180.114z
		 M229.004,176.995l-0.046-1.56l0.585-0.018l0.046,1.56L229.004,176.995z M228.912,173.875l-0.046-1.56l0.585-0.018l0.046,1.56
		L228.912,173.875z M228.819,170.756l-0.046-1.56l0.585-0.018l0.046,1.56L228.819,170.756z M228.727,167.636l-0.046-1.56
		l0.585-0.018l0.046,1.56L228.727,167.636z M228.635,164.517l-0.046-1.56l0.585-0.018l0.046,1.56L228.635,164.517z M228.542,161.397
		l-0.046-1.561l0.585-0.018l0.046,1.561L228.542,161.397z M228.45,158.277l-0.046-1.56l0.585-0.018l0.046,1.56L228.45,158.277z
		 M228.358,155.158l-0.046-1.56l0.585-0.018l0.046,1.56L228.358,155.158z M228.266,152.038l-0.046-1.56l0.585-0.018l0.046,1.56
		L228.266,152.038z M228.173,148.919l-0.046-1.56l0.585-0.018l0.046,1.56L228.173,148.919z M228.081,145.8l-0.046-1.561l0.585-0.018
		l0.046,1.561L228.081,145.8z"/>
</g>
<g>
	<path fill="#FFFFFF" d="M219.156,315.728l-0.489-0.32l0.856-1.305l0.489,0.32L219.156,315.728z M220.869,313.119l-0.489-0.321
		l0.856-1.304l0.489,0.321L220.869,313.119z M222.582,310.51l-0.489-0.32l0.856-1.305l0.489,0.32L222.582,310.51z M224.295,307.901
		l-0.489-0.322l0.856-1.304l0.489,0.321L224.295,307.901z M226.008,305.292l-0.489-0.32l0.856-1.305l0.489,0.32L226.008,305.292z
		 M227.721,302.684l-0.489-0.32l0.856-1.305l0.489,0.32L227.721,302.684z M229.434,300.074l-0.489-0.32l0.856-1.305l0.489,0.32
		L229.434,300.074z M231.147,297.466l-0.489-0.32l0.856-1.305l0.489,0.32L231.147,297.466z M232.86,294.857l-0.489-0.321
		l0.856-1.304l0.489,0.321L232.86,294.857z M234.573,292.248l-0.489-0.32l0.856-1.305l0.489,0.32L234.573,292.248z M236.286,289.64
		l-0.489-0.32l0.857-1.305l0.489,0.32L236.286,289.64z M237.999,287.03l-0.489-0.32l0.856-1.305l0.489,0.32L237.999,287.03z
		 M239.712,284.422l-0.489-0.32l0.856-1.305l0.489,0.32L239.712,284.422z M241.425,281.813l-0.489-0.321l0.856-1.304l0.489,0.321
		L241.425,281.813z M243.138,279.204l-0.489-0.32l0.856-1.305l0.489,0.32L243.138,279.204z M244.851,276.596l-0.489-0.322
		l0.856-1.303l0.489,0.321L244.851,276.596z M246.563,273.986l-0.489-0.32l0.857-1.305l0.489,0.32L246.563,273.986z
		 M248.277,271.378l-0.489-0.32l0.856-1.305l0.489,0.32L248.277,271.378z M249.99,268.769l-0.489-0.32l0.856-1.305l0.489,0.32
		L249.99,268.769z M251.703,266.16l-0.489-0.32l0.856-1.305l0.489,0.32L251.703,266.16z M253.416,263.552l-0.489-0.322l0.856-1.304
		l0.489,0.321L253.416,263.552z M255.128,260.942l-0.489-0.32l0.856-1.305l0.489,0.32L255.128,260.942z M256.842,258.334
		l-0.489-0.32l0.856-1.305l0.489,0.32L256.842,258.334z M258.555,255.725l-0.489-0.32l0.856-1.305l0.489,0.32L258.555,255.725z
		 M260.268,253.116l-0.489-0.32l0.856-1.305l0.489,0.32L260.268,253.116z"/>
</g>
<g>
	<path fill="#FFFFFF" d="M218.473,316.35l-1.459-0.554l0.208-0.547l1.459,0.554L218.473,316.35z M215.555,315.243l-1.459-0.554
		l0.208-0.547l1.459,0.554L215.555,315.243z M212.637,314.137l-1.459-0.554l0.208-0.547l1.459,0.554L212.637,314.137z
		 M209.719,313.029l-1.459-0.553l0.207-0.547l1.459,0.553L209.719,313.029z M206.801,311.923l-1.459-0.553l0.207-0.547l1.459,0.553
		L206.801,311.923z M203.882,310.816l-1.459-0.554l0.208-0.547l1.459,0.554L203.882,310.816z M200.964,309.71l-1.459-0.554
		l0.208-0.547l1.459,0.554L200.964,309.71z M198.046,308.604l-1.459-0.554l0.208-0.547l1.459,0.554L198.046,308.604z"/>
</g>
<g>
	<path fill="#FFFFFF" d="M175.749,343.39l-0.507-0.293l0.316-0.549l0.507,0.293L175.749,343.39z M176.844,341.488l-0.507-0.293
		l0.779-1.352l0.507,0.293L176.844,341.488z M178.402,338.784l-0.507-0.293l0.779-1.352l0.507,0.293L178.402,338.784z
		 M179.96,336.08l-0.507-0.293l0.779-1.353l0.507,0.293L179.96,336.08z M181.518,333.376l-0.507-0.293l0.779-1.353l0.507,0.293
		L181.518,333.376z M183.076,330.672l-0.507-0.293l0.779-1.353l0.507,0.293L183.076,330.672z M184.634,327.968l-0.507-0.293
		l0.779-1.353l0.507,0.293L184.634,327.968z M186.192,325.263l-0.507-0.293l0.779-1.352l0.507,0.293L186.192,325.263z
		 M187.75,322.559l-0.507-0.293l0.779-1.352l0.507,0.293L187.75,322.559z M189.308,319.854l-0.507-0.293l0.779-1.352l0.507,0.293
		L189.308,319.854z M190.866,317.15l-0.507-0.293l0.779-1.353l0.507,0.293L190.866,317.15z M192.424,314.446l-0.507-0.293
		l0.779-1.353l0.507,0.293L192.424,314.446z M193.982,311.742l-0.507-0.293l0.779-1.353l0.507,0.293L193.982,311.742z
		 M195.54,309.038l-0.507-0.293l0.779-1.353l0.507,0.293L195.54,309.038z"/>
</g>
<g>
	<path fill="#FFFFFF" d="M237.497,108.436h-0.585v-1.561h0.585V108.436z M237.497,105.314h-0.585v-1.561h0.585V105.314z
		 M237.497,102.193h-0.585v-1.561h0.585V102.193z M237.497,99.073h-0.585v-1.561h0.585V99.073z M237.497,95.952h-0.585v-1.561h0.585
		V95.952z M237.497,92.831h-0.585v-1.561h0.585V92.831z M237.497,89.71h-0.585v-1.561h0.585V89.71z M237.497,86.589h-0.585v-1.561
		h0.585V86.589z M237.497,83.468h-0.585v-1.56h0.585V83.468z M237.497,80.348h-0.585v-1.561h0.585V80.348z M237.497,77.227h-0.585
		v-1.561h0.585V77.227z M237.497,74.105h-0.585v-1.561h0.585V74.105z M237.497,70.984h-0.585v-1.561h0.585V70.984z M237.497,67.863
		h-0.585v-1.561h0.585V67.863z M237.497,64.743h-0.585v-1.561h0.585V64.743z M237.497,61.622h-0.585v-1.561h0.585V61.622z
		 M237.497,58.501h-0.585V56.94h0.585V58.501z M237.497,55.38h-0.585v-1.561h0.585V55.38z M237.497,52.259h-0.585v-1.561h0.585
		V52.259z M237.497,49.138h-0.585v-1.561h0.585V49.138z M237.497,46.018h-0.585v-1.183h0.585V46.018z"/>
</g>
</svg>
