<?xml version="1.0" encoding="utf-8"?>
<!-- Generator: Adobe Illustrator 16.0.3, SVG Export Plug-In . SVG Version: 6.00 Build 0)  -->
<!DOCTYPE svg PUBLIC "-//W3C//DTD SVG 1.1//EN" "http://www.w3.org/Graphics/SVG/1.1/DTD/svg11.dtd">
<svg version="1.1" id="Capa_1" xmlns="http://www.w3.org/2000/svg" xmlns:xlink="http://www.w3.org/1999/xlink" x="0px" y="0px"
	 width="373.33px" height="373.33px" viewBox="0 0 373.33 373.33" enable-background="new 0 0 373.33 373.33" xml:space="preserve">
<g>
	<g>
		<path fill="#FFFFFF" d="M278.154,52.804c-2.309,0.965-4.967-0.131-5.93-2.443c-0.959-2.313,0.137-4.965,2.447-5.928
			c2.314-0.961,4.969,0.135,5.928,2.443C281.564,49.188,280.473,51.845,278.154,52.804"/>
	</g>
</g>
<g>
	<g>
		<path fill="#FFFFFF" d="M151.023,66.804c-2.313-0.957-3.416-3.605-2.463-5.922c0.957-2.311,3.604-3.416,5.916-2.461
			c2.318,0.957,3.422,3.605,2.469,5.92C155.986,66.653,153.342,67.761,151.023,66.804"/>
	</g>
</g>
<g>
	<path fill="#FFFFFF" d="M174.476,44.429c-2.314-0.957-4.963,0.148-5.916,2.465c-0.953,2.311,0.146,4.963,2.459,5.918
		c2.316,0.955,4.967-0.148,5.924-2.465C177.892,48.028,176.79,45.384,174.476,44.429z"/>
</g>
<g>
	<g>
		<path fill="#FFFFFF" d="M267.043,158.782c-0.957-2.314,0.135-4.971,2.445-5.928c2.309-0.965,4.965,0.131,5.926,2.443
			s-0.131,4.967-2.438,5.926C270.66,162.188,268.008,161.095,267.043,158.782"/>
	</g>
</g>
<g>
	<g>
		<path fill="#FFFFFF" d="M362.784,129.518c2.307,0.965,4.967-0.131,5.928-2.445c0.961-2.311-0.135-4.963-2.445-5.926
			c-2.316-0.961-4.967,0.135-5.926,2.443C359.376,125.902,360.468,128.559,362.784,129.518"/>
	</g>
</g>
<g>
	<g>
		<path fill="#FFFFFF" d="M287.988,235.778c2.314-0.957,3.416-3.605,2.463-5.922c-0.955-2.311-3.604-3.416-5.918-2.461
			c-2.316,0.957-3.42,3.605-2.467,5.92C283.023,235.628,285.67,236.735,287.988,235.778"/>
	</g>
</g>
<g>
	<path fill="#FFFFFF" d="M254.17,106.727c-0.953-2.316-3.602-3.422-5.914-2.465c-2.316,0.955-3.42,3.6-2.467,5.918
		c0.957,2.316,3.607,3.42,5.922,2.465C254.023,111.689,255.125,109.037,254.17,106.727z"/>
</g>
<g>
	<g>
		<path fill="#FFFFFF" d="M16.287,193.901c0.957-2.313-0.135-4.969-2.445-5.928c-2.309-0.963-4.963,0.133-5.924,2.443
			c-0.963,2.314,0.131,4.967,2.438,5.928C12.67,197.31,15.322,196.214,16.287,193.901"/>
	</g>
</g>
<g>
	<g>
		<path fill="#FFFFFF" d="M71.234,269.351c0.957-2.313-0.135-4.969-2.445-5.928c-2.309-0.963-4.963,0.133-5.924,2.443
			c-0.963,2.314,0.131,4.967,2.438,5.928C67.617,272.759,70.27,271.663,71.234,269.351"/>
	</g>
</g>
<g>
	<g>
		<path fill="#FFFFFF" d="M34.764,167.058c0.957-2.313-0.135-4.969-2.445-5.928c-2.309-0.963-4.963,0.133-5.924,2.443
			c-0.963,2.314,0.131,4.967,2.438,5.928C31.146,170.466,33.799,169.37,34.764,167.058"/>
	</g>
</g>
<g>
	<g>
		<path fill="#FFFFFF" d="M145.316,141.835c0.957-2.313-0.135-4.969-2.445-5.928c-2.309-0.963-4.963,0.133-5.924,2.443
			c-0.963,2.314,0.131,4.967,2.438,5.928C141.699,145.243,144.352,144.147,145.316,141.835"/>
	</g>
</g>
<g>
	<g>
		<path fill="#FFFFFF" d="M167.346,157.646c0.957-2.313-0.135-4.969-2.445-5.928c-2.309-0.963-4.963,0.133-5.924,2.443
			c-0.963,2.314,0.131,4.967,2.438,5.928C163.729,161.054,166.381,159.958,167.346,157.646"/>
	</g>
</g>
<g>
	<g>
		<path fill="#FFFFFF" d="M114.217,61.763c0.957-2.313-0.135-4.969-2.445-5.928c-2.309-0.963-4.963,0.133-5.924,2.443
			c-0.963,2.314,0.131,4.967,2.438,5.928C110.6,65.171,113.252,64.075,114.217,61.763"/>
	</g>
</g>
<g>
	<g>
		<path fill="#FFFFFF" d="M83.627,38.958c0.957-2.313-0.135-4.969-2.445-5.928c-2.309-0.963-4.963,0.133-5.924,2.443
			c-0.963,2.314,0.131,4.967,2.438,5.928C80.01,42.366,82.662,41.271,83.627,38.958"/>
	</g>
</g>
<g>
	<g>
		<polygon fill="#FFFFFF" points="305.379,205.666 306.326,205.662 306.326,187.525 305.379,187.529 		"/>
	</g>
	<g>
		<polygon fill="#FFFFFF" points="306.326,109.359 305.379,109.363 305.379,127.498 306.326,127.496 		"/>
	</g>
	<g>
		<rect x="275.837" y="157.039" fill="#FFFFFF" width="11.305" height="0.947"/>
	</g>
	<g>
		<rect x="324.563" y="157.039" fill="#FFFFFF" width="11.305" height="0.947"/>
	</g>
	<g>
		<polygon fill="#FFFFFF" points="306.994,157.986 312.975,157.986 318.682,157.986 318.682,157.039 312.973,157.039 
			306.994,157.039 311.223,152.811 315.26,148.775 314.59,148.107 310.553,152.145 306.326,156.371 306.326,146.086 
			306.326,136.932 305.379,136.934 305.379,146.092 305.379,156.371 301.15,152.143 297.115,148.105 296.447,148.775 
			300.484,152.813 304.711,157.039 298.73,157.039 293.023,157.039 293.023,157.986 298.732,157.986 304.711,157.986 
			300.482,162.215 296.447,166.25 297.117,166.918 301.152,162.881 305.379,158.654 305.379,168.938 305.379,178.094 
			306.326,178.092 306.326,168.934 306.326,158.654 310.555,162.883 314.59,166.918 315.258,166.25 311.221,162.213 		"/>
	</g>
</g>
<g>
	<g>
		<polygon fill="#FFFFFF" points="254.379,252.666 255.326,252.662 255.326,234.525 254.379,234.529 		"/>
	</g>
	<g>
		<polygon fill="#FFFFFF" points="255.326,156.359 254.379,156.363 254.379,174.498 255.326,174.496 		"/>
	</g>
	<g>
		<rect x="224.837" y="204.039" fill="#FFFFFF" width="11.305" height="0.947"/>
	</g>
	<g>
		<rect x="273.563" y="204.039" fill="#FFFFFF" width="11.305" height="0.947"/>
	</g>
	<g>
		<polygon fill="#FFFFFF" points="255.994,204.986 261.975,204.986 267.682,204.986 267.682,204.039 261.973,204.039 
			255.994,204.039 260.223,199.811 264.26,195.775 263.59,195.107 259.553,199.145 255.326,203.371 255.326,193.086 
			255.326,183.932 254.379,183.934 254.379,193.092 254.379,203.371 250.15,199.143 246.115,195.105 245.447,195.775 
			249.484,199.813 253.711,204.039 247.73,204.039 242.023,204.039 242.023,204.986 247.732,204.986 253.711,204.986 
			249.482,209.215 245.447,213.25 246.117,213.918 250.152,209.881 254.379,205.654 254.379,215.938 254.379,225.094 
			255.326,225.092 255.326,215.934 255.326,205.654 259.555,209.883 263.59,213.918 264.258,213.25 260.221,209.213 		"/>
	</g>
</g>
<g>
	<g>
		<polygon fill="#FFFFFF" points="167.379,167.666 168.326,167.662 168.326,149.525 167.379,149.529 		"/>
	</g>
	<g>
		<polygon fill="#FFFFFF" points="168.326,71.359 167.379,71.363 167.379,89.498 168.326,89.496 		"/>
	</g>
	<g>
		<rect x="137.837" y="119.039" fill="#FFFFFF" width="11.305" height="0.947"/>
	</g>
	<g>
		<rect x="186.563" y="119.039" fill="#FFFFFF" width="11.305" height="0.947"/>
	</g>
	<g>
		<polygon fill="#FFFFFF" points="168.994,119.986 174.975,119.986 180.682,119.986 180.682,119.039 174.973,119.039 
			168.994,119.039 173.223,114.811 177.26,110.775 176.59,110.107 172.553,114.145 168.326,118.371 168.326,108.086 168.326,98.932 
			167.379,98.934 167.379,108.092 167.379,118.371 163.15,114.143 159.115,110.105 158.447,110.775 162.484,114.813 
			166.711,119.039 160.73,119.039 155.023,119.039 155.023,119.986 160.732,119.986 166.711,119.986 162.482,124.215 
			158.447,128.25 159.117,128.918 163.152,124.881 167.379,120.654 167.379,130.938 167.379,140.094 168.326,140.092 
			168.326,130.934 168.326,120.654 172.555,124.883 176.59,128.918 177.258,128.25 173.221,124.213 		"/>
	</g>
</g>
<g>
	<g>
		<polygon fill="#FFFFFF" points="156.379,371.33 157.326,371.326 157.326,353.189 156.379,353.193 		"/>
	</g>
	<g>
		<polygon fill="#FFFFFF" points="157.326,275.023 156.379,275.027 156.379,293.162 157.326,293.16 		"/>
	</g>
	<g>
		<rect x="126.837" y="322.703" fill="#FFFFFF" width="11.305" height="0.947"/>
	</g>
	<g>
		<rect x="175.563" y="322.703" fill="#FFFFFF" width="11.305" height="0.947"/>
	</g>
	<g>
		<polygon fill="#FFFFFF" points="157.994,323.65 163.975,323.65 169.682,323.65 169.682,322.703 163.973,322.703 157.994,322.703 
			162.223,318.475 166.26,314.439 165.59,313.771 161.553,317.809 157.326,322.035 157.326,311.75 157.326,302.596 156.379,302.598 
			156.379,311.756 156.379,322.035 152.15,317.807 148.115,313.77 147.447,314.439 151.484,318.477 155.711,322.703 149.73,322.703 
			144.023,322.703 144.023,323.65 149.732,323.65 155.711,323.65 151.482,327.879 147.447,331.914 148.117,332.582 152.152,328.545 
			156.379,324.318 156.379,334.602 156.379,343.758 157.326,343.756 157.326,334.598 157.326,324.318 161.555,328.547 
			165.59,332.582 166.258,331.914 162.221,327.877 		"/>
	</g>
</g>
<g>
	<g>
		<polygon fill="#FFFFFF" points="71.934,156.028 72.537,156.024 72.537,144.464 71.934,144.466 		"/>
	</g>
	<g>
		<rect x="71.934" y="94.639" fill="#FFFFFF" width="0.604" height="11.561"/>
	</g>
	<g>
		<rect x="53.102" y="125.03" fill="#FFFFFF" width="7.207" height="0.604"/>
	</g>
	<g>
		<rect x="84.162" y="125.03" fill="#FFFFFF" width="7.205" height="0.604"/>
	</g>
	<g>
		<polygon fill="#FFFFFF" points="72.963,125.634 76.775,125.634 80.412,125.634 80.412,125.03 76.773,125.03 72.963,125.03 
			75.658,122.335 78.23,119.765 77.805,119.339 75.23,121.911 72.537,124.604 72.537,118.05 72.537,112.214 71.934,112.216 
			71.934,118.052 71.934,124.604 69.238,121.909 66.666,119.337 66.24,119.765 68.813,122.337 71.508,125.03 67.695,125.03 
			64.057,125.03 64.059,125.634 67.697,125.634 71.508,125.634 68.813,128.329 66.24,130.903 66.666,131.329 69.24,128.755 
			71.934,126.062 71.934,132.616 71.934,138.452 72.537,138.45 72.537,132.612 72.537,126.062 75.232,128.757 77.805,131.329 
			78.23,130.901 75.658,128.329 		"/>
	</g>
</g>
<g>
	<g>
		<polygon fill="#FFFFFF" points="208.729,164.062 209.333,164.058 209.333,152.497 208.729,152.499 		"/>
	</g>
	<g>
		<rect x="208.729" y="102.673" fill="#FFFFFF" width="0.604" height="11.561"/>
	</g>
	<g>
		<rect x="189.897" y="133.063" fill="#FFFFFF" width="7.207" height="0.604"/>
	</g>
	<g>
		<rect x="220.958" y="133.063" fill="#FFFFFF" width="7.205" height="0.604"/>
	</g>
	<g>
		<polygon fill="#FFFFFF" points="209.759,133.667 213.571,133.667 217.208,133.667 217.208,133.063 213.569,133.063 
			209.759,133.063 212.454,130.368 215.026,127.798 214.601,127.372 212.026,129.944 209.333,132.638 209.333,126.083 
			209.333,120.247 208.729,120.249 208.729,126.085 208.729,132.638 206.034,129.942 203.462,127.37 203.036,127.798 
			205.608,130.37 208.304,133.063 204.491,133.063 200.853,133.063 200.854,133.667 204.493,133.667 208.304,133.667 
			205.608,136.362 203.036,138.937 203.462,139.362 206.036,136.788 208.729,134.095 208.729,140.649 208.729,146.485 
			209.333,146.483 209.333,140.646 209.333,134.095 212.028,136.79 214.601,139.362 215.026,138.935 212.454,136.362 		"/>
	</g>
</g>
<g>
	<g>
		<polygon fill="#FFFFFF" points="140.526,314.423 141.13,314.419 141.13,302.858 140.526,302.86 		"/>
	</g>
	<g>
		<rect x="140.526" y="253.033" fill="#FFFFFF" width="0.604" height="11.561"/>
	</g>
	<g>
		<rect x="121.694" y="283.425" fill="#FFFFFF" width="7.207" height="0.604"/>
	</g>
	<g>
		<rect x="152.755" y="283.425" fill="#FFFFFF" width="7.205" height="0.604"/>
	</g>
	<g>
		<polygon fill="#FFFFFF" points="141.556,284.028 145.368,284.028 149.005,284.028 149.005,283.425 145.366,283.425 
			141.556,283.425 144.251,280.729 146.823,278.159 146.397,277.733 143.823,280.306 141.13,282.999 141.13,276.444 141.13,270.608 
			140.526,270.61 140.526,276.446 140.526,282.999 137.831,280.304 135.259,277.731 134.833,278.159 137.405,280.731 
			140.101,283.425 136.288,283.425 132.649,283.425 132.651,284.028 136.29,284.028 140.101,284.028 137.405,286.724 
			134.833,289.298 135.259,289.724 137.833,287.149 140.526,284.456 140.526,291.011 140.526,296.847 141.13,296.845 
			141.13,291.007 141.13,284.456 143.825,287.151 146.397,289.724 146.823,289.296 144.251,286.724 		"/>
	</g>
</g>
<g>
	<g>
		<polygon fill="#FFFFFF" points="91.068,344.178 91.672,344.174 91.672,332.613 91.068,332.615 		"/>
	</g>
	<g>
		<rect x="91.068" y="282.788" fill="#FFFFFF" width="0.604" height="11.561"/>
	</g>
	<g>
		<rect x="72.236" y="313.18" fill="#FFFFFF" width="7.207" height="0.604"/>
	</g>
	<g>
		<rect x="103.297" y="313.18" fill="#FFFFFF" width="7.205" height="0.604"/>
	</g>
	<g>
		<polygon fill="#FFFFFF" points="92.098,313.783 95.91,313.783 99.547,313.783 99.547,313.18 95.908,313.18 92.098,313.18 
			94.793,310.484 97.365,307.914 96.939,307.488 94.365,310.061 91.672,312.754 91.672,306.199 91.672,300.363 91.068,300.365 
			91.068,306.201 91.068,312.754 88.373,310.059 85.801,307.486 85.375,307.914 87.947,310.486 90.643,313.18 86.83,313.18 
			83.191,313.18 83.193,313.783 86.832,313.783 90.643,313.783 87.947,316.479 85.375,319.053 85.801,319.479 88.375,316.904 
			91.068,314.211 91.068,320.766 91.068,326.602 91.672,326.6 91.672,320.762 91.672,314.211 94.367,316.906 96.939,319.479 
			97.365,319.051 94.793,316.479 		"/>
	</g>
</g>
<g>
	<path fill="#FFFFFF" d="M109.144,59.739l-1.299-0.969l0.363-0.486l1.299,0.969L109.144,59.739z M106.546,57.802l-1.3-0.969
		l0.363-0.486l1.3,0.969L106.546,57.802z M103.947,55.864l-1.299-0.969l0.363-0.486l1.299,0.969L103.947,55.864z M101.35,53.928
		l-1.3-0.968l0.363-0.488l1.3,0.968L101.35,53.928z M98.751,51.99l-1.299-0.969l0.363-0.486l1.299,0.969L98.751,51.99z
		 M96.153,50.053l-1.3-0.969l0.363-0.486l1.3,0.969L96.153,50.053z M93.555,48.115l-1.299-0.969l0.363-0.486l1.299,0.969
		L93.555,48.115z M90.956,46.178l-1.299-0.969l0.363-0.486l1.299,0.969L90.956,46.178z M88.358,44.24l-1.299-0.969l0.363-0.486
		l1.299,0.969L88.358,44.24z M85.76,42.304l-1.299-0.969l0.363-0.486l1.299,0.969L85.76,42.304z M83.162,40.366l-1.299-0.969
		l0.363-0.486l1.299,0.969L83.162,40.366z M80.563,38.429l-1.299-0.969l0.363-0.486l1.299,0.969L80.563,38.429z"/>
</g>
<g>
	<path fill="#FFFFFF" d="M153.551,62.917l-1.48-0.088l0.035-0.607l1.48,0.088L153.551,62.917z M150.453,62.732l-1.617-0.096
		l0.035-0.607l1.617,0.096L150.453,62.732z M147.217,62.54l-1.617-0.097l0.037-0.607l1.617,0.097L147.217,62.54z M143.981,62.348
		l-1.617-0.097l0.037-0.607l1.617,0.097L143.981,62.348z M140.746,62.155l-1.617-0.097l0.037-0.607l1.617,0.097L140.746,62.155z
		 M137.512,61.962l-1.617-0.096l0.035-0.607l1.617,0.096L137.512,61.962z M134.276,61.77l-1.618-0.097l0.037-0.607l1.618,0.097
		L134.276,61.77z M131.041,61.577l-1.618-0.097l0.037-0.607l1.618,0.097L131.041,61.577z M127.806,61.385l-1.618-0.097l0.037-0.607
		l1.618,0.097L127.806,61.385z M124.571,61.191l-1.617-0.096l0.035-0.607l1.617,0.096L124.571,61.191z M121.336,60.999l-1.617-0.096
		l0.035-0.607l1.617,0.096L121.336,60.999z M118.1,60.807l-1.617-0.097l0.037-0.607l1.617,0.097L118.1,60.807z M114.864,60.614
		l-1.617-0.097l0.037-0.607l1.617,0.097L114.864,60.614z M111.629,60.422l-1.617-0.097l0.037-0.607l1.617,0.097L111.629,60.422z"/>
</g>
<g>
	<path fill="#FFFFFF" d="M153.747,62.858l-0.357-0.49l1.31-0.955l0.357,0.49L153.747,62.858z M156.365,60.948l-0.357-0.49
		l1.31-0.955l0.357,0.49L156.365,60.948z M158.983,59.038l-0.357-0.49l1.31-0.955l0.357,0.49L158.983,59.038z M161.602,57.128
		l-0.357-0.49l1.31-0.955l0.357,0.49L161.602,57.128z M164.22,55.218l-0.357-0.49l1.31-0.955l0.357,0.49L164.22,55.218z
		 M166.838,53.308l-0.357-0.49l1.31-0.955l0.357,0.49L166.838,53.308z M169.456,51.397l-0.357-0.49l1.31-0.955l0.357,0.49
		L169.456,51.397z M172.074,49.487l-0.357-0.49l0.854-0.623l0.357,0.49L172.074,49.487z"/>
</g>
<g>
	<path fill="#FFFFFF" d="M169.48,120.422l-0.438-1.561l0.586-0.164l0.438,1.561L169.48,120.422z M168.604,117.302l-0.438-1.561
		l0.586-0.164l0.438,1.561L168.604,117.302z M167.729,114.181l-0.438-1.56l0.586-0.164l0.438,1.56L167.729,114.181z
		 M166.853,111.061l-0.438-1.561l0.586-0.164l0.438,1.561L166.853,111.061z M165.977,107.94l-0.438-1.561l0.586-0.164l0.438,1.561
		L165.977,107.94z M165.101,104.82l-0.438-1.561l0.586-0.164l0.438,1.561L165.101,104.82z M164.225,101.699l-0.438-1.56l0.586-0.164
		l0.438,1.56L164.225,101.699z M163.349,98.579l-0.438-1.56l0.586-0.164l0.438,1.56L163.349,98.579z M162.473,95.459l-0.438-1.561
		l0.586-0.164l0.438,1.561L162.473,95.459z M161.597,92.339l-0.438-1.561l0.586-0.164l0.438,1.561L161.597,92.339z M160.721,89.218
		l-0.438-1.56l0.586-0.164l0.438,1.56L160.721,89.218z M159.845,86.098l-0.438-1.56l0.586-0.164l0.438,1.56L159.845,86.098z
		 M158.969,82.978l-0.438-1.561l0.586-0.164l0.438,1.561L158.969,82.978z M158.093,79.857l-0.438-1.561l0.586-0.164l0.438,1.561
		L158.093,79.857z M157.217,76.737l-0.438-1.561l0.586-0.164l0.438,1.561L157.217,76.737z M156.341,73.616l-0.438-1.56l0.586-0.164
		l0.438,1.56L156.341,73.616z M155.465,70.496l-0.438-1.561l0.586-0.164l0.438,1.561L155.465,70.496z M154.589,67.376l-0.438-1.561
		l0.586-0.164l0.438,1.561L154.589,67.376z M153.713,64.256l-0.438-1.561l0.586-0.164l0.438,1.561L153.713,64.256z"/>
</g>
<g>
	<path fill="#FFFFFF" d="M162.159,158.054l-0.592-0.135l0.35-1.529l0.592,0.135L162.159,158.054z M162.87,154.945l-0.592-0.135
		l0.36-1.58l0.592,0.135L162.87,154.945z M163.592,151.785L163,151.65l0.361-1.579l0.592,0.135L163.592,151.785z M164.314,148.626
		l-0.592-0.135l0.36-1.58l0.592,0.135L164.314,148.626z M165.036,145.467l-0.592-0.135l0.361-1.58l0.592,0.135L165.036,145.467z
		 M165.758,142.308l-0.592-0.135l0.361-1.58l0.592,0.135L165.758,142.308z M166.48,139.147l-0.592-0.135l0.361-1.579l0.592,0.135
		L166.48,139.147z M167.202,135.988l-0.592-0.135l0.361-1.58l0.592,0.135L167.202,135.988z M167.925,132.829l-0.592-0.135
		l0.361-1.58l0.592,0.135L167.925,132.829z M168.646,129.669l-0.592-0.135l0.361-1.579l0.592,0.135L168.646,129.669z
		 M169.369,126.51l-0.592-0.135l0.361-1.58l0.592,0.135L169.369,126.51z M170.091,123.351l-0.592-0.135l0.361-1.58l0.592,0.135
		L170.091,123.351z"/>
</g>
<g>
	<path fill="#FFFFFF" d="M159.056,158.201l-1.146-1.146l0.43-0.43l1.146,1.146L159.056,158.201z M156.764,155.909l-1.146-1.146
		l0.43-0.43l1.146,1.146L156.764,155.909z M154.473,153.617l-1.146-1.146l0.43-0.43l1.146,1.146L154.473,153.617z M152.181,151.325
		l-1.146-1.146l0.43-0.43l1.146,1.146L152.181,151.325z M149.89,149.033l-1.146-1.146l0.43-0.43l1.146,1.146L149.89,149.033z
		 M147.598,146.742l-1.146-1.146l0.43-0.43l1.146,1.146L147.598,146.742z M145.307,144.45l-1.146-1.146l0.43-0.43l1.146,1.146
		L145.307,144.45z M143.015,142.158l-1.146-1.146l0.43-0.43l1.146,1.146L143.015,142.158z"/>
</g>
<g>
	<path fill="#FFFFFF" d="M141.066,140.14l-1.584-0.341l0.127-0.594l1.584,0.341L141.066,140.14z M137.898,139.457l-1.585-0.341
		l0.127-0.594l1.585,0.341L137.898,139.457z M134.729,138.775l-1.584-0.342l0.129-0.594l1.584,0.342L134.729,138.775z
		 M131.562,138.093l-1.584-0.341l0.127-0.594l1.584,0.341L131.562,138.093z M128.392,137.411l-1.584-0.342l0.129-0.594l1.584,0.342
		L128.392,137.411z M125.225,136.729l-1.584-0.341l0.127-0.594l1.584,0.341L125.225,136.729z M122.057,136.046l-1.584-0.341
		l0.127-0.594l1.584,0.341L122.057,136.046z M118.887,135.364l-1.584-0.342l0.129-0.594l1.584,0.342L118.887,135.364z
		 M115.72,134.682l-1.584-0.341l0.127-0.594l1.584,0.341L115.72,134.682z M112.552,133.999l-1.585-0.341l0.127-0.594l1.585,0.341
		L112.552,133.999z M109.383,133.317l-1.584-0.341l0.127-0.594l1.584,0.341L109.383,133.317z M106.215,132.635l-1.584-0.341
		l0.127-0.594l1.584,0.341L106.215,132.635z M103.045,131.953l-1.584-0.342l0.129-0.594l1.584,0.342L103.045,131.953z
		 M99.878,131.271l-1.584-0.341l0.127-0.594l1.584,0.341L99.878,131.271z M96.71,130.588l-1.585-0.341l0.127-0.594l1.585,0.341
		L96.71,130.588z M93.54,129.906l-1.584-0.342l0.129-0.594l1.584,0.342L93.54,129.906z M90.373,129.224l-1.584-0.341l0.127-0.594
		l1.584,0.341L90.373,129.224z M87.204,128.542l-1.585-0.342l0.129-0.594l1.585,0.342L87.204,128.542z M84.036,127.859l-1.584-0.341
		l0.127-0.594l1.584,0.341L84.036,127.859z M80.868,127.177l-1.584-0.341l0.127-0.594l1.584,0.341L80.868,127.177z M77.698,126.495
		l-1.584-0.342l0.129-0.594l1.584,0.342L77.698,126.495z M74.531,125.813l-0.849-0.183l0.127-0.594l0.849,0.183L74.531,125.813z"/>
</g>
<g>
	<path fill="#FFFFFF" d="M32.098,163.834l-0.41-0.449l1.196-1.093l0.41,0.449L32.098,163.834z M34.489,161.647l-0.41-0.449
		l1.196-1.094l0.41,0.449L34.489,161.647z M36.881,159.46l-0.41-0.449l1.196-1.094l0.41,0.449L36.881,159.46z M39.272,157.272
		l-0.41-0.449l1.196-1.094l0.41,0.449L39.272,157.272z M41.664,155.085l-0.41-0.449l1.196-1.093l0.41,0.449L41.664,155.085z
		 M44.056,152.898l-0.41-0.449l1.196-1.094l0.41,0.449L44.056,152.898z M46.447,150.711l-0.41-0.449l1.196-1.094l0.41,0.449
		L46.447,150.711z M48.839,148.523l-0.41-0.449l1.196-1.094l0.41,0.449L48.839,148.523z M51.23,146.337l-0.41-0.449l1.196-1.094
		l0.41,0.449L51.23,146.337z M53.622,144.149l-0.41-0.449l1.196-1.094l0.41,0.449L53.622,144.149z M56.014,141.962l-0.41-0.449
		l1.196-1.094l0.41,0.449L56.014,141.962z M58.405,139.774l-0.41-0.449l1.196-1.094l0.41,0.449L58.405,139.774z M60.797,137.588
		l-0.41-0.449l1.196-1.094l0.41,0.449L60.797,137.588z M63.188,135.4l-0.41-0.449l1.196-1.094l0.41,0.449L63.188,135.4z
		 M65.58,133.213l-0.41-0.449l1.196-1.094l0.41,0.449L65.58,133.213z M67.972,131.025l-0.41-0.449l1.196-1.094l0.41,0.449
		L67.972,131.025z M70.363,128.839l-0.41-0.449l1.196-1.094l0.41,0.449L70.363,128.839z M72.755,126.651l-0.41-0.449l1.196-1.094
		l0.41,0.449L72.755,126.651z"/>
</g>
<g>
	<path fill="#FFFFFF" d="M13.365,191.309l-0.529-0.299l0.719-1.271l0.529,0.299L13.365,191.309z M14.882,188.626l-0.529-0.299
		l0.797-1.41l0.529,0.299L14.882,188.626z M16.477,185.805l-0.529-0.299l0.797-1.41l0.529,0.299L16.477,185.805z M18.071,182.983
		l-0.529-0.299l0.797-1.41l0.529,0.299L18.071,182.983z M19.666,180.162l-0.529-0.299l0.798-1.411l0.529,0.299L19.666,180.162z
		 M21.261,177.341l-0.529-0.299l0.798-1.411l0.529,0.299L21.261,177.341z M22.855,174.52l-0.529-0.299l0.798-1.411l0.529,0.299
		L22.855,174.52z M24.45,171.698l-0.529-0.299l0.798-1.411l0.529,0.299L24.45,171.698z M26.045,168.877l-0.529-0.299l0.798-1.411
		l0.529,0.299L26.045,168.877z"/>
</g>
<g>
	<path fill="#FFFFFF" d="M64.064,264.277l-0.932-1.326l0.498-0.35l0.932,1.326L64.064,264.277z M62.202,261.625l-0.932-1.326
		l0.498-0.35l0.932,1.326L62.202,261.625z M60.34,258.973l-0.932-1.326l0.498-0.35l0.932,1.326L60.34,258.973z M58.478,256.32
		l-0.932-1.326l0.498-0.35l0.932,1.326L58.478,256.32z M56.615,253.668l-0.932-1.326l0.498-0.35l0.932,1.326L56.615,253.668z
		 M54.753,251.016l-0.932-1.327l0.498-0.35l0.932,1.327L54.753,251.016z M52.891,248.362l-0.932-1.326l0.498-0.35l0.932,1.326
		L52.891,248.362z M51.028,245.71l-0.932-1.326l0.498-0.35l0.932,1.326L51.028,245.71z M49.166,243.058l-0.931-1.326l0.498-0.35
		l0.931,1.326L49.166,243.058z M47.304,240.405l-0.931-1.326l0.498-0.35l0.931,1.326L47.304,240.405z M45.441,237.753l-0.931-1.326
		l0.498-0.35l0.931,1.326L45.441,237.753z M43.579,235.101l-0.931-1.326l0.498-0.35l0.931,1.326L43.579,235.101z M41.717,232.447
		l-0.931-1.326l0.498-0.35l0.931,1.326L41.717,232.447z M39.854,229.795l-0.931-1.326l0.498-0.35l0.931,1.326L39.854,229.795z
		 M37.992,227.143l-0.931-1.326l0.498-0.35l0.931,1.326L37.992,227.143z M36.13,224.49l-0.931-1.326l0.498-0.35l0.931,1.326
		L36.13,224.49z M34.268,221.838l-0.931-1.326l0.498-0.35l0.931,1.326L34.268,221.838z M32.405,219.186l-0.931-1.326l0.498-0.35
		l0.931,1.326L32.405,219.186z M30.543,216.532l-0.931-1.326l0.498-0.35l0.931,1.326L30.543,216.532z M28.681,213.88l-0.931-1.326
		l0.498-0.35l0.931,1.326L28.681,213.88z M26.818,211.228l-0.931-1.326l0.498-0.35l0.931,1.326L26.818,211.228z M24.956,208.575
		l-0.931-1.326l0.498-0.35l0.931,1.326L24.956,208.575z M23.094,205.923l-0.931-1.326l0.498-0.35l0.931,1.326L23.094,205.923z
		 M21.231,203.271l-0.931-1.326l0.498-0.35l0.931,1.326L21.231,203.271z M19.369,200.618l-0.931-1.327l0.498-0.35l0.931,1.327
		L19.369,200.618z M17.507,197.965l-0.931-1.326l0.498-0.35l0.931,1.326L17.507,197.965z M15.645,195.313l-0.931-1.326l0.498-0.35
		l0.931,1.326L15.645,195.313z M13.782,192.66l-0.931-1.326l0.498-0.35l0.931,1.326L13.782,192.66z"/>
</g>
<g>
	<path fill="#FFFFFF" d="M90.603,312.728l-0.787-1.416l0.531-0.295l0.787,1.416L90.603,312.728z M89.028,309.895l-0.787-1.417
		l0.531-0.295l0.787,1.417L89.028,309.895z M87.455,307.062l-0.787-1.417l0.531-0.295l0.787,1.417L87.455,307.062z M85.881,304.229
		l-0.787-1.417l0.531-0.295l0.787,1.417L85.881,304.229z M84.308,301.395l-0.787-1.416l0.531-0.295l0.787,1.416L84.308,301.395z
		 M82.733,298.562l-0.787-1.416l0.531-0.295l0.787,1.416L82.733,298.562z M81.159,295.729l-0.786-1.417l0.531-0.295l0.786,1.417
		L81.159,295.729z M79.586,292.896l-0.787-1.417l0.531-0.295l0.787,1.417L79.586,292.896z M78.012,290.063l-0.787-1.417l0.531-0.295
		l0.787,1.417L78.012,290.063z M76.438,287.229l-0.787-1.417l0.531-0.295l0.787,1.417L76.438,287.229z M74.864,284.396l-0.787-1.416
		l0.531-0.295l0.787,1.416L74.864,284.396z M73.291,281.563l-0.787-1.416l0.531-0.295l0.787,1.416L73.291,281.563z M71.717,278.729
		l-0.787-1.417l0.531-0.295l0.787,1.417L71.717,278.729z M70.143,275.896l-0.786-1.417l0.531-0.295l0.786,1.417L70.143,275.896z
		 M68.569,273.063l-0.787-1.417l0.531-0.295l0.787,1.417L68.569,273.063z"/>
</g>
<g>
	<path fill="#FFFFFF" d="M91.522,313.745l-0.307-0.525l1.399-0.816l0.307,0.525L91.522,313.745z M94.322,312.112l-0.307-0.525
		l1.399-0.816l0.307,0.525L94.322,312.112z M97.121,310.479l-0.307-0.525l1.4-0.816l0.307,0.525L97.121,310.479z M99.921,308.846
		l-0.307-0.525l1.399-0.816l0.307,0.525L99.921,308.846z M102.721,307.213l-0.307-0.525l1.399-0.816l0.307,0.525L102.721,307.213z
		 M105.52,305.58l-0.307-0.525l1.4-0.816l0.307,0.525L105.52,305.58z M108.319,303.947l-0.307-0.525l1.399-0.816l0.307,0.525
		L108.319,303.947z M111.119,302.314l-0.307-0.525l1.399-0.816l0.307,0.525L111.119,302.314z M113.918,300.682l-0.307-0.525
		l1.4-0.817l0.307,0.525L113.918,300.682z M116.718,299.048l-0.307-0.525l1.399-0.816l0.307,0.525L116.718,299.048z
		 M119.518,297.415l-0.307-0.525l1.399-0.816l0.307,0.525L119.518,297.415z M122.316,295.782l-0.307-0.525l1.4-0.816l0.307,0.525
		L122.316,295.782z M125.116,294.149l-0.307-0.525l1.399-0.816l0.307,0.525L125.116,294.149z M127.916,292.517l-0.307-0.525
		l1.399-0.817l0.307,0.525L127.916,292.517z M130.716,290.883l-0.307-0.525l1.399-0.816l0.307,0.525L130.716,290.883z
		 M133.515,289.25l-0.307-0.525l1.4-0.816l0.307,0.525L133.515,289.25z M136.314,287.617l-0.307-0.525l1.399-0.816l0.307,0.525
		L136.314,287.617z M139.114,285.984l-0.307-0.525l1.399-0.816l0.307,0.525L139.114,285.984z"/>
</g>
<g>
	<path fill="#FFFFFF" d="M156.105,325.184l-0.951-0.167l0.105-0.598l0.951,0.167L156.105,325.184z M153.559,324.735l-1.596-0.281
		l0.105-0.598l1.596,0.281L153.559,324.735z M150.366,324.174l-1.596-0.281l0.105-0.598l1.596,0.281L150.366,324.174z
		 M147.175,323.612l-1.596-0.281l0.105-0.598l1.596,0.281L147.175,323.612z M143.982,323.05l-1.596-0.28l0.105-0.598l1.596,0.28
		L143.982,323.05z M140.791,322.488l-1.596-0.281l0.105-0.598l1.596,0.281L140.791,322.488z M137.599,321.927l-1.596-0.281
		l0.105-0.598l1.596,0.281L137.599,321.927z M134.407,321.365l-1.596-0.281l0.105-0.598l1.596,0.281L134.407,321.365z
		 M131.215,320.803l-1.596-0.28l0.105-0.598l1.596,0.28L131.215,320.803z M128.023,320.241l-1.596-0.28l0.105-0.598l1.596,0.28
		L128.023,320.241z M124.831,319.68l-1.596-0.281l0.105-0.598l1.596,0.281L124.831,319.68z M121.64,319.118l-1.596-0.281
		l0.105-0.598l1.596,0.281L121.64,319.118z M118.447,318.556l-1.596-0.28l0.105-0.598l1.596,0.28L118.447,318.556z M115.256,317.994
		l-1.596-0.28l0.105-0.598l1.596,0.28L115.256,317.994z M112.063,317.433l-1.596-0.281l0.105-0.598l1.596,0.281L112.063,317.433z
		 M108.872,316.871l-1.596-0.281l0.105-0.598l1.596,0.281L108.872,316.871z M105.68,316.31l-1.596-0.281l0.105-0.598l1.596,0.281
		L105.68,316.31z M102.488,315.747l-1.596-0.28l0.105-0.598l1.596,0.28L102.488,315.747z M99.296,315.186l-1.596-0.281l0.105-0.598
		l1.596,0.281L99.296,315.186z M96.104,314.624l-1.596-0.281l0.105-0.598l1.596,0.281L96.104,314.624z M92.912,314.063l-1.596-0.281
		l0.105-0.598l1.596,0.281L92.912,314.063z"/>
</g>
<g>
	<path fill="#FFFFFF" d="M159.408,158.257l-0.275-0.541l1.443-0.736l0.275,0.541L159.408,158.257z M162.295,156.783l-0.275-0.541
		l1.443-0.736l0.275,0.541L162.295,156.783z M165.183,155.311l-0.277-0.541l1.443-0.737l0.277,0.541L165.183,155.311z
		 M168.069,153.837l-0.277-0.541l1.443-0.737l0.277,0.541L168.069,153.837z M170.955,152.363l-0.275-0.541l1.443-0.736l0.275,0.541
		L170.955,152.363z M173.842,150.89l-0.275-0.541l1.443-0.736l0.275,0.541L173.842,150.89z M176.729,149.417l-0.277-0.541
		l1.443-0.737l0.277,0.541L176.729,149.417z M179.616,147.943l-0.277-0.541l1.443-0.737l0.277,0.541L179.616,147.943z
		 M182.502,146.47l-0.275-0.541l1.443-0.736l0.275,0.541L182.502,146.47z M185.389,144.996l-0.275-0.541l1.443-0.736l0.275,0.541
		L185.389,144.996z M188.276,143.523l-0.277-0.541l1.443-0.737l0.277,0.541L188.276,143.523z M191.162,142.05l-0.275-0.541
		l1.443-0.736l0.275,0.541L191.162,142.05z M194.049,140.576l-0.275-0.541l1.443-0.736l0.275,0.541L194.049,140.576z
		 M196.936,139.103l-0.275-0.541l1.443-0.736l0.275,0.541L196.936,139.103z M199.823,137.63l-0.277-0.541l1.443-0.737l0.277,0.541
		L199.823,137.63z M202.709,136.156l-0.275-0.541l1.443-0.736l0.275,0.541L202.709,136.156z M205.596,134.683l-0.275-0.541
		l1.443-0.736l0.275,0.541L205.596,134.683z M208.483,133.21l-0.277-0.541l0.686-0.351l0.277,0.541L208.483,133.21z"/>
</g>
<g>
	<path fill="#FFFFFF" d="M209.884,132.851l-0.311-0.523l1.395-0.826l0.311,0.523L209.884,132.851z M212.672,131.199l-0.311-0.523
		l1.395-0.826l0.311,0.523L212.672,131.199z M215.461,129.547l-0.311-0.523l1.394-0.825l0.311,0.523L215.461,129.547z
		 M218.249,127.896l-0.311-0.523l1.395-0.826l0.311,0.523L218.249,127.896z M221.038,126.243l-0.311-0.523l1.394-0.825l0.311,0.523
		L221.038,126.243z M223.826,124.592l-0.311-0.523l1.395-0.826l0.311,0.523L223.826,124.592z M226.614,122.94l-0.311-0.523
		l1.395-0.826l0.311,0.523L226.614,122.94z M229.403,121.288l-0.311-0.523l1.394-0.825l0.311,0.523L229.403,121.288z
		 M232.191,119.637l-0.311-0.523l1.395-0.826l0.311,0.523L232.191,119.637z M234.979,117.984l-0.309-0.523l1.395-0.825l0.309,0.523
		L234.979,117.984z M237.769,116.333l-0.311-0.523l1.395-0.826l0.311,0.523L237.769,116.333z M240.557,114.682l-0.311-0.523
		l1.395-0.826l0.311,0.523L240.557,114.682z M243.346,113.029l-0.311-0.523l1.394-0.825l0.311,0.523L243.346,113.029z
		 M246.134,111.378l-0.311-0.523l1.395-0.826l0.311,0.523L246.134,111.378z M248.921,109.726l-0.309-0.523l1.213-0.718l0.309,0.523
		L248.921,109.726z"/>
</g>
<g>
	<path fill="#FFFFFF" d="M250.258,108.868l-0.557-0.244l0.652-1.483l0.557,0.244L250.258,108.868z M251.563,105.901l-0.557-0.244
		l0.651-1.483l0.557,0.244L251.563,105.901z M252.866,102.935l-0.557-0.244l0.652-1.483l0.557,0.244L252.866,102.935z
		 M254.171,99.968l-0.557-0.244l0.652-1.483l0.557,0.244L254.171,99.968z M255.476,97.001l-0.557-0.244l0.651-1.483l0.557,0.244
		L255.476,97.001z M256.779,94.033l-0.557-0.244l0.652-1.483l0.557,0.244L256.779,94.033z M258.084,91.066l-0.557-0.244l0.652-1.483
		l0.557,0.244L258.084,91.066z M259.389,88.1l-0.557-0.244l0.651-1.483l0.557,0.244L259.389,88.1z M260.692,85.133l-0.557-0.244
		l0.652-1.483l0.557,0.244L260.692,85.133z M261.997,82.166l-0.557-0.244l0.652-1.483l0.557,0.244L261.997,82.166z M263.301,79.199
		l-0.557-0.244l0.652-1.483l0.557,0.244L263.301,79.199z M264.605,76.232l-0.557-0.244l0.652-1.483l0.557,0.244L264.605,76.232z
		 M265.91,73.266l-0.557-0.244l0.652-1.483l0.557,0.244L265.91,73.266z M267.214,70.299l-0.557-0.244l0.652-1.483l0.557,0.244
		L267.214,70.299z M268.519,67.331l-0.557-0.244l0.652-1.483l0.557,0.244L268.519,67.331z M269.823,64.364l-0.557-0.244l0.651-1.483
		l0.557,0.244L269.823,64.364z M271.127,61.397l-0.557-0.244l0.652-1.483l0.557,0.244L271.127,61.397z M272.432,58.431l-0.557-0.244
		l0.652-1.483l0.557,0.244L272.432,58.431z M273.736,55.464l-0.557-0.244l0.651-1.483l0.557,0.244L273.736,55.464z M275.04,52.497
		l-0.557-0.244l0.652-1.483l0.557,0.244L275.04,52.497z M276.345,49.53l-0.557-0.244l0.347-0.789l0.557,0.244L276.345,49.53z"/>
</g>
<g>
	<path fill="#FFFFFF" d="M270.889,157.965l-0.642-1.487l0.559-0.24l0.642,1.487L270.889,157.965z M269.604,154.989l-0.642-1.487
		l0.559-0.24l0.642,1.487L269.604,154.989z M268.32,152.014l-0.642-1.488l0.559-0.24l0.642,1.488L268.32,152.014z M267.037,149.038
		l-0.643-1.488l0.559-0.24l0.643,1.488L267.037,149.038z M265.752,146.063l-0.642-1.488l0.559-0.24l0.642,1.488L265.752,146.063z
		 M264.469,143.087l-0.643-1.488l0.559-0.24l0.643,1.488L264.469,143.087z M263.185,140.111l-0.643-1.488l0.559-0.24l0.643,1.488
		L263.185,140.111z M261.9,137.135l-0.643-1.487l0.559-0.24l0.643,1.487L261.9,137.135z M260.616,134.159l-0.643-1.487l0.559-0.24
		l0.643,1.487L260.616,134.159z M259.332,131.184l-0.643-1.487l0.559-0.24l0.643,1.487L259.332,131.184z M258.048,128.208
		l-0.643-1.487l0.559-0.24l0.643,1.487L258.048,128.208z M256.764,125.232l-0.643-1.487l0.559-0.24l0.643,1.487L256.764,125.232z
		 M255.479,122.257l-0.643-1.488l0.559-0.24l0.643,1.488L255.479,122.257z M254.195,119.281l-0.643-1.488l0.559-0.24l0.643,1.488
		L254.195,119.281z M252.911,116.306l-0.643-1.488l0.559-0.24l0.643,1.488L252.911,116.306z M251.627,113.33l-0.643-1.488
		l0.559-0.24l0.643,1.488L251.627,113.33z M250.343,110.354l-0.643-1.488l0.559-0.24l0.643,1.488L250.343,110.354z"/>
</g>
<g>
	<path fill="#FFFFFF" d="M255.454,202.255l-0.57-0.209l0.555-1.522l0.57,0.209L255.454,202.255z M256.563,199.209l-0.57-0.207
		l0.554-1.523l0.57,0.207L256.563,199.209z M257.67,196.163l-0.57-0.207l0.554-1.523l0.57,0.207L257.67,196.163z M258.777,193.117
		l-0.57-0.207l0.554-1.523l0.57,0.207L258.777,193.117z M259.885,190.071l-0.57-0.207l0.554-1.523l0.57,0.207L259.885,190.071z
		 M260.992,187.025l-0.57-0.207l0.554-1.523l0.57,0.207L260.992,187.025z M262.101,183.979l-0.57-0.207l0.554-1.523l0.57,0.207
		L262.101,183.979z M263.208,180.934l-0.57-0.207l0.554-1.523l0.57,0.207L263.208,180.934z M264.315,177.888l-0.57-0.207
		l0.554-1.522l0.57,0.207L264.315,177.888z M265.423,174.842l-0.57-0.207l0.554-1.522l0.57,0.207L265.423,174.842z M266.53,171.796
		l-0.57-0.207l0.554-1.522l0.57,0.207L266.53,171.796z M267.638,168.75l-0.57-0.207l0.554-1.522l0.57,0.207L267.638,168.75z
		 M268.746,165.704l-0.57-0.207l0.554-1.522l0.57,0.207L268.746,165.704z M269.854,162.658l-0.57-0.207l0.554-1.522l0.57,0.207
		L269.854,162.658z M270.961,159.612l-0.57-0.207l0.554-1.522l0.57,0.207L270.961,159.612z"/>
</g>
<g>
	<path fill="#FFFFFF" d="M284.775,230.68l-1.214-1.073l0.402-0.455l1.214,1.073L284.775,230.68z M282.349,228.532l-1.214-1.074
		l0.402-0.455l1.214,1.074L282.349,228.532z M279.922,226.384l-1.214-1.074l0.402-0.455l1.214,1.074L279.922,226.384z
		 M277.495,224.235l-1.214-1.074l0.402-0.455l1.214,1.074L277.495,224.235z M275.068,222.087l-1.213-1.074l0.402-0.455l1.213,1.074
		L275.068,222.087z M272.642,219.938l-1.213-1.073l0.402-0.455l1.213,1.073L272.642,219.938z M270.215,217.791l-1.213-1.074
		l0.402-0.455l1.213,1.074L270.215,217.791z M267.788,215.643l-1.213-1.074l0.402-0.455l1.213,1.074L267.788,215.643z
		 M265.361,213.494l-1.213-1.074l0.402-0.455l1.213,1.074L265.361,213.494z M262.935,211.346l-1.213-1.074l0.402-0.455l1.213,1.074
		L262.935,211.346z M260.508,209.197l-1.213-1.073l0.402-0.455l1.213,1.073L260.508,209.197z M258.081,207.05l-1.213-1.074
		l0.402-0.455l1.213,1.074L258.081,207.05z M255.654,204.901l-1.213-1.074l0.402-0.455l1.213,1.074L255.654,204.901z"/>
</g>
<g>
	<path fill="#FFFFFF" d="M305.26,158.29h-1.621v-0.607h1.621V158.29z M302.019,158.29h-1.62v-0.607h1.62V158.29z M298.777,158.29
		h-1.62v-0.607h1.62V158.29z M295.537,158.29h-1.621v-0.607h1.621V158.29z M292.296,158.29h-1.621v-0.607h1.621V158.29z
		 M289.055,158.29h-1.62v-0.607h1.62V158.29z M285.813,158.29h-1.62v-0.607h1.62V158.29z M282.573,158.29h-1.621v-0.607h1.621
		V158.29z M279.332,158.29h-1.621v-0.607h1.621V158.29z M276.091,158.29h-1.62v-0.607h1.62V158.29z M272.85,158.29h-1.62v-0.607
		h1.62V158.29z"/>
</g>
<g>
	<path fill="#FFFFFF" d="M307.145,158.251l-0.301-0.529l1.409-0.8l0.301,0.529L307.145,158.251z M309.963,156.651l-0.301-0.529
		l1.409-0.8l0.301,0.529L309.963,156.651z M312.782,155.052l-0.301-0.529l1.409-0.8l0.301,0.529L312.782,155.052z M315.601,153.451
		l-0.301-0.529l1.409-0.8l0.301,0.529L315.601,153.451z M318.419,151.852l-0.301-0.529l1.409-0.8l0.301,0.529L318.419,151.852z
		 M321.237,150.252l-0.301-0.529l1.409-0.8l0.301,0.529L321.237,150.252z M324.057,148.652l-0.301-0.529l1.409-0.8l0.301,0.529
		L324.057,148.652z M326.875,147.053l-0.301-0.529l1.409-0.8l0.301,0.529L326.875,147.053z M329.693,145.453l-0.301-0.529l1.409-0.8
		l0.301,0.529L329.693,145.453z M332.512,143.853l-0.301-0.529l1.409-0.8l0.301,0.529L332.512,143.853z M335.331,142.253
		l-0.301-0.529l1.409-0.8l0.301,0.529L335.331,142.253z M338.149,140.653l-0.301-0.529l1.409-0.8l0.301,0.529L338.149,140.653z
		 M340.968,139.054l-0.301-0.529l1.409-0.8l0.301,0.529L340.968,139.054z M343.786,137.454l-0.301-0.529l1.409-0.8l0.301,0.529
		L343.786,137.454z M346.605,135.854l-0.301-0.529l1.409-0.8l0.301,0.529L346.605,135.854z M349.424,134.254l-0.301-0.529l1.409-0.8
		l0.301,0.529L349.424,134.254z M352.242,132.654l-0.301-0.529l1.409-0.8l0.301,0.529L352.242,132.654z M355.061,131.055
		l-0.301-0.529l1.409-0.8l0.301,0.529L355.061,131.055z M357.88,129.455l-0.301-0.529l1.409-0.8l0.301,0.529L357.88,129.455z
		 M360.698,127.855l-0.301-0.529l1.409-0.8l0.301,0.529L360.698,127.855z M363.517,126.256l-0.301-0.529l1.159-0.658l0.301,0.529
		L363.517,126.256z"/>
</g>
</svg>
