<?xml version="1.0" encoding="utf-8"?>
<!-- Generator: Adobe Illustrator 16.0.3, SVG Export Plug-In . SVG Version: 6.00 Build 0)  -->
<!DOCTYPE svg PUBLIC "-//W3C//DTD SVG 1.1//EN" "http://www.w3.org/Graphics/SVG/1.1/DTD/svg11.dtd">
<svg version="1.1" id="Capa_1" xmlns="http://www.w3.org/2000/svg" xmlns:xlink="http://www.w3.org/1999/xlink" x="0px" y="0px"
	 width="373.33px" height="373.33px" viewBox="0 0 373.33 373.33" enable-background="new 0 0 373.33 373.33" xml:space="preserve">
<g>
	<g>
		<path fill="#FFFFFF" d="M363.74,287.01c-0.957-2.314,0.135-4.971,2.445-5.928c2.309-0.965,4.965,0.131,5.926,2.443
			s-0.131,4.967-2.438,5.926C367.357,290.416,364.705,289.322,363.74,287.01"/>
	</g>
</g>
<g>
	<g>
		<path fill="#FFFFFF" d="M9.721,123.207c0.957-2.313-0.135-4.969-2.445-5.928c-2.311-0.963-4.965,0.133-5.926,2.443
			c-0.963,2.314,0.131,4.967,2.438,5.928C6.104,126.615,8.756,125.519,9.721,123.207"/>
	</g>
</g>
<g>
	<g>
		<polygon fill="#FFFFFF" points="242.176,214.042 243.124,214.038 243.124,195.901 242.176,195.905 		"/>
	</g>
	<g>
		<polygon fill="#FFFFFF" points="243.124,117.735 242.176,117.739 242.176,135.874 243.124,135.872 		"/>
	</g>
	<g>
		<rect x="212.634" y="165.415" fill="#FFFFFF" width="11.305" height="0.947"/>
	</g>
	<g>
		<rect x="261.36" y="165.415" fill="#FFFFFF" width="11.305" height="0.947"/>
	</g>
	<g>
		<polygon fill="#FFFFFF" points="243.792,166.362 249.772,166.362 255.479,166.362 255.479,165.415 249.77,165.415 
			243.792,165.415 248.02,161.187 252.058,157.151 251.388,156.483 247.35,160.521 243.124,164.747 243.124,154.462 
			243.124,145.308 242.176,145.31 242.176,154.468 242.176,164.747 237.948,160.519 233.913,156.481 233.245,157.151 
			237.282,161.188 241.508,165.415 235.528,165.415 229.821,165.415 229.821,166.362 235.53,166.362 241.508,166.362 
			237.28,170.591 233.245,174.626 233.915,175.294 237.95,171.257 242.176,167.03 242.176,177.313 242.176,186.47 243.124,186.468 
			243.124,177.31 243.124,167.03 247.352,171.259 251.388,175.294 252.056,174.626 248.018,170.589 		"/>
	</g>
</g>
<g>
	<g>
		<polygon fill="#FFFFFF" points="354.451,251.562 355.055,251.558 355.055,239.997 354.451,239.999 		"/>
	</g>
	<g>
		<rect x="354.451" y="190.171" fill="#FFFFFF" width="0.604" height="11.561"/>
	</g>
	<g>
		<rect x="335.619" y="220.563" fill="#FFFFFF" width="7.207" height="0.604"/>
	</g>
	<g>
		<rect x="366.68" y="220.563" fill="#FFFFFF" width="7.205" height="0.604"/>
	</g>
	<g>
		<polygon fill="#FFFFFF" points="355.48,221.167 359.293,221.167 362.93,221.167 362.93,220.563 359.291,220.563 355.48,220.563 
			358.176,217.868 360.748,215.297 360.322,214.872 357.748,217.444 355.055,220.137 355.055,213.583 355.055,207.747 
			354.451,207.749 354.451,213.584 354.451,220.137 351.756,217.442 349.184,214.87 348.758,215.297 351.33,217.87 354.025,220.563 
			350.213,220.563 346.574,220.563 346.576,221.167 350.215,221.167 354.025,221.167 351.33,223.862 348.758,226.437 
			349.184,226.862 351.758,224.288 354.451,221.594 354.451,228.149 354.451,233.985 355.055,233.983 355.055,228.146 
			355.055,221.594 357.75,224.29 360.322,226.862 360.748,226.435 358.176,223.862 		"/>
	</g>
</g>
<g>
	<g>
		
			<rect x="1.34" y="119.425" transform="matrix(0.9818 0.1901 -0.1901 0.9818 22.8117 1.8293)" fill="#FFFFFF" width="1.061" height="0.796"/>
	</g>
	<g>
		<path fill="#FFFFFF" d="M245.059,167.267l-2.093-0.405l0.151-0.781l2.093,0.405L245.059,167.267z M240.874,166.458l-2.093-0.405
			l0.151-0.781l2.093,0.405L240.874,166.458z M236.688,165.648l-2.092-0.405l0.151-0.781l2.092,0.405L236.688,165.648z
			 M232.503,164.839l-2.093-0.405l0.151-0.781l2.093,0.405L232.503,164.839z M228.318,164.029l-2.093-0.405l0.151-0.781l2.093,0.405
			L228.318,164.029z M224.132,163.22l-2.092-0.405l0.151-0.781l2.092,0.405L224.132,163.22z M219.947,162.41l-2.093-0.405
			l0.151-0.781l2.093,0.405L219.947,162.41z M215.762,161.601l-2.093-0.405l0.151-0.781l2.093,0.405L215.762,161.601z
			 M211.577,160.791l-2.092-0.405l0.151-0.781l2.092,0.405L211.577,160.791z M207.392,159.981l-2.093-0.405l0.151-0.781l2.093,0.405
			L207.392,159.981z M203.207,159.172l-2.093-0.405l0.151-0.781l2.093,0.405L203.207,159.172z M199.021,158.362l-2.092-0.405
			l0.151-0.781l2.092,0.405L199.021,158.362z M194.836,157.553l-2.093-0.405l0.151-0.781l2.093,0.405L194.836,157.553z
			 M190.651,156.743l-2.093-0.405l0.151-0.781l2.093,0.405L190.651,156.743z M186.465,155.934l-2.092-0.405l0.151-0.781l2.092,0.405
			L186.465,155.934z M182.28,155.124l-2.093-0.405l0.151-0.781l2.093,0.405L182.28,155.124z M178.095,154.314l-2.093-0.404
			l0.151-0.781l2.093,0.404L178.095,154.314z M173.91,153.505l-2.092-0.405l0.151-0.781l2.092,0.405L173.91,153.505z
			 M169.725,152.696l-2.093-0.405l0.151-0.781l2.093,0.405L169.725,152.696z M165.54,151.886l-2.093-0.405l0.151-0.781l2.093,0.405
			L165.54,151.886z M161.354,151.077l-2.092-0.405l0.151-0.781l2.092,0.405L161.354,151.077z M157.169,150.267l-2.093-0.405
			l0.151-0.781l2.093,0.405L157.169,150.267z M152.984,149.458l-2.093-0.405l0.151-0.781l2.093,0.405L152.984,149.458z
			 M148.798,148.648l-2.092-0.405l0.151-0.781l2.092,0.405L148.798,148.648z M144.613,147.838l-2.093-0.405l0.151-0.781l2.093,0.405
			L144.613,147.838z M140.428,147.029l-2.093-0.405l0.151-0.781l2.093,0.405L140.428,147.029z M136.243,146.219l-2.092-0.405
			l0.151-0.781l2.092,0.405L136.243,146.219z M132.058,145.41l-2.093-0.405l0.151-0.781l2.093,0.405L132.058,145.41z M127.873,144.6
			l-2.093-0.405l0.151-0.781l2.093,0.405L127.873,144.6z M123.687,143.791l-2.092-0.405l0.151-0.781l2.092,0.405L123.687,143.791z
			 M119.502,142.981l-2.093-0.405l0.151-0.781l2.093,0.405L119.502,142.981z M115.317,142.171l-2.093-0.405l0.151-0.781l2.093,0.405
			L115.317,142.171z M111.131,141.362l-2.092-0.404l0.151-0.781l2.092,0.404L111.131,141.362z M106.946,140.553l-2.093-0.405
			l0.151-0.781l2.093,0.405L106.946,140.553z M102.761,139.743l-2.093-0.405l0.151-0.781l2.093,0.405L102.761,139.743z
			 M98.576,138.934l-2.092-0.405l0.151-0.781l2.092,0.405L98.576,138.934z M94.391,138.124l-2.093-0.405l0.151-0.781l2.093,0.405
			L94.391,138.124z M90.206,137.314l-2.093-0.405l0.151-0.781l2.093,0.405L90.206,137.314z M86.02,136.505l-2.092-0.405l0.151-0.781
			l2.092,0.405L86.02,136.505z M81.835,135.695l-2.093-0.405l0.151-0.781l2.093,0.405L81.835,135.695z M77.65,134.886l-2.093-0.405
			l0.151-0.781l2.093,0.405L77.65,134.886z M73.464,134.076l-2.093-0.405l0.151-0.781l2.093,0.405L73.464,134.076z M69.279,133.267
			l-2.093-0.405l0.151-0.781l2.093,0.405L69.279,133.267z M65.094,132.457l-2.092-0.405l0.151-0.781l2.092,0.405L65.094,132.457z
			 M60.909,131.647l-2.093-0.405l0.151-0.781l2.093,0.405L60.909,131.647z M56.724,130.838l-2.093-0.405l0.151-0.781l2.093,0.405
			L56.724,130.838z M52.538,130.028l-2.092-0.405l0.151-0.781l2.092,0.405L52.538,130.028z M48.353,129.219l-2.093-0.405
			l0.151-0.781l2.093,0.405L48.353,129.219z M44.168,128.409l-2.093-0.405l0.151-0.781l2.093,0.405L44.168,128.409z M39.982,127.6
			l-2.092-0.404l0.151-0.781l2.092,0.404L39.982,127.6z M35.797,126.791l-2.093-0.405l0.151-0.781l2.093,0.405L35.797,126.791z
			 M31.612,125.981l-2.093-0.405l0.151-0.781l2.093,0.405L31.612,125.981z M27.427,125.171l-2.092-0.405l0.151-0.781l2.092,0.405
			L27.427,125.171z M23.242,124.362l-2.093-0.405l0.151-0.781l2.093,0.405L23.242,124.362z M19.057,123.552l-2.093-0.405
			l0.151-0.781l2.093,0.405L19.057,123.552z M14.871,122.743l-2.092-0.405l0.151-0.781l2.092,0.405L14.871,122.743z M10.686,121.933
			l-2.093-0.405l0.151-0.781l2.093,0.405L10.686,121.933z M6.501,121.124l-2.093-0.405l0.151-0.781l2.093,0.405L6.501,121.124z"/>
	</g>
	<g>
		
			<rect x="247.217" y="166.984" transform="matrix(0.9818 0.1901 -0.1901 0.9818 36.3357 -44.0432)" fill="#FFFFFF" width="1.061" height="0.796"/>
	</g>
</g>
<g>
	<g>
		
			<rect x="248.919" y="168.036" transform="matrix(0.8894 0.4571 -0.4571 0.8894 104.5854 -95.4018)" fill="#FFFFFF" width="1.061" height="0.796"/>
	</g>
	<g>
		<path fill="#FFFFFF" d="M352.752,221.977l-1.907-0.98l0.363-0.708l1.907,0.98L352.752,221.977z M348.938,220.016l-1.908-0.98
			l0.363-0.708l1.908,0.98L348.938,220.016z M345.122,218.055l-1.908-0.98l0.363-0.708l1.908,0.98L345.122,218.055z
			 M341.307,216.094l-1.908-0.98l0.363-0.708l1.908,0.98L341.307,216.094z M337.491,214.133l-1.907-0.98l0.363-0.708l1.907,0.98
			L337.491,214.133z M333.676,212.172l-1.907-0.98l0.363-0.708l1.907,0.98L333.676,212.172z M329.86,210.211l-1.907-0.98
			l0.363-0.708l1.907,0.98L329.86,210.211z M326.045,208.25l-1.907-0.98l0.363-0.708l1.907,0.98L326.045,208.25z M322.23,206.289
			l-1.908-0.98l0.363-0.708l1.908,0.98L322.23,206.289z M318.415,204.328l-1.908-0.98l0.363-0.708l1.908,0.98L318.415,204.328z
			 M314.6,202.367l-1.908-0.98l0.363-0.708l1.908,0.98L314.6,202.367z M310.784,200.406l-1.908-0.98l0.363-0.708l1.908,0.98
			L310.784,200.406z M306.969,198.445l-1.907-0.98l0.363-0.708l1.907,0.98L306.969,198.445z M303.153,196.484l-1.907-0.98
			l0.363-0.708l1.907,0.98L303.153,196.484z M299.338,194.523l-1.907-0.98l0.363-0.708l1.907,0.98L299.338,194.523z
			 M295.522,192.562l-1.907-0.981l0.363-0.707l1.907,0.981L295.522,192.562z M291.708,190.601l-1.908-0.98l0.363-0.708l1.908,0.98
			L291.708,190.601z M287.893,188.64l-1.908-0.98l0.363-0.708l1.908,0.98L287.893,188.64z M284.077,186.679l-1.908-0.98l0.363-0.708
			l1.908,0.98L284.077,186.679z M280.262,184.718l-1.907-0.98l0.363-0.708l1.907,0.98L280.262,184.718z M276.446,182.757
			l-1.907-0.98l0.363-0.708l1.907,0.98L276.446,182.757z M272.631,180.796l-1.907-0.98l0.363-0.708l1.907,0.98L272.631,180.796z
			 M268.815,178.835l-1.907-0.98l0.363-0.708l1.907,0.98L268.815,178.835z M265.001,176.875l-1.908-0.98l0.363-0.708l1.908,0.98
			L265.001,176.875z M261.186,174.914l-1.908-0.98l0.363-0.708l1.908,0.98L261.186,174.914z M257.37,172.953l-1.908-0.98
			l0.363-0.708l1.908,0.98L257.37,172.953z M253.555,170.992l-1.908-0.98l0.364-0.708l1.907,0.98L253.555,170.992z"/>
	</g>
	<g>
		
			<rect x="354.783" y="222.448" transform="matrix(0.8894 0.4571 -0.4571 0.8894 141.1669 -137.7776)" fill="#FFFFFF" width="1.061" height="0.796"/>
	</g>
</g>
<g>
	<g>
		
			<rect x="353.832" y="222.566" transform="matrix(0.2283 0.9736 -0.9736 0.2283 490.5287 -172.9454)" fill="#FFFFFF" width="1.061" height="0.796"/>
	</g>
	<g>
		<path fill="#FFFFFF" d="M366.808,277.707l-0.489-2.082l0.775-0.182l0.489,2.082L366.808,277.707z M365.83,273.543l-0.489-2.082
			l0.775-0.182l0.489,2.082L365.83,273.543z M364.852,269.379l-0.488-2.082l0.775-0.182l0.488,2.082L364.852,269.379z
			 M363.874,265.215l-0.489-2.083l0.775-0.182l0.489,2.083L363.874,265.215z M362.896,261.05l-0.489-2.082l0.775-0.182l0.489,2.082
			L362.896,261.05z M361.918,256.886l-0.488-2.082l0.775-0.182l0.488,2.082L361.918,256.886z M360.94,252.722l-0.488-2.082
			l0.775-0.182l0.488,2.082L360.94,252.722z M359.963,248.557l-0.489-2.082l0.775-0.182l0.489,2.082L359.963,248.557z
			 M358.985,244.393l-0.489-2.082l0.775-0.182l0.489,2.082L358.985,244.393z M358.007,240.229l-0.488-2.082l0.775-0.182l0.488,2.082
			L358.007,240.229z M357.029,236.064l-0.488-2.082l0.775-0.182l0.488,2.082L357.029,236.064z M356.052,231.899l-0.489-2.082
			l0.775-0.182l0.489,2.082L356.052,231.899z M355.074,227.735l-0.489-2.082l0.775-0.182l0.489,2.082L355.074,227.735z"/>
	</g>
	<g>
		
			<rect x="367.276" y="279.817" transform="matrix(0.2284 0.9736 -0.9736 0.2284 556.5973 -141.8739)" fill="#FFFFFF" width="1.06" height="0.796"/>
	</g>
</g>
</svg>
