<?xml version="1.0" encoding="utf-8"?>
<!-- Generator: Adobe Illustrator 16.0.3, SVG Export Plug-In . SVG Version: 6.00 Build 0)  -->
<!DOCTYPE svg PUBLIC "-//W3C//DTD SVG 1.1//EN" "http://www.w3.org/Graphics/SVG/1.1/DTD/svg11.dtd">
<svg version="1.1" id="Capa_1" xmlns="http://www.w3.org/2000/svg" xmlns:xlink="http://www.w3.org/1999/xlink" x="0px" y="0px"
	 width="373.33px" height="373.33px" viewBox="0 0 373.33 373.33" enable-background="new 0 0 373.33 373.33" xml:space="preserve">
<g>
	<g>
		<path fill="#FFFFFF" d="M105.132,164.794c-2.309,0.965-4.967-0.131-5.93-2.443c-0.959-2.313,0.137-4.965,2.447-5.928
			c2.314-0.961,4.969,0.135,5.928,2.443C108.542,161.179,107.45,163.835,105.132,164.794"/>
	</g>
</g>
<g>
	<path fill="#FFFFFF" d="M119.867,350.983c-2.314-0.957-4.963,0.148-5.916,2.465c-0.953,2.311,0.146,4.963,2.459,5.918
		c2.316,0.955,4.967-0.148,5.924-2.465C123.283,354.583,122.182,351.938,119.867,350.983z"/>
</g>
<g>
	<g>
		<rect x="125.912" y="239.662" fill="#FFFFFF" width="0.947" height="18.137"/>
	</g>
	<g>
		<polygon fill="#FFFFFF" points="126.859,161.494 125.912,161.498 125.912,179.634 126.859,179.632 		"/>
	</g>
	<g>
		<rect x="96.37" y="209.175" fill="#FFFFFF" width="11.305" height="0.945"/>
	</g>
	<g>
		<rect x="145.096" y="209.175" fill="#FFFFFF" width="11.305" height="0.945"/>
	</g>
	<g>
		<polygon fill="#FFFFFF" points="127.527,210.12 133.507,210.12 139.214,210.12 139.214,209.175 133.505,209.175 127.527,209.175 
			131.755,204.946 135.792,200.911 135.123,200.241 131.085,204.278 126.859,208.505 126.859,198.222 126.859,189.067 
			125.912,189.067 125.912,198.226 125.912,208.505 121.683,204.276 117.648,200.241 116.98,200.911 121.017,204.948 
			125.244,209.175 119.263,209.175 113.556,209.175 113.556,210.12 119.265,210.12 125.244,210.12 121.015,214.35 116.98,218.385 
			117.65,219.055 121.685,215.018 125.912,210.791 125.912,221.074 125.912,230.228 126.859,230.228 126.859,221.07 
			126.859,210.791 131.087,215.02 135.123,219.055 135.791,218.385 131.753,214.348 		"/>
	</g>
</g>
<g>
	<g>
		<polygon fill="#FFFFFF" points="24.39,78.554 24.993,78.55 24.993,66.989 24.39,66.991 		"/>
	</g>
	<g>
		<rect x="24.39" y="17.164" fill="#FFFFFF" width="0.604" height="11.561"/>
	</g>
	<g>
		<rect x="5.558" y="47.556" fill="#FFFFFF" width="7.207" height="0.604"/>
	</g>
	<g>
		<rect x="36.618" y="47.556" fill="#FFFFFF" width="7.205" height="0.604"/>
	</g>
	<g>
		<polygon fill="#FFFFFF" points="25.419,48.159 29.231,48.159 32.868,48.159 32.868,47.556 29.229,47.556 25.419,47.556 
			28.114,44.86 30.687,42.29 30.261,41.864 27.687,44.437 24.993,47.13 24.993,40.575 24.993,34.739 24.39,34.741 24.39,40.577 
			24.39,47.13 21.694,44.435 19.122,41.862 18.696,42.29 21.269,44.862 23.964,47.556 20.151,47.556 16.513,47.556 16.515,48.159 
			20.153,48.159 23.964,48.159 21.269,50.854 18.696,53.429 19.122,53.854 21.696,51.28 24.39,48.587 24.39,55.142 24.39,60.978 
			24.993,60.976 24.993,55.138 24.993,48.587 27.688,51.282 30.261,53.854 30.687,53.427 28.114,50.854 		"/>
	</g>
</g>
<g>
	<g>
		<polygon fill="#FFFFFF" points="346.965,318.734 347.568,318.73 347.568,307.17 346.965,307.172 		"/>
	</g>
	<g>
		<rect x="346.965" y="257.345" fill="#FFFFFF" width="0.604" height="11.561"/>
	</g>
	<g>
		<rect x="328.133" y="287.736" fill="#FFFFFF" width="7.207" height="0.604"/>
	</g>
	<g>
		<rect x="359.193" y="287.736" fill="#FFFFFF" width="7.205" height="0.604"/>
	</g>
	<g>
		<polygon fill="#FFFFFF" points="347.994,288.34 351.807,288.34 355.443,288.34 355.443,287.736 351.805,287.736 347.994,287.736 
			350.689,285.041 353.262,282.471 352.836,282.045 350.262,284.617 347.568,287.311 347.568,280.756 347.568,274.92 
			346.965,274.922 346.965,280.758 346.965,287.311 344.27,284.615 341.697,282.043 341.271,282.471 343.844,285.043 
			346.539,287.736 342.727,287.736 339.088,287.736 339.09,288.34 342.729,288.34 346.539,288.34 343.844,291.035 341.271,293.609 
			341.697,294.035 344.271,291.461 346.965,288.768 346.965,295.322 346.965,301.158 347.568,301.156 347.568,295.318 
			347.568,288.768 350.264,291.463 352.836,294.035 353.262,293.607 350.689,291.035 		"/>
	</g>
</g>
<g>
	<path fill="#FFFFFF" d="M101.325,156.653l-0.89-1.256l0.649-0.461l0.89,1.256L101.325,156.653z M99.208,153.667l-1.227-1.731
		l0.649-0.461l1.227,1.731L99.208,153.667z M96.754,150.205l-1.227-1.73l0.649-0.461l1.227,1.73L96.754,150.205z M94.3,146.743
		l-1.227-1.73l0.649-0.461l1.227,1.73L94.3,146.743z M91.846,143.282l-1.227-1.731l0.649-0.461l1.227,1.731L91.846,143.282z
		 M89.392,139.82l-1.227-1.73l0.649-0.461l1.227,1.73L89.392,139.82z M86.938,136.358l-1.227-1.73l0.649-0.461l1.227,1.73
		L86.938,136.358z M84.484,132.896l-1.227-1.731l0.649-0.459l1.227,1.731L84.484,132.896z M82.031,129.436l-1.227-1.73l0.649-0.461
		l1.227,1.73L82.031,129.436z M79.577,125.974l-1.227-1.731L79,123.783l1.227,1.731L79.577,125.974z M77.123,122.513l-1.227-1.73
		l0.649-0.461l1.227,1.73L77.123,122.513z M74.669,119.051l-1.227-1.73l0.649-0.461l1.227,1.73L74.669,119.051z M72.215,115.59
		l-1.227-1.731l0.649-0.461l1.227,1.731L72.215,115.59z M69.762,112.128l-1.227-1.73l0.649-0.461l1.227,1.73L69.762,112.128z
		 M67.308,108.666l-1.227-1.73l0.649-0.461l1.227,1.73L67.308,108.666z M64.854,105.205l-1.227-1.731l0.649-0.461l1.227,1.731
		L64.854,105.205z M62.4,101.743l-1.227-1.73l0.649-0.461l1.227,1.73L62.4,101.743z M59.946,98.281l-1.227-1.73l0.649-0.461
		l1.227,1.73L59.946,98.281z M57.492,94.819l-1.227-1.731l0.649-0.459l1.227,1.731L57.492,94.819z M55.039,91.358l-1.227-1.73
		l0.649-0.461l1.227,1.73L55.039,91.358z M52.585,87.896l-1.227-1.73l0.649-0.461l1.227,1.73L52.585,87.896z M50.131,84.436
		l-1.227-1.731l0.649-0.461l1.227,1.731L50.131,84.436z M47.677,80.974l-1.227-1.73l0.649-0.461l1.227,1.73L47.677,80.974z
		 M45.223,77.512l-1.227-1.73l0.649-0.461l1.227,1.73L45.223,77.512z M42.77,74.051l-1.227-1.73l0.649-0.461l1.227,1.73
		L42.77,74.051z M40.315,70.589l-1.227-1.73l0.649-0.461l1.227,1.73L40.315,70.589z M37.862,67.128l-1.227-1.731l0.649-0.461
		l1.227,1.731L37.862,67.128z M35.408,63.666l-1.227-1.73l0.649-0.461l1.227,1.73L35.408,63.666z M32.954,60.204l-1.227-1.73
		l0.649-0.461l1.227,1.73L32.954,60.204z M30.5,56.743l-1.227-1.731l0.649-0.461l1.227,1.731L30.5,56.743z M28.046,53.281
		l-1.227-1.73l0.649-0.461l1.227,1.73L28.046,53.281z M25.593,49.819l-1.227-1.73l0.649-0.461l1.227,1.73L25.593,49.819z"/>
</g>
<g>
	<path fill="#FFFFFF" d="M125.81,208.361l-0.908-1.918l0.719-0.34l0.908,1.918L125.81,208.361z M123.994,204.526l-0.908-1.917
		l0.719-0.34l0.908,1.917L123.994,204.526z M122.177,200.691l-0.908-1.917l0.719-0.34l0.908,1.917L122.177,200.691z
		 M120.361,196.857l-0.908-1.918l0.719-0.34l0.908,1.918L120.361,196.857z M118.544,193.022l-0.908-1.917l0.719-0.34l0.908,1.917
		L118.544,193.022z M116.729,189.188l-0.908-1.917l0.719-0.34l0.908,1.917L116.729,189.188z M114.912,185.353l-0.908-1.917
		l0.719-0.34l0.908,1.917L114.912,185.353z M113.096,181.519l-0.908-1.918l0.719-0.34l0.908,1.918L113.096,181.519z M111.28,177.684
		l-0.908-1.917l0.719-0.34l0.908,1.917L111.28,177.684z M109.463,173.849l-0.908-1.917l0.719-0.34l0.908,1.917L109.463,173.849z
		 M107.647,170.015l-0.908-1.918l0.719-0.34l0.908,1.918L107.647,170.015z M105.831,166.18l-0.908-1.918l0.719-0.34l0.908,1.918
		L105.831,166.18z M104.015,162.345l-0.908-1.917l0.719-0.34l0.908,1.917L104.015,162.345z M102.198,158.51l-0.908-1.917l0.719-0.34
		l0.908,1.917L102.198,158.51z"/>
</g>
<g>
	<path fill="#FFFFFF" d="M118.549,354.824l-0.794-0.045l0.12-2.118l0.794,0.045L118.549,354.824z M118.788,350.588l-0.794-0.045
		l0.119-2.118l0.794,0.045L118.788,350.588z M119.027,346.352l-0.794-0.045l0.119-2.118l0.794,0.045L119.027,346.352z
		 M119.265,342.115l-0.794-0.045l0.12-2.118l0.794,0.045L119.265,342.115z M119.504,337.879l-0.794-0.045l0.119-2.118l0.794,0.045
		L119.504,337.879z M119.743,333.643l-0.794-0.045l0.119-2.118l0.794,0.045L119.743,333.643z M119.981,329.406l-0.794-0.045
		l0.12-2.118l0.794,0.045L119.981,329.406z M120.22,325.17l-0.794-0.045l0.12-2.118l0.794,0.045L120.22,325.17z M120.458,320.934
		l-0.794-0.045l0.119-2.118l0.794,0.045L120.458,320.934z M120.697,316.697l-0.794-0.045l0.119-2.118l0.794,0.045L120.697,316.697z
		 M120.936,312.461l-0.794-0.045l0.12-2.118l0.794,0.045L120.936,312.461z M121.174,308.225l-0.794-0.045l0.119-2.118l0.794,0.045
		L121.174,308.225z M121.413,303.988l-0.794-0.045l0.119-2.118l0.794,0.045L121.413,303.988z M121.652,299.752l-0.794-0.045
		l0.119-2.118l0.794,0.045L121.652,299.752z M121.89,295.516l-0.794-0.045l0.12-2.118l0.794,0.045L121.89,295.516z M122.129,291.279
		l-0.794-0.045l0.119-2.118l0.794,0.045L122.129,291.279z M122.368,287.043l-0.794-0.045l0.119-2.118l0.794,0.045L122.368,287.043z
		 M122.606,282.807l-0.794-0.045l0.12-2.118l0.794,0.045L122.606,282.807z M122.845,278.57l-0.794-0.045l0.119-2.118l0.794,0.045
		L122.845,278.57z M123.083,274.334l-0.794-0.045l0.119-2.118l0.794,0.045L123.083,274.334z M123.322,270.098l-0.794-0.045
		l0.119-2.118l0.794,0.045L123.322,270.098z M123.561,265.861l-0.794-0.045l0.12-2.119l0.794,0.045L123.561,265.861z
		 M123.799,261.624l-0.794-0.045l0.119-2.118l0.794,0.045L123.799,261.624z M124.038,257.388l-0.794-0.045l0.119-2.118l0.794,0.045
		L124.038,257.388z M124.276,253.151l-0.794-0.045l0.12-2.118l0.794,0.045L124.276,253.151z M124.515,248.915l-0.794-0.045
		l0.12-2.118l0.794,0.045L124.515,248.915z M124.754,244.679l-0.794-0.045l0.119-2.118l0.794,0.045L124.754,244.679z
		 M124.993,240.442l-0.794-0.045l0.119-2.118l0.794,0.045L124.993,240.442z M125.231,236.206l-0.794-0.045l0.12-2.118l0.794,0.045
		L125.231,236.206z M125.47,231.97l-0.794-0.045l0.119-2.118l0.794,0.045L125.47,231.97z M125.708,227.733l-0.794-0.045l0.119-2.118
		l0.794,0.045L125.708,227.733z M125.947,223.497l-0.794-0.045l0.12-2.118l0.794,0.045L125.947,223.497z M126.186,219.261
		l-0.794-0.045l0.12-2.118l0.794,0.045L126.186,219.261z M126.424,215.024l-0.794-0.045l0.119-2.118l0.794,0.045L126.424,215.024z
		 M126.663,210.788l-0.794-0.045l0.119-2.118l0.794,0.045L126.663,210.788z"/>
</g>
<g>
	<path fill="#FFFFFF" d="M346.129,289.413l-0.701-0.256l0.273-0.748l0.701,0.256L346.129,289.413z M343.436,288.429l-1.992-0.729
		l0.273-0.748l1.992,0.729L343.436,288.429z M339.45,286.972l-1.992-0.729l0.273-0.748l1.992,0.729L339.45,286.972z
		 M335.465,285.515l-1.992-0.729l0.273-0.748l1.992,0.729L335.465,285.515z M331.48,284.058l-1.993-0.729l0.273-0.748l1.993,0.729
		L331.48,284.058z M327.495,282.601l-1.992-0.729l0.273-0.748l1.992,0.729L327.495,282.601z M323.51,281.144l-1.992-0.729
		l0.273-0.748l1.992,0.729L323.51,281.144z M319.525,279.687l-1.993-0.729l0.273-0.748l1.993,0.729L319.525,279.687z
		 M315.54,278.229l-1.992-0.729l0.273-0.748l1.992,0.729L315.54,278.229z M311.555,276.772l-1.992-0.729l0.273-0.748l1.992,0.729
		L311.555,276.772z M307.569,275.315l-1.992-0.729l0.273-0.748l1.992,0.729L307.569,275.315z M303.585,273.858l-1.993-0.729
		l0.273-0.748l1.993,0.729L303.585,273.858z M299.6,272.401l-1.992-0.729l0.273-0.748l1.992,0.729L299.6,272.401z M295.614,270.944
		l-1.992-0.729l0.273-0.748l1.992,0.729L295.614,270.944z M291.63,269.487l-1.993-0.729l0.273-0.748l1.993,0.729L291.63,269.487z
		 M287.645,268.03l-1.993-0.729l0.273-0.748l1.993,0.729L287.645,268.03z M283.659,266.573l-1.992-0.729l0.273-0.748l1.992,0.729
		L283.659,266.573z M279.674,265.116l-1.992-0.729l0.273-0.748l1.992,0.729L279.674,265.116z M275.689,263.659l-1.993-0.729
		l0.273-0.748l1.993,0.729L275.689,263.659z M271.704,262.202l-1.993-0.729l0.273-0.748l1.993,0.729L271.704,262.202z
		 M267.719,260.745l-1.992-0.729l0.273-0.748l1.992,0.729L267.719,260.745z M263.734,259.288l-1.993-0.729l0.273-0.748l1.993,0.729
		L263.734,259.288z M259.749,257.831l-1.992-0.729l0.273-0.748l1.992,0.729L259.749,257.831z M255.764,256.374l-1.993-0.729
		l0.273-0.748l1.993,0.729L255.764,256.374z M251.779,254.917l-1.993-0.729l0.273-0.748l1.993,0.729L251.779,254.917z
		 M247.793,253.46l-1.993-0.729l0.273-0.748l1.993,0.729L247.793,253.46z M243.809,252.003l-1.993-0.729l0.273-0.748l1.993,0.729
		L243.809,252.003z M239.823,250.546l-1.992-0.729l0.273-0.748l1.992,0.729L239.823,250.546z M235.838,249.089l-1.993-0.729
		l0.273-0.748l1.993,0.729L235.838,249.089z M231.853,247.632l-1.992-0.729l0.273-0.748l1.992,0.729L231.853,247.632z
		 M227.868,246.175l-1.993-0.729l0.273-0.748l1.993,0.729L227.868,246.175z M223.883,244.718l-1.992-0.729l0.273-0.748l1.992,0.729
		L223.883,244.718z M219.898,243.261l-1.993-0.729l0.273-0.748l1.993,0.729L219.898,243.261z M215.913,241.804l-1.993-0.729
		l0.273-0.748l1.993,0.729L215.913,241.804z M211.928,240.347l-1.993-0.729l0.273-0.748l1.993,0.729L211.928,240.347z
		 M207.943,238.89l-1.993-0.729l0.273-0.748l1.993,0.729L207.943,238.89z M203.958,237.434l-1.993-0.729l0.273-0.748l1.993,0.729
		L203.958,237.434z M199.973,235.977l-1.993-0.729l0.273-0.748l1.993,0.729L199.973,235.977z M195.987,234.52l-1.992-0.729
		l0.273-0.748l1.992,0.729L195.987,234.52z M192.002,233.063l-1.993-0.729l0.273-0.748l1.993,0.729L192.002,233.063z
		 M188.017,231.605l-1.992-0.729l0.273-0.748l1.992,0.729L188.017,231.605z M184.032,230.148l-1.993-0.729l0.273-0.748l1.993,0.729
		L184.032,230.148z M180.047,228.691l-1.993-0.729l0.273-0.748l1.993,0.729L180.047,228.691z M176.062,227.234l-1.993-0.729
		l0.273-0.748l1.993,0.729L176.062,227.234z M172.077,225.777l-1.993-0.729l0.273-0.748l1.993,0.729L172.077,225.777z
		 M168.092,224.32l-1.993-0.729l0.273-0.748l1.993,0.729L168.092,224.32z M164.107,222.863l-1.993-0.729l0.273-0.748l1.993,0.729
		L164.107,222.863z M160.122,221.406l-1.992-0.729l0.273-0.748l1.992,0.729L160.122,221.406z M156.137,219.949l-1.993-0.729
		l0.273-0.748l1.993,0.729L156.137,219.949z M152.151,218.492l-1.992-0.729l0.273-0.748l1.992,0.729L152.151,218.492z
		 M148.167,217.035l-1.993-0.729l0.273-0.748l1.993,0.729L148.167,217.035z M144.181,215.578l-1.992-0.729l0.273-0.748l1.992,0.729
		L144.181,215.578z M140.196,214.121l-1.993-0.729l0.273-0.748l1.993,0.729L140.196,214.121z M136.211,212.664l-1.993-0.729
		l0.273-0.748l1.993,0.729L136.211,212.664z M132.226,211.207l-1.993-0.729l0.273-0.748l1.993,0.729L132.226,211.207z
		 M128.241,209.75l-1.993-0.729l0.273-0.748l1.993,0.729L128.241,209.75z"/>
</g>
</svg>
