<?xml version="1.0" encoding="utf-8"?>
<!-- Generator: Adobe Illustrator 16.0.3, SVG Export Plug-In . SVG Version: 6.00 Build 0)  -->
<!DOCTYPE svg PUBLIC "-//W3C//DTD SVG 1.1//EN" "http://www.w3.org/Graphics/SVG/1.1/DTD/svg11.dtd">
<svg version="1.1" id="Capa_1" xmlns="http://www.w3.org/2000/svg" xmlns:xlink="http://www.w3.org/1999/xlink" x="0px" y="0px"
	 width="373.33px" height="373.33px" viewBox="0 0 373.33 373.33" enable-background="new 0 0 373.33 373.33" xml:space="preserve">
<g>
	<g>
		<path fill="#FFFFFF" d="M365.367,96.89c-2.309,0.965-4.967-0.131-5.93-2.443c-0.959-2.313,0.137-4.965,2.447-5.928
			c2.314-0.961,4.969,0.135,5.928,2.443C368.777,93.274,367.686,95.931,365.367,96.89"/>
	</g>
</g>
<g>
	<g>
		<path fill="#FFFFFF" d="M271.564,138.73c-2.309,0.965-4.967-0.131-5.93-2.443c-0.959-2.313,0.137-4.965,2.447-5.928
			c2.314-0.961,4.969,0.135,5.928,2.443C274.975,135.115,273.883,137.771,271.564,138.73"/>
	</g>
</g>
<g>
	<g>
		<path fill="#FFFFFF" d="M330.125,210.77c-2.309,0.965-4.967-0.131-5.93-2.443c-0.959-2.313,0.137-4.965,2.447-5.928
			c2.314-0.961,4.969,0.135,5.928,2.443C333.535,207.154,332.443,209.811,330.125,210.77"/>
	</g>
</g>
<g>
	<g>
		<path fill="#FFFFFF" d="M114.389,222.407c-2.309,0.965-4.967-0.131-5.93-2.443c-0.959-2.313,0.137-4.965,2.447-5.928
			c2.314-0.961,4.969,0.135,5.928,2.443C117.799,218.792,116.707,221.448,114.389,222.407"/>
	</g>
</g>
<g>
	<g>
		<path fill="#FFFFFF" d="M125.003,294.68c-2.309,0.965-4.967-0.131-5.93-2.443c-0.959-2.313,0.137-4.965,2.447-5.928
			c2.314-0.961,4.969,0.135,5.928,2.443C128.413,291.064,127.321,293.721,125.003,294.68"/>
	</g>
</g>
<g>
	<g>
		<rect x="342.84" y="301.373" fill="#FFFFFF" width="0.947" height="18.137"/>
	</g>
	<g>
		<polygon fill="#FFFFFF" points="343.787,223.205 342.84,223.209 342.84,241.345 343.787,241.343 		"/>
	</g>
	<g>
		<rect x="313.298" y="270.886" fill="#FFFFFF" width="11.305" height="0.945"/>
	</g>
	<g>
		<rect x="362.024" y="270.886" fill="#FFFFFF" width="11.305" height="0.945"/>
	</g>
	<g>
		<polygon fill="#FFFFFF" points="344.455,271.831 350.436,271.831 356.143,271.831 356.143,270.886 350.434,270.886 
			344.455,270.886 348.684,266.657 352.721,262.622 352.051,261.952 348.014,265.989 343.787,270.216 343.787,259.933 
			343.787,250.778 342.84,250.778 342.84,259.937 342.84,270.216 338.611,265.987 334.576,261.952 333.908,262.622 337.945,266.659 
			342.172,270.886 336.191,270.886 330.484,270.886 330.484,271.831 336.193,271.831 342.172,271.831 337.943,276.061 
			333.908,280.096 334.578,280.766 338.613,276.729 342.84,272.502 342.84,282.785 342.84,291.938 343.787,291.938 343.787,282.781 
			343.787,272.502 348.016,276.73 352.051,280.766 352.719,280.096 348.682,276.059 		"/>
	</g>
</g>
<g>
	<g>
		<rect x="30.543" y="348.749" fill="#FFFFFF" width="0.947" height="18.137"/>
	</g>
	<g>
		<polygon fill="#FFFFFF" points="31.49,270.581 30.543,270.585 30.543,288.721 31.49,288.719 		"/>
	</g>
	<g>
		<rect x="1.001" y="318.262" fill="#FFFFFF" width="11.305" height="0.945"/>
	</g>
	<g>
		<rect x="49.728" y="318.262" fill="#FFFFFF" width="11.305" height="0.945"/>
	</g>
	<g>
		<polygon fill="#FFFFFF" points="32.158,319.207 38.139,319.207 43.846,319.207 43.846,318.262 38.137,318.262 32.158,318.262 
			36.387,314.033 40.424,309.998 39.754,309.328 35.717,313.365 31.49,317.592 31.49,307.309 31.49,298.154 30.543,298.154 
			30.543,307.313 30.543,317.592 26.314,313.363 22.279,309.328 21.611,309.998 25.648,314.035 29.875,318.262 23.895,318.262 
			18.188,318.262 18.188,319.207 23.896,319.207 29.875,319.207 25.646,323.437 21.611,327.472 22.281,328.142 26.316,324.104 
			30.543,319.878 30.543,330.161 30.543,339.314 31.49,339.314 31.49,330.157 31.49,319.878 35.719,324.106 39.754,328.142 
			40.422,327.472 36.385,323.435 		"/>
	</g>
</g>
<g>
	<g>
		<polygon fill="#FFFFFF" points="328.384,100.648 328.987,100.645 328.987,89.084 328.384,89.086 		"/>
	</g>
	<g>
		<rect x="328.384" y="39.259" fill="#FFFFFF" width="0.604" height="11.561"/>
	</g>
	<g>
		<rect x="309.552" y="69.65" fill="#FFFFFF" width="7.207" height="0.604"/>
	</g>
	<g>
		<rect x="340.612" y="69.65" fill="#FFFFFF" width="7.205" height="0.604"/>
	</g>
	<g>
		<polygon fill="#FFFFFF" points="329.413,70.254 333.226,70.254 336.862,70.254 336.862,69.65 333.224,69.65 329.413,69.65 
			332.108,66.955 334.681,64.385 334.255,63.959 331.681,66.531 328.987,69.225 328.987,62.67 328.987,56.834 328.384,56.836 
			328.384,62.672 328.384,69.225 325.688,66.529 323.116,63.957 322.69,64.385 325.263,66.957 327.958,69.65 324.146,69.65 
			320.507,69.65 320.509,70.254 324.147,70.254 327.958,70.254 325.263,72.949 322.69,75.523 323.116,75.949 325.69,73.375 
			328.384,70.682 328.384,77.236 328.384,83.072 328.987,83.07 328.987,77.232 328.987,70.682 331.683,73.377 334.255,75.949 
			334.681,75.521 332.108,72.949 		"/>
	</g>
</g>
<g>
	<g>
		<polygon fill="#FFFFFF" points="270.733,212.367 271.337,212.363 271.337,200.803 270.733,200.805 		"/>
	</g>
	<g>
		<rect x="270.733" y="150.978" fill="#FFFFFF" width="0.604" height="11.561"/>
	</g>
	<g>
		<rect x="251.901" y="181.369" fill="#FFFFFF" width="7.207" height="0.604"/>
	</g>
	<g>
		<rect x="282.962" y="181.369" fill="#FFFFFF" width="7.205" height="0.604"/>
	</g>
	<g>
		<polygon fill="#FFFFFF" points="271.763,181.973 275.575,181.973 279.212,181.973 279.212,181.369 275.573,181.369 
			271.763,181.369 274.458,178.674 277.03,176.104 276.604,175.678 274.03,178.25 271.337,180.943 271.337,174.389 271.337,168.553 
			270.733,168.555 270.733,174.391 270.733,180.943 268.038,178.248 265.466,175.676 265.04,176.104 267.612,178.676 
			270.308,181.369 266.495,181.369 262.856,181.369 262.858,181.973 266.497,181.973 270.308,181.973 267.612,184.668 
			265.04,187.242 265.466,187.668 268.04,185.094 270.733,182.4 270.733,188.955 270.733,194.791 271.337,194.789 271.337,188.951 
			271.337,182.4 274.032,185.096 276.604,187.668 277.03,187.24 274.458,184.668 		"/>
	</g>
</g>
<g>
	<path fill="#FFFFFF" d="M31.321,315.947l-0.609-0.512l1.362-1.627l0.609,0.512L31.321,315.947z M34.046,312.694l-0.609-0.512
		l1.362-1.627l0.609,0.511L34.046,312.694z M36.77,309.441l-0.609-0.512l1.362-1.627l0.609,0.512L36.77,309.441z M39.494,306.188
		l-0.609-0.512l1.362-1.627l0.609,0.512L39.494,306.188z M42.219,302.936l-0.609-0.512l1.362-1.627l0.609,0.512L42.219,302.936z
		 M44.943,299.683l-0.609-0.512l1.362-1.627l0.609,0.512L44.943,299.683z M47.667,296.43l-0.609-0.512l1.362-1.627l0.609,0.512
		L47.667,296.43z M50.392,293.177l-0.609-0.512l1.362-1.626l0.609,0.511L50.392,293.177z M53.116,289.924l-0.609-0.512l1.362-1.627
		l0.609,0.512L53.116,289.924z M55.841,286.671l-0.609-0.512l1.362-1.627l0.609,0.512L55.841,286.671z M58.564,283.418l-0.609-0.512
		l1.362-1.627l0.609,0.512L58.564,283.418z M61.289,280.165l-0.609-0.512l1.362-1.627l0.609,0.512L61.289,280.165z M64.014,276.912
		l-0.609-0.512l1.362-1.627l0.609,0.511L64.014,276.912z M66.738,273.659l-0.609-0.512l1.362-1.627l0.609,0.512L66.738,273.659z
		 M69.462,270.406l-0.609-0.512l1.362-1.627l0.609,0.512L69.462,270.406z M72.187,267.153l-0.609-0.512l1.362-1.627l0.609,0.512
		L72.187,267.153z M74.911,263.9l-0.609-0.512l1.362-1.627l0.609,0.512L74.911,263.9z M77.636,260.647l-0.609-0.512l1.362-1.627
		l0.609,0.512L77.636,260.647z M80.359,257.395l-0.609-0.512l1.362-1.627l0.609,0.512L80.359,257.395z M83.084,254.142l-0.609-0.512
		l1.362-1.627l0.609,0.512L83.084,254.142z M85.809,250.889l-0.609-0.512l1.362-1.627l0.609,0.512L85.809,250.889z M88.533,247.636
		l-0.609-0.512l1.362-1.627l0.609,0.512L88.533,247.636z M91.257,244.383l-0.609-0.512l1.362-1.627l0.609,0.512L91.257,244.383z
		 M93.981,241.13l-0.609-0.512l1.362-1.627l0.609,0.511L93.981,241.13z M96.706,237.877l-0.609-0.512l1.362-1.627l0.609,0.512
		L96.706,237.877z M99.431,234.624l-0.609-0.512l1.362-1.627l0.609,0.512L99.431,234.624z M102.154,231.371l-0.609-0.512
		l1.362-1.627l0.609,0.512L102.154,231.371z M104.879,228.118l-0.609-0.512l1.362-1.627l0.609,0.512L104.879,228.118z
		 M107.604,224.865l-0.609-0.512l1.362-1.627l0.609,0.512L107.604,224.865z M110.328,221.612l-0.609-0.512l1.362-1.627l0.609,0.512
		L110.328,221.612z"/>
</g>
<g>
	<path fill="#FFFFFF" d="M112.737,218.61l-0.179-0.775l2.066-0.477l0.179,0.775L112.737,218.61z M116.872,217.656l-0.18-0.775
		l2.066-0.477l0.18,0.775L116.872,217.656z M121.005,216.702l-0.179-0.775l2.068-0.477l0.179,0.775L121.005,216.702z
		 M125.14,215.748l-0.179-0.775l2.068-0.477l0.178,0.775L125.14,215.748z M129.275,214.794l-0.18-0.775l2.066-0.477l0.18,0.775
		L129.275,214.794z M133.409,213.84l-0.179-0.775l2.066-0.477l0.179,0.775L133.409,213.84z M137.543,212.886l-0.178-0.775
		l2.067-0.477l0.179,0.775L137.543,212.886z M141.679,211.932l-0.18-0.775l2.066-0.477l0.18,0.775L141.679,211.932z
		 M145.812,210.978l-0.179-0.775l2.068-0.477l0.178,0.775L145.812,210.978z M149.947,210.023l-0.179-0.775l2.066-0.477l0.179,0.775
		L149.947,210.023z M154.081,209.069l-0.179-0.775l2.066-0.477l0.179,0.775L154.081,209.069z M158.215,208.115l-0.178-0.775
		l2.067-0.477l0.179,0.775L158.215,208.115z M162.35,207.161l-0.179-0.775l2.068-0.477l0.179,0.775L162.35,207.161z
		 M166.483,206.207l-0.179-0.775l2.068-0.477l0.178,0.775L166.483,206.207z M170.619,205.253l-0.179-0.775l2.066-0.477l0.179,0.775
		L170.619,205.253z M174.754,204.299l-0.18-0.775l2.066-0.477l0.18,0.775L174.754,204.299z M178.887,203.345l-0.178-0.775
		l2.067-0.477l0.179,0.775L178.887,203.345z M183.021,202.391l-0.179-0.775l2.068-0.477l0.179,0.775L183.021,202.391z
		 M187.157,201.437l-0.18-0.775l2.066-0.477l0.18,0.775L187.157,201.437z M191.291,200.482l-0.179-0.775l2.066-0.477l0.179,0.775
		L191.291,200.482z M195.426,199.528l-0.179-0.775l2.067-0.477l0.178,0.775L195.426,199.528z M199.561,198.574l-0.18-0.775
		l2.066-0.477l0.18,0.775L199.561,198.574z M203.693,197.62l-0.179-0.775l2.068-0.477l0.179,0.775L203.693,197.62z M207.828,196.666
		l-0.178-0.775l2.066-0.477l0.179,0.775L207.828,196.666z M211.964,195.712l-0.18-0.775l2.066-0.477l0.18,0.775L211.964,195.712z
		 M216.098,194.758l-0.179-0.775l2.067-0.477l0.178,0.775L216.098,194.758z M220.231,193.804l-0.179-0.775l2.068-0.477l0.179,0.775
		L220.231,193.804z M224.365,192.85l-0.179-0.775l2.068-0.477l0.179,0.775L224.365,192.85z M228.5,191.896l-0.178-0.775l2.066-0.477
		l0.179,0.775L228.5,191.896z M232.636,190.941l-0.179-0.775l2.066-0.477l0.179,0.775L232.636,190.941z M236.77,189.987
		l-0.179-0.775l2.067-0.477l0.178,0.775L236.77,189.987z M240.903,189.033l-0.179-0.775l2.068-0.477l0.179,0.775L240.903,189.033z
		 M245.038,188.079l-0.179-0.775l2.068-0.477l0.178,0.775L245.038,188.079z M249.172,187.125l-0.178-0.775l2.066-0.477l0.179,0.775
		L249.172,187.125z M253.308,186.171l-0.179-0.775l2.066-0.477l0.179,0.775L253.308,186.171z M257.441,185.217l-0.178-0.775
		l2.067-0.477l0.179,0.775L257.441,185.217z M261.575,184.263l-0.179-0.775l2.068-0.477l0.179,0.775L261.575,184.263z
		 M265.71,183.309l-0.179-0.775l2.068-0.477l0.178,0.775L265.71,183.309z M269.846,182.354l-0.18-0.775l1.278-0.295l0.18,0.775
		L269.846,182.354z"/>
</g>
<g>
	<path fill="#FFFFFF" d="M271.432,181.672h-0.795v-2.121h0.795V181.672z M271.432,177.429h-0.795v-2.121h0.795V177.429z
		 M271.432,173.186h-0.795v-2.121h0.795V173.186z M271.432,168.942h-0.795v-2.121h0.795V168.942z M271.432,164.699h-0.795v-2.121
		h0.795V164.699z M271.432,160.456h-0.795v-2.121h0.795V160.456z M271.432,156.214h-0.795v-2.122h0.795V156.214z M271.432,151.971
		h-0.795v-2.122h0.795V151.971z M271.432,147.728h-0.795v-2.122h0.795V147.728z M271.432,143.484h-0.795v-2.122h0.795V143.484z
		 M271.432,139.241h-0.795v-2.122h0.795V139.241z M271.432,134.998h-0.795v-1.452h0.795V134.998z"/>
</g>
<g>
	<path fill="#FFFFFF" d="M271.337,133.804l-0.605-0.516l1.377-1.614l0.605,0.516L271.337,133.804z M274.091,130.576l-0.605-0.516
		l1.377-1.614l0.605,0.516L274.091,130.576z M276.845,127.348l-0.605-0.516l1.377-1.613l0.605,0.516L276.845,127.348z
		 M279.599,124.12l-0.605-0.516l1.377-1.614l0.605,0.516L279.599,124.12z M282.353,120.892l-0.605-0.516l1.377-1.613l0.605,0.516
		L282.353,120.892z M285.106,117.664l-0.605-0.516l1.377-1.614l0.605,0.516L285.106,117.664z M287.86,114.437l-0.605-0.516
		l1.377-1.614l0.605,0.516L287.86,114.437z M290.614,111.208l-0.605-0.516l1.377-1.613l0.605,0.516L290.614,111.208z
		 M293.368,107.98l-0.605-0.516l1.377-1.614l0.605,0.516L293.368,107.98z M296.122,104.752l-0.605-0.516l1.377-1.613l0.605,0.516
		L296.122,104.752z M298.876,101.524l-0.605-0.516l1.377-1.614l0.605,0.516L298.876,101.524z M301.63,98.297l-0.605-0.516
		l1.377-1.614l0.605,0.516L301.63,98.297z M304.385,95.068l-0.605-0.516l1.377-1.613l0.605,0.516L304.385,95.068z M307.139,91.841
		l-0.605-0.516l1.377-1.614l0.605,0.516L307.139,91.841z M309.893,88.612l-0.605-0.516l1.377-1.613l0.605,0.516L309.893,88.612z
		 M312.646,85.385l-0.605-0.516l1.377-1.614l0.605,0.516L312.646,85.385z M315.4,82.157l-0.605-0.516l1.377-1.614l0.605,0.516
		L315.4,82.157z M318.154,78.929l-0.605-0.516l1.377-1.613l0.605,0.516L318.154,78.929z M320.908,75.701l-0.605-0.516l1.377-1.614
		l0.605,0.516L320.908,75.701z M323.662,72.473l-0.605-0.516l1.377-1.613l0.605,0.516L323.662,72.473z M326.416,69.245l-0.605-0.516
		l1.377-1.614l0.605,0.516L326.416,69.245z"/>
</g>
<g>
	<path fill="#FFFFFF" d="M363.402,91.845l-0.822-0.558l0.447-0.658l0.822,0.558L363.402,91.845z M360.824,90.097l-1.756-1.19
		l0.447-0.658l1.756,1.19L360.824,90.097z M357.313,87.715l-1.757-1.19l0.445-0.658l1.757,1.19L357.313,87.715z M353.8,85.334
		l-1.756-1.19l0.447-0.658l1.756,1.19L353.8,85.334z M350.288,82.953l-1.756-1.191l0.447-0.658l1.756,1.191L350.288,82.953z
		 M346.776,80.571l-1.756-1.19l0.447-0.658l1.756,1.19L346.776,80.571z M343.265,78.19L341.509,77l0.447-0.658l1.756,1.19
		L343.265,78.19z M339.753,75.809l-1.756-1.19l0.447-0.658l1.756,1.19L339.753,75.809z M336.24,73.428l-1.756-1.19l0.447-0.658
		l1.756,1.19L336.24,73.428z M332.729,71.047l-1.756-1.191l0.447-0.658l1.756,1.191L332.729,71.047z M329.217,68.665l-1.756-1.19
		l0.447-0.658l1.756,1.19L329.217,68.665z"/>
</g>
<g>
	<path fill="#FFFFFF" d="M327.534,205.19l-1.661-0.679l0.301-0.736l1.661,0.679L327.534,205.19z M323.909,203.709l-1.965-0.803
		l0.301-0.736l1.965,0.803L323.909,203.709z M319.98,202.104l-1.964-0.803l0.301-0.736l1.964,0.803L319.98,202.104z
		 M316.053,200.499l-1.964-0.803l0.301-0.736l1.964,0.803L316.053,200.499z M312.125,198.894l-1.964-0.803l0.301-0.736l1.964,0.803
		L312.125,198.894z M308.197,197.288l-1.964-0.802l0.301-0.736l1.964,0.802L308.197,197.288z M304.27,195.684l-1.964-0.803
		l0.301-0.736l1.964,0.803L304.27,195.684z M300.342,194.078l-1.964-0.803l0.301-0.736l1.964,0.803L300.342,194.078z
		 M296.414,192.474l-1.964-0.803l0.301-0.736l1.964,0.803L296.414,192.474z M292.486,190.868l-1.964-0.803l0.301-0.736l1.964,0.803
		L292.486,190.868z M288.559,189.263l-1.964-0.803l0.301-0.736l1.964,0.803L288.559,189.263z M284.631,187.658l-1.964-0.803
		l0.301-0.736l1.964,0.803L284.631,187.658z M280.703,186.053l-1.964-0.803l0.301-0.736l1.964,0.803L280.703,186.053z
		 M276.775,184.447l-1.964-0.802l0.301-0.736l1.964,0.802L276.775,184.447z M272.848,182.843l-1.964-0.803l0.301-0.736l1.964,0.803
		L272.848,182.843z"/>
</g>
<g>
	<path fill="#FFFFFF" d="M345.275,271.935l-0.386-1.438l0.768-0.207l0.386,1.438L345.275,271.935z M344.34,268.448l-0.55-2.05
		l0.768-0.207l0.55,2.05L344.34,268.448z M343.241,264.35l-0.55-2.049l0.768-0.207l0.55,2.049L343.241,264.35z M342.142,260.252
		l-0.55-2.05l0.768-0.207l0.55,2.05L342.142,260.252z M341.042,256.153l-0.55-2.049l0.768-0.207l0.55,2.049L341.042,256.153z
		 M339.942,252.054l-0.549-2.049l0.768-0.205l0.549,2.049L339.942,252.054z M338.844,247.957l-0.55-2.049l0.768-0.207l0.55,2.049
		L338.844,247.957z M337.744,243.858l-0.55-2.049l0.768-0.207l0.55,2.049L337.744,243.858z M336.645,239.76l-0.549-2.05l0.768-0.205
		l0.549,2.05L336.645,239.76z M335.546,235.662l-0.55-2.049l0.768-0.207l0.55,2.049L335.546,235.662z M334.446,231.564l-0.55-2.05
		l0.768-0.207l0.55,2.05L334.446,231.564z M333.347,227.466l-0.55-2.049l0.768-0.207l0.55,2.049L333.347,227.466z M332.248,223.368
		l-0.55-2.05l0.768-0.207l0.55,2.05L332.248,223.368z M331.148,219.27l-0.55-2.049l0.768-0.207l0.55,2.049L331.148,219.27z
		 M330.049,215.171l-0.55-2.049l0.768-0.207l0.55,2.049L330.049,215.171z M328.95,211.073l-0.55-2.049l0.768-0.207l0.55,2.049
		L328.95,211.073z M327.851,206.975l-0.55-2.049l0.768-0.207l0.55,2.049L327.851,206.975z"/>
</g>
<g>
	<path fill="#FFFFFF" d="M123.676,290.449l-0.064-0.793l2.115-0.174l0.064,0.793L123.676,290.449z M127.905,290.103l-0.064-0.793
		l2.114-0.174l0.064,0.793L127.905,290.103z M132.134,289.755l-0.064-0.793l2.114-0.173l0.064,0.793L132.134,289.755z
		 M136.362,289.408l-0.064-0.793l2.115-0.174l0.064,0.793L136.362,289.408z M140.592,289.061l-0.064-0.793l2.114-0.173l0.064,0.793
		L140.592,289.061z M144.82,288.714l-0.064-0.793l2.114-0.174l0.064,0.793L144.82,288.714z M149.05,288.367l-0.064-0.793
		l2.114-0.174l0.064,0.793L149.05,288.367z M153.278,288.02l-0.064-0.793l2.114-0.173l0.064,0.793L153.278,288.02z M157.507,287.673
		l-0.064-0.793l2.114-0.174l0.064,0.793L157.507,287.673z M161.736,287.325l-0.064-0.793l2.114-0.173l0.064,0.793L161.736,287.325z
		 M165.965,286.979l-0.064-0.793l2.114-0.174l0.064,0.793L165.965,286.979z M170.193,286.632l-0.064-0.793l2.114-0.174l0.064,0.793
		L170.193,286.632z M174.423,286.284l-0.064-0.793l2.114-0.174l0.064,0.793L174.423,286.284z M178.651,285.938l-0.064-0.793
		l2.114-0.174l0.064,0.793L178.651,285.938z M182.88,285.59l-0.064-0.793l2.115-0.173l0.064,0.793L182.88,285.59z M187.109,285.243
		l-0.064-0.793l2.114-0.174l0.064,0.793L187.109,285.243z M191.338,284.896l-0.064-0.793l2.114-0.174l0.064,0.793L191.338,284.896z
		 M195.566,284.549l-0.064-0.793l2.115-0.174l0.064,0.793L195.566,284.549z M199.796,284.202l-0.064-0.793l2.114-0.174l0.064,0.793
		L199.796,284.202z M204.024,283.854l-0.064-0.793l2.114-0.173l0.064,0.793L204.024,283.854z M208.253,283.508l-0.064-0.793
		l2.115-0.174l0.064,0.793L208.253,283.508z M212.482,283.16l-0.064-0.793l2.114-0.173l0.064,0.793L212.482,283.16z
		 M216.711,282.813l-0.064-0.793l2.114-0.174l0.064,0.793L216.711,282.813z M220.94,282.467l-0.064-0.793l2.114-0.174l0.064,0.793
		L220.94,282.467z M225.169,282.119l-0.064-0.793l2.114-0.173l0.064,0.793L225.169,282.119z M229.397,281.772l-0.064-0.793
		l2.114-0.174l0.064,0.793L229.397,281.772z M233.627,281.425l-0.064-0.793l2.114-0.173l0.064,0.793L233.627,281.425z
		 M237.855,281.078l-0.064-0.793l2.114-0.174l0.064,0.793L237.855,281.078z M242.084,280.731l-0.064-0.793l2.115-0.174l0.064,0.793
		L242.084,280.731z M246.313,280.384l-0.064-0.793l2.114-0.174l0.064,0.793L246.313,280.384z M250.542,280.037l-0.064-0.793
		l2.114-0.174l0.064,0.793L250.542,280.037z M254.771,279.689l-0.064-0.793l2.115-0.173l0.064,0.793L254.771,279.689z M259,279.343
		l-0.064-0.793l2.114-0.174l0.064,0.793L259,279.343z M263.229,278.996l-0.064-0.793l2.114-0.174l0.064,0.793L263.229,278.996z
		 M267.457,278.648l-0.064-0.793l2.115-0.174l0.064,0.793L267.457,278.648z M271.687,278.302l-0.064-0.793l2.114-0.174l0.064,0.793
		L271.687,278.302z M275.915,277.954l-0.064-0.793l2.114-0.173l0.064,0.793L275.915,277.954z M280.145,277.607l-0.064-0.793
		l2.114-0.174l0.064,0.793L280.145,277.607z M284.373,277.26l-0.064-0.793l2.114-0.173l0.064,0.793L284.373,277.26z
		 M288.602,276.913l-0.064-0.793l2.114-0.174l0.064,0.793L288.602,276.913z M292.831,276.566l-0.064-0.793l2.114-0.174l0.064,0.793
		L292.831,276.566z M297.06,276.219l-0.064-0.793l2.114-0.173l0.064,0.793L297.06,276.219z M301.288,275.872l-0.064-0.793
		l2.114-0.174l0.064,0.793L301.288,275.872z M305.518,275.524l-0.064-0.793l2.114-0.173l0.064,0.793L305.518,275.524z
		 M309.746,275.178l-0.064-0.793l2.114-0.174l0.064,0.793L309.746,275.178z M313.975,274.831l-0.064-0.793l2.115-0.174l0.064,0.793
		L313.975,274.831z M318.204,274.483l-0.064-0.793l2.114-0.174l0.064,0.793L318.204,274.483z M322.433,274.137l-0.064-0.793
		l2.114-0.174l0.064,0.793L322.433,274.137z M326.661,273.789l-0.064-0.793l2.115-0.173l0.064,0.793L326.661,273.789z
		 M330.891,273.442l-0.064-0.793l2.114-0.174l0.064,0.793L330.891,273.442z M335.119,273.096l-0.064-0.793l2.114-0.174l0.064,0.793
		L335.119,273.096z M339.348,272.748l-0.064-0.793l2.115-0.174l0.064,0.793L339.348,272.748z M343.577,272.401l-0.064-0.793
		l2.114-0.174l0.064,0.793L343.577,272.401z"/>
</g>
<g>
	<path fill="#FFFFFF" d="M31.132,316.071l-0.213-0.766l2.044-0.568l0.213,0.766L31.132,316.071z M35.22,314.935l-0.213-0.766
		l2.044-0.568l0.213,0.766L35.22,314.935z M39.308,313.798l-0.213-0.766l2.044-0.568l0.213,0.766L39.308,313.798z M43.396,312.66
		l-0.213-0.766l2.044-0.568l0.213,0.766L43.396,312.66z M47.483,311.523l-0.213-0.766l2.044-0.568l0.213,0.766L47.483,311.523z
		 M51.571,310.387l-0.213-0.766l2.044-0.568l0.213,0.766L51.571,310.387z M55.659,309.249l-0.213-0.766l2.044-0.568l0.213,0.766
		L55.659,309.249z M59.747,308.112l-0.213-0.766l2.044-0.568l0.213,0.766L59.747,308.112z M63.835,306.976l-0.213-0.766l2.044-0.568
		l0.213,0.766L63.835,306.976z M67.923,305.838l-0.213-0.766l2.044-0.568l0.213,0.766L67.923,305.838z M72.011,304.701l-0.213-0.766
		l2.044-0.568l0.213,0.766L72.011,304.701z M76.099,303.564l-0.213-0.766l2.044-0.568l0.213,0.766L76.099,303.564z M80.187,302.428
		l-0.213-0.766l2.044-0.569l0.213,0.766L80.187,302.428z M84.274,301.29l-0.213-0.766l2.044-0.568l0.213,0.766L84.274,301.29z
		 M88.362,300.153l-0.213-0.766l2.044-0.568l0.213,0.766L88.362,300.153z M92.45,299.017l-0.213-0.766l2.044-0.569l0.213,0.766
		L92.45,299.017z M96.538,297.879l-0.213-0.766l2.044-0.568l0.213,0.766L96.538,297.879z M100.626,296.742l-0.213-0.766l2.044-0.568
		l0.213,0.766L100.626,296.742z M104.714,295.605l-0.213-0.766l2.044-0.569l0.213,0.766L104.714,295.605z M108.802,294.468
		l-0.213-0.766l2.044-0.568l0.213,0.766L108.802,294.468z M112.89,293.331l-0.213-0.766l2.044-0.568l0.213,0.766L112.89,293.331z
		 M116.978,292.194l-0.213-0.766l2.044-0.569l0.213,0.766L116.978,292.194z M121.065,291.057l-0.213-0.766l2.044-0.568l0.213,0.766
		L121.065,291.057z"/>
</g>
</svg>
