<?xml version="1.0" encoding="utf-8"?>
<!-- Generator: Adobe Illustrator 16.0.3, SVG Export Plug-In . SVG Version: 6.00 Build 0)  -->
<!DOCTYPE svg PUBLIC "-//W3C//DTD SVG 1.1//EN" "http://www.w3.org/Graphics/SVG/1.1/DTD/svg11.dtd">
<svg version="1.1" id="Capa_1" xmlns="http://www.w3.org/2000/svg" xmlns:xlink="http://www.w3.org/1999/xlink" x="0px" y="0px"
	 width="373.33px" height="373.33px" viewBox="0 0 373.33 373.33" enable-background="new 0 0 373.33 373.33" xml:space="preserve">
<g>
	<g>
		<path fill="#FFFFFF" d="M167.923,225.89c-2.309,0.965-4.967-0.131-5.93-2.443c-0.959-2.313,0.137-4.965,2.447-5.928
			c2.314-0.961,4.967,0.135,5.926,2.443C171.331,222.275,170.239,224.931,167.923,225.89"/>
	</g>
</g>
<g>
	<g>
		<path fill="#FFFFFF" d="M366.808,363.603c-2.313-0.957-3.416-3.605-2.463-5.922c0.957-2.311,3.604-3.416,5.916-2.461
			c2.318,0.957,3.422,3.605,2.469,5.92C371.771,363.452,369.126,364.56,366.808,363.603"/>
	</g>
</g>
<g>
	<g>
		<path fill="#FFFFFF" d="M139.078,248.839c-0.957-2.314,0.135-4.971,2.445-5.928c2.309-0.965,4.965,0.131,5.926,2.443
			s-0.131,4.967-2.438,5.926C142.695,252.245,140.043,251.151,139.078,248.839"/>
	</g>
</g>
<g>
	<g>
		<path fill="#FFFFFF" d="M206.125,261.747c2.308,0.965,4.967-0.131,5.928-2.445c0.961-2.311-0.135-4.963-2.445-5.926
			c-2.316-0.961-4.967,0.135-5.926,2.443C202.717,258.132,203.809,260.788,206.125,261.747"/>
	</g>
</g>
<g>
	<g>
		<path fill="#FFFFFF" d="M176.581,261.753c2.314-0.957,3.416-3.605,2.464-5.922c-0.956-2.311-3.604-3.416-5.919-2.461
			c-2.315,0.957-3.42,3.605-2.466,5.92C171.617,261.603,174.263,262.71,176.581,261.753"/>
	</g>
</g>
<g>
	<path fill="#FFFFFF" d="M198.855,215.444c-0.953-2.316-3.603-3.422-5.915-2.465c-2.316,0.955-3.419,3.6-2.467,5.918
		c0.957,2.316,3.607,3.42,5.922,2.465C198.708,220.407,199.81,217.755,198.855,215.444z"/>
</g>
<g>
	<g>
		<path fill="#FFFFFF" d="M169.632,198.822c0.957-2.313-0.135-4.969-2.445-5.928c-2.311-0.963-4.965,0.133-5.926,2.443
			c-0.963,2.314,0.131,4.967,2.438,5.928C166.015,202.23,168.667,201.135,169.632,198.822"/>
	</g>
</g>
<g>
	<g>
		<path fill="#FFFFFF" d="M140.204,152.975c0.957-2.313-0.135-4.969-2.445-5.928c-2.311-0.963-4.965,0.133-5.926,2.443
			c-0.963,2.314,0.131,4.967,2.438,5.928C136.587,156.383,139.239,155.288,140.204,152.975"/>
	</g>
</g>
<g>
	<g>
		<rect x="249.457" y="325.303" fill="#FFFFFF" width="0.946" height="18.137"/>
	</g>
	<g>
		<polygon fill="#FFFFFF" points="250.403,247.135 249.457,247.139 249.457,265.274 250.403,265.272 		"/>
	</g>
	<g>
		<rect x="219.914" y="294.815" fill="#FFFFFF" width="11.305" height="0.945"/>
	</g>
	<g>
		<rect x="268.641" y="294.815" fill="#FFFFFF" width="11.305" height="0.945"/>
	</g>
	<g>
		<polygon fill="#FFFFFF" points="251.072,295.761 257.052,295.761 262.759,295.761 262.759,294.815 257.05,294.815 
			251.072,294.815 255.301,290.587 259.337,286.552 258.667,285.882 254.63,289.919 250.403,294.146 250.403,283.862 
			250.403,274.708 249.457,274.708 249.457,283.866 249.457,294.146 245.229,289.917 241.192,285.882 240.524,286.552 
			244.562,290.589 248.788,294.815 242.808,294.815 237.101,294.815 237.102,295.761 242.811,295.761 248.788,295.761 
			244.56,299.99 240.524,304.025 241.194,304.695 245.23,300.658 249.457,296.432 249.457,306.715 249.457,315.868 250.403,315.868 
			250.403,306.711 250.403,296.432 254.632,300.66 258.667,304.695 259.335,304.025 255.299,299.988 		"/>
	</g>
</g>
<g>
	<g>
		<polygon fill="#FFFFFF" points="57.463,119.035 58.41,119.031 58.41,100.894 57.463,100.898 		"/>
	</g>
	<g>
		<polygon fill="#FFFFFF" points="58.41,22.728 57.463,22.732 57.463,40.867 58.41,40.865 		"/>
	</g>
	<g>
		<rect x="27.921" y="70.408" fill="#FFFFFF" width="11.305" height="0.947"/>
	</g>
	<g>
		<rect x="76.647" y="70.408" fill="#FFFFFF" width="11.305" height="0.947"/>
	</g>
	<g>
		<polygon fill="#FFFFFF" points="59.078,71.355 65.059,71.355 70.766,71.355 70.766,70.408 65.057,70.408 59.078,70.408 
			63.307,66.179 67.344,62.144 66.674,61.476 62.637,65.513 58.41,69.74 58.41,59.455 58.41,50.3 57.463,50.302 57.463,59.46 
			57.463,69.74 53.234,65.511 49.199,61.474 48.531,62.144 52.568,66.181 56.795,70.408 50.814,70.408 45.107,70.408 45.107,71.355 
			50.816,71.355 56.795,71.355 52.566,75.583 48.531,79.619 49.201,80.287 53.236,76.25 57.463,72.023 57.463,82.306 57.463,91.462 
			58.41,91.46 58.41,82.302 58.41,72.023 62.639,76.251 66.674,80.287 67.342,79.619 63.305,75.582 		"/>
	</g>
</g>
<g>
	<g>
		<polygon fill="#FFFFFF" points="17.771,194.885 18.374,194.881 18.374,183.321 17.771,183.323 		"/>
	</g>
	<g>
		<rect x="17.771" y="133.497" fill="#FFFFFF" width="0.604" height="11.561"/>
	</g>
	<g>
		<rect x="-1.062" y="163.887" fill="#FFFFFF" width="7.207" height="0.604"/>
	</g>
	<g>
		<rect x="29.999" y="163.887" fill="#FFFFFF" width="7.205" height="0.604"/>
	</g>
	<g>
		<polygon fill="#FFFFFF" points="18.8,164.491 22.612,164.491 26.249,164.491 26.249,163.887 22.61,163.887 18.8,163.887 
			21.495,161.192 24.067,158.622 23.642,158.196 21.067,160.768 18.374,163.461 18.374,156.907 18.374,151.071 17.771,151.073 
			17.771,156.909 17.771,163.461 15.075,160.766 12.503,158.194 12.077,158.622 14.649,161.194 17.345,163.887 13.532,163.887 
			9.894,163.887 9.896,164.491 13.534,164.491 17.345,164.491 14.649,167.186 12.077,169.76 12.503,170.186 15.077,167.612 
			17.771,164.918 17.771,171.473 17.771,177.309 18.374,177.307 18.374,171.469 18.374,164.918 21.069,167.614 23.642,170.186 
			24.067,169.758 21.495,167.186 		"/>
	</g>
</g>
<g>
	<g>
		<polygon fill="#FFFFFF" points="352.896,360.605 353.5,360.602 353.5,349.041 352.896,349.043 		"/>
	</g>
	<g>
		<rect x="352.896" y="299.216" fill="#FFFFFF" width="0.604" height="11.561"/>
	</g>
	<g>
		<rect x="334.064" y="329.607" fill="#FFFFFF" width="7.207" height="0.604"/>
	</g>
	<g>
		<rect x="365.125" y="329.607" fill="#FFFFFF" width="7.205" height="0.604"/>
	</g>
	<g>
		<polygon fill="#FFFFFF" points="353.926,330.211 357.738,330.211 361.375,330.211 361.375,329.607 357.736,329.607 
			353.926,329.607 356.621,326.912 359.193,324.342 358.768,323.916 356.193,326.488 353.5,329.182 353.5,322.627 353.5,316.791 
			352.896,316.793 352.896,322.629 352.896,329.182 350.201,326.486 347.629,323.914 347.203,324.342 349.775,326.914 
			352.471,329.607 348.658,329.607 345.02,329.607 345.021,330.211 348.66,330.211 352.471,330.211 349.775,332.906 347.203,335.48 
			347.629,335.906 350.203,333.332 352.896,330.639 352.896,337.193 352.896,343.029 353.5,343.027 353.5,337.189 353.5,330.639 
			356.195,333.334 358.768,335.906 359.193,335.479 356.621,332.906 		"/>
	</g>
</g>
<g>
	<path fill="#FFFFFF" d="M146.142,248.98l-1.781-1.152l0.432-0.668l1.781,1.152L146.142,248.98z M142.579,246.675l-1.781-1.152
		l0.432-0.668l1.781,1.152L142.579,246.675z M139.018,244.369l-1.781-1.152l0.432-0.668l1.781,1.152L139.018,244.369z
		 M135.455,242.063l-1.78-1.152l0.432-0.668l1.78,1.152L135.455,242.063z M131.894,239.758l-1.781-1.152l0.432-0.668l1.781,1.152
		L131.894,239.758z M128.331,237.452l-1.78-1.152l0.432-0.668l1.78,1.152L128.331,237.452z M124.77,235.147l-1.781-1.153
		l0.432-0.668l1.781,1.153L124.77,235.147z M121.207,232.842l-1.78-1.153l0.432-0.668l1.78,1.153L121.207,232.842z M117.646,230.536
		l-1.781-1.153l0.432-0.668l1.781,1.153L117.646,230.536z M114.083,228.23l-1.78-1.153l0.432-0.668l1.78,1.153L114.083,228.23z
		 M110.521,225.925l-1.781-1.153l0.432-0.668l1.781,1.153L110.521,225.925z M106.959,223.619l-1.78-1.153l0.432-0.668l1.78,1.153
		L106.959,223.619z M103.397,221.313l-1.781-1.153l0.432-0.668l1.781,1.153L103.397,221.313z M99.836,219.007l-1.781-1.153
		l0.432-0.668l1.781,1.153L99.836,219.007z M96.273,216.702l-1.781-1.153l0.432-0.668l1.781,1.153L96.273,216.702z M92.712,214.396
		l-1.781-1.153l0.432-0.668l1.781,1.153L92.712,214.396z M89.149,212.09l-1.781-1.153l0.432-0.668l1.781,1.153L89.149,212.09z
		 M85.588,209.785l-1.781-1.153l0.432-0.668l1.781,1.153L85.588,209.785z M82.025,207.479l-1.781-1.153l0.432-0.668l1.781,1.153
		L82.025,207.479z M78.464,205.173l-1.781-1.153l0.432-0.668l1.781,1.153L78.464,205.173z M74.901,202.868l-1.78-1.153l0.432-0.668
		l1.78,1.153L74.901,202.868z M71.34,200.562l-1.781-1.152l0.432-0.668l1.781,1.152L71.34,200.562z M67.777,198.257l-1.78-1.153
		l0.432-0.668l1.78,1.153L67.777,198.257z M64.216,195.951l-1.781-1.153l0.432-0.668l1.781,1.153L64.216,195.951z M60.653,193.646
		l-1.78-1.153l0.432-0.668l1.78,1.153L60.653,193.646z M57.092,191.34l-1.781-1.153l0.432-0.668l1.781,1.153L57.092,191.34z
		 M53.529,189.034l-1.78-1.153l0.432-0.668l1.78,1.153L53.529,189.034z M49.968,186.729l-1.781-1.153l0.432-0.668l1.781,1.153
		L49.968,186.729z M46.405,184.423l-1.78-1.153l0.432-0.668l1.78,1.153L46.405,184.423z M42.844,182.117l-1.781-1.153l0.432-0.668
		l1.781,1.153L42.844,182.117z M39.282,179.812l-1.781-1.153l0.432-0.668l1.781,1.153L39.282,179.812z M35.72,177.506l-1.781-1.153
		l0.432-0.668l1.781,1.153L35.72,177.506z M32.158,175.2l-1.781-1.153l0.432-0.668l1.781,1.153L32.158,175.2z M28.596,172.895
		l-1.781-1.153l0.432-0.668l1.781,1.153L28.596,172.895z M25.034,170.589l-1.781-1.153l0.432-0.668l1.781,1.153L25.034,170.589z
		 M21.472,168.283l-1.781-1.153l0.432-0.668l1.781,1.153L21.472,168.283z M17.91,165.978l-1.781-1.153l0.432-0.668l1.781,1.153
		L17.91,165.978z"/>
</g>
<g>
	<path fill="#FFFFFF" d="M135.638,153.058l-1.13-1.198l0.578-0.546l1.13,1.198L135.638,153.058z M133.051,150.317l-1.456-1.543
		l0.578-0.546l1.456,1.543L133.051,150.317z M130.139,147.231l-1.456-1.543l0.578-0.546l1.456,1.543L130.139,147.231z
		 M127.227,144.146l-1.456-1.542l0.578-0.546l1.456,1.542L127.227,144.146z M124.314,141.06l-1.456-1.543l0.578-0.546l1.456,1.543
		L124.314,141.06z M121.402,137.974l-1.456-1.543l0.578-0.546l1.456,1.543L121.402,137.974z M118.49,134.888l-1.456-1.543
		l0.578-0.546l1.456,1.543L118.49,134.888z M115.578,131.802l-1.456-1.543l0.578-0.546l1.456,1.543L115.578,131.802z
		 M112.666,128.716l-1.457-1.543l0.578-0.546l1.457,1.543L112.666,128.716z M109.753,125.63l-1.456-1.543l0.578-0.546l1.456,1.543
		L109.753,125.63z M106.841,122.545l-1.456-1.543l0.578-0.546l1.456,1.543L106.841,122.545z M103.929,119.459l-1.456-1.543
		l0.578-0.546l1.456,1.543L103.929,119.459z M101.017,116.373l-1.456-1.543l0.578-0.546l1.456,1.543L101.017,116.373z
		 M98.104,113.287l-1.456-1.543l0.578-0.546l1.456,1.543L98.104,113.287z M95.192,110.201l-1.456-1.543l0.578-0.546l1.456,1.543
		L95.192,110.201z M92.28,107.115l-1.456-1.543l0.578-0.546l1.456,1.543L92.28,107.115z M89.367,104.029l-1.456-1.542l0.578-0.546
		l1.456,1.542L89.367,104.029z M86.455,100.944l-1.456-1.543l0.578-0.546l1.456,1.543L86.455,100.944z M83.543,97.858l-1.456-1.543
		l0.578-0.546l1.456,1.543L83.543,97.858z M80.631,94.772l-1.456-1.543l0.578-0.546l1.456,1.543L80.631,94.772z M77.719,91.686
		l-1.456-1.543l0.578-0.546l1.456,1.543L77.719,91.686z M74.807,88.6l-1.456-1.543l0.578-0.546l1.456,1.543L74.807,88.6z
		 M71.895,85.514l-1.456-1.543l0.578-0.546l1.456,1.543L71.895,85.514z M68.981,82.428l-1.456-1.542l0.578-0.546l1.456,1.542
		L68.981,82.428z M66.069,79.343L64.613,77.8l0.578-0.546l1.456,1.543L66.069,79.343z M63.157,76.257l-1.456-1.543l0.578-0.546
		l1.456,1.543L63.157,76.257z M60.245,73.171l-1.456-1.543l0.578-0.546l1.456,1.543L60.245,73.171z"/>
</g>
<g>
	<path fill="#FFFFFF" d="M165.006,198.134l-1.146-1.785l0.67-0.43l1.146,1.785L165.006,198.134z M162.714,194.563l-1.146-1.785
		l0.67-0.43l1.146,1.785L162.714,194.563z M160.422,190.993l-1.146-1.785l0.67-0.43l1.146,1.785L160.422,190.993z M158.13,187.422
		l-1.146-1.786l0.67-0.43l1.146,1.786L158.13,187.422z M155.838,183.852l-1.146-1.786l0.67-0.43l1.146,1.786L155.838,183.852z
		 M153.546,180.281l-1.146-1.786l0.67-0.43l1.146,1.786L153.546,180.281z M151.254,176.71l-1.146-1.786l0.67-0.43l1.146,1.786
		L151.254,176.71z M148.962,173.139l-1.146-1.785l0.67-0.43l1.146,1.785L148.962,173.139z M146.67,169.568l-1.146-1.785l0.67-0.43
		l1.146,1.785L146.67,169.568z M144.378,165.998l-1.146-1.785l0.67-0.43l1.146,1.785L144.378,165.998z M142.086,162.427
		l-1.146-1.785l0.67-0.43l1.146,1.785L142.086,162.427z M139.794,158.856l-1.146-1.785l0.67-0.43l1.146,1.785L139.794,158.856z"/>
</g>
<g>
	<path fill="#FFFFFF" d="M165.842,221.417h-0.795v-2.122h0.795V221.417z M165.842,217.174h-0.795v-2.122h0.795V217.174z
		 M165.842,212.931h-0.795v-2.122h0.795V212.931z M165.842,208.688h-0.795v-2.122h0.795V208.688z M165.842,204.445h-0.795v-2.122
		h0.795V204.445z M165.842,200.202h-0.795v-2.122h0.795V200.202z"/>
</g>
<g>
	<path fill="#FFFFFF" d="M165.511,223.919l-0.133-0.784l2.092-0.354l0.133,0.784L165.511,223.919z M169.694,223.21l-0.133-0.784
		l2.092-0.354l0.133,0.784L169.694,223.21z M173.878,222.501l-0.133-0.784l2.092-0.354l0.133,0.784L173.878,222.501z
		 M178.061,221.792l-0.133-0.784l2.092-0.354l0.133,0.784L178.061,221.792z M182.244,221.083l-0.133-0.784l2.092-0.354l0.133,0.784
		L182.244,221.083z M186.428,220.374l-0.133-0.784l2.092-0.354l0.133,0.784L186.428,220.374z M190.611,219.665l-0.133-0.784
		l2.092-0.354l0.133,0.784L190.611,219.665z M194.795,218.956l-0.133-0.784l0.743-0.126l0.133,0.784L194.795,218.956z"/>
</g>
<g>
	<path fill="#FFFFFF" d="M208.325,259.276l-0.118-0.362l0.756-0.246l0.118,0.362L208.325,259.276z M207.552,256.896l-0.655-2.018
		l0.756-0.246l0.655,2.018L207.552,256.896z M206.24,252.861l-0.655-2.018l0.756-0.246l0.655,2.018L206.24,252.861z
		 M204.929,248.825l-0.655-2.018l0.756-0.246l0.655,2.018L204.929,248.825z M203.617,244.79l-0.655-2.018l0.756-0.246l0.655,2.018
		L203.617,244.79z M202.307,240.755l-0.656-2.018l0.756-0.246l0.656,2.018L202.307,240.755z M200.995,236.72l-0.656-2.018
		l0.756-0.246l0.656,2.018L200.995,236.72z M199.684,232.685l-0.655-2.018l0.756-0.246l0.655,2.018L199.684,232.685z
		 M198.372,228.648l-0.655-2.018l0.756-0.246l0.655,2.018L198.372,228.648z M197.061,224.614l-0.655-2.018l0.756-0.246l0.655,2.018
		L197.061,224.614z M195.749,220.578l-0.655-2.018l0.756-0.246l0.655,2.018L195.749,220.578z"/>
</g>
<g>
	<path fill="#FFFFFF" d="M208.703,259.551h-2.121v-0.795h2.121V259.551z M204.46,259.551h-2.121v-0.795h2.121V259.551z
		 M200.217,259.551h-2.121v-0.795h2.121V259.551z M195.974,259.551h-2.121v-0.795h2.121V259.551z M191.73,259.551h-2.121v-0.795
		h2.121V259.551z M187.487,259.551h-2.121v-0.795h2.121V259.551z M183.245,259.551h-2.122v-0.795h2.122V259.551z M179.002,259.551
		h-2.122v-0.795h2.122V259.551z M174.759,259.551h-0.153v-0.795h0.153V259.551z"/>
</g>
<g>
	<path fill="#FFFFFF" d="M174.355,259.485l-1.988-0.741l0.277-0.746l1.988,0.741L174.355,259.485z M170.379,258.004l-1.987-0.741
		l0.277-0.746l1.987,0.741L170.379,258.004z M166.403,256.522l-1.988-0.741l0.277-0.746l1.988,0.741L166.403,256.522z
		 M162.427,255.041l-1.987-0.74l0.277-0.746l1.987,0.74L162.427,255.041z M158.451,253.56l-1.988-0.74l0.277-0.746l1.988,0.74
		L158.451,253.56z M154.475,252.078l-1.987-0.74l0.277-0.746l1.987,0.74L154.475,252.078z M150.499,250.597l-1.988-0.74l0.277-0.746
		l1.988,0.74L150.499,250.597z"/>
</g>
<g>
	<path fill="#FFFFFF" d="M249.57,295.508l-1.645-1.341l0.502-0.617l1.645,1.341L249.57,295.508z M246.281,292.827l-1.645-1.34
		l0.502-0.617l1.645,1.34L246.281,292.827z M242.991,290.147l-1.645-1.34l0.502-0.617l1.645,1.34L242.991,290.147z M239.702,287.467
		l-1.645-1.34l0.502-0.617l1.645,1.34L239.702,287.467z M236.413,284.787l-1.646-1.34l0.502-0.617l1.646,1.34L236.413,284.787z
		 M233.123,282.106l-1.645-1.34l0.502-0.617l1.645,1.34L233.123,282.106z M229.834,279.427l-1.646-1.34l0.502-0.617l1.646,1.34
		L229.834,279.427z M226.544,276.747l-1.645-1.341l0.502-0.617l1.645,1.341L226.544,276.747z M223.255,274.066l-1.645-1.34
		l0.502-0.617l1.645,1.34L223.255,274.066z M219.965,271.387l-1.645-1.341l0.502-0.617l1.645,1.341L219.965,271.387z
		 M216.676,268.706l-1.645-1.34l0.502-0.617l1.645,1.34L216.676,268.706z M213.387,266.026l-1.646-1.341l0.502-0.617l1.646,1.341
		L213.387,266.026z M210.097,263.346l-1.645-1.34l0.502-0.617l1.645,1.34L210.097,263.346z"/>
</g>
<g>
	<path fill="#FFFFFF" d="M352.152,330.751l-2.008-0.688l0.258-0.752l2.008,0.688L352.152,330.751z M348.138,329.375l-2.007-0.688
		l0.258-0.752l2.007,0.688L348.138,329.375z M344.124,327.999l-2.007-0.688l0.258-0.752l2.007,0.688L344.124,327.999z
		 M340.11,326.623l-2.007-0.688l0.258-0.752l2.007,0.688L340.11,326.623z M336.097,325.247l-2.007-0.688l0.258-0.752l2.007,0.688
		L336.097,325.247z M332.083,323.871l-2.007-0.688l0.258-0.752l2.007,0.688L332.083,323.871z M328.069,322.495l-2.007-0.688
		l0.258-0.752l2.007,0.688L328.069,322.495z M324.056,321.119l-2.007-0.688l0.258-0.752l2.007,0.688L324.056,321.119z
		 M320.042,319.743l-2.007-0.688l0.258-0.752l2.007,0.688L320.042,319.743z M316.028,318.367l-2.007-0.688l0.258-0.752l2.007,0.688
		L316.028,318.367z M312.015,316.991l-2.007-0.688l0.258-0.752l2.007,0.688L312.015,316.991z M308,315.615l-2.007-0.688l0.258-0.752
		l2.007,0.688L308,315.615z M303.986,314.239l-2.007-0.688l0.258-0.752l2.007,0.688L303.986,314.239z M299.973,312.863l-2.007-0.688
		l0.258-0.752l2.007,0.688L299.973,312.863z M295.959,311.487l-2.007-0.688l0.258-0.752l2.007,0.688L295.959,311.487z
		 M291.945,310.111l-2.007-0.688l0.258-0.752l2.007,0.688L291.945,310.111z M287.932,308.735l-2.007-0.688l0.258-0.752l2.007,0.688
		L287.932,308.735z M283.918,307.359l-2.007-0.688l0.258-0.752l2.007,0.688L283.918,307.359z M279.904,305.983l-2.007-0.688
		l0.258-0.752l2.007,0.688L279.904,305.983z M275.891,304.607l-2.007-0.688l0.258-0.752l2.007,0.688L275.891,304.607z
		 M271.877,303.231l-2.007-0.688l0.258-0.752l2.007,0.688L271.877,303.231z M267.862,301.855l-2.007-0.688l0.258-0.752l2.007,0.688
		L267.862,301.855z M263.849,300.479l-2.007-0.688l0.258-0.752l2.007,0.688L263.849,300.479z M259.835,299.104l-2.007-0.688
		l0.258-0.752l2.007,0.688L259.835,299.104z M255.821,297.728l-2.007-0.688l0.258-0.752l2.007,0.688L255.821,297.728z
		 M251.808,296.352l-2.007-0.688l0.258-0.752l2.007,0.688L251.808,296.352z"/>
</g>
<g>
	<path fill="#FFFFFF" d="M366.64,358.589l-0.943-1.9l0.713-0.354l0.943,1.9L366.64,358.589z M364.753,354.788l-0.943-1.899
		l0.713-0.354l0.943,1.899L364.753,354.788z M362.865,350.988l-0.943-1.9l0.713-0.354l0.943,1.9L362.865,350.988z M360.979,347.188
		l-0.944-1.9l0.713-0.354l0.944,1.9L360.979,347.188z M359.091,343.388l-0.943-1.9l0.713-0.354l0.943,1.9L359.091,343.388z
		 M357.203,339.588l-0.943-1.9l0.713-0.354l0.943,1.9L357.203,339.588z M355.316,335.787l-0.943-1.9l0.713-0.354l0.943,1.9
		L355.316,335.787z M353.429,331.987l-0.943-1.9l0.713-0.354l0.943,1.9L353.429,331.987z"/>
</g>
</svg>
