<?xml version="1.0" encoding="utf-8"?>
<!-- Generator: Adobe Illustrator 16.0.3, SVG Export Plug-In . SVG Version: 6.00 Build 0)  -->
<!DOCTYPE svg PUBLIC "-//W3C//DTD SVG 1.1//EN" "http://www.w3.org/Graphics/SVG/1.1/DTD/svg11.dtd">
<svg version="1.1" id="Capa_1" xmlns="http://www.w3.org/2000/svg" xmlns:xlink="http://www.w3.org/1999/xlink" x="0px" y="0px"
	 width="373.33px" height="373.33px" viewBox="0 0 373.33 373.33" enable-background="new 0 0 373.33 373.33" xml:space="preserve">
<g>
	<g>
		<path fill="#FFFFFF" d="M336.984,34.044c-2.309,0.965-4.967-0.131-5.93-2.443c-0.959-2.313,0.137-4.965,2.447-5.928
			c2.314-0.961,4.969,0.135,5.928,2.443C340.395,30.429,339.303,33.085,336.984,34.044"/>
	</g>
</g>
<g>
	<g>
		<path fill="#FFFFFF" d="M341.581,169.05c-2.313-0.957-3.416-3.605-2.463-5.922c0.957-2.311,3.604-3.416,5.916-2.461
			c2.318,0.957,3.422,3.605,2.469,5.92C346.544,168.899,343.899,170.007,341.581,169.05"/>
	</g>
</g>
<g>
	<path fill="#FFFFFF" d="M344.563,122.602c-2.314-0.957-4.963,0.148-5.916,2.465c-0.953,2.311,0.146,4.963,2.459,5.918
		c2.316,0.955,4.967-0.148,5.924-2.465C347.979,126.201,346.878,123.557,344.563,122.602z"/>
</g>
<g>
	<path fill="#FFFFFF" d="M72.432,219.115c-0.953-2.316-3.602-3.422-5.914-2.465c-2.316,0.955-3.42,3.6-2.467,5.918
		c0.957,2.316,3.607,3.42,5.922,2.465C72.285,224.078,73.387,221.426,72.432,219.115z"/>
</g>
<g>
	<path fill="#FFFFFF" d="M24.824,279.165c-0.953-2.316-3.602-3.422-5.914-2.465c-2.316,0.955-3.42,3.6-2.467,5.918
		c0.957,2.316,3.607,3.42,5.922,2.465C24.678,284.128,25.779,281.476,24.824,279.165z"/>
</g>
<g>
	<path fill="#FFFFFF" d="M65.846,299.925c-0.953-2.316-3.602-3.422-5.914-2.465c-2.316,0.955-3.42,3.6-2.467,5.918
		c0.957,2.316,3.607,3.42,5.922,2.465C65.699,304.888,66.801,302.235,65.846,299.925z"/>
</g>
<g>
	<path fill="#FFFFFF" d="M180.332,242.765c-0.953-2.316-3.602-3.422-5.914-2.465c-2.316,0.955-3.42,3.6-2.467,5.918
		c0.957,2.316,3.607,3.42,5.922,2.465C180.186,247.728,181.287,245.075,180.332,242.765z"/>
</g>
<g>
	<path fill="#FFFFFF" d="M171.229,288.272c-0.953-2.316-3.602-3.422-5.914-2.465c-2.316,0.955-3.42,3.6-2.467,5.918
		c0.957,2.316,3.607,3.42,5.922,2.465C171.082,293.235,172.184,290.583,171.229,288.272z"/>
</g>
<g>
	<path fill="#FFFFFF" d="M227.684,134.936c-0.953-2.316-3.602-3.422-5.914-2.465c-2.316,0.955-3.42,3.6-2.467,5.918
		c0.957,2.316,3.607,3.42,5.922,2.465C227.537,139.898,228.639,137.246,227.684,134.936z"/>
</g>
<g>
	<path fill="#FFFFFF" d="M280.143,94.228c-0.953-2.316-3.602-3.422-5.914-2.465c-2.316,0.955-3.42,3.6-2.467,5.918
		c0.957,2.316,3.607,3.42,5.922,2.465C279.996,99.19,281.098,96.538,280.143,94.228z"/>
</g>
<g>
	<g>
		<polygon fill="#FFFFFF" points="342.84,126.166 343.787,126.162 343.787,108.025 342.84,108.029 		"/>
	</g>
	<g>
		<polygon fill="#FFFFFF" points="343.787,29.859 342.84,29.863 342.84,47.998 343.787,47.996 		"/>
	</g>
	<g>
		<rect x="313.298" y="77.539" fill="#FFFFFF" width="11.305" height="0.947"/>
	</g>
	<g>
		<rect x="362.024" y="77.539" fill="#FFFFFF" width="11.305" height="0.947"/>
	</g>
	<g>
		<polygon fill="#FFFFFF" points="344.455,78.486 350.436,78.486 356.143,78.486 356.143,77.539 350.434,77.539 344.455,77.539 
			348.684,73.311 352.721,69.275 352.051,68.607 348.014,72.645 343.787,76.871 343.787,66.586 343.787,57.432 342.84,57.434 
			342.84,66.592 342.84,76.871 338.611,72.643 334.576,68.605 333.908,69.275 337.945,73.313 342.172,77.539 336.191,77.539 
			330.484,77.539 330.484,78.486 336.193,78.486 342.172,78.486 337.943,82.715 333.908,86.75 334.578,87.418 338.613,83.381 
			342.84,79.154 342.84,89.438 342.84,98.594 343.787,98.592 343.787,89.434 343.787,79.154 348.016,83.383 352.051,87.418 
			352.719,86.75 348.682,82.713 		"/>
	</g>
</g>
<g>
	<g>
		<polygon fill="#FFFFFF" points="30.543,294.118 31.49,294.114 31.49,275.978 30.543,275.981 		"/>
	</g>
	<g>
		<polygon fill="#FFFFFF" points="31.49,197.812 30.543,197.815 30.543,215.95 31.49,215.948 		"/>
	</g>
	<g>
		<rect x="1.001" y="245.491" fill="#FFFFFF" width="11.305" height="0.947"/>
	</g>
	<g>
		<rect x="49.728" y="245.491" fill="#FFFFFF" width="11.305" height="0.947"/>
	</g>
	<g>
		<polygon fill="#FFFFFF" points="32.158,246.438 38.139,246.438 43.846,246.438 43.846,245.491 38.137,245.491 32.158,245.491 
			36.387,241.263 40.424,237.228 39.754,236.56 35.717,240.597 31.49,244.823 31.49,234.538 31.49,225.384 30.543,225.386 
			30.543,234.544 30.543,244.823 26.314,240.595 22.279,236.558 21.611,237.228 25.648,241.265 29.875,245.491 23.895,245.491 
			18.188,245.491 18.188,246.438 23.896,246.438 29.875,246.438 25.646,250.667 21.611,254.702 22.281,255.37 26.316,251.333 
			30.543,247.106 30.543,257.39 30.543,266.546 31.49,266.544 31.49,257.386 31.49,247.106 35.719,251.335 39.754,255.37 
			40.422,254.702 36.385,250.665 		"/>
	</g>
</g>
<g>
	<g>
		<polygon fill="#FFFFFF" points="244.602,143.368 245.205,143.364 245.205,131.804 244.602,131.806 		"/>
	</g>
	<g>
		<rect x="244.602" y="81.979" fill="#FFFFFF" width="0.604" height="11.561"/>
	</g>
	<g>
		<rect x="225.77" y="112.37" fill="#FFFFFF" width="7.207" height="0.604"/>
	</g>
	<g>
		<rect x="256.83" y="112.37" fill="#FFFFFF" width="7.205" height="0.604"/>
	</g>
	<g>
		<polygon fill="#FFFFFF" points="245.631,112.974 249.443,112.974 253.08,112.974 253.08,112.37 249.441,112.37 245.631,112.37 
			248.326,109.675 250.898,107.104 250.473,106.679 247.898,109.251 245.205,111.944 245.205,105.39 245.205,99.554 244.602,99.556 
			244.602,105.392 244.602,111.944 241.906,109.249 239.334,106.677 238.908,107.104 241.48,109.677 244.176,112.37 240.363,112.37 
			236.725,112.37 236.727,112.974 240.365,112.974 244.176,112.974 241.48,115.669 238.908,118.243 239.334,118.669 
			241.908,116.095 244.602,113.401 244.602,119.956 244.602,125.792 245.205,125.79 245.205,119.952 245.205,113.401 247.9,116.097 
			250.473,118.669 250.898,118.241 248.326,115.669 		"/>
	</g>
</g>
<g>
	<g>
		<polygon fill="#FFFFFF" points="179.911,225.445 180.515,225.441 180.515,213.881 179.911,213.883 		"/>
	</g>
	<g>
		<rect x="179.911" y="164.056" fill="#FFFFFF" width="0.604" height="11.561"/>
	</g>
	<g>
		<rect x="161.079" y="194.447" fill="#FFFFFF" width="7.207" height="0.604"/>
	</g>
	<g>
		<rect x="192.14" y="194.447" fill="#FFFFFF" width="7.205" height="0.604"/>
	</g>
	<g>
		<polygon fill="#FFFFFF" points="180.94,195.051 184.753,195.051 188.39,195.051 188.39,194.447 184.751,194.447 180.94,194.447 
			183.636,191.752 186.208,189.182 185.782,188.756 183.208,191.328 180.515,194.021 180.515,187.467 180.515,181.631 
			179.911,181.633 179.911,187.469 179.911,194.021 177.216,191.326 174.644,188.754 174.218,189.182 176.79,191.754 
			179.485,194.447 175.673,194.447 172.034,194.447 172.036,195.051 175.675,195.051 179.485,195.051 176.79,197.746 
			174.218,200.32 174.644,200.746 177.218,198.172 179.911,195.479 179.911,202.033 179.911,207.869 180.515,207.867 
			180.515,202.029 180.515,195.479 183.21,198.174 185.782,200.746 186.208,200.318 183.636,197.746 		"/>
	</g>
</g>
<g>
	<g>
		<polygon fill="#FFFFFF" points="118.712,331.193 119.315,331.189 119.315,319.629 118.712,319.631 		"/>
	</g>
	<g>
		<rect x="118.712" y="269.804" fill="#FFFFFF" width="0.604" height="11.561"/>
	</g>
	<g>
		<rect x="99.88" y="300.195" fill="#FFFFFF" width="7.207" height="0.604"/>
	</g>
	<g>
		<rect x="130.94" y="300.195" fill="#FFFFFF" width="7.205" height="0.604"/>
	</g>
	<g>
		<polygon fill="#FFFFFF" points="119.741,300.799 123.554,300.799 127.19,300.799 127.19,300.195 123.552,300.195 119.741,300.195 
			122.437,297.5 125.009,294.93 124.583,294.504 122.009,297.076 119.315,299.77 119.315,293.215 119.315,287.379 118.712,287.381 
			118.712,293.217 118.712,299.77 116.017,297.074 113.444,294.502 113.019,294.93 115.591,297.502 118.286,300.195 
			114.474,300.195 110.835,300.195 110.837,300.799 114.476,300.799 118.286,300.799 115.591,303.494 113.019,306.068 
			113.444,306.494 116.019,303.92 118.712,301.227 118.712,307.781 118.712,313.617 119.315,313.615 119.315,307.777 
			119.315,301.227 122.011,303.922 124.583,306.494 125.009,306.066 122.437,303.494 		"/>
	</g>
</g>
<g>
	<path fill="#FFFFFF" d="M342.465,78.287l-0.242-1.602l0.602-0.092l0.242,1.602L342.465,78.287z M341.979,75.082l-0.242-1.603
		l0.602-0.09l0.242,1.603L341.979,75.082z M341.494,71.878l-0.242-1.603l0.602-0.09l0.242,1.603L341.494,71.878z M341.009,68.674
		l-0.242-1.602l0.602-0.092l0.242,1.602L341.009,68.674z M340.523,65.469l-0.242-1.603l0.602-0.09l0.242,1.603L340.523,65.469z
		 M340.038,62.265l-0.242-1.603l0.602-0.09l0.242,1.603L340.038,62.265z M339.553,59.061l-0.242-1.603l0.602-0.09l0.242,1.603
		L339.553,59.061z M339.067,55.856l-0.242-1.602l0.602-0.092l0.242,1.602L339.067,55.856z M338.582,52.651l-0.242-1.603l0.602-0.09
		l0.242,1.603L338.582,52.651z M338.097,49.447l-0.242-1.603l0.602-0.09l0.242,1.603L338.097,49.447z M337.611,46.243l-0.242-1.602
		l0.602-0.092l0.242,1.602L337.611,46.243z M337.126,43.038l-0.242-1.603l0.602-0.09l0.242,1.603L337.126,43.038z M336.641,39.834
		l-0.242-1.603l0.602-0.09l0.242,1.603L336.641,39.834z M336.155,36.63l-0.242-1.602l0.602-0.092l0.242,1.602L336.155,36.63z
		 M335.67,33.425l-0.242-1.603l0.602-0.09l0.242,1.603L335.67,33.425z M335.185,30.221l-0.242-1.603l0.602-0.09l0.242,1.603
		L335.185,30.221z"/>
</g>
<g>
	<path fill="#FFFFFF" d="M343.144,124.833h-0.607v-0.731h0.607V124.833z M343.144,122.481h-0.607v-1.62h0.607V122.481z
		 M343.144,119.24h-0.607v-1.62h0.607V119.24z M343.144,116h-0.607v-1.621h0.607V116z M343.144,112.759h-0.607v-1.621h0.607V112.759
		z M343.144,109.518h-0.607v-1.62h0.607V109.518z M343.144,106.276h-0.607v-1.62h0.607V106.276z M343.144,103.036h-0.607v-1.621
		h0.607V103.036z M343.144,99.795h-0.607v-1.621h0.607V99.795z M343.144,96.554h-0.607v-1.62h0.607V96.554z M343.144,93.313h-0.607
		v-1.62h0.607V93.313z M343.144,90.072h-0.607v-1.621h0.607V90.072z M343.144,86.831h-0.607V85.21h0.607V86.831z M343.144,83.59
		h-0.607v-1.62h0.607V83.59z M343.144,80.349h-0.607v-1.62h0.607V80.349z"/>
</g>
<g>
	<path fill="#FFFFFF" d="M343.144,164.858h-0.607v-1.134h0.607V164.858z M343.144,162.104h-0.607v-1.621h0.607V162.104z
		 M343.144,158.863h-0.607v-1.621h0.607V158.863z M343.144,155.622h-0.607v-1.62h0.607V155.622z M343.144,152.381h-0.607v-1.62
		h0.607V152.381z M343.144,149.141h-0.607v-1.621h0.607V149.141z M343.144,145.899h-0.607v-1.621h0.607V145.899z M343.144,142.658
		h-0.607v-1.62h0.607V142.658z M343.144,139.417h-0.607v-1.62h0.607V139.417z M343.144,136.177h-0.607v-1.621h0.607V136.177z
		 M343.144,132.936h-0.607v-1.621h0.607V132.936z M343.144,129.694h-0.607v-1.62h0.607V129.694z M343.144,126.453h-0.607v-1.62
		h0.607V126.453z"/>
</g>
<g>
	<path fill="#FFFFFF" d="M275.375,96.16l-0.15-0.59l1.57-0.398l0.15,0.59L275.375,96.16z M278.515,95.363l-0.148-0.59l1.571-0.398
		l0.148,0.59L278.515,95.363z M281.656,94.566l-0.148-0.59l1.571-0.398l0.148,0.59L281.656,94.566z M284.799,93.769l-0.15-0.59
		l1.57-0.398l0.15,0.59L284.799,93.769z M287.94,92.972l-0.15-0.59l1.57-0.398l0.15,0.59L287.94,92.972z M291.082,92.175l-0.15-0.59
		l1.57-0.398l0.15,0.59L291.082,92.175z M294.222,91.378l-0.148-0.59l1.571-0.398l0.148,0.59L294.222,91.378z M297.363,90.581
		l-0.148-0.59l1.571-0.398l0.148,0.59L297.363,90.581z M300.506,89.784l-0.15-0.59l1.57-0.399l0.15,0.59L300.506,89.784z
		 M303.647,88.986l-0.15-0.59l1.57-0.398l0.15,0.59L303.647,88.986z M306.789,88.189l-0.15-0.59l1.57-0.398l0.15,0.59
		L306.789,88.189z M309.929,87.393l-0.148-0.59l1.571-0.398l0.148,0.59L309.929,87.393z M313.07,86.596l-0.148-0.59l1.571-0.398
		l0.148,0.59L313.07,86.596z M316.213,85.799l-0.15-0.59l1.57-0.398l0.15,0.59L316.213,85.799z M319.354,85.001l-0.15-0.59
		l1.57-0.398l0.15,0.59L319.354,85.001z M322.496,84.204l-0.15-0.59l1.57-0.398l0.15,0.59L322.496,84.204z M325.638,83.407
		l-0.15-0.59l1.57-0.398l0.15,0.59L325.638,83.407z M328.777,82.61l-0.148-0.59l1.571-0.398l0.148,0.59L328.777,82.61z
		 M331.919,81.813l-0.148-0.59l1.571-0.398l0.148,0.59L331.919,81.813z M335.062,81.016l-0.15-0.59l1.57-0.398l0.15,0.59
		L335.062,81.016z M338.203,80.219l-0.15-0.59l1.57-0.398l0.15,0.59L338.203,80.219z M341.345,79.422l-0.15-0.59l1.57-0.398
		l0.15,0.59L341.345,79.422z"/>
</g>
<g>
	<path fill="#FFFFFF" d="M245.056,112.211l-0.285-0.537l1.431-0.762l0.285,0.537L245.056,112.211z M247.917,110.688l-0.285-0.537
		l1.431-0.762l0.285,0.537L247.917,110.688z M250.777,109.165l-0.285-0.537l1.431-0.761l0.285,0.537L250.777,109.165z
		 M253.639,107.643l-0.285-0.537l1.431-0.762l0.285,0.537L253.639,107.643z M256.5,106.12l-0.285-0.537l1.43-0.762l0.285,0.537
		L256.5,106.12z M259.36,104.597l-0.285-0.537l1.431-0.761l0.285,0.537L259.36,104.597z M262.222,103.074l-0.285-0.537l1.431-0.762
		l0.285,0.537L262.222,103.074z M265.082,101.552l-0.285-0.537l1.431-0.762l0.285,0.537L265.082,101.552z M267.943,100.028
		l-0.285-0.537l1.431-0.761l0.285,0.537L267.943,100.028z M270.805,98.506l-0.285-0.537l1.43-0.762l0.285,0.537L270.805,98.506z
		 M273.665,96.983l-0.285-0.537l1.431-0.762l0.285,0.537L273.665,96.983z"/>
</g>
<g>
	<path fill="#FFFFFF" d="M223.029,135.637l-0.449-0.41l1.092-1.197l0.449,0.41L223.029,135.637z M225.212,133.241l-0.449-0.41
		l1.092-1.197l0.449,0.41L225.212,133.241z M227.395,130.846l-0.449-0.41l1.092-1.198l0.449,0.41L227.395,130.846z M229.578,128.449
		l-0.449-0.408l1.091-1.198l0.449,0.408L229.578,128.449z M231.761,126.054l-0.449-0.408l1.091-1.198l0.449,0.408L231.761,126.054z
		 M233.943,123.658l-0.449-0.41l1.091-1.197l0.449,0.41L233.943,123.658z M236.126,121.263l-0.449-0.41l1.092-1.197l0.449,0.41
		L236.126,121.263z M238.309,118.867l-0.449-0.41l1.092-1.198l0.449,0.41L238.309,118.867z M240.491,116.472l-0.449-0.41
		l1.092-1.198l0.449,0.41L240.491,116.472z M242.674,114.076l-0.449-0.41l1.092-1.198l0.449,0.41L242.674,114.076z"/>
</g>
<g>
	<path fill="#FFFFFF" d="M180.489,194.885l-0.494-0.354l0.945-1.316l0.494,0.354L180.489,194.885z M182.38,192.252l-0.494-0.354
		l0.944-1.316l0.494,0.354L182.38,192.252z M184.27,189.619l-0.494-0.354l0.945-1.316l0.494,0.354L184.27,189.619z M186.16,186.986
		l-0.494-0.354l0.944-1.316l0.494,0.354L186.16,186.986z M188.05,184.354L187.556,184l0.945-1.316l0.494,0.354L188.05,184.354z
		 M189.94,181.721l-0.494-0.354l0.944-1.316l0.494,0.354L189.94,181.721z M191.83,179.088l-0.494-0.354l0.945-1.316l0.494,0.354
		L191.83,179.088z M193.72,176.455l-0.494-0.354l0.945-1.316l0.494,0.354L193.72,176.455z M195.61,173.822l-0.494-0.354l0.945-1.316
		l0.494,0.354L195.61,173.822z M197.5,171.189l-0.494-0.354l0.945-1.316l0.494,0.354L197.5,171.189z M199.391,168.557l-0.494-0.354
		l0.945-1.316l0.494,0.354L199.391,168.557z M201.28,165.924l-0.494-0.354l0.945-1.316l0.494,0.354L201.28,165.924z
		 M203.171,163.291l-0.494-0.354l0.944-1.316l0.494,0.354L203.171,163.291z M205.061,160.658l-0.494-0.354l0.945-1.316l0.494,0.354
		L205.061,160.658z M206.951,158.025l-0.494-0.354l0.944-1.316l0.494,0.354L206.951,158.025z M208.841,155.394l-0.494-0.354
		l0.945-1.316l0.494,0.354L208.841,155.394z M210.731,152.761l-0.494-0.354l0.944-1.316l0.494,0.354L210.731,152.761z
		 M212.621,150.128l-0.494-0.354l0.945-1.316l0.494,0.354L212.621,150.128z M214.511,147.495l-0.494-0.354l0.945-1.316l0.494,0.354
		L214.511,147.495z M216.401,144.862l-0.494-0.354l0.945-1.316l0.494,0.354L216.401,144.862z M218.291,142.229l-0.494-0.354
		l0.945-1.316l0.494,0.354L218.291,142.229z M220.182,139.597l-0.494-0.354l0.945-1.316l0.494,0.354L220.182,139.597z
		 M222.071,136.964l-0.494-0.354l0.945-1.316l0.494,0.354L222.071,136.964z"/>
</g>
<g>
	<path fill="#FFFFFF" d="M175.445,246.962l-0.605-0.059l0.056-0.57l0.605,0.059L175.445,246.962z M175.657,244.778l-0.605-0.059
		l0.157-1.612l0.605,0.059L175.657,244.778z M175.971,241.553l-0.605-0.059l0.157-1.612l0.605,0.059L175.971,241.553z
		 M176.284,238.327l-0.605-0.059l0.156-1.612l0.605,0.059L176.284,238.327z M176.598,235.102l-0.605-0.059l0.156-1.613l0.605,0.059
		L176.598,235.102z M176.911,231.876l-0.605-0.059l0.156-1.613l0.605,0.059L176.911,231.876z M177.225,228.65l-0.605-0.059
		l0.156-1.613l0.605,0.059L177.225,228.65z M177.538,225.424l-0.605-0.059l0.156-1.612l0.605,0.059L177.538,225.424z
		 M177.851,222.198l-0.605-0.059l0.157-1.612l0.605,0.059L177.851,222.198z M178.164,218.973l-0.605-0.059l0.157-1.613l0.605,0.059
		L178.164,218.973z M178.478,215.747l-0.605-0.059l0.157-1.613l0.605,0.059L178.478,215.747z M178.791,212.521l-0.605-0.059
		l0.157-1.613l0.605,0.059L178.791,212.521z M179.104,209.295l-0.605-0.059l0.156-1.612l0.605,0.059L179.104,209.295z
		 M179.418,206.069l-0.605-0.059l0.156-1.612l0.605,0.059L179.418,206.069z M179.731,202.844l-0.605-0.059l0.156-1.613l0.605,0.059
		L179.731,202.844z M180.045,199.618l-0.605-0.059l0.156-1.613l0.605,0.059L180.045,199.618z M180.358,196.393l-0.605-0.059
		l0.156-1.613l0.605,0.059L180.358,196.393z"/>
</g>
<g>
	<path fill="#FFFFFF" d="M167.35,289.987l-0.598-0.113l0.3-1.593l0.598,0.113L167.35,289.987z M167.949,286.803l-0.598-0.113
		l0.3-1.593l0.598,0.113L167.949,286.803z M168.549,283.616l-0.598-0.111l0.299-1.593l0.598,0.111L168.549,283.616z
		 M169.147,280.433l-0.598-0.113l0.3-1.593l0.598,0.113L169.147,280.433z M169.747,277.247l-0.598-0.113l0.3-1.593l0.598,0.113
		L169.747,277.247z M170.347,274.063l-0.598-0.113l0.3-1.593l0.598,0.113L170.347,274.063z M170.946,270.877l-0.598-0.113l0.3-1.593
		l0.598,0.113L170.946,270.877z M171.545,267.692l-0.598-0.113l0.3-1.593l0.598,0.113L171.545,267.692z M172.145,264.507
		l-0.598-0.113l0.3-1.593l0.598,0.113L172.145,264.507z M172.744,261.322l-0.598-0.113l0.3-1.593l0.598,0.113L172.744,261.322z
		 M173.344,258.137l-0.598-0.113l0.3-1.593l0.598,0.113L173.344,258.137z M173.943,254.951l-0.598-0.111l0.299-1.593l0.598,0.111
		L173.943,254.951z M174.542,251.767l-0.598-0.113l0.3-1.593l0.598,0.113L174.542,251.767z M175.142,248.582l-0.598-0.113l0.3-1.593
		l0.598,0.113L175.142,248.582z"/>
</g>
<g>
	<path fill="#FFFFFF" d="M118.175,301.662l-0.137-0.592l1.578-0.366l0.137,0.592L118.175,301.662z M121.332,300.929l-0.137-0.592
		l1.578-0.366l0.137,0.592L121.332,300.929z M124.488,300.195l-0.137-0.592l1.579-0.366l0.137,0.592L124.488,300.195z
		 M127.646,299.462l-0.137-0.592l1.578-0.366l0.137,0.592L127.646,299.462z M130.804,298.729l-0.139-0.592l1.578-0.367l0.139,0.592
		L130.804,298.729z M133.959,297.995l-0.137-0.592l1.579-0.367l0.137,0.592L133.959,297.995z M137.117,297.262l-0.139-0.592
		l1.578-0.367l0.139,0.592L137.117,297.262z M140.274,296.528l-0.139-0.592l1.578-0.367l0.139,0.592L140.274,296.528z
		 M143.431,295.795l-0.139-0.592l1.578-0.367l0.139,0.592L143.431,295.795z M146.588,295.062l-0.139-0.592l1.578-0.367l0.139,0.592
		L146.588,295.062z M149.743,294.328l-0.137-0.592l1.579-0.367l0.137,0.592L149.743,294.328z M152.901,293.595l-0.139-0.592
		l1.578-0.367l0.139,0.592L152.901,293.595z M156.059,292.861l-0.139-0.592l1.578-0.367l0.139,0.592L156.059,292.861z
		 M159.214,292.128l-0.137-0.592l1.579-0.367l0.137,0.592L159.214,292.128z M162.372,291.395l-0.139-0.592l1.578-0.367l0.139,0.592
		L162.372,291.395z M165.529,290.661l-0.139-0.592l1.578-0.367l0.139,0.592L165.529,290.661z"/>
</g>
<g>
	<path fill="#FFFFFF" d="M116.88,301.955h-1.62v-0.607h1.62V301.955z M113.639,301.955h-1.62v-0.607h1.62V301.955z M110.398,301.955
		h-1.621v-0.607h1.621V301.955z M107.157,301.955h-1.621v-0.607h1.621V301.955z M103.916,301.955h-1.62v-0.607h1.62V301.955z
		 M100.675,301.955h-1.62v-0.607h1.62V301.955z M97.435,301.955h-1.621v-0.607h1.621V301.955z M94.193,301.955h-1.621v-0.607h1.621
		V301.955z M90.952,301.955h-1.62v-0.607h1.62V301.955z M87.711,301.955h-1.62v-0.607h1.62V301.955z M84.471,301.955H82.85v-0.607
		h1.621V301.955z M81.229,301.955h-1.621v-0.607h1.621V301.955z M77.988,301.955h-1.62v-0.607h1.62V301.955z M74.747,301.955h-1.62
		v-0.607h1.62V301.955z M71.507,301.955h-1.621v-0.607h1.621V301.955z M68.266,301.955h-1.621v-0.607h1.621V301.955z
		 M65.024,301.955h-1.62v-0.607h1.62V301.955z"/>
</g>
<g>
	<path fill="#FFFFFF" d="M61.521,301.924l-1.453-0.718l0.27-0.545l1.453,0.718L61.521,301.924z M58.615,300.489l-1.453-0.718
		l0.27-0.545l1.453,0.718L58.615,300.489z M55.709,299.055l-1.453-0.718l0.27-0.545l1.453,0.718L55.709,299.055z M52.804,297.619
		l-1.453-0.717l0.27-0.545l1.453,0.717L52.804,297.619z M49.897,296.185l-1.453-0.718l0.27-0.545l1.453,0.718L49.897,296.185z
		 M46.991,294.75l-1.453-0.718l0.27-0.545l1.453,0.718L46.991,294.75z M44.085,293.315l-1.453-0.718l0.27-0.545l1.453,0.718
		L44.085,293.315z M41.179,291.88l-1.453-0.717l0.27-0.545l1.453,0.717L41.179,291.88z M38.273,290.445l-1.453-0.718l0.27-0.545
		l1.453,0.718L38.273,290.445z M35.367,289.011l-1.453-0.718l0.27-0.545l1.453,0.718L35.367,289.011z M32.461,287.576l-1.453-0.718
		l0.27-0.545l1.453,0.718L32.461,287.576z M29.555,286.141l-1.453-0.717l0.27-0.545l1.453,0.717L29.555,286.141z M26.648,284.706
		l-1.453-0.717l0.27-0.545l1.453,0.717L26.648,284.706z M23.743,283.271l-1.453-0.718l0.27-0.545l1.453,0.718L23.743,283.271z"/>
</g>
<g>
	<path fill="#FFFFFF" d="M21.923,281.987l-0.576-0.191l0.513-1.537l0.576,0.191L21.923,281.987z M22.948,278.913l-0.576-0.191
		l0.512-1.538l0.576,0.191L22.948,278.913z M23.973,275.838l-0.576-0.191l0.513-1.537l0.576,0.191L23.973,275.838z M24.998,272.764
		l-0.576-0.191l0.512-1.537l0.576,0.191L24.998,272.764z M26.022,269.688l-0.576-0.191l0.513-1.537l0.576,0.191L26.022,269.688z
		 M27.048,266.614l-0.576-0.191l0.512-1.537l0.576,0.191L27.048,266.614z M28.072,263.539l-0.576-0.191l0.513-1.537l0.576,0.191
		L28.072,263.539z M29.098,260.465l-0.576-0.191l0.512-1.537l0.576,0.191L29.098,260.465z M30.122,257.391l-0.576-0.191l0.513-1.538
		l0.576,0.191L30.122,257.391z M31.147,254.315l-0.576-0.191l0.512-1.537l0.576,0.191L31.147,254.315z M32.172,251.241l-0.576-0.191
		l0.513-1.537l0.576,0.191L32.172,251.241z M33.197,248.166l-0.576-0.191L33,246.837l0.576,0.191L33.197,248.166z"/>
</g>
<g>
	<path fill="#FFFFFF" d="M33.47,247.176l-0.363-0.486l1.299-0.97l0.363,0.486L33.47,247.176z M36.066,245.237l-0.363-0.486
		l1.299-0.97l0.363,0.486L36.066,245.237z M38.664,243.299l-0.363-0.486l1.299-0.97l0.363,0.486L38.664,243.299z M41.261,241.359
		l-0.363-0.486l1.299-0.969l0.363,0.486L41.261,241.359z M43.858,239.421l-0.363-0.486l1.299-0.97l0.363,0.486L43.858,239.421z
		 M46.455,237.482l-0.363-0.486l1.299-0.97l0.363,0.486L46.455,237.482z M49.053,235.544l-0.363-0.486l1.299-0.97l0.363,0.486
		L49.053,235.544z M51.649,233.604l-0.363-0.486l1.299-0.969l0.363,0.486L51.649,233.604z M54.247,231.666l-0.363-0.486l1.299-0.97
		l0.363,0.486L54.247,231.666z M56.844,229.728l-0.363-0.486l1.299-0.97l0.363,0.486L56.844,229.728z M59.441,227.789l-0.363-0.486
		l1.299-0.97l0.363,0.486L59.441,227.789z M62.038,225.85l-0.363-0.486l1.299-0.969l0.363,0.486L62.038,225.85z M64.636,223.911
		l-0.363-0.486l1.299-0.97l0.363,0.486L64.636,223.911z M67.232,221.973l-0.363-0.486l1.19-0.889l0.363,0.486L67.232,221.973z"/>
</g>
</svg>
