<?xml version="1.0" encoding="utf-8"?>
<!-- Generator: Adobe Illustrator 16.0.3, SVG Export Plug-In . SVG Version: 6.00 Build 0)  -->
<!DOCTYPE svg PUBLIC "-//W3C//DTD SVG 1.1//EN" "http://www.w3.org/Graphics/SVG/1.1/DTD/svg11.dtd">
<svg version="1.1" id="Capa_1" xmlns="http://www.w3.org/2000/svg" xmlns:xlink="http://www.w3.org/1999/xlink" x="0px" y="0px"
	 width="365.972px" height="322.502px" viewBox="0 0 365.972 322.502" enable-background="new 0 0 365.972 322.502"
	 xml:space="preserve">
<g>
	<path d="M242.512,300.56c-1.479,0-2.682,1.203-2.682,2.683c0,1.485,1.203,2.693,2.682,2.693c1.483,0,2.69-1.208,2.69-2.693
		C245.202,301.763,243.995,300.56,242.512,300.56z"/>
	<path d="M261.717,300.56c-0.908,0-1.646,0.738-1.646,1.646c0,0.905,0.738,1.643,1.646,1.643c0.91,0,1.65-0.737,1.65-1.643
		C263.367,301.298,262.627,300.56,261.717,300.56z"/>
	<path d="M262.156,287.913c-1.53,0-2.774,1.246-2.774,2.778c0,1.529,1.244,2.773,2.774,2.773c1.531,0,2.777-1.244,2.777-2.773
		C264.934,289.159,263.688,287.913,262.156,287.913z"/>
	<path d="M290.461,295.036c1.533,0,2.781-1.25,2.781-2.786c0-1.531-1.248-2.777-2.781-2.777c-1.532,0-2.778,1.246-2.778,2.777
		C287.683,293.786,288.929,295.036,290.461,295.036z"/>
	<path d="M303.803,280.33c1.645,0,2.982-1.338,2.982-2.981c0-1.645-1.338-2.982-2.982-2.982c-1.644,0-2.981,1.338-2.981,2.982
		C300.821,278.992,302.159,280.33,303.803,280.33z"/>
	<path d="M306.035,282.251c0,0.858,0.697,1.558,1.555,1.558c0.861,0,1.563-0.699,1.563-1.558c0-0.857-0.701-1.555-1.563-1.555
		C306.732,280.696,306.035,281.394,306.035,282.251z"/>
	<path d="M297.657,311.829c1.111,0,2.015-0.911,2.015-2.03c0-1.11-0.903-2.014-2.015-2.014c-1.117,0-2.026,0.903-2.026,2.014
		C295.631,310.918,296.54,311.829,297.657,311.829z"/>
	<circle cx="297.726" cy="298.888" r="2.022"/>
	<path d="M291.768,285.656c0.813,0,1.475-0.661,1.475-1.475c0-0.817-0.661-1.482-1.475-1.482s-1.475,0.665-1.475,1.482
		C290.293,284.995,290.954,285.656,291.768,285.656z"/>
	<path d="M242.956,272.812c-1.403,0-2.546,1.142-2.546,2.546c0,1.401,1.143,2.542,2.546,2.542c1.406,0,2.55-1.141,2.55-2.542
		C245.506,273.953,244.362,272.812,242.956,272.812z"/>
	<path d="M257.446,250.205c-1.406,0-2.55,1.144-2.55,2.55c0,1.403,1.144,2.546,2.55,2.546c1.403,0,2.546-1.143,2.546-2.546
		C259.992,251.349,258.85,250.205,257.446,250.205z"/>
	<path d="M277.163,260.256c0,1.399,1.141,2.538,2.542,2.538c1.404,0,2.546-1.139,2.546-2.538c0-1.406-1.142-2.551-2.546-2.551
		C278.304,257.705,277.163,258.85,277.163,260.256z"/>
	<path d="M266.683,221.068c-1.401,0-2.542,1.145-2.542,2.551c0,1.401,1.141,2.542,2.542,2.542c1.404,0,2.546-1.141,2.546-2.542
		C269.229,222.213,268.087,221.068,266.683,221.068z"/>
	<path d="M245.211,265.227c-0.888,0-1.61,0.728-1.61,1.622c0,0.888,0.723,1.61,1.61,1.61c0.889,0,1.611-0.723,1.611-1.61
		C246.822,265.954,246.1,265.227,245.211,265.227z"/>
	<path d="M252.455,259.684c0-0.888-0.721-1.61-1.606-1.61c-0.893,0-1.618,0.723-1.618,1.61c0,0.893,0.726,1.619,1.618,1.619
		C251.734,261.303,252.455,260.576,252.455,259.684z"/>
	<path d="M252.08,268.501c-0.886,0-1.606,0.725-1.606,1.614c0,0.893,0.721,1.619,1.606,1.619c0.905,0,1.615-0.711,1.615-1.619
		C253.695,269.21,252.985,268.501,252.08,268.501z"/>
	<path d="M261.944,269.986c0.893,0,1.618-0.725,1.618-1.614c0-0.893-0.726-1.618-1.618-1.618c-0.888,0-1.61,0.726-1.61,1.618
		C260.334,269.262,261.057,269.986,261.944,269.986z"/>
	<path d="M272.6,263.05c0.891,0,1.615-0.725,1.615-1.614c0-0.891-0.725-1.615-1.615-1.615c-0.888,0-1.61,0.725-1.61,1.615
		C270.989,262.325,271.712,263.05,272.6,263.05z"/>
	<path d="M278.405,252.962c0.893,0,1.618-0.723,1.618-1.61c0-0.893-0.726-1.619-1.618-1.619c-0.886,0-1.606,0.727-1.606,1.619
		C276.799,252.239,277.52,252.962,278.405,252.962z"/>
	<circle cx="266.179" cy="215.724" r="1.617"/>
	<polygon points="185.963,25.741 176.341,9.693 174.485,10.802 184.115,26.851 	"/>
	<polygon points="206.485,59.971 189.999,32.464 188.144,33.572 204.644,61.082 	"/>
	<polygon points="303.588,227.168 313.209,243.216 315.065,242.113 305.447,226.055 	"/>
	<polygon points="283.064,192.942 299.367,220.125 299.56,220.447 301.407,219.338 284.92,191.834 	"/>
	<polygon points="351.847,63.697 350.735,61.855 334.693,71.472 335.791,73.325 	"/>
	<polygon points="301.57,93.848 328.753,77.549 329.075,77.356 327.966,75.505 300.463,91.996 	"/>
	<polygon points="269.48,1.542 267.378,1.016 262.838,19.171 264.936,19.703 	"/>
	<polygon points="262.937,27.667 263.026,27.305 260.933,26.771 253.149,57.882 255.247,58.42 	"/>
	<polygon points="348.512,159.262 347.989,161.349 366.144,165.902 366.658,163.806 	"/>
	<polygon points="340.901,157.357 309.79,149.574 309.275,151.666 340.381,159.452 	"/>
	<path d="M298.248,48.755c0.457,0.342,0.999,0.522,1.566,0.522c0.829,0,1.62-0.398,2.118-1.066c0.865-1.163,0.621-2.815-0.546-3.684
		c-1.129-0.832-2.854-0.57-3.678,0.545c-0.422,0.566-0.598,1.264-0.493,1.962C297.319,47.73,297.687,48.342,298.248,48.755z"/>
	<path d="M341.732,118.613c0.697-0.099,1.312-0.464,1.73-1.028c0.42-0.564,0.593-1.26,0.486-1.954
		c-0.202-1.432-1.498-2.438-2.993-2.222c-1.435,0.215-2.428,1.556-2.215,2.989c0.192,1.28,1.307,2.246,2.592,2.246
		C341.467,118.645,341.602,118.634,341.732,118.613z"/>
	<path d="M221.401,29.591c0.128,0,0.257-0.009,0.385-0.028c1.438-0.21,2.438-1.552,2.229-2.996c-0.222-1.422-1.47-2.426-2.998-2.221
		c-1.437,0.221-2.431,1.565-2.218,2.997C218.987,28.624,220.106,29.591,221.401,29.591z"/>
	<path d="M319.548,192.864c-0.863,1.158-0.621,2.811,0.541,3.683c0.458,0.34,1.001,0.52,1.571,0.52c0.831,0,1.625-0.396,2.125-1.063
		c0.854-1.169,0.603-2.823-0.56-3.689C322.101,191.479,320.365,191.743,319.548,192.864z"/>
	<path d="M300.235,146.117c3.745-16.787,0.76-34.018-8.406-48.519c-9.174-14.513-23.434-24.558-40.154-28.286
		c-4.612-1.027-9.321-1.549-13.997-1.549c-11.748,0-23.299,3.313-33.428,9.583l-29.166-48.867L-0.322,322.31l-0.338,0.567h351.477
		l-80.792-135.344C285.387,178.416,296.39,163.342,300.235,146.117z M192.08,320.712l76.769-130.946l78.168,130.946H192.08z
		 M3.979,319.323l110.355-184.875v114.729L3.979,319.323z M200.957,301.314l-11.378,19.397H4.104l110.859-70.455L200.957,301.314z
		 M208.581,288.303l-6.997,11.938l-86.004-51.078V134.477L208.581,288.303z M274.559,170.798c-34.208,0-62.039-27.857-62.039-62.1
		c0-13.32,4.253-26.887,11.674-37.246c8.9-2.037,18.251-2.004,27.014-0.032c16.151,3.604,29.93,13.313,38.796,27.335
		c8.861,14.023,11.748,30.676,8.128,46.89c-1.872,8.383-5.429,16.176-10.571,23.168l-0.474,0.104
		c-0.327,0.072-0.658,0.145-0.997,0.215C282.54,169.912,278.518,170.798,274.559,170.798z M211.274,108.698
		c0,34.924,28.39,63.337,63.284,63.337c3.979,0,7.869-0.841,11.631-1.655l0.052-0.011c-4.082,5.202-8.905,9.722-14.347,13.442
		c-4.846,3.258-10.116,5.815-15.66,7.601c-0.126,0.038-0.254,0.081-0.381,0.124l-0.309,0.102c-0.403,0.122-0.815,0.241-1.234,0.354
		c-0.644,0.188-1.295,0.366-2.003,0.542c-0.068,0.018-0.135,0.034-0.163,0.046c-6.295,1.517-12.861,2.049-19.236,1.574
		c-0.155-0.015-0.306-0.025-0.454-0.036l-0.374-0.028c-0.655-0.055-1.319-0.131-1.979-0.21c-0.514-0.064-1.037-0.131-1.55-0.211
		l-0.205-0.029c-0.404-0.057-0.805-0.113-1.205-0.189c-0.843-0.143-1.952-0.34-3.055-0.596
		c-16.131-3.599-29.902-13.31-38.776-27.346c-8.875-14.036-11.77-30.686-8.152-46.88c0.207-0.928,0.438-1.85,0.679-2.765
		c0.116-0.422,0.246-0.843,0.378-1.268l0.14-0.464c0.08-0.283,0.162-0.572,0.26-0.86c0.242-0.777,0.508-1.557,0.749-2.254
		l0.053-0.119c6.963-19.015,23.367-33.877,42.956-38.996C215.31,82.303,211.274,95.651,211.274,108.698z M176.531,112.669
		l-0.257,0.893c-0.185,0.586-0.367,1.167-0.517,1.755c-0.287,1.039-0.521,1.97-0.716,2.845c-0.247,1.11-0.461,2.203-0.636,3.249
		c-0.545,3.204-0.852,6.459-0.912,9.676c-0.484,26.791,15.895,51.316,40.758,61.027c3.026,1.18,6.175,2.139,9.357,2.851
		c0.922,0.209,1.895,0.399,3.159,0.617l1.87,0.28c0.394,0.055,0.787,0.109,1.178,0.157c0.641,0.084,1.281,0.148,1.925,0.206
		l0.392,0.031c0.193,0.017,0.387,0.032,0.57,0.044c1.886,0.148,3.441,0.218,4.896,0.218c4.828,0,9.746-0.585,14.622-1.739
		c0.131-0.033,0.264-0.07,0.376-0.103c0.653-0.152,1.306-0.322,1.946-0.499c0.527-0.146,1.046-0.302,1.631-0.48
		c0.185-0.056,0.367-0.11,0.537-0.167c3.357-1.05,6.627-2.378,9.737-3.954l-56.619,96.608l-93.631-154.852l58.886-98.643
		l27.299,45.745C189.959,86.66,181.024,98.487,176.531,112.669z"/>
	<path d="M76.134,212.08l8.66,15.701l-8.156,14.854l-0.494,0.927h20.702l-8.534-15.78l8.536-15.701H76.134z M78.238,242.312
		l7.807-14.232l0.165-0.297l-7.971-14.456h16.515l-7.695,14.149l-0.171,0.301l7.867,14.535H78.238z"/>
	<polygon points="90.444,218.414 82.541,218.414 86.493,225.261 	"/>
	<polygon points="79.672,241.295 93.314,241.295 86.493,232.318 	"/>
</g>
</svg>
