<?xml version="1.0" encoding="utf-8"?>
<!-- Generator: Adobe Illustrator 16.0.3, SVG Export Plug-In . SVG Version: 6.00 Build 0)  -->
<!DOCTYPE svg PUBLIC "-//W3C//DTD SVG 1.1//EN" "http://www.w3.org/Graphics/SVG/1.1/DTD/svg11.dtd">
<svg version="1.1" id="Capa_1" xmlns="http://www.w3.org/2000/svg" xmlns:xlink="http://www.w3.org/1999/xlink" x="0px" y="0px"
	 width="238.058px" height="59.995px" viewBox="0 0 238.058 59.995" enable-background="new 0 0 238.058 59.995"
	 xml:space="preserve">
<g>
	<g>
		<path fill-rule="evenodd" clip-rule="evenodd" fill="#E2AC85" d="M147.917,7.469h-11.74c-0.357,0-0.647-0.29-0.647-0.646
			c0-0.357,0.29-0.648,0.647-0.648h12.632c0.208,0,0.403,0.099,0.524,0.267c0.123,0.168,0.156,0.385,0.094,0.581L133.03,57.326
			h12.391c0.358,0,0.647,0.29,0.647,0.647c0,0.356-0.289,0.646-0.647,0.646h-13.282c-0.208,0-0.401-0.099-0.525-0.266
			c-0.12-0.169-0.155-0.386-0.091-0.582L147.917,7.469z"/>
	</g>
	<g>
		<path fill-rule="evenodd" clip-rule="evenodd" fill="#E2AC85" d="M155.563,57.326h11.568c0.357,0,0.648,0.29,0.648,0.647
			c0,0.356-0.291,0.646-0.648,0.646h-12.216c-0.356,0-0.647-0.289-0.647-0.646V6.823c0-0.358,0.291-0.648,0.647-0.648h12.216
			c0.357,0,0.648,0.29,0.648,0.648c0,0.355-0.291,0.646-0.648,0.646h-11.568V57.326z"/>
	</g>
	<g>
		<path fill-rule="evenodd" clip-rule="evenodd" fill="#E2AC85" d="M174.032,28.683c1.952-2.776,4.407-4.797,6.525-6.9
			c2.427-2.41,4.396-4.936,4.396-9.055c0-3.809-3.296-5.201-6.321-5.232c-1.898-0.021-3.729,0.466-4.6,1.333V28.683z
			 M172.737,57.974V8.578c0-0.15,0.053-0.296,0.146-0.411c0.973-1.185,3.297-1.994,5.762-1.968c3.693,0.039,7.602,1.877,7.602,6.528
			c0,4.526-2.111,7.326-4.776,9.975c-2.473,2.456-5.443,4.775-7.438,8.424v26.848c0,0.356-0.29,0.646-0.646,0.646
			C173.028,58.62,172.737,58.33,172.737,57.974"/>
	</g>
	<g>
		<path fill-rule="evenodd" clip-rule="evenodd" fill="#E2AC85" d="M212.249,6.823v51.15c0,0.356,0.293,0.646,0.648,0.646
			c0.357,0,0.648-0.29,0.648-0.646V6.823c0-0.358-0.291-0.648-0.648-0.648C212.542,6.175,212.249,6.465,212.249,6.823"/>
	</g>
	<g>
		<path fill-rule="evenodd" clip-rule="evenodd" fill="#E2AC85" d="M200.182,6.867c0,0,0.289,9.045,1.793,13.888
			c0.788,2.547,1.713,4.385,3.336,5.604c1.607,1.209,3.925,1.823,7.587,1.823c0.357,0,0.648-0.29,0.648-0.648
			c0-0.357-0.291-0.647-0.648-0.647c-3.277,0-5.369-0.48-6.809-1.563c-1.425-1.071-2.183-2.717-2.878-4.954
			c-1.465-4.721-1.733-13.543-1.733-13.543c-0.011-0.358-0.313-0.64-0.669-0.628C200.452,6.21,200.171,6.509,200.182,6.867"/>
	</g>
	<g>
		<path fill-rule="evenodd" clip-rule="evenodd" fill="#E2AC85" d="M192.646,57.974V6.823c0-0.358-0.29-0.648-0.647-0.648
			s-0.648,0.29-0.648,0.648v51.15c0,0.356,0.291,0.646,0.648,0.646S192.646,58.33,192.646,57.974"/>
	</g>
	<g>
		<path fill-rule="evenodd" clip-rule="evenodd" fill="#E2AC85" d="M204.715,57.929c0,0-0.288-9.047-1.792-13.889
			c-0.79-2.546-1.715-4.385-3.337-5.604c-1.607-1.21-3.926-1.823-7.587-1.823c-0.357,0-0.648,0.29-0.648,0.647
			s0.291,0.647,0.648,0.647c3.278,0,5.37,0.481,6.81,1.563c1.424,1.072,2.184,2.718,2.878,4.954
			c1.465,4.722,1.734,13.544,1.734,13.544c0.01,0.357,0.311,0.639,0.667,0.627C204.446,58.585,204.728,58.285,204.715,57.929"/>
	</g>
	<g>
		<path fill-rule="evenodd" clip-rule="evenodd" fill="#E2AC85" d="M220.578,8.871v49.103c0,0.356,0.291,0.646,0.647,0.646
			c0.357,0,0.647-0.29,0.647-0.646V8.871c0-0.357-0.29-0.648-0.647-0.648C220.869,8.223,220.578,8.514,220.578,8.871"/>
	</g>
	<g>
		<path fill-rule="evenodd" clip-rule="evenodd" fill="#E2AC85" d="M224.62,34.079c0.999,0.279,1.836,0.688,2.536,1.202
			c1.631,1.192,2.549,2.953,3.039,5.029c0.466,1.961,0.551,4.212,0.551,6.489c0,6.124,1.228,8.563,2.994,10.77
			c0.225,0.277,0.178,0.686-0.102,0.91c-0.278,0.223-0.688,0.178-0.911-0.102c-1.9-2.376-3.277-4.984-3.277-11.578
			c0-2.171-0.07-4.318-0.514-6.189c-0.418-1.76-1.162-3.271-2.545-4.283c-1.199-0.879-2.868-1.372-5.166-1.372V33.66
			c2.138,0,4.337-1.359,6.231-3.421c2.948-3.208,5.142-8.144,5.142-12.773c0-4.518-1.078-7.168-2.733-8.58
			c-1.056-0.899-2.334-1.272-3.651-1.323c-3.223-0.128-4.443,1.661-4.443,1.661c-0.194,0.3-0.596,0.386-0.896,0.192
			c-0.3-0.194-0.387-0.595-0.191-0.896c0,0,1.494-2.413,5.582-2.251c1.605,0.063,3.155,0.536,4.439,1.631
			c1.854,1.581,3.19,4.508,3.19,9.566c0,4.946-2.333,10.223-5.482,13.649C227.235,32.396,225.946,33.413,224.62,34.079"/>
	</g>
	<g>
		<path fill-rule="evenodd" clip-rule="evenodd" fill="#E2AC85" d="M83.895,6.823v51.15c0,0.356,0.291,0.646,0.647,0.646
			s0.647-0.29,0.647-0.646V6.823c0-0.358-0.291-0.648-0.647-0.648S83.895,6.465,83.895,6.823"/>
	</g>
	<g>
		<path fill-rule="evenodd" clip-rule="evenodd" fill="#E2AC85" d="M86.382,27.594c0.319-0.175,0.657-0.339,1.004-0.476
			c1.314-0.521,2.746-0.649,3.878,0.169c1.117,0.808,2.016,2.648,2.016,6.35v24.337c0,0.356-0.29,0.646-0.647,0.646
			s-0.646-0.29-0.646-0.646V33.637c0-1.602-0.168-2.809-0.459-3.7c-0.256-0.778-0.601-1.296-1.021-1.6
			c-0.771-0.558-1.747-0.369-2.641-0.014c-1.552,0.615-2.889,1.82-2.889,1.82c-0.233,0.211-0.586,0.223-0.833,0.028
			c-0.248-0.194-0.319-0.537-0.172-0.815l12.215-22.84c0.169-0.315,0.562-0.435,0.877-0.266s0.434,0.562,0.265,0.877L86.382,27.594z
			"/>
	</g>
	<g>
		<path fill-rule="evenodd" clip-rule="evenodd" fill="#E2AC85" d="M107.871,12.286l-6.473,45.778
			c-0.051,0.353-0.378,0.601-0.733,0.55c-0.354-0.05-0.6-0.378-0.55-0.731l7.234-51.151c0.045-0.325,0.327-0.564,0.654-0.557
			s0.598,0.258,0.63,0.585l4.983,51.15c0.034,0.356-0.227,0.674-0.583,0.707c-0.355,0.035-0.673-0.226-0.707-0.581L107.871,12.286z"
			/>
	</g>
	<g>
		<path fill-rule="evenodd" clip-rule="evenodd" fill="#E2AC85" d="M103.16,45.139l7.921-11.729c0.2-0.296,0.122-0.699-0.175-0.899
			c-0.295-0.199-0.698-0.122-0.899,0.174l-7.92,11.73c-0.201,0.296-0.123,0.698,0.174,0.898
			C102.557,45.513,102.959,45.435,103.16,45.139"/>
	</g>
	<g>
		<path fill-rule="evenodd" clip-rule="evenodd" fill="#E2AC85" d="M154.921,33.088l6.107-0.042
			c0.356-0.003,0.645-0.295,0.643-0.653c-0.003-0.357-0.295-0.645-0.653-0.644l-6.105,0.044c-0.357,0.002-0.645,0.294-0.643,0.652
			C154.272,32.802,154.563,33.091,154.921,33.088"/>
	</g>
</g>
<g>
	<g>
		<g>
			<path fill="#E2AC85" d="M46.472,55.143c0,0.231-0.188,0.418-0.418,0.418c-0.23,0-0.417-0.187-0.417-0.418
				c0-0.23,0.187-0.417,0.417-0.417C46.283,54.726,46.472,54.912,46.472,55.143"/>
		</g>
		<g>
			<path fill="#E2AC85" d="M49.753,54.955c0,0.126-0.103,0.229-0.23,0.229c-0.127,0-0.229-0.104-0.229-0.229
				c0-0.127,0.103-0.229,0.229-0.229C49.65,54.726,49.753,54.828,49.753,54.955"/>
		</g>
		<g>
			<path fill="#E2AC85" d="M50.036,52.875c0,0.239-0.193,0.434-0.434,0.434c-0.238,0-0.434-0.194-0.434-0.434
				s0.195-0.434,0.434-0.434C49.843,52.441,50.036,52.636,50.036,52.875"/>
		</g>
		<g>
			<path fill="#E2AC85" d="M55.15,53.156c0,0.24-0.194,0.436-0.435,0.436c-0.239,0-0.434-0.195-0.434-0.436
				c0-0.239,0.194-0.434,0.434-0.434C54.956,52.723,55.15,52.917,55.15,53.156"/>
		</g>
		<g>
			<path fill="#E2AC85" d="M57.597,50.465c0,0.26-0.211,0.471-0.471,0.471s-0.471-0.211-0.471-0.471
				c0-0.261,0.211-0.472,0.471-0.472S57.597,50.204,57.597,50.465"/>
		</g>
		<g>
			<path fill="#E2AC85" d="M58.024,51.351c0,0.117-0.096,0.213-0.214,0.213s-0.214-0.096-0.214-0.213
				c0-0.119,0.096-0.214,0.214-0.214S58.024,51.231,58.024,51.351"/>
		</g>
		<g>
			<path fill="#E2AC85" d="M56.312,56.327c0,0.165-0.133,0.299-0.296,0.299c-0.166,0-0.298-0.134-0.298-0.299
				c0-0.163,0.132-0.297,0.298-0.297C56.179,56.03,56.312,56.164,56.312,56.327"/>
		</g>
		<g>
			<path fill="#E2AC85" d="M56.326,54.355c0,0.164-0.134,0.298-0.298,0.298s-0.298-0.134-0.298-0.298
				c0-0.165,0.134-0.298,0.298-0.298S56.326,54.19,56.326,54.355"/>
		</g>
		<g>
			<path fill="#E2AC85" d="M55.15,51.699c0,0.108-0.089,0.198-0.198,0.198c-0.111,0-0.199-0.09-0.199-0.198
				c0-0.11,0.088-0.2,0.199-0.2C55.062,51.499,55.15,51.589,55.15,51.699"/>
		</g>
		<g>
			<path fill="#E2AC85" d="M46.526,50.104c0,0.217-0.177,0.392-0.393,0.392c-0.217,0-0.393-0.175-0.393-0.392
				c0-0.216,0.176-0.392,0.393-0.392C46.35,49.713,46.526,49.889,46.526,50.104"/>
		</g>
		<g>
			<path fill="#E2AC85" d="M49.144,46.021c0,0.217-0.178,0.393-0.393,0.393c-0.217,0-0.393-0.176-0.393-0.393
				s0.176-0.393,0.393-0.393C48.966,45.629,49.144,45.805,49.144,46.021"/>
		</g>
		<g>
			<path fill="#E2AC85" d="M53.165,47.376c0,0.216-0.176,0.392-0.393,0.392s-0.392-0.176-0.392-0.392
				c0-0.218,0.175-0.393,0.392-0.393S53.165,47.158,53.165,47.376"/>
		</g>
		<g>
			<path fill="#E2AC85" d="M50.813,40.758c0,0.217-0.175,0.392-0.393,0.392c-0.216,0-0.392-0.175-0.392-0.392
				s0.176-0.393,0.392-0.393C50.638,40.365,50.813,40.541,50.813,40.758"/>
		</g>
		<g>
			<path fill="#E2AC85" d="M46.765,48.567c0,0.123-0.1,0.224-0.224,0.224s-0.224-0.101-0.224-0.224s0.1-0.225,0.224-0.225
				S46.765,48.444,46.765,48.567"/>
		</g>
		<g>
			<path fill="#E2AC85" d="M47.782,47.273c0,0.124-0.1,0.225-0.223,0.225c-0.125,0-0.225-0.101-0.225-0.225
				c0-0.123,0.1-0.224,0.225-0.224C47.683,47.05,47.782,47.15,47.782,47.273"/>
		</g>
		<g>
			<path fill="#E2AC85" d="M48.007,49.158c0,0.124-0.1,0.224-0.225,0.224c-0.123,0-0.223-0.1-0.223-0.224
				c0-0.125,0.1-0.225,0.223-0.225C47.907,48.934,48.007,49.033,48.007,49.158"/>
		</g>
		<g>
			<path fill="#E2AC85" d="M49.789,48.843c0,0.123-0.102,0.224-0.225,0.224s-0.224-0.101-0.224-0.224
				c0-0.124,0.101-0.225,0.224-0.225S49.789,48.719,49.789,48.843"/>
		</g>
		<g>
			<path fill="#E2AC85" d="M51.713,47.59c0,0.123-0.099,0.224-0.224,0.224c-0.123,0-0.224-0.101-0.224-0.224
				s0.101-0.225,0.224-0.225C51.614,47.365,51.713,47.467,51.713,47.59"/>
		</g>
		<g>
			<path fill="#E2AC85" d="M52.763,45.768c0,0.123-0.101,0.224-0.225,0.224c-0.123,0-0.223-0.101-0.223-0.224
				c0-0.125,0.1-0.224,0.223-0.224C52.662,45.544,52.763,45.643,52.763,45.768"/>
		</g>
		<g>
			<path fill="#E2AC85" d="M50.554,39.332c0,0.123-0.101,0.224-0.225,0.224c-0.125,0-0.225-0.101-0.225-0.224
				c0-0.124,0.1-0.225,0.225-0.225C50.453,39.107,50.554,39.208,50.554,39.332"/>
		</g>
	</g>
	<g>
		<g>
			<g>
				<g>
					
						<rect x="33.179" y="3.534" transform="matrix(0.5145 0.8575 -0.8575 0.5145 20.0358 -28.0648)" fill="#E2AC85" width="3.246" height="0.255"/>
				</g>
				<g>
					
						<rect x="35.06" y="8.683" transform="matrix(0.5143 0.8576 -0.8576 0.5143 25.9576 -28.2148)" fill="#E2AC85" width="5.658" height="0.254"/>
				</g>
			</g>
			<g>
				<g>
					
						<rect x="56.502" y="42.62" transform="matrix(0.5142 0.8577 -0.8577 0.5142 64.9016 -29.0841)" fill="#E2AC85" width="3.244" height="0.255"/>
				</g>
				<g>
					
						<rect x="52.208" y="37.473" transform="matrix(0.5143 0.8576 -0.8576 0.5143 58.9764 -28.9381)" fill="#E2AC85" width="5.658" height="0.255"/>
				</g>
			</g>
			<g>
				<g>
					
						<rect x="64.128" y="10.948" transform="matrix(0.5105 0.8599 -0.8599 0.5105 42.2589 -49.0972)" fill="#E2AC85" width="0.254" height="3.244"/>
				</g>
				<g>
					
						<rect x="58.979" y="12.829" transform="matrix(0.5134 0.8582 -0.8582 0.5134 42.2002 -43.1042)" fill="#E2AC85" width="0.255" height="5.658"/>
				</g>
			</g>
			<g>
				<g>
					
						<rect x="50.197" y="0.609" transform="matrix(0.9695 0.2452 -0.2452 0.9695 2.084 -12.2735)" fill="#E2AC85" width="0.255" height="3.245"/>
				</g>
				<g>
					
						<rect x="48.74" y="5.226" transform="matrix(0.9685 0.2488 -0.2488 0.9685 3.5415 -11.9067)" fill="#E2AC85" width="0.255" height="5.657"/>
				</g>
			</g>
			<g>
				<g>
					
						<rect x="65.172" y="29.605" transform="matrix(0.97 0.2432 -0.2432 0.97 9.2349 -15.3503)" fill="#E2AC85" width="3.245" height="0.254"/>
				</g>
				<g>
					
						<rect x="58.142" y="28.147" transform="matrix(0.9701 0.2429 -0.2429 0.9701 8.692 -13.961)" fill="#E2AC85" width="5.658" height="0.254"/>
				</g>
			</g>
		</g>
	</g>
	<g>
		<g>
			<path fill="#E2AC85" d="M56.733,9.029c-0.135,0.182-0.39,0.22-0.57,0.085c-0.181-0.134-0.219-0.39-0.084-0.571
				c0.134-0.181,0.39-0.218,0.57-0.084C56.83,8.594,56.868,8.849,56.733,9.029"/>
		</g>
		<g>
			<path fill="#E2AC85" d="M63.968,21.722c-0.223,0.034-0.43-0.121-0.463-0.344s0.121-0.43,0.344-0.463
				c0.225-0.033,0.432,0.12,0.463,0.344C64.346,21.482,64.191,21.689,63.968,21.722"/>
		</g>
		<g>
			<path fill="#E2AC85" d="M42.645,5.17c0.032,0.224-0.122,0.431-0.345,0.464s-0.431-0.122-0.463-0.344
				c-0.033-0.223,0.121-0.431,0.344-0.464C42.403,4.794,42.61,4.947,42.645,5.17"/>
		</g>
		<g>
			<path fill="#E2AC85" d="M60.108,35.813c-0.18-0.136-0.218-0.391-0.084-0.571c0.133-0.182,0.39-0.219,0.57-0.085
				c0.182,0.135,0.219,0.391,0.086,0.571C60.546,35.909,60.29,35.947,60.108,35.813"/>
		</g>
	</g>
	<path fill="#E2AC85" d="M50.931,34.215c2.712-1.588,4.768-4.26,5.484-7.473c0.673-3.014,0.138-6.108-1.51-8.714
		c-1.646-2.605-4.209-4.41-7.211-5.08c-0.826-0.185-1.674-0.278-2.514-0.278c-2.192,0-4.279,0.64-6.063,1.757l-5.246-8.789
		L2.243,58.621H65.5L50.931,34.215z M38.684,54.693l-15.629-9.282v-21l16.948,28.031L38.684,54.693z M23.011,45.49l15.628,9.28
		l-2.108,3.596H2.752L23.011,45.49z M2.757,58.258l20.209-33.854v21.01L2.757,58.258z M50.811,34.509l14.241,23.857H36.825
		L50.811,34.509z M51.399,33.623c-0.875,0.588-1.834,1.056-2.848,1.382c-0.041,0.013-0.082,0.027-0.124,0.04
		c-0.073,0.022-0.149,0.044-0.224,0.064c-0.117,0.034-0.235,0.066-0.354,0.096c-0.015,0.004-0.028,0.007-0.041,0.011
		c-1.142,0.275-2.323,0.374-3.497,0.286c-0.051-0.004-0.1-0.007-0.148-0.012c-0.119-0.01-0.24-0.023-0.36-0.037
		c-0.093-0.012-0.188-0.024-0.281-0.039c-0.086-0.013-0.172-0.024-0.257-0.039c-0.186-0.032-0.371-0.066-0.555-0.108
		c-6.062-1.353-9.889-7.405-8.529-13.49c0.038-0.169,0.08-0.336,0.124-0.503c0.027-0.098,0.058-0.195,0.088-0.294
		c0.017-0.059,0.033-0.118,0.053-0.177c0.044-0.142,0.093-0.283,0.144-0.425c0.002-0.002,0.002-0.005,0.003-0.007
		c1.305-3.563,4.348-6.246,7.981-7.132c-1.334,1.893-2.096,4.338-2.096,6.758c0,6.272,5.098,11.374,11.365,11.374
		c0.723,0,1.433-0.155,2.118-0.304c0.054-0.013,0.106-0.024,0.159-0.035C53.342,32.058,52.421,32.925,51.399,33.623z M47.639,13.196
		c2.937,0.655,5.44,2.42,7.052,4.968c1.609,2.548,2.135,5.575,1.477,8.522c-0.349,1.564-1.023,2.995-1.937,4.231l-0.013,0.003
		c-0.091,0.02-0.184,0.04-0.277,0.06c-0.68,0.149-1.385,0.303-2.098,0.303c-6.219,0-11.275-5.063-11.275-11.286
		c0-2.438,0.777-4.901,2.137-6.789c0.803-0.186,1.632-0.283,2.477-0.283C46.003,12.925,46.83,13.015,47.639,13.196z M38.896,14.551
		c-2.252,1.474-3.891,3.641-4.696,6.183c-0.016,0.053-0.031,0.105-0.046,0.158c-0.033,0.105-0.066,0.212-0.095,0.319
		c-0.046,0.169-0.089,0.338-0.128,0.511c-0.043,0.194-0.081,0.389-0.113,0.583c-0.1,0.582-0.153,1.163-0.164,1.738
		c-0.087,4.797,2.833,9.208,7.319,10.96c0.539,0.211,1.101,0.383,1.682,0.513c0.188,0.042,0.376,0.078,0.565,0.11
		c0.082,0.014,0.166,0.025,0.248,0.038c0.101,0.014,0.2,0.028,0.301,0.041c0.115,0.015,0.229,0.026,0.345,0.036
		c0.058,0.005,0.116,0.01,0.174,0.014c0.293,0.023,0.586,0.039,0.879,0.039l0,0c0.897,0,1.776-0.11,2.625-0.312
		c0.022-0.006,0.046-0.013,0.069-0.019c0.116-0.028,0.233-0.059,0.349-0.09c0.095-0.026,0.188-0.055,0.282-0.083
		c0.036-0.011,0.072-0.021,0.107-0.033c0.674-0.211,1.33-0.484,1.956-0.818L40.149,52.192L23.155,24.086L33.872,6.134L38.896,14.551
		z"/>
	<g>
		<path fill="#E2AC85" d="M19.624,44.293h-3.513l0.036-0.067l1.49-2.716l-1.526-2.769h3.513l-1.505,2.769L19.624,44.293z
			 M16.263,44.203h3.212l-1.458-2.693l0.013-0.021l1.445-2.657h-3.212l1.477,2.679l-0.012,0.021L16.263,44.203z"/>
	</g>
	<g>
		<polygon fill="#E2AC85" points="18.465,39.886 17.868,40.919 17.271,39.886 		"/>
	</g>
	<g>
		<polygon fill="#E2AC85" points="16.772,43.884 17.868,42.441 18.964,43.884 		"/>
	</g>
</g>
</svg>
