<?xml version="1.0" encoding="utf-8"?>
<!-- Generator: Adobe Illustrator 16.0.3, SVG Export Plug-In . SVG Version: 6.00 Build 0)  -->
<!DOCTYPE svg PUBLIC "-//W3C//DTD SVG 1.1//EN" "http://www.w3.org/Graphics/SVG/1.1/DTD/svg11.dtd">
<svg version="1.1" id="Capa_1" xmlns="http://www.w3.org/2000/svg" xmlns:xlink="http://www.w3.org/1999/xlink" x="0px" y="0px"
	 width="93.472px" height="82.369px" viewBox="0 0 93.472 82.369" enable-background="new 0 0 93.472 82.369" xml:space="preserve">
<g>
	<g>
		<g>
			<path d="M61.797,75.176c0,0.313-0.254,0.566-0.565,0.566s-0.563-0.253-0.563-0.566c0-0.312,0.252-0.563,0.563-0.563
				S61.797,74.864,61.797,75.176"/>
		</g>
		<g>
			<path d="M66.233,74.923c0,0.171-0.14,0.31-0.312,0.31s-0.311-0.139-0.311-0.31c0-0.172,0.139-0.311,0.311-0.311
				S66.233,74.751,66.233,74.923"/>
		</g>
		<g>
			<path d="M66.616,72.11c0,0.323-0.262,0.586-0.587,0.586c-0.322,0-0.586-0.263-0.586-0.586s0.264-0.587,0.586-0.587
				C66.354,71.523,66.616,71.787,66.616,72.11"/>
		</g>
		<g>
			<path d="M73.53,72.491c0,0.324-0.263,0.589-0.588,0.589c-0.322,0-0.587-0.265-0.587-0.589s0.265-0.587,0.587-0.587
				C73.268,71.904,73.53,72.167,73.53,72.491"/>
		</g>
		<g>
			<path d="M76.838,68.852c0,0.352-0.285,0.637-0.637,0.637c-0.351,0-0.637-0.285-0.637-0.637c0-0.353,0.286-0.637,0.637-0.637
				C76.553,68.215,76.838,68.499,76.838,68.852"/>
		</g>
		<g>
			<path d="M77.416,70.049c0,0.159-0.13,0.289-0.29,0.289c-0.158,0-0.288-0.13-0.288-0.289c0-0.161,0.13-0.288,0.288-0.288
				C77.286,69.761,77.416,69.888,77.416,70.049"/>
		</g>
		<g>
			<path d="M75.101,76.777c0,0.224-0.181,0.404-0.4,0.404c-0.224,0-0.403-0.181-0.403-0.404c0-0.22,0.18-0.4,0.403-0.4
				C74.92,76.377,75.101,76.558,75.101,76.777"/>
		</g>
		<g>
			<path d="M75.119,74.112c0,0.222-0.18,0.402-0.402,0.402c-0.221,0-0.402-0.181-0.402-0.402c0-0.224,0.182-0.402,0.402-0.402
				C74.939,73.71,75.119,73.889,75.119,74.112"/>
		</g>
		<g>
			<path d="M73.53,70.521c0,0.146-0.12,0.269-0.269,0.269c-0.15,0-0.269-0.122-0.269-0.269c0-0.149,0.118-0.271,0.269-0.271
				C73.41,70.25,73.53,70.371,73.53,70.521"/>
		</g>
		<g>
			<path d="M61.871,68.365c0,0.293-0.238,0.529-0.531,0.529s-0.53-0.236-0.53-0.529c0-0.292,0.237-0.53,0.53-0.53
				S61.871,68.073,61.871,68.365"/>
		</g>
		<g>
			<path d="M65.409,62.845c0,0.293-0.24,0.53-0.53,0.53c-0.294,0-0.531-0.237-0.531-0.53c0-0.294,0.237-0.531,0.531-0.531
				C65.169,62.313,65.409,62.551,65.409,62.845"/>
		</g>
		<g>
			<path d="M70.846,64.677c0,0.291-0.237,0.528-0.53,0.528c-0.294,0-0.529-0.237-0.529-0.528c0-0.295,0.235-0.531,0.529-0.531
				C70.608,64.146,70.846,64.382,70.846,64.677"/>
		</g>
		<g>
			<path d="M67.665,55.729c0,0.293-0.236,0.529-0.53,0.529c-0.292,0-0.529-0.236-0.529-0.529c0-0.294,0.237-0.531,0.529-0.531
				C67.429,55.197,67.665,55.435,67.665,55.729"/>
		</g>
		<g>
			<path d="M62.192,66.287c0,0.166-0.134,0.302-0.302,0.302s-0.302-0.136-0.302-0.302s0.134-0.305,0.302-0.305
				S62.192,66.121,62.192,66.287"/>
		</g>
		<g>
			<path d="M63.568,64.537c0,0.169-0.135,0.304-0.301,0.304c-0.169,0-0.304-0.135-0.304-0.304c0-0.166,0.135-0.302,0.304-0.302
				C63.434,64.235,63.568,64.371,63.568,64.537"/>
		</g>
		<g>
			<path d="M63.871,67.085c0,0.169-0.133,0.304-0.303,0.304c-0.166,0-0.301-0.135-0.301-0.304c0-0.168,0.135-0.303,0.301-0.303
				C63.738,66.782,63.871,66.917,63.871,67.085"/>
		</g>
		<g>
			<path d="M66.281,66.659c0,0.166-0.137,0.303-0.304,0.303c-0.166,0-0.302-0.137-0.302-0.303c0-0.168,0.136-0.304,0.302-0.304
				C66.145,66.355,66.281,66.491,66.281,66.659"/>
		</g>
		<g>
			<path d="M68.883,64.965c0,0.166-0.133,0.303-0.303,0.303c-0.166,0-0.302-0.137-0.302-0.303s0.136-0.303,0.302-0.303
				C68.75,64.662,68.883,64.799,68.883,64.965"/>
		</g>
		<g>
			<path d="M70.302,62.502c0,0.166-0.136,0.302-0.304,0.302c-0.166,0-0.301-0.136-0.301-0.302c0-0.17,0.135-0.304,0.301-0.304
				C70.166,62.198,70.302,62.332,70.302,62.502"/>
		</g>
		<g>
			<path d="M67.315,53.801c0,0.167-0.136,0.303-0.304,0.303c-0.169,0-0.304-0.136-0.304-0.303c0-0.168,0.135-0.304,0.304-0.304
				C67.18,53.497,67.315,53.633,67.315,53.801"/>
		</g>
	</g>
	<g>
		<g>
			<g>
				<g>
					<rect x="43.825" y="5.402" transform="matrix(0.5145 0.8575 -0.8575 0.5145 27.1207 -36.754)" width="4.388" height="0.345"/>
				</g>
				<g>
					
						<rect x="46.368" y="12.363" transform="matrix(0.5144 0.8576 -0.8576 0.5144 35.1257 -36.9573)" width="7.651" height="0.345"/>
				</g>
			</g>
			<g>
				<g>
					
						<rect x="75.357" y="58.246" transform="matrix(0.5142 0.8577 -0.8577 0.5142 87.7786 -38.1329)" width="4.387" height="0.346"/>
				</g>
				<g>
					<rect x="69.552" y="51.287" transform="matrix(0.5143 0.8576 -0.8576 0.5143 79.7686 -37.9352)" width="7.65" height="0.345"/>
				</g>
			</g>
			<g>
				<g>
					
						<rect x="85.668" y="15.427" transform="matrix(0.5099 0.8602 -0.8602 0.5099 57.2287 -65.2072)" width="0.343" height="4.386"/>
				</g>
				<g>
					<rect x="78.707" y="17.968" transform="matrix(0.5141 0.8577 -0.8577 0.5141 57.022 -57.0686)" width="0.344" height="7.649"/>
				</g>
			</g>
			<g>
				<g>
					<rect x="66.834" y="1.448" transform="matrix(0.9693 0.2459 -0.2459 0.9693 2.952 -16.3623)" width="0.346" height="4.388"/>
				</g>
				<g>
					<rect x="64.863" y="7.69" transform="matrix(0.9686 0.2485 -0.2485 0.9686 4.9019 -15.801)" width="0.346" height="7.65"/>
				</g>
			</g>
			<g>
				<g>
					<rect x="87.08" y="40.65" transform="matrix(0.97 0.2433 -0.2433 0.97 12.6123 -20.4913)" width="4.388" height="0.342"/>
				</g>
				<g>
					
						<rect x="77.575" y="38.679" transform="matrix(0.9701 0.2428 -0.2428 0.9701 11.8707 -18.6038)" width="7.649" height="0.343"/>
				</g>
			</g>
		</g>
	</g>
	<g>
		<g>
			<path d="M75.671,12.832c-0.183,0.245-0.527,0.297-0.771,0.114c-0.244-0.18-0.296-0.526-0.113-0.771
				c0.181-0.245,0.526-0.294,0.771-0.114C75.802,12.243,75.853,12.588,75.671,12.832"/>
		</g>
		<g>
			<path d="M85.452,29.991c-0.302,0.047-0.582-0.163-0.627-0.464c-0.045-0.302,0.164-0.581,0.464-0.626
				c0.305-0.045,0.584,0.162,0.627,0.465C85.962,29.668,85.754,29.948,85.452,29.991"/>
		</g>
		<g>
			<path d="M56.623,7.614c0.044,0.303-0.166,0.583-0.467,0.627c-0.301,0.045-0.582-0.166-0.626-0.465
				c-0.045-0.301,0.165-0.582,0.465-0.628C56.296,7.106,56.576,7.313,56.623,7.614"/>
		</g>
		<g>
			<path d="M80.233,49.043c-0.243-0.183-0.295-0.527-0.113-0.771c0.18-0.246,0.526-0.296,0.771-0.115
				c0.245,0.183,0.296,0.528,0.117,0.773C80.825,49.173,80.479,49.225,80.233,49.043"/>
		</g>
	</g>
	<path d="M67.825,46.883c3.667-2.147,6.445-5.76,7.415-10.104c0.909-4.074,0.186-8.259-2.041-11.781s-5.69-5.963-9.75-6.868
		c-1.117-0.249-2.263-0.376-3.398-0.376c-2.964,0-5.785,0.864-8.195,2.376L44.763,8.246L2,79.88h85.522L67.825,46.883z
		 M51.268,74.568L30.138,62.02V33.628l22.913,37.898L51.268,74.568z M30.077,62.127l21.13,12.546l-2.852,4.861H2.688L30.077,62.127z
		 M2.695,79.388l27.321-45.771v28.404L2.695,79.388z M67.663,47.28l19.254,32.254H48.754L67.663,47.28z M68.459,46.082
		c-1.183,0.795-2.479,1.427-3.85,1.868c-0.056,0.017-0.111,0.037-0.168,0.055c-0.1,0.03-0.201,0.06-0.303,0.087
		c-0.158,0.046-0.318,0.09-0.479,0.13c-0.019,0.005-0.037,0.009-0.054,0.015c-1.544,0.372-3.143,0.505-4.729,0.387
		c-0.069-0.007-0.136-0.01-0.201-0.016c-0.161-0.014-0.324-0.032-0.487-0.052c-0.126-0.016-0.255-0.032-0.38-0.052
		c-0.117-0.017-0.233-0.032-0.347-0.054c-0.253-0.043-0.503-0.089-0.751-0.146c-8.195-1.828-13.369-10.011-11.531-18.238
		c0.051-0.228,0.107-0.454,0.167-0.68c0.036-0.132,0.078-0.264,0.119-0.397c0.022-0.079,0.045-0.16,0.071-0.238
		c0.06-0.191,0.125-0.383,0.194-0.574c0.002-0.003,0.002-0.008,0.003-0.01c1.765-4.818,5.88-8.444,10.792-9.642
		c-1.804,2.558-2.833,5.864-2.833,9.136c0,8.479,6.893,15.378,15.365,15.378c0.977,0,1.937-0.211,2.863-0.411
		c0.072-0.017,0.145-0.032,0.216-0.047C71.085,43.966,69.84,45.138,68.459,46.082z M63.375,18.466
		c3.969,0.886,7.354,3.271,9.533,6.717c2.176,3.443,2.887,7.536,1.997,11.521c-0.473,2.115-1.384,4.05-2.618,5.721l-0.018,0.004
		c-0.123,0.026-0.248,0.055-0.375,0.081c-0.919,0.202-1.873,0.409-2.836,0.409c-8.408,0-15.244-6.845-15.244-15.259
		c0-3.296,1.051-6.627,2.889-9.179c1.086-0.251,2.207-0.383,3.348-0.383C61.163,18.099,62.281,18.22,63.375,18.466z M51.554,20.297
		c-3.044,1.992-5.261,4.922-6.35,8.358c-0.021,0.071-0.041,0.143-0.062,0.214c-0.045,0.144-0.09,0.286-0.127,0.432
		c-0.063,0.229-0.122,0.457-0.174,0.69c-0.059,0.264-0.11,0.526-0.154,0.789c-0.134,0.786-0.207,1.571-0.222,2.35
		c-0.117,6.485,3.831,12.449,9.896,14.818c0.729,0.284,1.487,0.517,2.272,0.692c0.255,0.058,0.51,0.105,0.766,0.149
		c0.111,0.018,0.224,0.035,0.335,0.052c0.136,0.019,0.271,0.038,0.407,0.055c0.155,0.021,0.311,0.036,0.465,0.05
		c0.078,0.006,0.158,0.014,0.235,0.019c0.396,0.031,0.793,0.053,1.188,0.053l0,0c1.213,0,2.402-0.15,3.549-0.422
		c0.031-0.008,0.063-0.017,0.094-0.025c0.158-0.037,0.316-0.078,0.472-0.121c0.128-0.035,0.254-0.073,0.382-0.112
		c0.049-0.015,0.098-0.029,0.145-0.045c0.912-0.285,1.799-0.654,2.646-1.106L53.25,71.188l-22.977-38L44.763,8.917L51.554,20.297z"
		/>
	<g>
		<path d="M25.5,60.508h-4.75l0.049-0.092l2.016-3.671l-2.064-3.743h4.75l-2.035,3.743L25.5,60.508z M20.954,60.386h4.343
			l-1.971-3.641l0.017-0.029l1.954-3.593h-4.343l1.997,3.622l-0.016,0.028L20.954,60.386z"/>
	</g>
	<g>
		<polygon points="23.932,54.549 23.125,55.946 22.318,54.549 		"/>
	</g>
	<g>
		<polygon points="21.644,59.954 23.125,58.005 24.606,59.954 		"/>
	</g>
</g>
</svg>
