<?xml version="1.0" encoding="utf-8"?>
<!-- Generator: Adobe Illustrator 16.0.3, SVG Export Plug-In . SVG Version: 6.00 Build 0)  -->
<!DOCTYPE svg PUBLIC "-//W3C//DTD SVG 1.1//EN" "http://www.w3.org/Graphics/SVG/1.1/DTD/svg11.dtd">
<svg version="1.1" id="Capa_1" xmlns="http://www.w3.org/2000/svg" xmlns:xlink="http://www.w3.org/1999/xlink" x="0px" y="0px"
	 width="93.972px" height="83.369px" viewBox="0 0 93.972 83.369" enable-background="new 0 0 93.972 83.369" xml:space="preserve">
<g>
	<g>
		<g>
			<path fill="#8F8F8F" d="M61.954,75.331c0,0.313-0.255,0.566-0.564,0.566c-0.312,0-0.563-0.253-0.563-0.566
				c0-0.312,0.252-0.563,0.563-0.563C61.699,74.768,61.954,75.02,61.954,75.331"/>
		</g>
		<g>
			<path fill="#8F8F8F" d="M66.391,75.078c0,0.171-0.139,0.31-0.312,0.31c-0.171,0-0.311-0.139-0.311-0.31
				c0-0.172,0.14-0.311,0.311-0.311C66.252,74.768,66.391,74.906,66.391,75.078"/>
		</g>
		<g>
			<path fill="#8F8F8F" d="M66.773,72.266c0,0.323-0.262,0.586-0.587,0.586c-0.322,0-0.585-0.263-0.585-0.586
				s0.263-0.587,0.585-0.587C66.512,71.679,66.773,71.942,66.773,72.266"/>
		</g>
		<g>
			<path fill="#8F8F8F" d="M73.688,72.646c0,0.324-0.263,0.589-0.588,0.589c-0.323,0-0.587-0.265-0.587-0.589
				s0.264-0.587,0.587-0.587C73.426,72.06,73.688,72.322,73.688,72.646"/>
		</g>
		<g>
			<path fill="#8F8F8F" d="M76.995,69.007c0,0.352-0.285,0.637-0.637,0.637c-0.351,0-0.636-0.285-0.636-0.637
				c0-0.353,0.285-0.637,0.636-0.637C76.71,68.37,76.995,68.654,76.995,69.007"/>
		</g>
		<g>
			<path fill="#8F8F8F" d="M77.574,70.204c0,0.159-0.13,0.289-0.29,0.289c-0.159,0-0.289-0.13-0.289-0.289
				c0-0.161,0.13-0.288,0.289-0.288C77.444,69.916,77.574,70.043,77.574,70.204"/>
		</g>
		<g>
			<path fill="#8F8F8F" d="M75.258,76.933c0,0.224-0.18,0.404-0.4,0.404c-0.225,0-0.402-0.181-0.402-0.404
				c0-0.22,0.178-0.4,0.402-0.4C75.078,76.532,75.258,76.713,75.258,76.933"/>
		</g>
		<g>
			<path fill="#8F8F8F" d="M75.276,74.268c0,0.222-0.181,0.402-0.401,0.402c-0.223,0-0.402-0.181-0.402-0.402
				c0-0.224,0.18-0.402,0.402-0.402C75.096,73.865,75.276,74.044,75.276,74.268"/>
		</g>
		<g>
			<path fill="#8F8F8F" d="M73.688,70.676c0,0.146-0.12,0.269-0.269,0.269c-0.151,0-0.27-0.122-0.27-0.269
				c0-0.149,0.118-0.271,0.27-0.271C73.568,70.405,73.688,70.526,73.688,70.676"/>
		</g>
		<g>
			<path fill="#8F8F8F" d="M62.028,68.521c0,0.293-0.239,0.529-0.531,0.529c-0.293,0-0.53-0.236-0.53-0.529
				c0-0.292,0.237-0.53,0.53-0.53C61.789,67.99,62.028,68.229,62.028,68.521"/>
		</g>
		<g>
			<path fill="#8F8F8F" d="M65.566,63c0,0.293-0.24,0.53-0.531,0.53c-0.293,0-0.53-0.237-0.53-0.53c0-0.294,0.237-0.531,0.53-0.531
				C65.326,62.469,65.566,62.706,65.566,63"/>
		</g>
		<g>
			<path fill="#8F8F8F" d="M71.004,64.832c0,0.291-0.238,0.528-0.53,0.528c-0.293,0-0.53-0.237-0.53-0.528
				c0-0.295,0.237-0.531,0.53-0.531C70.766,64.301,71.004,64.537,71.004,64.832"/>
		</g>
		<g>
			<path fill="#8F8F8F" d="M67.822,55.884c0,0.293-0.235,0.529-0.53,0.529c-0.291,0-0.528-0.236-0.528-0.529
				c0-0.294,0.237-0.531,0.528-0.531C67.587,55.353,67.822,55.59,67.822,55.884"/>
		</g>
		<g>
			<path fill="#8F8F8F" d="M62.351,66.442c0,0.166-0.135,0.302-0.303,0.302s-0.302-0.136-0.302-0.302s0.134-0.305,0.302-0.305
				S62.351,66.276,62.351,66.442"/>
		</g>
		<g>
			<path fill="#8F8F8F" d="M63.727,64.692c0,0.169-0.136,0.304-0.302,0.304c-0.168,0-0.304-0.135-0.304-0.304
				c0-0.166,0.136-0.302,0.304-0.302C63.591,64.391,63.727,64.526,63.727,64.692"/>
		</g>
		<g>
			<path fill="#8F8F8F" d="M64.029,67.24c0,0.169-0.134,0.304-0.303,0.304c-0.167,0-0.302-0.135-0.302-0.304
				c0-0.168,0.135-0.303,0.302-0.303C63.896,66.938,64.029,67.072,64.029,67.24"/>
		</g>
		<g>
			<path fill="#8F8F8F" d="M66.438,66.814c0,0.166-0.137,0.303-0.303,0.303s-0.303-0.137-0.303-0.303
				c0-0.168,0.137-0.304,0.303-0.304S66.438,66.646,66.438,66.814"/>
		</g>
		<g>
			<path fill="#8F8F8F" d="M69.04,65.12c0,0.166-0.133,0.303-0.302,0.303c-0.167,0-0.303-0.137-0.303-0.303s0.136-0.303,0.303-0.303
				C68.907,64.817,69.04,64.954,69.04,65.12"/>
		</g>
		<g>
			<path fill="#8F8F8F" d="M70.459,62.657c0,0.166-0.136,0.302-0.303,0.302s-0.301-0.136-0.301-0.302
				c0-0.17,0.134-0.304,0.301-0.304S70.459,62.487,70.459,62.657"/>
		</g>
		<g>
			<path fill="#8F8F8F" d="M67.474,53.956c0,0.167-0.136,0.303-0.305,0.303c-0.168,0-0.304-0.136-0.304-0.303
				c0-0.168,0.136-0.304,0.304-0.304C67.338,53.652,67.474,53.788,67.474,53.956"/>
		</g>
	</g>
	<g>
		<g>
			<g>
				<g>
					
						<rect x="43.982" y="5.557" transform="matrix(0.5147 0.8574 -0.8574 0.5147 27.3223 -36.8102)" fill="#8F8F8F" width="4.389" height="0.345"/>
				</g>
				<g>
					
						<rect x="46.526" y="12.519" transform="matrix(0.5143 0.8576 -0.8576 0.5143 35.3407 -37.0184)" fill="#8F8F8F" width="7.651" height="0.344"/>
				</g>
			</g>
			<g>
				<g>
					
						<rect x="75.515" y="58.402" transform="matrix(0.514 0.8578 -0.8578 0.514 88.0067 -38.1903)" fill="#8F8F8F" width="4.387" height="0.345"/>
				</g>
				<g>
					
						<rect x="69.71" y="51.442" transform="matrix(0.5143 0.8576 -0.8576 0.5143 79.9786 -37.9954)" fill="#8F8F8F" width="7.65" height="0.345"/>
				</g>
			</g>
			<g>
				<g>
					
						<rect x="85.825" y="15.582" transform="matrix(0.5162 0.8565 -0.8565 0.5162 56.8328 -65.0559)" fill="#8F8F8F" width="0.344" height="4.387"/>
				</g>
				<g>
					
						<rect x="78.865" y="18.123" transform="matrix(0.5141 0.8577 -0.8577 0.5141 57.2318 -57.1284)" fill="#8F8F8F" width="0.344" height="7.65"/>
				</g>
			</g>
			<g>
				<g>
					
						<rect x="66.991" y="1.603" transform="matrix(0.9693 0.2459 -0.2459 0.9693 2.9951 -16.3963)" fill="#8F8F8F" width="0.346" height="4.388"/>
				</g>
				<g>
					
						<rect x="65.021" y="7.846" transform="matrix(0.9683 0.2499 -0.2499 0.9683 4.9843 -15.9202)" fill="#8F8F8F" width="0.344" height="7.65"/>
				</g>
			</g>
			<g>
				<g>
					
						<rect x="87.238" y="40.805" transform="matrix(0.97 0.2433 -0.2433 0.97 12.6548 -20.525)" fill="#8F8F8F" width="4.388" height="0.342"/>
				</g>
				<g>
					
						<rect x="77.733" y="38.834" transform="matrix(0.9701 0.2428 -0.2428 0.9701 11.9131 -18.6375)" fill="#8F8F8F" width="7.649" height="0.343"/>
				</g>
			</g>
		</g>
	</g>
	<g>
		<g>
			<path fill="#8F8F8F" d="M75.828,12.987c-0.183,0.245-0.527,0.297-0.771,0.114c-0.244-0.18-0.296-0.526-0.113-0.771
				c0.181-0.245,0.527-0.294,0.771-0.114C75.959,12.398,76.01,12.743,75.828,12.987"/>
		</g>
		<g>
			<path fill="#8F8F8F" d="M85.609,30.146c-0.302,0.047-0.581-0.163-0.627-0.464c-0.045-0.302,0.165-0.581,0.465-0.626
				c0.304-0.045,0.584,0.162,0.626,0.465C86.119,29.823,85.91,30.104,85.609,30.146"/>
		</g>
		<g>
			<path fill="#8F8F8F" d="M56.78,7.77c0.044,0.303-0.165,0.583-0.467,0.627c-0.3,0.045-0.581-0.166-0.625-0.465
				c-0.045-0.301,0.163-0.582,0.464-0.628C56.454,7.262,56.734,7.469,56.78,7.77"/>
		</g>
		<g>
			<path fill="#8F8F8F" d="M80.392,49.198c-0.244-0.183-0.295-0.527-0.114-0.771c0.18-0.246,0.527-0.296,0.771-0.115
				c0.246,0.183,0.297,0.528,0.116,0.773C80.982,49.328,80.636,49.38,80.392,49.198"/>
		</g>
	</g>
	<path fill="#8F8F8F" d="M67.982,47.038c3.666-2.147,6.446-5.76,7.416-10.104c0.908-4.074,0.185-8.259-2.042-11.781
		c-2.226-3.522-5.69-5.963-9.749-6.868c-1.116-0.249-2.263-0.376-3.398-0.376c-2.965,0-5.785,0.864-8.197,2.376L44.92,8.401
		L2.158,80.035H87.68L67.982,47.038z M51.426,74.724L30.295,62.175V33.783l22.914,37.898L51.426,74.724z M30.235,62.282
		l21.129,12.546l-2.851,4.861H2.847L30.235,62.282z M2.853,79.543l27.322-45.771v28.404L2.853,79.543z M67.82,47.436l19.254,32.254
		H48.912L67.82,47.436z M68.617,46.237c-1.184,0.795-2.48,1.427-3.851,1.868c-0.056,0.017-0.111,0.037-0.167,0.055
		c-0.1,0.03-0.203,0.06-0.303,0.087c-0.158,0.046-0.318,0.09-0.48,0.13c-0.02,0.005-0.037,0.009-0.055,0.015
		c-1.543,0.372-3.142,0.505-4.728,0.387c-0.069-0.007-0.135-0.01-0.201-0.016c-0.161-0.014-0.325-0.032-0.487-0.052
		c-0.125-0.016-0.253-0.032-0.379-0.052c-0.117-0.017-0.233-0.032-0.348-0.054c-0.251-0.043-0.502-0.089-0.75-0.146
		c-8.196-1.828-13.37-10.011-11.532-18.238c0.052-0.228,0.107-0.454,0.169-0.68c0.036-0.132,0.077-0.264,0.118-0.397
		c0.021-0.079,0.044-0.16,0.07-0.238c0.061-0.191,0.126-0.383,0.194-0.574c0.003-0.003,0.003-0.008,0.004-0.01
		c1.765-4.818,5.879-8.444,10.791-9.642c-1.804,2.558-2.833,5.864-2.833,9.136c0,8.479,6.892,15.378,15.365,15.378
		c0.977,0,1.937-0.211,2.864-0.411c0.073-0.017,0.144-0.032,0.215-0.047C71.243,44.121,69.997,45.293,68.617,46.237z M63.531,18.621
		c3.971,0.886,7.356,3.271,9.535,6.717c2.175,3.443,2.885,7.536,1.996,11.521c-0.472,2.115-1.384,4.05-2.619,5.721l-0.017,0.004
		c-0.122,0.026-0.248,0.055-0.376,0.081c-0.918,0.202-1.87,0.409-2.835,0.409c-8.408,0-15.244-6.845-15.244-15.259
		c0-3.296,1.05-6.627,2.889-9.179c1.085-0.251,2.206-0.383,3.349-0.383C61.32,18.254,62.438,18.375,63.531,18.621z M51.712,20.452
		c-3.045,1.992-5.261,4.922-6.35,8.358c-0.021,0.071-0.042,0.143-0.063,0.214c-0.043,0.144-0.089,0.286-0.127,0.432
		c-0.062,0.229-0.12,0.457-0.173,0.69c-0.059,0.264-0.109,0.526-0.153,0.789c-0.134,0.786-0.207,1.571-0.222,2.35
		c-0.117,6.485,3.831,12.449,9.896,14.818c0.729,0.284,1.487,0.517,2.272,0.692c0.254,0.058,0.508,0.105,0.766,0.149
		c0.109,0.018,0.224,0.035,0.335,0.052c0.136,0.019,0.271,0.038,0.406,0.055c0.156,0.021,0.31,0.036,0.466,0.05
		c0.078,0.006,0.157,0.014,0.235,0.019c0.396,0.031,0.793,0.053,1.188,0.053l0,0c1.214,0,2.401-0.15,3.55-0.422
		c0.029-0.008,0.062-0.017,0.093-0.025c0.157-0.037,0.316-0.078,0.473-0.121c0.127-0.035,0.255-0.073,0.38-0.112
		c0.05-0.015,0.099-0.029,0.146-0.045c0.911-0.285,1.799-0.654,2.646-1.106L53.407,71.344l-22.977-38L44.92,9.072L51.712,20.452z"/>
	<g>
		<path fill="#8F8F8F" d="M25.656,60.663h-4.748l0.048-0.092l2.016-3.671l-2.063-3.743h4.748L23.622,56.9L25.656,60.663z
			 M21.112,60.541h4.342l-1.97-3.641l0.017-0.029l1.953-3.593h-4.342l1.996,3.622l-0.016,0.028L21.112,60.541z"/>
	</g>
	<g>
		<polygon fill="#8F8F8F" points="24.09,54.704 23.283,56.102 22.476,54.704 		"/>
	</g>
	<g>
		<polygon fill="#8F8F8F" points="21.802,60.109 23.283,58.16 24.764,60.109 		"/>
	</g>
</g>
</svg>
