<?xml version="1.0" encoding="utf-8"?>
<!-- Generator: Adobe Illustrator 16.0.3, SVG Export Plug-In . SVG Version: 6.00 Build 0)  -->
<!DOCTYPE svg PUBLIC "-//W3C//DTD SVG 1.1//EN" "http://www.w3.org/Graphics/SVG/1.1/DTD/svg11.dtd">
<svg version="1.1" id="Capa_1" xmlns="http://www.w3.org/2000/svg" xmlns:xlink="http://www.w3.org/1999/xlink" x="0px" y="0px"
	 width="157.06px" height="59.995px" viewBox="0 0 157.06 59.995" enable-background="new 0 0 157.06 59.995" xml:space="preserve">
<g>
	<g>
		<path fill-rule="evenodd" clip-rule="evenodd" fill="#E2AC85" d="M66.919,6.469h-11.74c-0.357,0-0.647-0.29-0.647-0.646
			c0-0.357,0.29-0.648,0.647-0.648h12.632c0.208,0,0.403,0.099,0.524,0.267c0.123,0.168,0.156,0.385,0.094,0.581L52.032,56.326
			h12.391c0.358,0,0.647,0.29,0.647,0.647c0,0.356-0.289,0.646-0.647,0.646H51.141c-0.208,0-0.401-0.099-0.525-0.266
			c-0.12-0.169-0.155-0.386-0.091-0.582L66.919,6.469z"/>
	</g>
	<g>
		<path fill-rule="evenodd" clip-rule="evenodd" fill="#E2AC85" d="M74.565,56.326h11.568c0.357,0,0.648,0.29,0.648,0.647
			c0,0.356-0.291,0.646-0.648,0.646H73.918c-0.356,0-0.647-0.289-0.647-0.646V5.823c0-0.358,0.291-0.648,0.647-0.648h12.216
			c0.357,0,0.648,0.29,0.648,0.648c0,0.355-0.291,0.646-0.648,0.646H74.565V56.326z"/>
	</g>
	<g>
		<path fill-rule="evenodd" clip-rule="evenodd" fill="#E2AC85" d="M93.034,27.683c1.952-2.776,4.407-4.797,6.525-6.9
			c2.427-2.41,4.396-4.936,4.396-9.055c0-3.809-3.296-5.201-6.321-5.232c-1.898-0.021-3.729,0.466-4.6,1.333V27.683z M91.739,56.974
			V7.578c0-0.15,0.053-0.296,0.146-0.411c0.973-1.185,3.297-1.994,5.762-1.968c3.693,0.039,7.602,1.877,7.602,6.528
			c0,4.526-2.111,7.326-4.776,9.975c-2.473,2.456-5.443,4.775-7.438,8.424v26.848c0,0.356-0.29,0.646-0.646,0.646
			C92.03,57.62,91.739,57.33,91.739,56.974"/>
	</g>
	<g>
		<path fill-rule="evenodd" clip-rule="evenodd" fill="#E2AC85" d="M131.251,5.823v51.15c0,0.356,0.293,0.646,0.648,0.646
			c0.357,0,0.648-0.29,0.648-0.646V5.823c0-0.358-0.291-0.648-0.648-0.648C131.544,5.175,131.251,5.465,131.251,5.823"/>
	</g>
	<g>
		<path fill-rule="evenodd" clip-rule="evenodd" fill="#E2AC85" d="M119.184,5.867c0,0,0.289,9.045,1.793,13.888
			c0.788,2.547,1.713,4.385,3.336,5.604c1.607,1.209,3.925,1.823,7.587,1.823c0.357,0,0.648-0.29,0.648-0.648
			c0-0.357-0.291-0.647-0.648-0.647c-3.277,0-5.369-0.48-6.809-1.563c-1.425-1.071-2.183-2.717-2.878-4.954
			c-1.465-4.721-1.733-13.543-1.733-13.543c-0.011-0.358-0.313-0.64-0.669-0.628C119.454,5.21,119.173,5.509,119.184,5.867"/>
	</g>
	<g>
		<path fill-rule="evenodd" clip-rule="evenodd" fill="#E2AC85" d="M111.648,56.974V5.823c0-0.358-0.29-0.648-0.647-0.648
			s-0.648,0.29-0.648,0.648v51.15c0,0.356,0.291,0.646,0.648,0.646S111.648,57.33,111.648,56.974"/>
	</g>
	<g>
		<path fill-rule="evenodd" clip-rule="evenodd" fill="#E2AC85" d="M123.717,56.929c0,0-0.288-9.047-1.792-13.889
			c-0.79-2.546-1.715-4.385-3.337-5.604c-1.607-1.21-3.926-1.823-7.587-1.823c-0.357,0-0.648,0.29-0.648,0.647
			s0.291,0.647,0.648,0.647c3.278,0,5.37,0.481,6.81,1.563c1.424,1.072,2.184,2.718,2.878,4.954
			c1.465,4.722,1.734,13.544,1.734,13.544c0.01,0.357,0.311,0.639,0.667,0.627C123.448,57.585,123.729,57.285,123.717,56.929"/>
	</g>
	<g>
		<path fill-rule="evenodd" clip-rule="evenodd" fill="#E2AC85" d="M139.58,7.871v49.103c0,0.356,0.291,0.646,0.647,0.646
			c0.357,0,0.647-0.29,0.647-0.646V7.871c0-0.357-0.29-0.648-0.647-0.648C139.871,7.223,139.58,7.514,139.58,7.871"/>
	</g>
	<g>
		<path fill-rule="evenodd" clip-rule="evenodd" fill="#E2AC85" d="M143.622,33.079c0.999,0.279,1.836,0.688,2.536,1.202
			c1.631,1.192,2.549,2.953,3.039,5.029c0.466,1.961,0.551,4.212,0.551,6.489c0,6.124,1.228,8.563,2.994,10.77
			c0.225,0.277,0.178,0.686-0.102,0.91c-0.278,0.223-0.688,0.178-0.911-0.102c-1.9-2.376-3.277-4.984-3.277-11.578
			c0-2.171-0.07-4.318-0.514-6.189c-0.418-1.76-1.162-3.271-2.545-4.283c-1.199-0.879-2.868-1.372-5.166-1.372V32.66
			c2.138,0,4.337-1.359,6.231-3.421c2.948-3.208,5.142-8.144,5.142-12.773c0-4.518-1.078-7.168-2.733-8.58
			c-1.056-0.899-2.334-1.272-3.651-1.323c-3.223-0.128-4.443,1.661-4.443,1.661c-0.194,0.3-0.596,0.386-0.896,0.192
			c-0.3-0.194-0.387-0.595-0.191-0.896c0,0,1.494-2.413,5.582-2.251c1.605,0.063,3.155,0.536,4.439,1.631
			c1.854,1.581,3.19,4.508,3.19,9.566c0,4.946-2.333,10.223-5.482,13.649C146.237,31.396,144.948,32.413,143.622,33.079"/>
	</g>
	<g>
		<path fill-rule="evenodd" clip-rule="evenodd" fill="#E2AC85" d="M2.896,5.823v51.15c0,0.356,0.291,0.646,0.647,0.646
			s0.647-0.29,0.647-0.646V5.823c0-0.358-0.291-0.648-0.647-0.648S2.896,5.465,2.896,5.823"/>
	</g>
	<g>
		<path fill-rule="evenodd" clip-rule="evenodd" fill="#E2AC85" d="M5.384,26.594c0.319-0.175,0.657-0.339,1.004-0.476
			c1.314-0.521,2.746-0.649,3.878,0.169c1.117,0.808,2.016,2.648,2.016,6.35v24.337c0,0.356-0.29,0.646-0.647,0.646
			s-0.646-0.29-0.646-0.646V32.637c0-1.602-0.168-2.809-0.459-3.7c-0.256-0.778-0.601-1.296-1.021-1.6
			c-0.771-0.558-1.747-0.369-2.641-0.014c-1.552,0.615-2.889,1.82-2.889,1.82c-0.233,0.211-0.586,0.223-0.833,0.028
			c-0.248-0.194-0.319-0.537-0.172-0.815l12.215-22.84c0.169-0.315,0.562-0.435,0.877-0.266s0.434,0.562,0.265,0.877L5.384,26.594z"
			/>
	</g>
	<g>
		<path fill-rule="evenodd" clip-rule="evenodd" fill="#E2AC85" d="M26.873,11.286L20.4,57.064c-0.051,0.353-0.378,0.601-0.733,0.55
			c-0.354-0.05-0.6-0.378-0.55-0.731l7.234-51.151c0.045-0.325,0.327-0.564,0.654-0.557s0.598,0.258,0.63,0.585l4.983,51.15
			c0.034,0.356-0.227,0.674-0.583,0.707c-0.355,0.035-0.673-0.226-0.707-0.581L26.873,11.286z"/>
	</g>
	<g>
		<path fill-rule="evenodd" clip-rule="evenodd" fill="#E2AC85" d="M22.162,44.139l7.921-11.729c0.2-0.296,0.122-0.699-0.175-0.899
			c-0.295-0.199-0.698-0.122-0.899,0.174l-7.92,11.73c-0.201,0.296-0.123,0.698,0.174,0.898
			C21.559,44.513,21.961,44.435,22.162,44.139"/>
	</g>
	<g>
		<path fill-rule="evenodd" clip-rule="evenodd" fill="#E2AC85" d="M73.923,32.088l6.107-0.042c0.356-0.003,0.645-0.295,0.643-0.653
			c-0.003-0.357-0.295-0.645-0.653-0.644l-6.105,0.044c-0.357,0.002-0.645,0.294-0.643,0.652
			C73.274,31.802,73.565,32.091,73.923,32.088"/>
	</g>
</g>
</svg>
