<?xml version="1.0" encoding="utf-8"?>
<!-- Generator: Adobe Illustrator 16.0.3, SVG Export Plug-In . SVG Version: 6.00 Build 0)  -->
<!DOCTYPE svg PUBLIC "-//W3C//DTD SVG 1.1//EN" "http://www.w3.org/Graphics/SVG/1.1/DTD/svg11.dtd">
<svg version="1.1" id="Capa_1" xmlns="http://www.w3.org/2000/svg" xmlns:xlink="http://www.w3.org/1999/xlink" x="0px" y="0px"
	 width="92.972px" height="81.869px" viewBox="0 0 92.972 81.869" enable-background="new 0 0 92.972 81.869" xml:space="preserve">
<g>
	<g>
		<g>
			<path fill="#E2AC85" d="M60.796,74.776c0,0.313-0.256,0.566-0.565,0.566c-0.312,0-0.563-0.253-0.563-0.566
				c0-0.312,0.252-0.563,0.563-0.563C60.54,74.213,60.796,74.465,60.796,74.776"/>
		</g>
		<g>
			<path fill="#E2AC85" d="M65.232,74.523c0,0.171-0.139,0.31-0.312,0.31s-0.312-0.139-0.312-0.31c0-0.172,0.139-0.311,0.312-0.311
				S65.232,74.352,65.232,74.523"/>
		</g>
		<g>
			<path fill="#E2AC85" d="M65.615,71.711c0,0.323-0.262,0.586-0.587,0.586c-0.322,0-0.587-0.263-0.587-0.586
				s0.265-0.587,0.587-0.587C65.354,71.124,65.615,71.388,65.615,71.711"/>
		</g>
		<g>
			<path fill="#E2AC85" d="M72.529,72.092c0,0.324-0.264,0.589-0.588,0.589s-0.586-0.265-0.586-0.589s0.262-0.587,0.586-0.587
				S72.529,71.768,72.529,72.092"/>
		</g>
		<g>
			<path fill="#E2AC85" d="M75.837,68.452c0,0.352-0.286,0.637-0.638,0.637c-0.35,0-0.636-0.285-0.636-0.637
				c0-0.353,0.286-0.637,0.636-0.637C75.551,67.815,75.837,68.1,75.837,68.452"/>
		</g>
		<g>
			<path fill="#E2AC85" d="M76.415,69.649c0,0.159-0.13,0.289-0.29,0.289s-0.288-0.13-0.288-0.289c0-0.161,0.128-0.288,0.288-0.288
				S76.415,69.488,76.415,69.649"/>
		</g>
		<g>
			<path fill="#E2AC85" d="M74.1,76.378c0,0.224-0.18,0.404-0.4,0.404c-0.226,0-0.403-0.181-0.403-0.404c0-0.22,0.178-0.4,0.403-0.4
				C73.92,75.978,74.1,76.158,74.1,76.378"/>
		</g>
		<g>
			<path fill="#E2AC85" d="M74.119,73.713c0,0.222-0.182,0.402-0.402,0.402c-0.223,0-0.402-0.181-0.402-0.402
				c0-0.224,0.18-0.402,0.402-0.402C73.938,73.311,74.119,73.489,74.119,73.713"/>
		</g>
		<g>
			<path fill="#E2AC85" d="M72.529,70.121c0,0.146-0.12,0.269-0.269,0.269c-0.149,0-0.269-0.122-0.269-0.269
				c0-0.149,0.119-0.271,0.269-0.271C72.409,69.851,72.529,69.972,72.529,70.121"/>
		</g>
		<g>
			<path fill="#E2AC85" d="M60.87,67.966c0,0.293-0.24,0.529-0.531,0.529c-0.293,0-0.53-0.236-0.53-0.529
				c0-0.292,0.237-0.53,0.53-0.53C60.63,67.436,60.87,67.674,60.87,67.966"/>
		</g>
		<g>
			<path fill="#E2AC85" d="M64.408,62.445c0,0.293-0.24,0.53-0.531,0.53c-0.293,0-0.53-0.237-0.53-0.53
				c0-0.294,0.237-0.531,0.53-0.531C64.168,61.914,64.408,62.151,64.408,62.445"/>
		</g>
		<g>
			<path fill="#E2AC85" d="M69.845,64.277c0,0.291-0.237,0.528-0.53,0.528s-0.529-0.237-0.529-0.528
				c0-0.295,0.236-0.531,0.529-0.531S69.845,63.982,69.845,64.277"/>
		</g>
		<g>
			<path fill="#E2AC85" d="M66.664,55.329c0,0.293-0.236,0.529-0.53,0.529c-0.292,0-0.53-0.236-0.53-0.529
				c0-0.294,0.238-0.531,0.53-0.531C66.428,54.798,66.664,55.035,66.664,55.329"/>
		</g>
		<g>
			<path fill="#E2AC85" d="M61.192,65.888c0,0.166-0.136,0.302-0.304,0.302c-0.167,0-0.303-0.136-0.303-0.302
				s0.136-0.305,0.303-0.305C61.057,65.583,61.192,65.722,61.192,65.888"/>
		</g>
		<g>
			<path fill="#E2AC85" d="M62.567,64.138c0,0.169-0.135,0.304-0.302,0.304c-0.168,0-0.303-0.135-0.303-0.304
				c0-0.166,0.135-0.302,0.303-0.302C62.433,63.836,62.567,63.972,62.567,64.138"/>
		</g>
		<g>
			<path fill="#E2AC85" d="M62.871,66.686c0,0.169-0.135,0.304-0.304,0.304c-0.166,0-0.302-0.135-0.302-0.304
				c0-0.168,0.136-0.303,0.302-0.303C62.736,66.383,62.871,66.518,62.871,66.686"/>
		</g>
		<g>
			<path fill="#E2AC85" d="M65.28,66.26c0,0.166-0.137,0.303-0.303,0.303c-0.167,0-0.303-0.137-0.303-0.303
				c0-0.168,0.136-0.304,0.303-0.304C65.144,65.956,65.28,66.092,65.28,66.26"/>
		</g>
		<g>
			<path fill="#E2AC85" d="M67.882,64.565c0,0.166-0.133,0.303-0.303,0.303c-0.166,0-0.302-0.137-0.302-0.303
				s0.136-0.303,0.302-0.303C67.749,64.263,67.882,64.399,67.882,64.565"/>
		</g>
		<g>
			<path fill="#E2AC85" d="M69.301,62.103c0,0.166-0.136,0.302-0.303,0.302s-0.302-0.136-0.302-0.302
				c0-0.17,0.135-0.304,0.302-0.304S69.301,61.933,69.301,62.103"/>
		</g>
		<g>
			<path fill="#E2AC85" d="M66.314,53.401c0,0.167-0.137,0.303-0.304,0.303c-0.169,0-0.304-0.136-0.304-0.303
				c0-0.168,0.135-0.304,0.304-0.304C66.178,53.098,66.314,53.233,66.314,53.401"/>
		</g>
	</g>
	<g>
		<g>
			<g>
				<g>
					
						<rect x="42.824" y="5.002" transform="matrix(0.5145 0.8575 -0.8575 0.5145 26.2922 -36.0896)" fill="#E2AC85" width="4.388" height="0.345"/>
				</g>
				<g>
					
						<rect x="45.366" y="11.965" transform="matrix(0.5142 0.8577 -0.8577 0.5142 34.307 -36.2949)" fill="#E2AC85" width="7.65" height="0.342"/>
				</g>
			</g>
			<g>
				<g>
					
						<rect x="74.356" y="57.847" transform="matrix(0.5139 0.8579 -0.8579 0.5139 86.986 -37.464)" fill="#E2AC85" width="4.386" height="0.345"/>
				</g>
				<g>
					
						<rect x="68.551" y="50.888" transform="matrix(0.5143 0.8576 -0.8576 0.5143 78.9399 -37.2707)" fill="#E2AC85" width="7.65" height="0.345"/>
				</g>
			</g>
			<g>
				<g>
					
						<rect x="84.666" y="15.027" transform="matrix(0.512 0.859 -0.859 0.512 56.1943 -64.4716)" fill="#E2AC85" width="0.343" height="4.386"/>
				</g>
				<g>
					
						<rect x="77.706" y="17.568" transform="matrix(0.5162 0.8565 -0.8565 0.5162 56.0038 -56.3511)" fill="#E2AC85" width="0.344" height="7.65"/>
				</g>
			</g>
			<g>
				<g>
					
						<rect x="65.833" y="1.048" transform="matrix(0.969 0.2472 -0.2472 0.969 2.8502 -16.2165)" fill="#E2AC85" width="0.344" height="4.388"/>
				</g>
				<g>
					
						<rect x="63.862" y="7.291" transform="matrix(0.9685 0.2492 -0.2492 0.9685 4.79 -15.6063)" fill="#E2AC85" width="0.345" height="7.65"/>
				</g>
			</g>
			<g>
				<g>
					
						<rect x="86.078" y="40.25" transform="matrix(0.9699 0.2433 -0.2433 0.9699 12.4883 -20.2635)" fill="#E2AC85" width="4.387" height="0.342"/>
				</g>
				<g>
					
						<rect x="76.574" y="38.279" transform="matrix(0.9701 0.2429 -0.2429 0.9701 11.7455 -18.3747)" fill="#E2AC85" width="7.648" height="0.343"/>
				</g>
			</g>
		</g>
	</g>
	<g>
		<g>
			<path fill="#E2AC85" d="M74.669,12.433c-0.183,0.245-0.526,0.297-0.771,0.114c-0.245-0.18-0.296-0.526-0.114-0.771
				s0.527-0.294,0.771-0.114C74.8,11.844,74.852,12.188,74.669,12.433"/>
		</g>
		<g>
			<path fill="#E2AC85" d="M84.449,29.592c-0.301,0.047-0.58-0.163-0.625-0.464c-0.045-0.302,0.164-0.581,0.465-0.626
				c0.304-0.045,0.583,0.162,0.626,0.465C84.961,29.269,84.752,29.549,84.449,29.592"/>
		</g>
		<g>
			<path fill="#E2AC85" d="M55.621,7.215c0.043,0.303-0.165,0.583-0.466,0.627c-0.302,0.045-0.583-0.166-0.626-0.465
				c-0.045-0.301,0.163-0.582,0.465-0.628C55.295,6.707,55.574,6.914,55.621,7.215"/>
		</g>
		<g>
			<path fill="#E2AC85" d="M79.232,48.644c-0.243-0.183-0.295-0.527-0.114-0.771c0.181-0.246,0.526-0.296,0.771-0.115
				c0.246,0.183,0.296,0.528,0.116,0.773C79.823,48.773,79.478,48.825,79.232,48.644"/>
		</g>
	</g>
	<path fill="#E2AC85" d="M66.824,46.483c3.666-2.147,6.446-5.76,7.414-10.104c0.91-4.074,0.187-8.259-2.04-11.781
		c-2.226-3.522-5.691-5.963-9.749-6.868c-1.117-0.249-2.264-0.376-3.399-0.376c-2.964,0-5.784,0.864-8.196,2.376L43.761,7.847
		L1,79.48h85.521L66.824,46.483z M50.267,74.169L29.136,61.62V33.229L52.05,71.127L50.267,74.169z M29.077,61.728l21.129,12.546
		l-2.852,4.861H1.687L29.077,61.728z M1.694,78.988l27.322-45.771v28.404L1.694,78.988z M66.662,46.881l19.254,32.254H47.753
		L66.662,46.881z M67.458,45.683c-1.185,0.795-2.48,1.427-3.85,1.868c-0.056,0.017-0.111,0.037-0.169,0.055
		c-0.098,0.03-0.202,0.06-0.301,0.087c-0.159,0.046-0.319,0.09-0.48,0.13c-0.02,0.005-0.039,0.009-0.056,0.015
		c-1.544,0.372-3.141,0.505-4.728,0.387c-0.068-0.007-0.135-0.01-0.2-0.016c-0.161-0.014-0.325-0.032-0.487-0.052
		c-0.126-0.016-0.253-0.032-0.381-0.052c-0.116-0.017-0.232-0.032-0.348-0.054c-0.25-0.043-0.502-0.089-0.748-0.146
		c-8.196-1.828-13.37-10.011-11.532-18.238c0.051-0.228,0.108-0.454,0.167-0.68c0.038-0.132,0.078-0.264,0.119-0.397
		c0.023-0.079,0.045-0.16,0.071-0.238c0.06-0.191,0.126-0.383,0.194-0.574c0.002-0.003,0.002-0.008,0.004-0.01
		c1.764-4.818,5.877-8.444,10.791-9.642c-1.805,2.558-2.834,5.864-2.834,9.136c0,8.479,6.892,15.378,15.366,15.378
		c0.977,0,1.937-0.211,2.863-0.411c0.073-0.017,0.145-0.032,0.214-0.047C70.084,43.566,68.839,44.738,67.458,45.683z M62.373,18.066
		c3.97,0.886,7.355,3.271,9.534,6.717c2.177,3.443,2.886,7.536,1.995,11.521c-0.47,2.115-1.383,4.05-2.617,5.721l-0.017,0.004
		c-0.124,0.026-0.248,0.055-0.376,0.081c-0.918,0.202-1.871,0.409-2.835,0.409c-8.408,0-15.244-6.845-15.244-15.259
		c0-3.296,1.05-6.627,2.889-9.179c1.084-0.251,2.206-0.383,3.348-0.383C60.162,17.699,61.279,17.82,62.373,18.066z M50.553,19.897
		c-3.044,1.992-5.261,4.922-6.35,8.358c-0.021,0.071-0.043,0.143-0.063,0.214c-0.044,0.144-0.089,0.286-0.128,0.432
		c-0.062,0.229-0.12,0.457-0.172,0.69c-0.059,0.264-0.11,0.526-0.154,0.789c-0.134,0.786-0.207,1.571-0.222,2.35
		c-0.117,6.485,3.83,12.449,9.896,14.818c0.728,0.284,1.487,0.517,2.272,0.692c0.254,0.058,0.509,0.105,0.765,0.149
		c0.111,0.018,0.226,0.035,0.336,0.052c0.136,0.019,0.271,0.038,0.406,0.055c0.156,0.021,0.311,0.036,0.466,0.05
		c0.079,0.006,0.157,0.014,0.235,0.019c0.396,0.031,0.793,0.053,1.188,0.053l0,0c1.213,0,2.401-0.15,3.55-0.422
		c0.029-0.008,0.062-0.017,0.093-0.025c0.157-0.037,0.315-0.078,0.472-0.121c0.128-0.035,0.256-0.073,0.381-0.112
		c0.049-0.015,0.099-0.029,0.146-0.045c0.91-0.285,1.798-0.654,2.644-1.106L52.247,70.789l-22.975-38L43.761,8.518L50.553,19.897z"
		/>
	<g>
		<path fill="#E2AC85" d="M24.498,60.108h-4.75l0.05-0.092l2.015-3.671l-2.064-3.743h4.75l-2.034,3.743L24.498,60.108z
			 M19.953,59.986h4.343l-1.972-3.641l0.018-0.029l1.954-3.593h-4.343l1.997,3.622l-0.016,0.028L19.953,59.986z"/>
	</g>
	<g>
		<polygon fill="#E2AC85" points="22.931,54.149 22.125,55.547 21.317,54.149 		"/>
	</g>
	<g>
		<polygon fill="#E2AC85" points="20.643,59.555 22.125,57.605 23.605,59.555 		"/>
	</g>
</g>
</svg>
