<?xml version="1.0" encoding="utf-8"?>
<!-- Generator: Adobe Illustrator 16.0.3, SVG Export Plug-In . SVG Version: 6.00 Build 0)  -->
<!DOCTYPE svg PUBLIC "-//W3C//DTD SVG 1.1//EN" "http://www.w3.org/Graphics/SVG/1.1/DTD/svg11.dtd">
<svg version="1.1" id="Capa_1" xmlns="http://www.w3.org/2000/svg" xmlns:xlink="http://www.w3.org/1999/xlink" x="0px" y="0px"
	 width="93.472px" height="82.869px" viewBox="0 0 93.472 82.869" enable-background="new 0 0 93.472 82.869" xml:space="preserve">
<g>
	<g>
		<g>
			<g>
				<path fill="#D6BFD4" d="M61.88,75.705c0,0.313-0.255,0.566-0.565,0.566s-0.563-0.253-0.563-0.566
					c0-0.312,0.252-0.563,0.563-0.563S61.88,75.394,61.88,75.705"/>
			</g>
			<g>
				<path fill="#D6BFD4" d="M66.316,75.452c0,0.171-0.139,0.31-0.313,0.31c-0.171,0-0.31-0.139-0.31-0.31
					c0-0.172,0.139-0.311,0.31-0.311C66.178,75.142,66.316,75.28,66.316,75.452"/>
			</g>
			<g>
				<path fill="#D6BFD4" d="M66.699,72.64c0,0.323-0.262,0.586-0.586,0.586c-0.322,0-0.586-0.263-0.586-0.586
					s0.264-0.587,0.586-0.587C66.438,72.053,66.699,72.316,66.699,72.64"/>
			</g>
			<g>
				<path fill="#D6BFD4" d="M73.613,73.021c0,0.324-0.263,0.589-0.588,0.589c-0.323,0-0.586-0.265-0.586-0.589
					s0.263-0.587,0.586-0.587C73.351,72.434,73.613,72.696,73.613,73.021"/>
			</g>
			<g>
				<path fill="#D6BFD4" d="M76.922,69.381c0,0.352-0.286,0.637-0.638,0.637s-0.636-0.285-0.636-0.637
					c0-0.353,0.284-0.637,0.636-0.637S76.922,69.028,76.922,69.381"/>
			</g>
			<g>
				<path fill="#D6BFD4" d="M77.5,70.578c0,0.159-0.13,0.289-0.29,0.289s-0.288-0.13-0.288-0.289c0-0.161,0.128-0.288,0.288-0.288
					S77.5,70.417,77.5,70.578"/>
			</g>
			<g>
				<path fill="#D6BFD4" d="M75.184,77.307c0,0.224-0.18,0.404-0.399,0.404c-0.226,0-0.403-0.181-0.403-0.404
					c0-0.22,0.178-0.4,0.403-0.4C75.004,76.906,75.184,77.087,75.184,77.307"/>
			</g>
			<g>
				<path fill="#D6BFD4" d="M75.203,74.642c0,0.222-0.182,0.402-0.402,0.402c-0.223,0-0.403-0.181-0.403-0.402
					c0-0.224,0.181-0.402,0.403-0.402C75.021,74.239,75.203,74.418,75.203,74.642"/>
			</g>
			<g>
				<path fill="#D6BFD4" d="M73.613,71.05c0,0.146-0.119,0.269-0.268,0.269c-0.151,0-0.27-0.122-0.27-0.269
					c0-0.149,0.118-0.271,0.27-0.271C73.494,70.779,73.613,70.9,73.613,71.05"/>
			</g>
			<g>
				<path fill="#D6BFD4" d="M61.955,68.895c0,0.293-0.24,0.529-0.531,0.529c-0.293,0-0.53-0.236-0.53-0.529
					c0-0.292,0.237-0.53,0.53-0.53C61.715,68.364,61.955,68.603,61.955,68.895"/>
			</g>
			<g>
				<path fill="#D6BFD4" d="M65.493,63.374c0,0.293-0.24,0.53-0.531,0.53c-0.293,0-0.53-0.237-0.53-0.53
					c0-0.294,0.237-0.531,0.53-0.531C65.253,62.843,65.493,63.08,65.493,63.374"/>
			</g>
			<g>
				<path fill="#D6BFD4" d="M70.93,65.206c0,0.291-0.237,0.528-0.531,0.528c-0.293,0-0.529-0.237-0.529-0.528
					c0-0.295,0.236-0.531,0.529-0.531C70.692,64.675,70.93,64.911,70.93,65.206"/>
			</g>
			<g>
				<path fill="#D6BFD4" d="M67.749,56.258c0,0.293-0.236,0.529-0.53,0.529c-0.293,0-0.53-0.236-0.53-0.529
					c0-0.294,0.237-0.531,0.53-0.531C67.513,55.727,67.749,55.964,67.749,56.258"/>
			</g>
			<g>
				<path fill="#D6BFD4" d="M62.275,66.816c0,0.166-0.134,0.302-0.301,0.302c-0.168,0-0.304-0.136-0.304-0.302
					s0.136-0.305,0.304-0.305C62.142,66.512,62.275,66.65,62.275,66.816"/>
			</g>
			<g>
				<path fill="#D6BFD4" d="M63.652,65.066c0,0.169-0.135,0.304-0.302,0.304c-0.169,0-0.303-0.135-0.303-0.304
					c0-0.166,0.134-0.302,0.303-0.302C63.518,64.765,63.652,64.9,63.652,65.066"/>
			</g>
			<g>
				<path fill="#D6BFD4" d="M63.955,67.614c0,0.169-0.135,0.304-0.303,0.304c-0.166,0-0.302-0.135-0.302-0.304
					c0-0.168,0.136-0.303,0.302-0.303C63.82,67.312,63.955,67.446,63.955,67.614"/>
			</g>
			<g>
				<path fill="#D6BFD4" d="M66.365,67.188c0,0.166-0.139,0.303-0.305,0.303s-0.301-0.137-0.301-0.303
					c0-0.168,0.135-0.304,0.301-0.304S66.365,67.021,66.365,67.188"/>
			</g>
			<g>
				<path fill="#D6BFD4" d="M68.966,65.494c0,0.166-0.134,0.303-0.302,0.303c-0.166,0-0.302-0.137-0.302-0.303
					s0.136-0.303,0.302-0.303C68.832,65.191,68.966,65.328,68.966,65.494"/>
			</g>
			<g>
				<path fill="#D6BFD4" d="M70.386,63.031c0,0.166-0.136,0.302-0.304,0.302c-0.166,0-0.301-0.136-0.301-0.302
					c0-0.17,0.135-0.304,0.301-0.304C70.25,62.728,70.386,62.861,70.386,63.031"/>
			</g>
			<g>
				<path fill="#D6BFD4" d="M67.398,54.33c0,0.167-0.135,0.303-0.304,0.303s-0.303-0.136-0.303-0.303
					c0-0.168,0.134-0.304,0.303-0.304S67.398,54.162,67.398,54.33"/>
			</g>
		</g>
		<g>
			<g>
				<g>
					<g>
						
							<rect x="43.909" y="5.931" transform="matrix(0.5145 0.8575 -0.8575 0.5145 27.6153 -36.569)" fill="#D6BFD4" width="4.388" height="0.345"/>
					</g>
					<g>
						
							<rect x="46.451" y="12.893" transform="matrix(0.5143 0.8576 -0.8576 0.5143 35.6252 -36.7726)" fill="#D6BFD4" width="7.651" height="0.343"/>
					</g>
				</g>
				<g>
					<g>
						
							<rect x="75.441" y="58.776" transform="matrix(0.514 0.8578 -0.8578 0.514 88.2917 -37.9453)" fill="#D6BFD4" width="4.387" height="0.346"/>
					</g>
					<g>
						
							<rect x="69.635" y="51.817" transform="matrix(0.5142 0.8577 -0.8577 0.5142 80.2726 -37.7486)" fill="#D6BFD4" width="7.649" height="0.344"/>
					</g>
				</g>
				<g>
					<g>
						
							<rect x="85.751" y="15.956" transform="matrix(0.512 0.859 -0.859 0.512 57.5213 -64.9499)" fill="#D6BFD4" width="0.343" height="4.385"/>
					</g>
					<g>
						
							<rect x="78.791" y="18.497" transform="matrix(0.5141 0.8577 -0.8577 0.5141 57.5166 -56.883)" fill="#D6BFD4" width="0.344" height="7.65"/>
					</g>
				</g>
				<g>
					<g>
						
							<rect x="66.918" y="1.977" transform="matrix(0.969 0.2472 -0.2472 0.969 3.1135 -16.4559)" fill="#D6BFD4" width="0.344" height="4.388"/>
					</g>
					<g>
						
							<rect x="64.947" y="8.22" transform="matrix(0.9685 0.2492 -0.2492 0.9685 5.0557 -15.8474)" fill="#D6BFD4" width="0.345" height="7.65"/>
					</g>
				</g>
				<g>
					<g>
						
							<rect x="87.163" y="41.179" transform="matrix(0.9699 0.2433 -0.2433 0.9699 12.7469 -20.4996)" fill="#D6BFD4" width="4.387" height="0.342"/>
					</g>
					<g>
						
							<rect x="77.658" y="39.208" transform="matrix(0.9701 0.2428 -0.2428 0.9701 11.9999 -18.6061)" fill="#D6BFD4" width="7.65" height="0.343"/>
					</g>
				</g>
			</g>
		</g>
		<g>
			<g>
				<path fill="#D6BFD4" d="M75.754,13.361c-0.182,0.245-0.526,0.297-0.771,0.114c-0.244-0.18-0.295-0.526-0.113-0.771
					s0.527-0.294,0.771-0.114C75.885,12.772,75.937,13.117,75.754,13.361"/>
			</g>
			<g>
				<path fill="#D6BFD4" d="M85.534,30.521c-0.3,0.047-0.58-0.163-0.625-0.464c-0.045-0.302,0.163-0.581,0.464-0.626
					c0.305-0.045,0.584,0.162,0.627,0.465C86.046,30.197,85.837,30.478,85.534,30.521"/>
			</g>
			<g>
				<path fill="#D6BFD4" d="M56.705,8.144c0.044,0.303-0.164,0.583-0.465,0.627c-0.302,0.045-0.583-0.166-0.627-0.465
					c-0.044-0.301,0.164-0.582,0.466-0.628C56.38,7.636,56.66,7.843,56.705,8.144"/>
			</g>
			<g>
				<path fill="#D6BFD4" d="M80.316,49.572c-0.242-0.183-0.294-0.527-0.113-0.771c0.179-0.246,0.527-0.296,0.771-0.115
					c0.245,0.183,0.296,0.528,0.115,0.773C80.908,49.702,80.563,49.754,80.316,49.572"/>
			</g>
		</g>
		<path fill="#D6BFD4" d="M67.909,47.412c3.667-2.147,6.444-5.76,7.414-10.104c0.91-4.074,0.187-8.259-2.042-11.781
			c-2.226-3.522-5.689-5.963-9.748-6.868c-1.117-0.249-2.264-0.376-3.398-0.376c-2.964,0-5.786,0.864-8.196,2.376L44.846,8.775
			L2.084,80.409h85.522L67.909,47.412z M51.352,75.098L30.221,62.549V34.157l22.914,37.898L51.352,75.098z M30.161,62.656
			l21.128,12.546l-2.85,4.861H2.771L30.161,62.656z M2.777,79.917l27.323-45.771v28.404L2.777,79.917z M67.746,47.81L87,80.063
			H48.838L67.746,47.81z M68.543,46.611c-1.184,0.795-2.48,1.427-3.85,1.868c-0.056,0.017-0.111,0.037-0.169,0.055
			c-0.099,0.03-0.202,0.06-0.302,0.087c-0.158,0.046-0.318,0.09-0.479,0.13c-0.02,0.005-0.039,0.009-0.056,0.015
			c-1.544,0.372-3.141,0.505-4.729,0.387c-0.067-0.007-0.134-0.01-0.201-0.016c-0.159-0.014-0.324-0.032-0.486-0.052
			c-0.125-0.016-0.254-0.032-0.38-0.052c-0.116-0.017-0.232-0.032-0.348-0.054c-0.251-0.043-0.501-0.089-0.75-0.146
			C48.6,47.005,43.426,38.822,45.263,30.595c0.052-0.228,0.108-0.454,0.168-0.68c0.036-0.132,0.077-0.264,0.119-0.397
			c0.022-0.079,0.044-0.16,0.071-0.238c0.06-0.191,0.125-0.383,0.193-0.574c0.003-0.003,0.003-0.008,0.004-0.01
			c1.765-4.818,5.878-8.444,10.791-9.642c-1.804,2.558-2.834,5.864-2.834,9.136c0,8.479,6.893,15.378,15.367,15.378
			c0.977,0,1.937-0.211,2.863-0.411c0.072-0.017,0.145-0.032,0.215-0.047C71.168,44.495,69.923,45.667,68.543,46.611z
			 M63.457,18.995c3.971,0.886,7.356,3.271,9.535,6.717c2.175,3.443,2.887,7.536,1.996,11.521c-0.472,2.115-1.385,4.05-2.618,5.721
			l-0.017,0.004c-0.123,0.026-0.25,0.055-0.376,0.081c-0.918,0.202-1.872,0.409-2.835,0.409c-8.408,0-15.246-6.845-15.246-15.259
			c0-3.296,1.053-6.627,2.891-9.179c1.084-0.251,2.206-0.383,3.348-0.383C61.247,18.628,62.364,18.749,63.457,18.995z
			 M51.637,20.826c-3.045,1.992-5.26,4.922-6.349,8.358c-0.021,0.071-0.043,0.143-0.062,0.214c-0.045,0.144-0.09,0.286-0.129,0.432
			c-0.063,0.229-0.12,0.457-0.172,0.69c-0.059,0.264-0.11,0.526-0.154,0.789c-0.135,0.786-0.207,1.571-0.222,2.35
			c-0.117,6.485,3.83,12.449,9.896,14.818c0.729,0.284,1.488,0.517,2.273,0.692c0.254,0.058,0.509,0.105,0.765,0.149
			c0.111,0.018,0.225,0.035,0.336,0.052c0.136,0.019,0.271,0.038,0.405,0.055c0.156,0.021,0.311,0.036,0.467,0.05
			c0.078,0.006,0.158,0.014,0.235,0.019c0.396,0.031,0.792,0.053,1.188,0.053l0,0c1.213,0,2.401-0.15,3.548-0.422
			c0.031-0.008,0.063-0.017,0.095-0.025c0.157-0.037,0.314-0.078,0.471-0.121c0.128-0.035,0.255-0.073,0.383-0.112
			c0.048-0.015,0.097-0.029,0.145-0.045c0.911-0.285,1.799-0.654,2.645-1.106L53.332,71.718l-22.977-38l14.49-24.271L51.637,20.826z
			"/>
		<g>
			<path fill="#D6BFD4" d="M25.582,61.037h-4.749l0.05-0.092l2.014-3.671l-2.063-3.743h4.749l-2.034,3.743L25.582,61.037z
				 M21.038,60.915h4.343l-1.972-3.641l0.017-0.029l1.955-3.593h-4.343l1.997,3.622l-0.018,0.028L21.038,60.915z"/>
		</g>
		<g>
			<polygon fill="#D6BFD4" points="24.016,55.078 23.208,56.476 22.402,55.078 			"/>
		</g>
		<g>
			<polygon fill="#D6BFD4" points="21.728,60.483 23.208,58.534 24.69,60.483 			"/>
		</g>
	</g>
</g>
</svg>
