<?xml version="1.0" encoding="utf-8"?>
<!-- Generator: Adobe Illustrator 16.0.3, SVG Export Plug-In . SVG Version: 6.00 Build 0)  -->
<!DOCTYPE svg PUBLIC "-//W3C//DTD SVG 1.1//EN" "http://www.w3.org/Graphics/SVG/1.1/DTD/svg11.dtd">
<svg version="1.1" id="Capa_1" xmlns="http://www.w3.org/2000/svg" xmlns:xlink="http://www.w3.org/1999/xlink" x="0px" y="0px"
	 width="259.721px" height="203.473px" viewBox="0 0 259.721 203.473" enable-background="new 0 0 259.721 203.473"
	 xml:space="preserve">
<path d="M257.474,147.864l0.128-0.075c-14.125-24.144-31.147-43.729-50.024-58.077l37.064-37.064
	c2.942,1.813,6.839,1.462,9.389-1.088c2.981-2.981,2.981-7.813,0-10.795c-2.981-2.981-7.813-2.981-10.795,0
	c-2.551,2.551-2.901,6.448-1.086,9.39l-37.433,37.433c-9.592-6.955-19.64-12.58-30.016-16.773l20.439-40.127
	c3.357,0.813,6.955-0.726,8.591-3.938c1.914-3.757,0.42-8.352-3.337-10.266c-3.757-1.913-8.353-0.419-10.266,3.337
	c-1.638,3.214-0.766,7.03,1.869,9.267l-20.607,40.458c-13.055-4.863-26.595-7.479-40.366-7.686V18.589
	c3.362-0.798,5.871-3.802,5.871-7.408c0-4.216-3.417-7.633-7.633-7.633c-4.216,0-7.633,3.417-7.633,7.633
	c0,3.606,2.509,6.61,5.871,7.408V61.86c-13.618,0.205-27.011,2.761-39.931,7.52L67.048,29.088c2.635-2.237,3.507-6.053,1.869-9.267
	c-1.913-3.756-6.508-5.25-10.266-3.337c-3.757,1.914-5.251,6.509-3.337,10.266c1.636,3.213,5.234,4.752,8.591,3.938l20.353,39.958
	c-10.553,4.219-20.769,9.918-30.515,16.992L16.262,50.155c1.814-2.942,1.464-6.839-1.087-9.39c-2.981-2.981-7.813-2.981-10.794,0
	c-2.981,2.981-2.981,7.813,0,10.795c2.549,2.55,6.447,2.901,9.389,1.088l37.114,37.114c-18.852,14.345-35.851,33.912-49.959,58.028
	l0.128,0.075L0,148.959l1.175,1.222c31.969,33.232,78.655,52.292,128.089,52.292c49.434,0,96.119-19.06,128.087-52.292l1.175-1.222
	L257.474,147.864z M247.732,138.625c-16.234-14.266-35.406-25.361-56.36-32.708l13.683-13.683
	C220.781,104.11,235.212,119.712,247.732,138.625z M187.489,116.223c0,28.051-26.12,50.872-58.225,50.872
	c-32.106,0-58.227-22.821-58.227-50.872c0-2.675,0.257-5.398,0.758-8.113c1.449-0.475,2.895-0.955,4.359-1.394
	c0.443-0.133,0.883-0.276,1.329-0.406c5.39-1.57,10.878-2.902,16.451-3.976c0.154-0.03,0.308-0.053,0.461-0.083
	c2.521-0.48,5.062-0.901,7.614-1.276c0.593-0.087,1.189-0.165,1.783-0.246c2.129-0.292,4.268-0.546,6.415-0.764
	c0.756-0.077,1.511-0.155,2.269-0.223c2.067-0.185,4.143-0.326,6.223-0.443c0.745-0.041,1.487-0.098,2.233-0.131
	c2.768-0.122,5.544-0.197,8.333-0.197c2.787,0,5.564,0.076,8.332,0.197c0.747,0.033,1.489,0.09,2.234,0.131
	c2.08,0.117,4.154,0.258,6.22,0.443c0.76,0.068,1.517,0.146,2.274,0.223c2.145,0.219,4.281,0.472,6.409,0.763
	c0.596,0.082,1.191,0.16,1.786,0.247c2.556,0.375,5.099,0.798,7.623,1.278c0.149,0.028,0.299,0.051,0.449,0.08
	c5.579,1.076,11.076,2.41,16.473,3.981c0.42,0.123,0.836,0.258,1.256,0.385c1.483,0.444,2.946,0.931,4.412,1.411
	C187.233,110.826,187.489,113.55,187.489,116.223z M202.195,90.11l-14.549,14.549c-1.248-0.408-2.503-0.79-3.758-1.17
	c-0.354-0.108-0.705-0.225-1.06-0.331c-5.602-1.662-11.286-3.056-17.037-4.182c-0.218-0.042-0.438-0.077-0.658-0.12
	c-1.434-0.275-2.871-0.542-4.313-0.784l12.274-24.098C183.141,78.008,192.884,83.412,202.195,90.11z M169.782,72.707L157.154,97.5
	c-0.527-0.077-1.057-0.14-1.586-0.213c-2.195-0.304-4.397-0.571-6.61-0.799c-0.778-0.08-1.556-0.161-2.336-0.231
	c-2.139-0.194-4.286-0.344-6.438-0.466c-0.769-0.044-1.534-0.103-2.304-0.137c-2.278-0.102-4.563-0.153-6.853-0.173V65.385
	C144.234,65.589,157.233,68.077,169.782,72.707z M127.501,65.385V95.48c-2.29,0.021-4.575,0.071-6.852,0.173
	c-0.769,0.034-1.533,0.093-2.302,0.137c-2.153,0.122-4.301,0.272-6.442,0.466c-0.778,0.07-1.555,0.151-2.332,0.231
	c-2.215,0.228-4.42,0.495-6.619,0.8c-0.365,0.051-0.737,0.081-1.102,0.133L89.181,72.54
	C101.594,68.013,114.446,65.588,127.501,65.385z M85.87,73.809l12.315,24.178c-1.606,0.265-3.203,0.564-4.799,0.871
	c-0.215,0.041-0.43,0.076-0.645,0.117c-5.752,1.125-11.436,2.52-17.038,4.183c-0.358,0.105-0.709,0.224-1.065,0.332
	c-1.285,0.389-2.568,0.78-3.844,1.197l-14.53-14.529C65.73,83.34,75.645,77.869,85.87,73.809z M53.407,92.285l13.662,13.661
	c-20.921,7.347-40.062,18.433-56.274,32.679C23.297,119.738,37.707,104.154,53.407,92.285z M129.265,198.948
	c-47.871,0-93.089-18.199-124.36-49.989c17.389-17.678,39.1-31.136,63.174-39.616c-0.335,2.304-0.566,4.607-0.566,6.879
	c0,29.995,27.701,54.397,61.751,54.397c34.049,0,61.75-24.402,61.75-54.397c0-2.271-0.23-4.575-0.564-6.879
	c24.072,8.48,45.782,21.937,63.172,39.616C222.354,180.75,177.135,198.948,129.265,198.948z"/>
</svg>
