<?xml version="1.0" encoding="utf-8"?>
<!-- Generator: Adobe Illustrator 16.0.3, SVG Export Plug-In . SVG Version: 6.00 Build 0)  -->
<!DOCTYPE svg PUBLIC "-//W3C//DTD SVG 1.1//EN" "http://www.w3.org/Graphics/SVG/1.1/DTD/svg11.dtd">
<svg version="1.1" id="Capa_1" xmlns="http://www.w3.org/2000/svg" xmlns:xlink="http://www.w3.org/1999/xlink" x="0px" y="0px"
	 width="242.814px" height="242.814px" viewBox="0 0 242.814 242.814" enable-background="new 0 0 242.814 242.814"
	 xml:space="preserve">
<path fill="#FFFFFF" d="M241.484,117.884c-0.832-32.008-14.078-61.728-37.299-83.684c-6.396-6.048-13.439-11.382-20.936-15.855
	C165.021,7.477,144.008,1.732,122.48,1.732c-8.248,0-16.418,0.845-24.387,2.477l0.145-0.193l-1.301,0.278
	c-6.893,1.476-13.629,3.621-20.137,6.35C60.973,17.049,46.553,26.75,34.729,39.251c-45.496,48.118-43.51,124.141,4.426,169.467
	c6.391,6.045,13.432,11.377,20.932,15.848l0.053,0.031l0.006,0.006c3.504,2.088,7.113,3.98,10.807,5.686
	c15.4,7.373,32.293,11.264,49.74,11.264c0.416,0,0.832-0.002,1.248-0.006c19.479-0.205,38.168-5.088,54.854-13.992
	c11.803-6.107,22.592-14.15,31.805-23.895C230.639,180.35,242.318,149.887,241.484,117.884z M207.393,202.523
	c-22.238,23.52-53.779,37.01-86.535,37.01c-21.227,0-41.949-5.668-59.924-16.387c-5.998-3.578-11.693-7.725-17-12.34
	c-21.668-19.381-36.48-46.715-39.859-77.408c-0.268-2.784-0.443-5.589-0.516-8.414c-0.203-7.77,0.344-15.445,1.6-22.944
	c3.121-17.901,10.213-34.615,20.385-49.04c3.148-4.398,6.611-8.614,10.391-12.611C51.887,23.519,72.629,11.81,95.174,6.539
	C81.137,26.357,73.111,52.036,73.111,77.445c0,65.625,53.346,119.016,118.916,119.016c7.553,0,14.961-1.615,22.123-3.178
	c0.455-0.098,0.908-0.197,1.361-0.295C212.988,196.281,210.283,199.467,207.393,202.523z M216.438,191.766
	c-0.83,0.178-1.662,0.359-2.5,0.541c-7.111,1.551-14.465,3.154-21.91,3.154c-65.02,0-117.916-52.942-117.916-118.016
	c0-25.596,8.207-51.461,22.529-71.232c8.422-1.858,17.082-2.83,25.832-2.83c21.229,0,41.951,5.666,59.93,16.385
	c7.395,4.411,14.34,9.671,20.645,15.635c22.898,21.65,35.963,50.958,36.785,82.523C240.529,144.778,232.293,170.523,216.438,191.766
	z"/>
</svg>
