<?xml version="1.0" encoding="utf-8"?>
<!-- Generator: Adobe Illustrator 16.0.3, SVG Export Plug-In . SVG Version: 6.00 Build 0)  -->
<!DOCTYPE svg PUBLIC "-//W3C//DTD SVG 1.1//EN" "http://www.w3.org/Graphics/SVG/1.1/DTD/svg11.dtd">
<svg version="1.1" id="Capa_1" xmlns="http://www.w3.org/2000/svg" xmlns:xlink="http://www.w3.org/1999/xlink" x="0px" y="0px"
	 width="373.33px" height="373.33px" viewBox="0 0 373.33 373.33" enable-background="new 0 0 373.33 373.33" xml:space="preserve">
<g>
	<path fill="#FFFFFF" d="M266.029,77.672c-2.308,0.964-4.966-0.131-5.929-2.444c-0.959-2.312,0.136-4.964,2.446-5.926
		c2.315-0.961,4.967,0.134,5.926,2.442C269.438,74.057,268.347,76.713,266.029,77.672"/>
</g>
<g>
	<path fill="#FFFFFF" d="M319.055,114.064c-2.313-0.956-3.416-3.605-2.463-5.922c0.957-2.311,3.604-3.416,5.917-2.46
		c2.317,0.956,3.422,3.605,2.468,5.919C324.019,113.915,321.373,115.021,319.055,114.064"/>
</g>
<path fill="#FFFFFF" d="M261.48,130.224c-2.313-0.956-4.963,0.149-5.915,2.465c-0.954,2.311,0.146,4.963,2.459,5.918
	c2.315,0.955,4.967-0.149,5.923-2.464C264.897,133.824,263.796,131.18,261.48,130.224z"/>
<g>
	<path fill="#FFFFFF" d="M155.976,324.348c-0.957-2.313,0.135-4.97,2.445-5.928c2.309-0.964,4.965,0.132,5.926,2.443
		c0.961,2.313-0.131,4.967-2.438,5.927C159.593,327.755,156.94,326.66,155.976,324.348"/>
</g>
<g>
	<path fill="#FFFFFF" d="M5.128,216.932c2.308,0.964,4.967-0.131,5.928-2.444c0.961-2.312-0.135-4.964-2.445-5.926
		c-2.316-0.961-4.967,0.134-5.926,2.442C1.72,213.316,2.812,215.973,5.128,216.932"/>
</g>
<g>
	<path fill="#FFFFFF" d="M56.319,280.896c2.314-0.956,3.416-3.605,2.464-5.922c-0.956-2.311-3.604-3.416-5.919-2.46
		c-2.315,0.956-3.42,3.605-2.466,5.919C51.355,280.747,54.001,281.854,56.319,280.896"/>
</g>
<path fill="#FFFFFF" d="M101.422,70.365c-0.953-2.316-3.603-3.421-5.915-2.465c-2.316,0.956-3.419,3.6-2.467,5.919
	c0.957,2.315,3.607,3.418,5.922,2.464C101.274,75.328,102.376,72.676,101.422,70.365z"/>
<g>
	<path fill="#FFFFFF" d="M138.64,273.913c0.957-2.313-0.135-4.97-2.445-5.928c-2.311-0.964-4.965,0.132-5.926,2.443
		c-0.963,2.313,0.131,4.967,2.438,5.927C135.022,277.32,137.675,276.226,138.64,273.913"/>
</g>
<g>
	<polygon fill="#FFFFFF" points="54.234,98.819 55.181,98.816 55.181,80.68 54.234,80.682 	"/>
	<polygon fill="#FFFFFF" points="55.181,2.513 54.234,2.516 54.234,20.652 55.181,20.65 	"/>
	<rect x="24.691" y="50.193" fill="#FFFFFF" width="11.305" height="0.946"/>
	<rect x="73.418" y="50.193" fill="#FFFFFF" width="11.305" height="0.946"/>
	<polygon fill="#FFFFFF" points="55.85,51.139 61.829,51.139 67.536,51.139 67.536,50.193 61.827,50.193 55.85,50.193 
		60.078,45.964 64.114,41.929 63.444,41.261 59.407,45.297 55.181,49.524 55.181,39.24 55.181,30.085 54.234,30.087 54.234,39.245 
		54.234,49.524 50.006,45.295 45.97,41.26 45.302,41.93 49.339,45.966 53.565,50.193 47.585,50.193 41.878,50.193 41.879,51.139 
		47.588,51.139 53.565,51.139 49.337,55.368 45.302,59.403 45.972,60.072 50.008,56.035 54.234,51.809 54.234,62.092 54.234,71.247 
		55.181,71.246 55.181,62.087 55.181,51.808 59.409,56.037 63.444,60.072 64.112,59.403 60.076,55.366 	"/>
</g>
<g>
	<polygon fill="#FFFFFF" points="298.368,372.515 299.314,372.511 299.314,354.374 298.368,354.377 	"/>
	<rect x="298.368" y="276.209" fill="#FFFFFF" width="0.946" height="18.136"/>
	<rect x="268.825" y="323.888" fill="#FFFFFF" width="11.305" height="0.946"/>
	<rect x="317.552" y="323.888" fill="#FFFFFF" width="11.305" height="0.946"/>
	<polygon fill="#FFFFFF" points="299.983,324.834 305.963,324.834 311.67,324.834 311.67,323.888 305.961,323.888 299.983,323.888 
		304.212,319.659 308.248,315.624 307.578,314.956 303.541,318.992 299.314,323.219 299.314,312.935 299.314,303.78 
		298.368,303.782 298.368,312.939 298.368,323.219 294.14,318.99 290.104,314.954 289.436,315.624 293.473,319.661 297.699,323.888 
		291.719,323.888 286.012,323.888 286.013,324.834 291.722,324.834 297.699,324.834 293.471,329.063 289.436,333.099 
		290.105,333.767 294.142,329.729 298.368,325.503 298.368,335.786 298.368,344.942 299.314,344.94 299.314,335.782 
		299.314,325.503 303.543,329.731 307.578,333.767 308.246,333.098 304.21,329.061 	"/>
</g>
<g>
	<rect x="351.438" y="141.676" fill="#FFFFFF" width="0.603" height="11.561"/>
	<rect x="351.438" y="91.85" fill="#FFFFFF" width="0.603" height="11.561"/>
	<rect x="332.606" y="122.241" fill="#FFFFFF" width="7.206" height="0.604"/>
	<rect x="363.666" y="122.241" fill="#FFFFFF" width="7.206" height="0.604"/>
	<polygon fill="#FFFFFF" points="352.468,122.845 356.279,122.845 359.917,122.845 359.917,122.241 356.277,122.241 
		352.468,122.241 355.163,119.546 357.735,116.974 357.309,116.548 354.735,119.121 352.041,121.815 352.041,115.26 
		352.041,109.424 351.438,109.425 351.438,115.263 351.438,121.815 348.743,119.12 346.17,116.547 345.744,116.974 348.317,119.547 
		351.012,122.241 347.199,122.241 343.562,122.241 343.563,122.845 347.202,122.845 351.012,122.845 348.316,125.54 
		345.744,128.113 346.171,128.539 348.744,125.965 351.438,123.271 351.438,129.826 351.438,135.663 352.041,135.661 
		352.041,129.823 352.041,123.271 354.736,125.967 357.309,128.539 357.734,128.112 355.162,125.539 	"/>
</g>
<g>
	<rect x="35.696" y="258.04" fill="#FFFFFF" width="0.604" height="11.561"/>
	<rect x="35.696" y="208.213" fill="#FFFFFF" width="0.604" height="11.561"/>
	<rect x="16.864" y="238.604" fill="#FFFFFF" width="7.207" height="0.604"/>
	<rect x="47.925" y="238.604" fill="#FFFFFF" width="7.205" height="0.604"/>
	<polygon fill="#FFFFFF" points="36.726,239.208 40.538,239.208 44.175,239.208 44.175,238.604 40.536,238.604 36.726,238.604 
		39.421,235.909 41.993,233.338 41.567,232.912 38.993,235.485 36.3,238.179 36.3,231.624 36.3,225.788 35.696,225.789 
		35.696,231.626 35.696,238.179 33.001,235.483 30.429,232.911 30.003,233.338 32.575,235.911 35.271,238.604 31.458,238.604 
		27.819,238.604 27.821,239.208 31.46,239.208 35.271,239.208 32.575,241.903 30.003,244.477 30.429,244.902 33.003,242.329 
		35.696,239.635 35.696,246.189 35.696,252.026 36.3,252.024 36.3,246.187 36.3,239.635 38.995,242.331 41.567,244.902 
		41.993,244.476 39.421,241.903 	"/>
</g>
<g>
	<rect x="84.423" y="317.463" fill="#FFFFFF" width="0.604" height="11.561"/>
	<rect x="84.423" y="267.637" fill="#FFFFFF" width="0.604" height="11.561"/>
	<rect x="65.591" y="298.028" fill="#FFFFFF" width="7.207" height="0.604"/>
	<rect x="96.651" y="298.028" fill="#FFFFFF" width="7.205" height="0.604"/>
	<polygon fill="#FFFFFF" points="85.452,298.632 89.265,298.632 92.901,298.632 92.901,298.028 89.263,298.028 85.452,298.028 
		88.147,295.333 90.72,292.762 90.294,292.336 87.72,294.909 85.026,297.603 85.026,291.048 85.026,285.212 84.423,285.213 
		84.423,291.05 84.423,297.603 81.728,294.907 79.155,292.335 78.729,292.762 81.302,295.335 83.997,298.028 80.185,298.028 
		76.546,298.028 76.548,298.632 80.187,298.632 83.997,298.632 81.302,301.327 78.729,303.9 79.155,304.326 81.729,301.753 
		84.423,299.059 84.423,305.613 84.423,311.45 85.026,311.448 85.026,305.61 85.026,299.059 87.722,301.755 90.294,304.326 
		90.72,303.899 88.147,301.327 	"/>
</g>
</svg>
