<?xml version="1.0" encoding="utf-8"?>
<!-- Generator: Adobe Illustrator 16.0.3, SVG Export Plug-In . SVG Version: 6.00 Build 0)  -->
<!DOCTYPE svg PUBLIC "-//W3C//DTD SVG 1.1//EN" "http://www.w3.org/Graphics/SVG/1.1/DTD/svg11.dtd">
<svg version="1.1" id="Capa_1" xmlns="http://www.w3.org/2000/svg" xmlns:xlink="http://www.w3.org/1999/xlink" x="0px" y="0px"
	 width="83.075px" height="82.869px" viewBox="0 0 83.075 82.869" enable-background="new 0 0 83.075 82.869" xml:space="preserve">
<g>
	<path fill="#FFFFFF" d="M41.696,81.442c-21.918,0-39.75-17.832-39.75-39.75s17.832-39.75,39.75-39.75s39.75,17.832,39.75,39.75
		S63.614,81.442,41.696,81.442z M41.696,2.942c-21.367,0-38.75,17.383-38.75,38.75s17.383,38.75,38.75,38.75
		s38.75-17.383,38.75-38.75S63.063,2.942,41.696,2.942z"/>
</g>
<polygon fill="#FFFFFF" points="62.784,41.192 42.196,41.192 42.196,20.604 41.196,20.604 41.196,41.192 20.606,41.192 
	20.606,42.192 41.196,42.192 41.196,62.781 42.196,62.781 42.196,42.192 62.784,42.192 "/>
</svg>
