<?xml version="1.0" encoding="utf-8"?>
<!-- Generator: Adobe Illustrator 16.0.3, SVG Export Plug-In . SVG Version: 6.00 Build 0)  -->
<!DOCTYPE svg PUBLIC "-//W3C//DTD SVG 1.1//EN" "http://www.w3.org/Graphics/SVG/1.1/DTD/svg11.dtd">
<svg version="1.1" id="Capa_1" xmlns="http://www.w3.org/2000/svg" xmlns:xlink="http://www.w3.org/1999/xlink" x="0px" y="0px"
	 width="221.039px" height="220.492px" viewBox="0 0 221.039 220.492" enable-background="new 0 0 221.039 220.492"
	 xml:space="preserve">
<g>
	<path d="M111.196,219.497c-60.239,0-109.249-49.01-109.25-109.251c0-60.24,49.01-109.25,109.251-109.25
		c60.24,0.001,109.25,49.011,109.25,109.25C220.446,170.486,171.438,219.498,111.196,219.497z M111.196,3.745
		C52.472,3.744,4.694,51.521,4.694,110.246c0.001,58.728,47.777,106.504,106.501,106.503
		c58.727,0.001,106.503-47.775,106.502-106.502C217.699,51.521,169.923,3.744,111.196,3.745z"/>
</g>
<polygon points="169.155,108.872 112.57,108.872 112.571,52.288 109.823,52.287 109.822,108.872 53.232,108.872 53.232,111.622 
	109.822,111.622 109.823,168.209 112.57,168.208 112.57,111.621 169.155,111.622 "/>
</svg>
