<?xml version="1.0" encoding="utf-8"?>
<!-- Generator: Adobe Illustrator 16.0.3, SVG Export Plug-In . SVG Version: 6.00 Build 0)  -->
<!DOCTYPE svg PUBLIC "-//W3C//DTD SVG 1.1//EN" "http://www.w3.org/Graphics/SVG/1.1/DTD/svg11.dtd">
<svg version="1.1" id="Capa_1" xmlns="http://www.w3.org/2000/svg" xmlns:xlink="http://www.w3.org/1999/xlink" x="0px" y="0px"
	 width="259.722px" height="309.89px" viewBox="0 0 259.722 309.89" enable-background="new 0 0 259.722 309.89"
	 xml:space="preserve">
<path d="M242.751,103.289h-57.828l-3.316-43.62c-0.014-0.541-2.049-52.937-51.321-54.878V4.697c-0.482,0-0.93,0.039-1.404,0.045
	c-0.473-0.006-0.92-0.045-1.402-0.045v0.094C78.208,6.732,76.172,59.124,76.166,59.508l-3.323,43.78H18.331L5.578,305.153h249.925
	L242.751,103.289z M82.739,59.85c0.06-1.961,1.95-47.559,46.142-48.523c44.194,0.965,46.085,46.563,46.151,48.682l3.287,43.28
	H79.445L82.739,59.85z M22.968,108.228h215.146l12.129,191.985H10.839L22.968,108.228z"/>
<path d="M168.872,151.647c-1.638-5.439-4.714-9.743-9.228-12.918c-4.513-3.171-10.788-4.759-18.834-4.759h-16.283h-3.064h-0.957
	c-0.767,0-1.358,0.194-1.777,0.583s-0.665,0.972-0.736,1.748L105.679,269.94c2.847,0,4.889-0.03,6.127-0.097
	c1.235-0.064,1.996-0.259,2.288-0.583c0.287-0.322,0.468-0.874,0.539-1.651l5.104-55.941h13.13c5.146,0,9.889-0.841,14.223-2.525
	c4.328-1.682,8.153-4.206,11.472-7.575c3.313-3.366,5.965-7.605,7.95-12.723c1.983-5.114,3.283-11.233,3.898-18.356
	C171.025,163.368,170.513,157.086,168.872,151.647z M161.248,169.712c-0.634,7.253-2.066,13.372-4.3,18.355
	c-2.237,4.986-5.204,8.774-8.903,11.363c-3.702,2.592-8.383,3.885-14.041,3.885H120.5l5.602-61.381h14.378
	c6.005,0,10.591,1.263,13.755,3.788s5.237,5.894,6.212,10.101C161.422,160.033,161.689,164.661,161.248,169.712z"/>
</svg>
