<?xml version="1.0" encoding="utf-8"?>
<!-- Generator: Adobe Illustrator 16.0.3, SVG Export Plug-In . SVG Version: 6.00 Build 0)  -->
<!DOCTYPE svg PUBLIC "-//W3C//DTD SVG 1.1//EN" "http://www.w3.org/Graphics/SVG/1.1/DTD/svg11.dtd">
<svg version="1.1" id="Capa_1" xmlns="http://www.w3.org/2000/svg" xmlns:xlink="http://www.w3.org/1999/xlink" x="0px" y="0px"
	 width="259.721px" height="309.89px" viewBox="0 0 259.721 309.89" enable-background="new 0 0 259.721 309.89"
	 xml:space="preserve">
<path d="M242.75,103.289h-57.828l-3.316-43.62c-0.014-0.541-2.049-52.937-51.321-54.878V4.697c-0.482,0-0.93,0.039-1.404,0.045
	c-0.473-0.006-0.92-0.045-1.402-0.045v0.094C78.208,6.732,76.171,59.124,76.166,59.508l-3.323,43.78H18.331L5.578,305.153h249.925
	L242.75,103.289z M82.739,59.85c0.06-1.961,1.95-47.559,46.142-48.523c44.194,0.965,46.085,46.563,46.151,48.682l3.287,43.28H79.445
	L82.739,59.85z M22.967,108.228h215.146l12.129,191.985H10.838L22.967,108.228z"/>
<g>
	<path d="M105.678,269.94V136.302c0-0.776,0.193-1.359,0.582-1.748s0.972-0.583,1.748-0.583h4.08c1.165,0,1.941,0.777,2.33,2.331
		v131.308c0,0.777-0.13,1.329-0.389,1.651c-0.26,0.324-1.004,0.519-2.232,0.583C110.565,269.91,108.525,269.94,105.678,269.94z
		 M109.952,211.668c-1.815,0-2.623-0.292-2.428-0.874c0.193-0.583,0.291-1.326,0.291-2.234v-71.286c0-0.646,0.03-1.36,0.097-2.137
		c0.063-0.777,0.419-1.166,1.068-1.166h19.618c8.158,0,14.666,1.588,19.521,4.759c4.856,3.175,8.353,7.479,10.489,12.918
		c2.137,5.438,3.205,11.721,3.205,18.841c0,7.123-0.776,13.242-2.331,18.356c-1.554,5.117-3.854,9.356-6.896,12.723
		c-3.044,3.369-6.671,5.894-10.878,7.575c-4.209,1.685-8.904,2.525-14.082,2.525H109.952z M113.448,203.315h14.568
		c5.696,0,10.295-1.293,13.791-3.885c3.496-2.589,6.148-6.377,7.964-11.363c1.812-4.983,2.72-11.103,2.72-18.355
		c0-5.051-0.68-9.679-2.04-13.889c-1.359-4.207-3.757-7.575-7.187-10.101c-3.434-2.525-8.191-3.788-14.277-3.788h-15.539V203.315z"
		/>
</g>
</svg>
