<?xml version="1.0" encoding="utf-8"?>
<!-- Generator: Adobe Illustrator 16.0.3, SVG Export Plug-In . SVG Version: 6.00 Build 0)  -->
<!DOCTYPE svg PUBLIC "-//W3C//DTD SVG 1.1//EN" "http://www.w3.org/Graphics/SVG/1.1/DTD/svg11.dtd">
<svg version="1.1" id="Capa_1" xmlns="http://www.w3.org/2000/svg" xmlns:xlink="http://www.w3.org/1999/xlink" x="0px" y="0px"
	 width="259.721px" height="309.89px" viewBox="0 0 259.721 309.89" enable-background="new 0 0 259.721 309.89"
	 xml:space="preserve">
<path d="M242.75,103.289h-57.828l-3.316-43.62c-0.014-0.541-2.049-52.937-51.321-54.878V4.697c-0.482,0-0.93,0.039-1.404,0.045
	c-0.473-0.006-0.92-0.045-1.402-0.045v0.094C78.207,6.732,76.171,59.124,76.165,59.508l-3.323,43.78H18.33L5.577,305.153h249.925
	L242.75,103.289z M82.738,59.85c0.06-1.961,1.95-47.559,46.142-48.523c44.194,0.965,46.085,46.563,46.151,48.682l3.287,43.28H79.444
	L82.738,59.85z M22.967,108.228h215.147l12.129,191.985H10.838L22.967,108.228z"/>
<g>
	<path d="M125.534,271.883c-6.216,0-11.557-1.165-16.025-3.496s-8.128-6.183-10.975-11.558c-2.85-5.372-4.953-12.626-6.313-21.755
		c-1.36-9.13-2.04-20.493-2.04-34.09c0-16.705,1.36-30.107,4.079-40.208s6.862-17.415,12.432-21.949
		c5.566-4.531,12.559-6.799,20.978-6.799c6.216,0,11.524,1.199,15.928,3.594c4.401,2.397,7.964,6.282,10.684,11.654
		c2.719,5.375,4.692,12.432,5.924,21.173c1.229,8.74,1.845,19.521,1.845,32.341c0,17.354-1.263,31.209-3.788,41.568
		c-2.525,10.361-6.477,17.87-11.849,22.532C141.04,269.552,134.081,271.883,125.534,271.883z M125.728,262.947
		c6.474,0,11.654-2.006,15.54-6.021c3.885-4.012,6.765-10.586,8.644-19.715c1.875-9.13,2.816-21.334,2.816-36.615
		c0-14.89-0.844-26.675-2.525-35.352c-1.685-8.674-4.371-14.89-8.061-18.647c-3.691-3.754-8.58-5.633-14.666-5.633
		c-6.346,0-11.557,2.009-15.636,6.021c-4.079,4.016-7.124,10.619-9.129,19.813c-2.009,9.196-3.011,21.561-3.011,37.101
		c0,14.374,0.874,25.867,2.622,34.478c1.748,8.613,4.531,14.859,8.353,18.744C114.492,261.005,119.512,262.947,125.728,262.947z"/>
</g>
</svg>
