<?xml version="1.0" encoding="utf-8"?>
<!-- Generator: Adobe Illustrator 16.0.3, SVG Export Plug-In . SVG Version: 6.00 Build 0)  -->
<!DOCTYPE svg PUBLIC "-//W3C//DTD SVG 1.1//EN" "http://www.w3.org/Graphics/SVG/1.1/DTD/svg11.dtd">
<svg version="1.1" id="Capa_1" xmlns="http://www.w3.org/2000/svg" xmlns:xlink="http://www.w3.org/1999/xlink" x="0px" y="0px"
	 width="259.721px" height="309.89px" viewBox="0 0 259.721 309.89" enable-background="new 0 0 259.721 309.89"
	 xml:space="preserve">
<path d="M242.752,103.289h-57.829l-3.316-43.62c-0.015-0.541-2.049-52.937-51.322-54.878V4.697c-0.482,0-0.93,0.039-1.404,0.045
	c-0.472-0.006-0.919-0.045-1.401-0.045v0.094C78.207,6.732,76.171,59.124,76.165,59.508l-3.323,43.78H18.33L5.577,305.153h249.927
	L242.752,103.289z M82.738,59.85c0.06-1.961,1.95-47.559,46.142-48.523c44.195,0.965,46.085,46.563,46.152,48.682l3.287,43.28
	H79.444L82.738,59.85z M22.967,108.228h215.148l12.128,191.985H10.838L22.967,108.228z"/>
<g>
	<path d="M96.678,269.94V136.302c0-0.776,0.127-1.326,0.388-1.651c0.258-0.321,1.001-0.516,2.234-0.582
		c1.229-0.064,3.269-0.098,6.119-0.098v133.639c0,0.777-0.097,1.329-0.292,1.651c-0.194,0.324-0.907,0.519-2.137,0.583
		C101.759,269.91,99.655,269.94,96.678,269.94z M101.534,200.014v-8.547h53.222v8.547H101.534z M150.483,269.94V136.302
		c0-0.776,0.127-1.326,0.389-1.651c0.258-0.321,1.001-0.516,2.234-0.582c1.229-0.064,3.269-0.098,6.119-0.098v133.639
		c0,0.777-0.097,1.329-0.292,1.651c-0.194,0.324-0.907,0.519-2.137,0.583C155.564,269.91,153.46,269.94,150.483,269.94z"/>
</g>
</svg>
