<?xml version="1.0" encoding="utf-8"?>
<!-- Generator: Adobe Illustrator 16.0.3, SVG Export Plug-In . SVG Version: 6.00 Build 0)  -->
<!DOCTYPE svg PUBLIC "-//W3C//DTD SVG 1.1//EN" "http://www.w3.org/Graphics/SVG/1.1/DTD/svg11.dtd">
<svg version="1.1" id="Capa_1" xmlns="http://www.w3.org/2000/svg" xmlns:xlink="http://www.w3.org/1999/xlink" x="0px" y="0px"
	 width="259.722px" height="309.89px" viewBox="0 0 259.722 309.89" enable-background="new 0 0 259.722 309.89"
	 xml:space="preserve">
<path d="M242.751,103.289h-57.828l-3.316-43.62c-0.014-0.541-2.049-52.937-51.321-54.878V4.697c-0.482,0-0.93,0.039-1.404,0.045
	c-0.473-0.006-0.92-0.045-1.402-0.045v0.094C78.208,6.732,76.172,59.124,76.166,59.508l-3.323,43.78H18.331L5.578,305.153h249.925
	L242.751,103.289z M82.739,59.85c0.06-1.961,1.95-47.559,46.142-48.523c44.194,0.965,46.085,46.563,46.151,48.682l3.287,43.28
	H79.445L82.739,59.85z M22.968,108.228h215.146l12.129,191.985H10.839L22.968,108.228z"/>
<g>
	<path d="M105.679,269.94V137.273c0-1.035,0.321-1.846,0.972-2.429c0.646-0.582,1.941-0.874,3.885-0.874h19.424
		c3.623,0,7.348,0.389,11.169,1.166c3.817,0.776,7.314,2.203,10.489,4.273c3.172,2.072,5.76,5.02,7.77,8.838
		c2.006,3.821,3.01,8.904,3.01,15.248c0,7.77-1.067,13.857-3.204,18.259c-2.137,4.403-4.695,7.608-7.673,9.614
		c-2.98,2.01-5.827,3.205-8.547,3.594c2.07,0,4.435,0.422,7.09,1.263c2.652,0.844,5.245,2.268,7.77,4.273
		c2.525,2.009,4.596,4.855,6.217,8.547c1.617,3.69,2.428,8.516,2.428,14.471c0,8.158-0.844,15.023-2.525,20.59
		c-1.685,5.569-3.951,10.037-6.799,13.402c-2.85,3.369-5.957,5.958-9.323,7.77c-3.369,1.815-6.671,3.045-9.906,3.69
		c-3.238,0.65-6.216,0.972-8.935,0.972H105.679z M114.42,191.855h16.51c4.143,0,7.867-0.808,11.17-2.429
		c3.301-1.617,5.954-4.434,7.963-8.449c2.006-4.013,3.012-9.451,3.012-16.316c0-6.216-1.136-10.941-3.4-14.18
		c-2.267-3.235-5.18-5.469-8.74-6.701c-3.563-1.229-7.284-1.846-11.169-1.846H114.42V191.855z M114.42,261.977h14.568
		c3.496,0,6.895-0.583,10.197-1.748c3.302-1.166,6.279-3.172,8.936-6.021c2.652-2.847,4.758-6.701,6.313-11.558
		c1.554-4.856,2.33-10.975,2.33-18.355c0-5.828-0.713-10.359-2.137-13.598c-1.426-3.235-3.398-5.663-5.924-7.284
		c-2.525-1.617-5.473-2.622-8.838-3.011c-3.369-0.388-6.992-0.582-10.877-0.582H114.42V261.977z"/>
</g>
</svg>
