<?xml version="1.0" encoding="utf-8"?>
<!-- Generator: Adobe Illustrator 16.0.3, SVG Export Plug-In . SVG Version: 6.00 Build 0)  -->
<!DOCTYPE svg PUBLIC "-//W3C//DTD SVG 1.1//EN" "http://www.w3.org/Graphics/SVG/1.1/DTD/svg11.dtd">
<svg version="1.1" id="Capa_1" xmlns="http://www.w3.org/2000/svg" xmlns:xlink="http://www.w3.org/1999/xlink" x="0px" y="0px"
	 width="259.722px" height="309.89px" viewBox="0 0 259.722 309.89" enable-background="new 0 0 259.722 309.89"
	 xml:space="preserve">
<path d="M242.751,103.289h-57.828l-3.316-43.62c-0.014-0.541-2.049-52.937-51.321-54.878V4.697c-0.482,0-0.93,0.039-1.404,0.045
	c-0.473-0.006-0.92-0.045-1.402-0.045v0.094C78.208,6.732,76.172,59.124,76.166,59.508l-3.323,43.78H18.331L5.578,305.153h249.925
	L242.751,103.289z M82.739,59.85c0.06-1.961,1.95-47.559,46.142-48.523c44.194,0.965,46.085,46.563,46.151,48.682l3.287,43.28
	H79.445L82.739,59.85z M22.968,108.228h215.146l12.129,191.985H10.839L22.968,108.228z"/>
<g>
	<path d="M134.506,271.883c-5.57,0-10.586-0.907-15.055-2.72c-4.467-1.812-8.288-5.113-11.46-9.906
		c-3.175-4.789-5.603-11.685-7.284-20.687c-1.684-8.999-2.525-20.62-2.525-34.866c0-14.89,0.972-27,2.914-36.323
		c1.942-9.324,4.726-16.541,8.353-21.658c3.624-5.114,7.897-8.674,12.819-10.684c4.92-2.006,10.423-3.011,16.512-3.011
		c5.826,0,10.649,0.874,14.471,2.622c3.818,1.749,5.73,3.725,5.73,5.925c0,0.907-0.098,1.846-0.292,2.816
		c-0.194,0.972-0.552,1.912-1.068,2.816c-1.942-1.682-4.307-3.011-7.09-3.981c-2.786-0.972-6.185-1.457-10.198-1.457
		c-5.05,0-9.584,0.907-13.596,2.72c-4.016,1.814-7.479,4.986-10.393,9.518c-2.914,4.534-5.147,10.877-6.701,19.035
		c-1.555,8.158-2.331,18.521-2.331,31.079c0,13.47,0.71,24.184,2.137,32.147c1.423,7.964,3.399,13.955,5.925,17.967
		c2.525,4.016,5.438,6.671,8.74,7.964c3.303,1.296,6.896,1.942,10.781,1.942c3.365,0,6.279-0.485,8.74-1.456
		c2.459-0.972,4.434-2.104,5.924-3.399c1.488-1.293,2.361-2.395,2.623-3.303v-53.805h-20.59v-5.244c0-1.682,0.904-2.525,2.719-2.525
		h26.418l-0.195,66.625c-0.776,1.165-2.17,2.688-4.176,4.564c-2.009,1.879-4.792,3.563-8.352,5.051
		C144.442,271.137,139.944,271.883,134.506,271.883z"/>
</g>
</svg>
