<?xml version="1.0" encoding="utf-8"?>
<!-- Generator: Adobe Illustrator 16.0.3, SVG Export Plug-In . SVG Version: 6.00 Build 0)  -->
<!DOCTYPE svg PUBLIC "-//W3C//DTD SVG 1.1//EN" "http://www.w3.org/Graphics/SVG/1.1/DTD/svg11.dtd">
<svg version="1.1" id="Capa_1" xmlns="http://www.w3.org/2000/svg" xmlns:xlink="http://www.w3.org/1999/xlink" x="0px" y="0px"
	 width="259.722px" height="309.89px" viewBox="0 0 259.722 309.89" enable-background="new 0 0 259.722 309.89"
	 xml:space="preserve">
<path d="M242.751,103.289h-57.828l-3.316-43.62c-0.014-0.541-2.049-52.937-51.321-54.878V4.697c-0.482,0-0.93,0.039-1.404,0.045
	c-0.473-0.006-0.92-0.045-1.402-0.045v0.094C78.208,6.732,76.172,59.124,76.166,59.508l-3.323,43.78H18.331L5.578,305.153h249.925
	L242.751,103.289z M82.739,59.85c0.06-1.961,1.95-47.559,46.142-48.523c44.194,0.965,46.085,46.563,46.151,48.682l3.287,43.28
	H79.445L82.739,59.85z M22.968,108.228h215.146l12.129,191.985H10.839L22.968,108.228z"/>
<g>
	<path d="M125.679,269.94V138.633c0-1.554,0.127-2.652,0.389-3.302c0.258-0.646,1.035-1.035,2.33-1.166
		c1.293-0.127,3.366-0.194,6.217-0.194v133.639c0,0.777-0.131,1.329-0.389,1.651c-0.262,0.324-1.005,0.519-2.234,0.583
		C130.759,269.91,128.655,269.94,125.679,269.94z"/>
</g>
</svg>
