<?xml version="1.0" encoding="utf-8"?>
<!-- Generator: Adobe Illustrator 16.0.3, SVG Export Plug-In . SVG Version: 6.00 Build 0)  -->
<!DOCTYPE svg PUBLIC "-//W3C//DTD SVG 1.1//EN" "http://www.w3.org/Graphics/SVG/1.1/DTD/svg11.dtd">
<svg version="1.1" id="Capa_1" xmlns="http://www.w3.org/2000/svg" xmlns:xlink="http://www.w3.org/1999/xlink" x="0px" y="0px"
	 width="259.721px" height="309.89px" viewBox="0 0 259.721 309.89" enable-background="new 0 0 259.721 309.89"
	 xml:space="preserve">
<path d="M242.752,103.289h-57.829l-3.316-43.62c-0.015-0.541-2.048-52.937-51.322-54.878V4.697c-0.482,0-0.929,0.039-1.404,0.045
	c-0.472-0.006-0.919-0.045-1.402-0.045v0.094C78.207,6.732,76.171,59.124,76.166,59.508l-3.324,43.78H18.331L5.577,305.153h249.927
	L242.752,103.289z M82.739,59.85c0.06-1.961,1.95-47.559,46.142-48.523c44.195,0.965,46.084,46.563,46.152,48.682l3.288,43.28
	H79.445L82.739,59.85z M22.967,108.228h215.148l12.128,191.985H10.838L22.967,108.228z"/>
</svg>
