<?xml version="1.0" encoding="utf-8"?>
<!-- Generator: Adobe Illustrator 16.0.3, SVG Export Plug-In . SVG Version: 6.00 Build 0)  -->
<!DOCTYPE svg PUBLIC "-//W3C//DTD SVG 1.1//EN" "http://www.w3.org/Graphics/SVG/1.1/DTD/svg11.dtd">
<svg version="1.1" id="Capa_1" xmlns="http://www.w3.org/2000/svg" xmlns:xlink="http://www.w3.org/1999/xlink" x="0px" y="0px"
	 width="259.722px" height="309.89px" viewBox="0 0 259.722 309.89" enable-background="new 0 0 259.722 309.89"
	 xml:space="preserve">
<path d="M242.751,103.289h-57.828l-3.316-43.62c-0.014-0.541-2.049-52.937-51.321-54.878V4.697c-0.482,0-0.93,0.039-1.404,0.045
	c-0.473-0.006-0.92-0.045-1.402-0.045v0.094C78.208,6.732,76.172,59.124,76.166,59.508l-3.323,43.78H18.331L5.578,305.153h249.925
	L242.751,103.289z M82.739,59.85c0.06-1.961,1.95-47.559,46.142-48.523c44.194,0.965,46.085,46.563,46.151,48.682l3.287,43.28
	H79.445L82.739,59.85z M22.968,108.228h215.146l12.129,191.985H10.839L22.968,108.228z"/>
<g>
	<path d="M92.211,270.135c-0.52,0-1.263,0-2.234,0c-0.971,0-2.039-0.066-3.205-0.194l37.295-135.581
		c0.128-0.777,1.1-1.165,2.914-1.165c0.646,0,1.326,0.033,2.039,0.097c0.711,0.067,1.263,0.164,1.651,0.291l37.489,134.027
		c0.258,0.907,0.16,1.554-0.292,1.942c-0.455,0.389-1.523,0.583-3.205,0.583c-0.649,0-1.427,0-2.331,0
		c-0.907,0-1.941-0.066-3.107-0.194l-22.921-85.854c-1.427-5.439-2.753-10.684-3.981-15.734c-1.232-5.05-2.301-9.581-3.205-13.597
		c-0.908-4.013-1.427-6.993-1.555-8.936c-0.26,1.942-0.811,4.923-1.65,8.936c-0.844,4.016-1.879,8.547-3.107,13.597
		c-1.232,5.051-2.623,10.295-4.177,15.734l-21.949,84.106c-0.261,0.776-0.681,1.296-1.263,1.554
		C94.833,270.004,93.766,270.135,92.211,270.135z M104.254,231.286v-8.353h49.338v8.353H104.254z"/>
</g>
</svg>
