<?xml version="1.0" encoding="utf-8"?>
<!-- Generator: Adobe Illustrator 16.0.3, SVG Export Plug-In . SVG Version: 6.00 Build 0)  -->
<!DOCTYPE svg PUBLIC "-//W3C//DTD SVG 1.1//EN" "http://www.w3.org/Graphics/SVG/1.1/DTD/svg11.dtd">
<svg version="1.1" id="Capa_1" xmlns="http://www.w3.org/2000/svg" xmlns:xlink="http://www.w3.org/1999/xlink" x="0px" y="0px"
	 width="259.721px" height="309.89px" viewBox="0 0 259.721 309.89" enable-background="new 0 0 259.721 309.89"
	 xml:space="preserve">
<path d="M242.752,103.289h-57.829l-3.316-43.62c-0.015-0.541-2.048-52.937-51.322-54.878V4.697c-0.482,0-0.929,0.039-1.404,0.045
	c-0.472-0.006-0.919-0.045-1.402-0.045v0.094C78.207,6.732,76.171,59.124,76.166,59.508l-3.324,43.78H18.331L5.577,305.153h249.927
	L242.752,103.289z M82.739,59.85c0.06-1.961,1.95-47.559,46.142-48.523c44.195,0.965,46.084,46.563,46.152,48.682l3.288,43.28
	H79.445L82.739,59.85z M22.967,108.228h215.148l12.128,191.985H10.838L22.967,108.228z"/>
<g>
	<path d="M126.851,271.883c-9.066,0-15.606-1.199-19.619-3.594c-4.015-2.395-6.021-4.498-6.021-6.313
		c0-1.035,0.225-2.104,0.68-3.205c0.453-1.099,1.196-2.104,2.234-3.011c2.07,1.942,4.823,3.627,8.255,5.051
		c3.43,1.426,8.125,2.136,14.083,2.136c8.805,0,15.151-2.36,19.036-7.09c3.885-4.725,5.827-10.78,5.827-18.161
		c0-5.827-1.038-11.038-3.107-15.637c-2.073-4.595-5.828-9.679-11.266-15.248l-21.561-21.755c-4.404-4.789-7.77-9.29-10.101-13.5
		c-2.331-4.206-3.496-8.838-3.496-13.888c0-7.509,2.816-13.661,8.449-18.453c5.633-4.79,13.5-7.188,23.601-7.188
		c8.546,0,14.729,0.908,18.55,2.72c3.818,1.814,5.73,3.627,5.73,5.438c0,0.907-0.228,1.846-0.68,2.816
		c-0.455,0.972-1.068,1.846-1.845,2.623c-1.554-1.293-4.176-2.556-7.867-3.788c-3.69-1.229-8.255-1.846-13.694-1.846
		c-6.865,0-12.432,1.621-16.705,4.856c-4.273,3.238-6.41,7.448-6.41,12.626c0,4.146,1.068,7.899,3.205,11.266
		c2.137,3.369,4.823,6.799,8.061,10.295l23.892,23.892c5.566,5.827,9.354,11.3,11.363,16.414c2.006,5.116,3.011,10.91,3.011,17.384
		c0,6.735-1.135,12.757-3.399,18.064c-2.267,5.312-5.861,9.488-10.781,12.529C141.352,270.359,134.878,271.883,126.851,271.883z"/>
</g>
</svg>
