<?xml version="1.0" encoding="utf-8"?>
<!-- Generator: Adobe Illustrator 16.0.3, SVG Export Plug-In . SVG Version: 6.00 Build 0)  -->
<!DOCTYPE svg PUBLIC "-//W3C//DTD SVG 1.1//EN" "http://www.w3.org/Graphics/SVG/1.1/DTD/svg11.dtd">
<svg version="1.1" id="Capa_1" xmlns="http://www.w3.org/2000/svg" xmlns:xlink="http://www.w3.org/1999/xlink" x="0px" y="0px"
	 width="259.722px" height="309.89px" viewBox="0 0 259.722 309.89" enable-background="new 0 0 259.722 309.89"
	 xml:space="preserve">
<path d="M242.751,103.289h-57.828l-3.316-43.62c-0.014-0.541-2.049-52.937-51.321-54.878V4.697c-0.482,0-0.93,0.039-1.404,0.045
	c-0.473-0.006-0.92-0.045-1.402-0.045v0.094C78.208,6.732,76.172,59.124,76.166,59.508l-3.323,43.78H18.331L5.578,305.153h249.925
	L242.751,103.289z M82.739,59.85c0.06-1.961,1.95-47.559,46.142-48.523c44.194,0.965,46.085,46.563,46.151,48.682l3.287,43.28
	H79.445L82.739,59.85z M22.968,108.228h215.146l12.129,191.985H10.839L22.968,108.228z"/>
<path d="M154.991,134.068c-1.232,0.066-1.943,0.261-2.137,0.582c-0.195,0.325-0.292,0.875-0.292,1.651v46.424
	c0,0.52,0,2.525,0,6.021s0,7.867,0,13.111c0,5.245,0.03,10.75,0.097,16.511c0.064,5.764,0.098,11.266,0.098,16.511
	c0,5.244,0.03,9.682,0.098,13.306c0.023,1.313,0.051,2.424,0.082,3.347c-1.806-4.282-3.453-8.249-4.938-11.894
	c-2.009-4.92-4.177-10.164-6.507-15.733c-2.331-5.566-4.564-10.941-6.701-16.122c-2.137-5.178-3.952-9.582-5.439-13.209
	c-1.49-3.623-2.364-5.827-2.622-6.604l-23.698-54h-6.021c-1.553,0-2.33,0.777-2.33,2.331V269.94c2.847,0,4.887-0.03,6.119-0.097
	c1.229-0.064,1.973-0.259,2.232-0.583c0.259-0.322,0.389-0.874,0.389-1.651v-47.783c0-0.517,0-2.556,0-6.119
	c0-3.56-0.033-7.964-0.097-13.208c-0.067-5.245-0.097-10.811-0.097-16.705c0-5.891-0.033-11.46-0.098-16.705
	c-0.066-5.244-0.131-9.679-0.194-13.306c-0.011-0.599-0.023-1.141-0.036-1.658c1.502,3.621,2.914,7.042,4.213,10.205
	c2.069,5.051,4.273,10.426,6.604,16.122c2.332,5.7,4.596,11.202,6.799,16.511c2.2,5.312,4.046,9.779,5.536,13.402
	c1.487,3.627,2.36,5.828,2.622,6.604l24.28,54.971h5.827c1.682,0,2.525-0.777,2.525-2.331V133.971
	C158.323,133.971,156.22,134.004,154.991,134.068z"/>
</svg>
