<?xml version="1.0" encoding="utf-8"?>
<!-- Generator: Adobe Illustrator 16.0.3, SVG Export Plug-In . SVG Version: 6.00 Build 0)  -->
<!DOCTYPE svg PUBLIC "-//W3C//DTD SVG 1.1//EN" "http://www.w3.org/Graphics/SVG/1.1/DTD/svg11.dtd">
<svg version="1.1" id="Capa_1" xmlns="http://www.w3.org/2000/svg" xmlns:xlink="http://www.w3.org/1999/xlink" x="0px" y="0px"
	 width="544.126px" height="541.829px" viewBox="0 0 544.126 541.829" enable-background="new 0 0 544.126 541.829"
	 xml:space="preserve">
<g>
	<rect x="271.034" y="0.504" width="1.829" height="35.062"/>
	<rect x="270.951" y="53.803" width="1.829" height="61.872"/>
	<polygon points="270.932,541.328 272.761,541.322 272.761,506.262 270.932,506.266 	"/>
	<polygon points="270.932,488.026 272.761,488.023 272.761,426.152 270.932,426.161 	"/>
	<polygon points="508.566,271.678 543.625,271.678 543.622,269.85 508.564,269.85 	"/>
	<rect x="428.458" y="269.85" width="61.864" height="1.828"/>
	<rect x="434.46" y="91.819" transform="matrix(0.7053 -0.7089 0.7089 0.7053 67.4511 347.7337)" width="35.062" height="1.832"/>
	<rect x="374.008" y="139.101" transform="matrix(0.7054 -0.7088 0.7088 0.7054 20.0399 328.2531)" width="61.866" height="1.832"/>
	<rect x="451.75" y="431.38" transform="matrix(0.7052 -0.709 0.709 0.7052 -184.8361 453.2501)" width="1.828" height="35.061"/>
	<rect x="404.466" y="370.923" transform="matrix(0.705 -0.7092 0.7092 0.705 -165.413 406.0722)" width="1.83" height="61.869"/>
	<g>
		<path d="M474.458,194.088c-2.308,0.964-4.966-0.131-5.929-2.444c-0.959-2.312,0.136-4.964,2.446-5.926
			c2.315-0.961,4.967,0.134,5.926,2.442C477.867,190.473,476.776,193.129,474.458,194.088"/>
	</g>
	<g>
		<path d="M471.266,356.391c-2.313-0.956-3.416-3.605-2.463-5.922c0.957-2.311,3.604-3.416,5.917-2.46
			c2.317,0.956,3.422,3.605,2.468,5.919C476.23,356.241,473.584,357.348,471.266,356.391"/>
	</g>
	<path d="M359.491,71.147c-2.313-0.956-4.963,0.149-5.915,2.465c-0.954,2.311,0.146,4.963,2.459,5.918
		c2.315,0.955,4.967-0.149,5.923-2.464C362.908,74.747,361.806,72.103,359.491,71.147z"/>
	<g>
		<path d="M354.242,468.899c-0.956-2.313,0.136-4.97,2.445-5.928c2.31-0.964,4.965,0.132,5.927,2.443
			c0.961,2.313-0.131,4.967-2.438,5.927C357.86,472.307,355.207,471.212,354.242,468.899"/>
	</g>
	<polygon points="0.504,269.85 0.501,271.678 35.56,271.678 35.563,269.85 	"/>
	<polygon points="53.806,269.85 53.803,271.678 115.667,271.678 115.67,269.85 	"/>
	<rect x="74.603" y="91.818" transform="matrix(0.7053 0.7089 -0.7089 0.7053 92.887 -37.986)" width="35.062" height="1.833"/>
	<rect x="108.252" y="139.1" transform="matrix(0.7054 0.7088 -0.7088 0.7054 140.2381 -57.407)" width="61.866" height="1.833"/>
	<rect x="90.55" y="431.381" transform="matrix(0.7054 0.7088 -0.7088 0.7054 345.1547 67.4298)" width="1.828" height="35.06"/>
	<rect x="137.832" y="370.924" transform="matrix(0.7044 0.7098 -0.7098 0.7044 326.237 20.2983)" width="1.829" height="61.869"/>
	<g>
		<path d="M69.667,194.088c2.308,0.964,4.967-0.131,5.929-2.444c0.96-2.312-0.135-4.964-2.445-5.926
			c-2.316-0.961-4.967,0.134-5.926,2.442C66.259,190.473,67.352,193.129,69.667,194.088"/>
	</g>
	<g>
		<path d="M72.86,356.391c2.313-0.956,3.416-3.605,2.463-5.922c-0.957-2.311-3.605-3.416-5.918-2.46
			c-2.316,0.956-3.421,3.605-2.466,5.919C67.896,356.241,70.541,357.348,72.86,356.391"/>
	</g>
	<path d="M190.551,73.612c-0.953-2.316-3.603-3.421-5.915-2.465c-2.316,0.956-3.419,3.6-2.467,5.919
		c0.956,2.315,3.606,3.418,5.922,2.464C190.403,78.575,191.505,75.923,190.551,73.612z"/>
	<g>
		<path d="M189.884,468.899c0.958-2.313-0.134-4.97-2.446-5.928c-2.31-0.964-4.964,0.132-5.925,2.443
			c-0.963,2.313,0.131,4.967,2.438,5.927C186.266,472.307,188.919,471.212,189.884,468.899"/>
	</g>
	<path d="M185.773,195.66c-45.497,48.118-43.511,124.14,4.426,169.466c6.389,6.045,13.432,11.377,20.932,15.849l0.053,0.031
		l0.005,0.006c18.212,10.848,39.201,16.58,60.705,16.58c33.217,0,65.201-13.677,87.75-37.523
		c22.041-23.311,33.72-53.773,32.887-85.776c-0.832-32.008-14.078-61.728-37.299-83.684c-6.396-6.048-13.44-11.382-20.937-15.855
		c-18.228-10.869-39.242-16.614-60.769-16.614v-0.25c0,0,0,0,0,0v0.25C240.307,158.141,208.322,171.815,185.773,195.66z
		 M333.446,176.176c7.395,4.411,14.341,9.671,20.645,15.635c22.899,21.65,35.963,50.958,36.785,82.523
		c0.819,31.566-10.7,61.609-32.438,84.596c-22.239,23.52-53.78,37.01-86.536,37.01c-21.228,0-41.949-5.667-59.924-16.387
		c-7.392-4.41-14.336-9.668-20.64-15.627c-22.865-21.62-35.911-50.931-36.735-82.534c-0.824-31.602,10.673-61.644,32.375-84.594
		c22.238-23.519,53.78-37.008,86.539-37.008C294.745,159.791,315.468,165.457,333.446,176.176z"/>
</g>
</svg>
