<?xml version="1.0" encoding="utf-8"?>
<!-- Generator: Adobe Illustrator 16.0.3, SVG Export Plug-In . SVG Version: 6.00 Build 0)  -->
<!DOCTYPE svg PUBLIC "-//W3C//DTD SVG 1.1//EN" "http://www.w3.org/Graphics/SVG/1.1/DTD/svg11.dtd">
<svg version="1.1" id="Capa_1" xmlns="http://www.w3.org/2000/svg" xmlns:xlink="http://www.w3.org/1999/xlink" x="0px" y="0px"
	 width="544.126px" height="541.829px" viewBox="0 0 544.126 541.829" enable-background="new 0 0 544.126 541.829"
	 xml:space="preserve">
<g>
	<g>
		<rect x="253.769" y="16.619" transform="matrix(0.0025 1 -1 0.0025 289.1691 -253.8093)" width="36.063" height="2.831"/>
	</g>
	<g>
		<rect x="240.528" y="83.324" transform="matrix(0.0025 1 -1 0.0025 356.0296 -187.4342)" width="62.872" height="2.83"/>
	</g>
</g>
<g>
	<g>
		<rect x="253.896" y="522.381" transform="matrix(0.0023 1 -1 0.0023 795.0837 250.6415)" width="36.063" height="2.829"/>
	</g>
	<g>
		<polygon points="270.426,488.527 270.276,425.663 273.107,425.65 273.255,488.522 		"/>
	</g>
</g>
<g>
	<g>
		<rect x="508.065" y="269.268" width="36.058" height="2.829"/>
	</g>
	<g>
		<polygon points="427.959,272.335 427.956,269.508 490.82,269.355 490.824,272.184 		"/>
	</g>
</g>
<g>
	<g>
		
			<rect x="450.575" y="74.703" transform="matrix(0.7087 0.7055 -0.7055 0.7087 197.0666 -291.8552)" width="2.832" height="36.062"/>
	</g>
	<g>
		
			<rect x="403.524" y="108.584" transform="matrix(0.7086 0.7056 -0.7056 0.7086 216.8128 -244.9372)" width="2.832" height="62.865"/>
	</g>
</g>
<g>
	<g>
		
			<rect x="434.633" y="447.496" transform="matrix(0.7089 0.7053 -0.7053 0.7089 448.4103 -188.5901)" width="36.06" height="2.828"/>
	</g>
	<g>
		
			<rect x="373.946" y="400.443" transform="matrix(0.7088 0.7054 -0.7054 0.7088 401.5105 -168.9384)" width="62.869" height="2.83"/>
	</g>
</g>
<g>
	<g>
		<path d="M474.458,194.088c-2.308,0.964-4.966-0.131-5.929-2.444c-0.959-2.312,0.136-4.964,2.446-5.926
			c2.315-0.961,4.967,0.134,5.926,2.442C477.867,190.473,476.776,193.129,474.458,194.088"/>
	</g>
	<g>
		<path d="M471.266,356.391c-2.313-0.956-3.416-3.605-2.463-5.922c0.957-2.311,3.604-3.416,5.917-2.46
			c2.317,0.956,3.422,3.605,2.468,5.919C476.23,356.241,473.584,357.348,471.266,356.391"/>
	</g>
	<g>
		<path d="M361.958,77.066c-0.956,2.315-3.607,3.418-5.923,2.464c-2.313-0.955-3.413-3.607-2.459-5.918
			c0.952-2.316,3.602-3.421,5.915-2.465C361.806,72.103,362.908,74.747,361.958,77.066"/>
	</g>
	<g>
		<path d="M354.242,468.899c-0.956-2.313,0.136-4.97,2.445-5.928c2.31-0.964,4.965,0.132,5.927,2.443
			c0.961,2.313-0.131,4.967-2.438,5.927C357.86,472.307,355.207,471.212,354.242,468.899"/>
	</g>
</g>
<g>
	<g>
		<rect x="16.618" y="252.653" transform="matrix(-0.0019 1 -1 -0.0019 288.7484 253.1646)" width="2.829" height="36.06"/>
	</g>
	<g>
		<rect x="83.323" y="239.413" transform="matrix(-0.0019 1 -1 -0.0019 355.7418 186.6234)" width="2.827" height="62.864"/>
	</g>
</g>
<g>
	<g>
		
			<rect x="90.719" y="74.703" transform="matrix(-0.7088 0.7054 -0.7054 -0.7088 222.8551 93.4773)" width="2.832" height="36.062"/>
	</g>
	<g>
		
			<rect x="137.77" y="108.584" transform="matrix(-0.7085 0.7057 -0.7057 -0.7085 336.6106 140.989)" width="2.832" height="62.866"/>
	</g>
</g>
<g>
	<g>
		
			<rect x="73.432" y="447.496" transform="matrix(-0.7089 0.7053 -0.7053 -0.7089 472.9286 702.6215)" width="36.06" height="2.828"/>
	</g>
	<g>
		<polygon points="117.462,425.035 162.023,380.688 160.031,378.681 115.469,423.029 		"/>
	</g>
</g>
<g>
	<g>
		<path d="M69.667,194.088c2.308,0.964,4.967-0.131,5.929-2.444c0.96-2.312-0.135-4.964-2.445-5.926
			c-2.316-0.961-4.967,0.134-5.926,2.442C66.259,190.473,67.352,193.129,69.667,194.088"/>
	</g>
	<g>
		<path d="M72.86,356.391c2.313-0.956,3.416-3.605,2.463-5.922c-0.957-2.311-3.605-3.416-5.918-2.46
			c-2.316,0.956-3.421,3.605-2.466,5.919C67.896,356.241,70.541,357.348,72.86,356.391"/>
	</g>
	<g>
		<path d="M182.169,77.066c0.956,2.315,3.606,3.418,5.922,2.464c2.312-0.955,3.414-3.607,2.459-5.918
			c-0.953-2.316-3.603-3.421-5.915-2.465C182.32,72.103,181.217,74.747,182.169,77.066"/>
	</g>
	<g>
		<path d="M189.884,468.899c0.958-2.313-0.134-4.97-2.446-5.928c-2.31-0.964-4.964,0.132-5.925,2.443
			c-0.963,2.313,0.131,4.967,2.438,5.927C186.266,472.307,188.919,471.212,189.884,468.899"/>
	</g>
</g>
<g>
	<path d="M210.881,381.41c-0.005-0.004-0.002-0.002-0.006-0.006c-7.526-4.487-14.597-9.839-21.019-15.915
		c-48.138-45.516-50.131-121.856-4.446-170.173c38.515-40.726,101.235-49.555,149.14-20.991c7.524,4.489,14.599,9.846,21.024,15.921
		c23.316,22.047,36.619,51.892,37.455,84.034c0.837,32.14-10.894,62.728-33.023,86.133
		C321.494,401.14,258.776,409.972,210.881,381.41z M333.19,176.606c-46.847-27.933-108.186-19.296-145.849,20.537
		c-44.681,47.251-42.735,121.908,4.34,166.421c6.279,5.937,13.195,11.172,20.552,15.561
		c46.842,27.936,108.176,19.297,145.841-20.537c21.646-22.89,33.118-52.805,32.302-84.239
		c-0.818-31.431-13.825-60.613-36.629-82.173C347.465,186.232,340.547,180.994,333.19,176.606z"/>
</g>
</svg>
